<svg width="16" height="16" viewBox="0 0 16 16" fill="none" xmlns="http://www.w3.org/2000/svg">
<path d="M6.5 14.5C6.23478 14.5 5.98043 14.3946 5.79289 14.2071C5.60536 14.0196 5.5 13.7652 5.5 13.5V4.5H1.5C1.23478 4.5 0.98043 4.39464 0.792893 4.20711C0.605357 4.01957 0.5 3.76522 0.5 3.5V1.5C0.5 1.23478 0.605357 0.98043 0.792893 0.792893C0.98043 0.605357 1.23478 0.5 1.5 0.5H13.5C13.7652 0.5 14.0196 0.605357 14.2071 0.792893C14.3946 0.98043 14.5 1.23478 14.5 1.5V3.5C14.5 3.76522 14.3946 4.01957 14.2071 4.20711C14.0196 4.39464 13.7652 4.5 13.5 4.5H9.5V6.5" stroke="#949494" stroke-linecap="round" stroke-linejoin="round"/>
<path d="M15 11.5C15 12.1922 14.7947 12.8689 14.4101 13.4445C14.0256 14.0201 13.4789 14.4687 12.8394 14.7336C12.1999 14.9985 11.4961 15.0678 10.8172 14.9327C10.1383 14.7977 9.51461 14.4644 9.02513 13.9749C8.53564 13.4854 8.2023 12.8618 8.06725 12.1828C7.9322 11.5039 8.00152 10.8001 8.26642 10.1606C8.53133 9.52107 8.97993 8.97444 9.55551 8.58986C10.1311 8.20527 10.8078 8 11.5 8C12.4283 8 13.3185 8.36875 13.9749 9.02513C14.6313 9.6815 15 10.5717 15 11.5ZM14 11H12V9H11V11H9V12H11V14H12V12H14V11Z" fill="#FF7C3F"/>
</svg>
