<svg width="16" height="16" viewBox="0 0 16 16" fill="none" xmlns="http://www.w3.org/2000/svg">
<path d="M6.5 14.5C6.23478 14.5 5.98043 14.3946 5.79289 14.2071C5.60536 14.0196 5.5 13.7652 5.5 13.5V4.5H1.5C1.23478 4.5 0.98043 4.39464 0.792893 4.20711C0.605357 4.01957 0.5 3.76522 0.5 3.5V1.5C0.5 1.23478 0.605357 0.98043 0.792893 0.792893C0.98043 0.605357 1.23478 0.5 1.5 0.5H13.5C13.7652 0.5 14.0196 0.605357 14.2071 0.792893C14.3946 0.98043 14.5 1.23478 14.5 1.5V3.5C14.5 3.76522 14.3946 4.01957 14.2071 4.20711C14.0196 4.39464 13.7652 4.5 13.5 4.5H9.5V6.5" stroke="#949494" stroke-linecap="round" stroke-linejoin="round"/>
<path d="M8.5 8.5L14.5 14.5" stroke="#FF7C3F" stroke-linejoin="round"/>
<path d="M14.5 8.5L8.5 14.5" stroke="#FF7C3F" stroke-linejoin="round"/>
<path d="M11.5 8.5V14.5" stroke="#FF7C3F" stroke-linecap="square" stroke-linejoin="round"/>
<path d="M14.5 11.5H8.5" stroke="#FF7C3F" stroke-linecap="square" stroke-linejoin="round"/>
</svg>
