<svg width="16" height="16" viewBox="0 0 16 16" fill="none" xmlns="http://www.w3.org/2000/svg">
<path d="M13.5 12.5C13.7652 12.5 14.0196 12.3946 14.2071 12.2071C14.3946 12.0196 14.5 11.7652 14.5 11.5V1.5C14.5 1.23478 14.3946 0.98043 14.2071 0.792893C14.0196 0.605357 13.7652 0.5 13.5 0.5H3.5C3.23478 0.5 2.98043 0.605357 2.79289 0.792893C2.60536 0.98043 2.5 1.23478 2.5 1.5M2.5 8.5H5.5M7.5 8.5H10.5M6.5 12.5V4.5M0.5 13.5V3.5C0.5 3.23478 0.605357 2.98043 0.792893 2.79289C0.98043 2.60536 1.23478 2.5 1.5 2.5H11.5C11.7652 2.5 12.0196 2.60536 12.2071 2.79289C12.3946 2.98043 12.5 3.23478 12.5 3.5V13.5C12.5 13.7652 12.3946 14.0196 12.2071 14.2071C12.0196 14.3946 11.7652 14.5 11.5 14.5H1.5C1.23478 14.5 0.98043 14.3946 0.792893 14.2071C0.605357 14.0196 0.5 13.7652 0.5 13.5Z" stroke="#949494" stroke-linecap="square" stroke-linejoin="round"/>
</svg>
