<svg width="16" height="16" viewBox="0 0 16 16" fill="none" xmlns="http://www.w3.org/2000/svg">
<g clip-path="url(#clip0_10670_19261)">
<path d="M10.1997 13.8C8.6547 12.2451 7.36422 10.4565 6.37573 8.50002C4.30473 4.67302 3.35273 1.12402 4.24973 0.572021" stroke="#949494" stroke-linecap="round" stroke-linejoin="round"/>
<path d="M1.78125 6.381C3.78906 5.73578 5.89223 5.43784 8.00025 5.5C12.1423 5.5 15.5002 6.4 15.5002 7.5" stroke="#949494" stroke-linecap="round" stroke-linejoin="round"/>
<path d="M12.017 2.31403C11.5393 4.48595 10.7323 6.57206 9.624 8.50003C7.553 12.326 5.147 14.98 4.25 14.427" stroke="#949494" stroke-linecap="round" stroke-linejoin="round"/>
<path d="M15.5 7.50002C15.5 8.60002 12.142 9.50002 8 9.50002C3.858 9.50002 0.5 8.60002 0.5 7.50002C0.5 7.08602 0.972 6.70002 1.781 6.38202" stroke="#FF7C3F" stroke-linecap="round" stroke-linejoin="round"/>
<path d="M4.25002 14.426C3.35002 13.874 4.30502 10.326 6.37602 6.49901C8.44702 2.67201 10.853 0.0200076 11.75 0.572008C12.086 0.779008 12.163 1.40701 12.017 2.31401" stroke="#FF7C3F" stroke-linecap="round" stroke-linejoin="round"/>
<path d="M4.25 0.572008C5.15 0.0200076 7.55 2.67201 9.624 6.49901C11.698 10.326 12.647 13.874 11.75 14.426C11.414 14.633 10.865 14.39 10.202 13.802" stroke="#FF7C3F" stroke-linecap="round" stroke-linejoin="round"/>
<path d="M12 3.80402C12.5523 3.80402 13 3.3563 13 2.80402C13 2.25173 12.5523 1.80402 12 1.80402C11.4477 1.80402 11 2.25173 11 2.80402C11 3.3563 11.4477 3.80402 12 3.80402Z" fill="#FF7C3F" stroke="#FF7C3F" stroke-linecap="round" stroke-linejoin="round"/>
<path d="M9.59961 14.196C10.1519 14.196 10.5996 13.7483 10.5996 13.196C10.5996 12.6437 10.1519 12.196 9.59961 12.196C9.04732 12.196 8.59961 12.6437 8.59961 13.196C8.59961 13.7483 9.04732 14.196 9.59961 14.196Z" fill="#FF7C3F" stroke="#FF7C3F" stroke-linecap="round" stroke-linejoin="round"/>
<path d="M2.5 7.49902C3.05228 7.49902 3.5 7.05131 3.5 6.49902C3.5 5.94674 3.05228 5.49902 2.5 5.49902C1.94772 5.49902 1.5 5.94674 1.5 6.49902C1.5 7.05131 1.94772 7.49902 2.5 7.49902Z" fill="#FF7C3F" stroke="#FF7C3F" stroke-linecap="round" stroke-linejoin="round"/>
</g>
<defs>
<clipPath id="clip0_10670_19261">
<rect width="16" height="16" fill="white"/>
</clipPath>
</defs>
</svg>
