<svg width="17" height="17" viewBox="0 0 17 17" fill="none" xmlns="http://www.w3.org/2000/svg">
<g clip-path="url(#clip0_10670_19301)">
<mask id="mask0_10670_19301" style="mask-type:luminance" maskUnits="userSpaceOnUse" x="0" y="0" width="17" height="17">
<path d="M16.3594 0.501953H0.359375V16.502H16.3594V0.501953Z" fill="white"/>
</mask>
<g mask="url(#mask0_10670_19301)">
<path d="M9.10937 1.25195V3.25195C9.10937 3.66758 8.775 4.00195 8.35937 4.00195C7.94375 4.00195 7.60937 3.66758 7.60937 3.25195V1.25195C7.60937 0.836328 7.94375 0.501953 8.35937 0.501953C8.775 0.501953 9.10937 0.836328 9.10937 1.25195ZM14.0156 3.90508L12.6 5.3207C12.3062 5.61445 11.8312 5.61445 11.5406 5.3207C11.25 5.02695 11.2469 4.55195 11.5406 4.26133L12.9562 2.8457C13.25 2.55195 13.725 2.55195 14.0156 2.8457C14.3062 3.13945 14.3094 3.61445 14.0156 3.90508ZM3.7625 2.8457L5.17812 4.26133C5.47187 4.55508 5.47187 5.03008 5.17812 5.3207C4.88437 5.61133 4.40937 5.61445 4.11875 5.3207L2.70312 3.90508C2.40937 3.61133 2.40937 3.13633 2.70312 2.8457C2.99687 2.55508 3.47187 2.55195 3.7625 2.8457ZM1.10937 7.75195H3.10937C3.525 7.75195 3.85937 8.08633 3.85937 8.50195C3.85937 8.91758 3.525 9.25195 3.10937 9.25195H1.10937C0.69375 9.25195 0.359375 8.91758 0.359375 8.50195C0.359375 8.08633 0.69375 7.75195 1.10937 7.75195ZM13.6094 7.75195H15.6094C16.025 7.75195 16.3594 8.08633 16.3594 8.50195C16.3594 8.91758 16.025 9.25195 15.6094 9.25195H13.6094C13.1937 9.25195 12.8594 8.91758 12.8594 8.50195C12.8594 8.08633 13.1937 7.75195 13.6094 7.75195ZM5.17812 12.7457L3.7625 14.1582C3.46875 14.452 2.99375 14.452 2.70312 14.1582C2.4125 13.8645 2.40937 13.3895 2.70312 13.0988L4.11875 11.6832C4.4125 11.3895 4.8875 11.3895 5.17812 11.6832C5.46875 11.977 5.47187 12.452 5.17812 12.7426V12.7457ZM12.6031 11.6863L14.0156 13.0988C14.3094 13.3926 14.3094 13.8676 14.0156 14.1582C13.7219 14.4488 13.2469 14.452 12.9562 14.1582L11.5406 12.7426C11.2469 12.4488 11.2469 11.9738 11.5406 11.6832C11.8344 11.3926 12.3094 11.3895 12.6 11.6832L12.6031 11.6863ZM9.10937 13.752V15.752C9.10937 16.1676 8.775 16.502 8.35937 16.502C7.94375 16.502 7.60937 16.1676 7.60937 15.752V13.752C7.60937 13.3363 7.94375 13.002 8.35937 13.002C8.775 13.002 9.10937 13.3363 9.10937 13.752ZM10.3594 8.50195C10.3594 7.97152 10.1486 7.46281 9.77359 7.08774C9.39851 6.71267 8.88981 6.50195 8.35937 6.50195C7.82894 6.50195 7.32023 6.71267 6.94516 7.08774C6.57009 7.46281 6.35937 7.97152 6.35937 8.50195C6.35937 9.03239 6.57009 9.54109 6.94516 9.91617C7.32023 10.2912 7.82894 10.502 8.35937 10.502C8.88981 10.502 9.39851 10.2912 9.77359 9.91617C10.1486 9.54109 10.3594 9.03239 10.3594 8.50195ZM4.85937 8.50195C4.85937 7.5737 5.22812 6.68346 5.8845 6.02708C6.54088 5.3707 7.43111 5.00195 8.35937 5.00195C9.28763 5.00195 10.1778 5.3707 10.8342 6.02708C11.4906 6.68346 11.8594 7.5737 11.8594 8.50195C11.8594 9.43021 11.4906 10.3204 10.8342 10.9768C10.1778 11.6332 9.28763 12.002 8.35937 12.002C7.43111 12.002 6.54088 11.6332 5.8845 10.9768C5.22812 10.3204 4.85937 9.43021 4.85937 8.50195Z" fill="#323A3D"/>
</g>
</g>
<defs>
<clipPath id="clip0_10670_19301">
<rect width="17" height="17" fill="white"/>
</clipPath>
</defs>
</svg>
