<svg width="30" height="30" viewBox="0 0 30 30" fill="none" xmlns="http://www.w3.org/2000/svg">
<g clip-path="url(#clip0_10670_19442)">
<mask id="mask0_10670_19442" style="mask-type:luminance" maskUnits="userSpaceOnUse" x="0" y="0" width="30" height="30">
<path d="M30 0H0V30H30V0Z" fill="white"/>
</mask>
<g mask="url(#mask0_10670_19442)">
<path d="M31.1534 -1.15387H-1.1543V31.1538H31.1534V-1.15387Z" stroke="black"/>
<path fill-rule="evenodd" clip-rule="evenodd" d="M22.2754 10.1387C23.2369 11.5777 23.7501 13.2694 23.7501 15H21.2601C21.0411 15 20.9205 15.2544 21.0591 15.4239L24.6273 19.7865C24.7312 19.9135 24.9254 19.9135 25.0292 19.7865L28.5974 15.4239C28.7361 15.2544 28.6155 15 28.3965 15H26C26 14.4963 25.9654 13.9952 25.8973 13.5C25.671 11.8566 25.075 10.2788 24.1462 8.88874C22.9375 7.0798 21.2195 5.6699 19.2095 4.83734C17.1995 4.00477 14.9878 3.78693 12.854 4.21137C10.7202 4.63581 8.76021 5.68346 7.22184 7.22184C5.68346 8.76021 4.63581 10.7202 4.21137 12.854C3.78693 14.9878 4.00477 17.1995 4.83734 19.2095C5.6699 21.2195 7.0798 22.9375 8.88874 24.1462C10.2788 25.075 11.8566 25.671 13.5 25.8973C13.9952 25.9654 14.4963 26 15 26V25.2501V24.5V23.7501C13.2694 23.7501 11.5777 23.2369 10.1387 22.2754C8.69979 21.3139 7.57828 19.9474 6.916 18.3485C6.25373 16.7496 6.08045 14.9903 6.41808 13.2929C6.7557 11.5956 7.58906 10.0365 8.81278 8.81278C10.0365 7.58906 11.5956 6.7557 13.2929 6.41808C14.9903 6.08045 16.7496 6.25373 18.3485 6.916C19.9474 7.57828 21.3139 8.69979 22.2754 10.1387Z" fill="#ACACAC"/>
</g>
</g>
<defs>
<clipPath id="clip0_10670_19442">
<rect width="30" height="30" fill="white"/>
</clipPath>
</defs>
</svg>
