<svg width="16" height="16" viewBox="0 0 16 16" fill="none" xmlns="http://www.w3.org/2000/svg">
<path d="M8.00035 3.99658C4.95379 3.99658 2.36926 5.66768 1.40723 7.99658C2.36926 10.3255 4.95379 11.9966 8.00035 11.9966C11.0469 11.9966 13.6314 10.3255 14.5935 7.99658C13.6314 5.66768 11.0469 3.99658 8.00035 3.99658ZM8.00035 10.9966C6.34348 10.9966 5.00035 9.65346 5.00035 7.99658C5.00035 6.33971 6.34348 4.99658 8.00035 4.99658C9.65723 4.99658 11.0004 6.33971 11.0004 7.99658C11.0004 9.65346 9.65723 10.9966 8.00035 10.9966Z" fill="white"/>
<path d="M6 7.99658C6 8.52701 6.21071 9.03572 6.58579 9.4108C6.96086 9.78587 7.46957 9.99658 8 9.99658C8.53043 9.99658 9.03914 9.78587 9.41421 9.4108C9.78929 9.03572 10 8.52701 10 7.99658C10 7.46615 9.78929 6.95744 9.41421 6.58237C9.03914 6.2073 8.53043 5.99658 8 5.99658C7.46957 5.99658 6.96086 6.2073 6.58579 6.58237C6.21071 6.95744 6 7.46615 6 7.99658Z" fill="white"/>
</svg>
