<svg width="54" height="33" viewBox="0 0 54 33" fill="none" xmlns="http://www.w3.org/2000/svg">
<path d="M45.361 0H4.63896C2.07693 0 0 2.07693 0 4.63896V25.361C0 27.9231 2.07693 30 4.63896 30H45.361C47.9231 30 50 27.9231 50 25.361V4.63896C50 2.07693 47.9231 0 45.361 0Z" fill="#EA4E38"/>
<path d="M0 19H50V25.361C50 27.9231 47.9231 30 45.361 30H4.63896C2.07693 30 0 27.9231 0 25.361V19Z" fill="#C041C2"/>
<path d="M16.0524 4.96417C16.6932 4.96417 17.2647 5.08973 17.767 5.34086C18.2779 5.59198 18.6762 5.94268 18.962 6.39297C19.2477 6.8346 19.3906 7.34118 19.3906 7.9127C19.3906 8.48422 19.2477 8.99512 18.962 9.44541C18.6849 9.88704 18.2909 10.2334 17.7799 10.4845C17.2777 10.727 16.7019 10.8482 16.0524 10.8482H14.2859V14.4722H13.1299V4.96417H16.0524ZM15.9095 9.83508C16.6369 9.83508 17.1954 9.65756 17.5851 9.30253C17.9748 8.93883 18.1696 8.47556 18.1696 7.9127C18.1696 7.34984 17.9748 6.88656 17.5851 6.52286C17.1954 6.15917 16.6369 5.97732 15.9095 5.97732H14.2859V9.83508H15.9095ZM20.8421 4.96417H21.9982V13.433H26.6872V14.4722H20.8421V4.96417ZM31.7842 4.96417L35.603 14.4722H34.3171L33.265 11.7445H29.3293L28.3291 14.4722H27.1601L30.81 4.96417H31.7842ZM32.8623 10.7053L31.2517 6.50987L29.719 10.7053H32.8623Z" fill="white"/>
<path d="M21.3664 20.7625L24.0941 27.554H23.0086L22.3128 25.7355H19.5572L18.8892 27.554H17.8872L20.5129 20.7625H21.3664ZM21.9788 24.8634L20.9025 22.0614L19.882 24.8634H21.9788ZM25.0369 22.9057V21.913L27.0502 20.7532H27.8203V27.554H26.809V21.9037L25.0369 22.9057Z" fill="white"/>
</svg>
