<svg width="289" height="95" viewBox="0 0 289 95" fill="none" xmlns="http://www.w3.org/2000/svg">
<g clip-path="url(#clip0_10670_19417)">
<g filter="url(#filter0_d_10670_19417)">
<path d="M32.9153 3.99902L39.9849 13.6329H25.8457L32.9153 3.99902Z" fill="url(#paint0_linear_10670_19417)"/>
<path d="M280.798 9.08984H8.96151C6.70729 9.08984 4.87988 10.9173 4.87988 13.1715V86.4626C4.87988 88.7168 6.70729 90.5443 8.96151 90.5443H280.798C283.052 90.5443 284.88 88.7168 284.88 86.4626V13.1715C284.88 10.9173 283.052 9.08984 280.798 9.08984Z" fill="white"/>
<path d="M4.87988 12.9786C4.87988 10.7244 6.70729 8.89697 8.96151 8.89697H280.798C283.052 8.89697 284.879 10.7244 284.879 12.9786V33.3867H4.87988V12.9786Z" fill="url(#paint1_linear_10670_19417)"/>
<path d="M70.9991 57.0601H26.9176C24.6633 57.0601 22.8359 58.8875 22.8359 61.1417V69.3049C22.8359 71.5591 24.6633 73.3866 26.9176 73.3866H70.9991C73.2533 73.3866 75.0807 71.5591 75.0807 69.3049V61.1417C75.0807 58.8875 73.2533 57.0601 70.9991 57.0601Z" fill="#C041C2"/>
<path d="M42.2168 62.1545C42.7 62.1545 43.1311 62.2492 43.5098 62.4386C43.8951 62.628 44.1956 62.8925 44.4111 63.232C44.6266 63.5651 44.7343 63.9471 44.7343 64.3782C44.7343 64.8092 44.6266 65.1945 44.4111 65.5341C44.2021 65.8671 43.9049 66.1284 43.5196 66.3178C43.1409 66.5006 42.7066 66.592 42.2168 66.592H40.8845V69.3251H40.0127V62.1545H42.2168ZM42.109 65.828C42.6576 65.828 43.0788 65.6941 43.3727 65.4263C43.6666 65.152 43.8135 64.8027 43.8135 64.3782C43.8135 63.9537 43.6666 63.6043 43.3727 63.33C43.0788 63.0557 42.6576 62.9186 42.109 62.9186H40.8845V65.828H42.109ZM45.829 62.1545H46.7009V68.5414H50.2372V69.3251H45.829V62.1545ZM54.0811 62.1545L56.9611 69.3251H55.9913L55.1979 67.268H52.2297L51.4754 69.3251H50.5938L53.3465 62.1545H54.0811ZM54.8942 66.4843L53.6795 63.3202L52.5236 66.4843H54.8942Z" fill="white"/>
<path d="M134.678 57.0605H90.5963C88.3421 57.0605 86.5146 58.888 86.5146 61.1422V69.3054C86.5146 71.5596 88.3421 73.387 90.5963 73.387H134.678C136.932 73.387 138.759 71.5596 138.759 69.3054V61.1422C138.759 58.888 136.932 57.0605 134.678 57.0605Z" fill="#CECECE"/>
<path d="M108.536 63.2914C108.699 62.8147 108.977 62.4457 109.369 62.1845C109.767 61.9167 110.224 61.7828 110.74 61.7828C111.125 61.7828 111.465 61.8579 111.759 62.0081C112.053 62.1518 112.281 62.3543 112.445 62.6155C112.608 62.8702 112.69 63.1575 112.69 63.4775C112.69 63.8041 112.611 64.0783 112.454 64.3004C112.304 64.5159 112.076 64.7575 111.769 65.0253C111.553 65.2277 111.38 65.4008 111.25 65.5445C111.119 65.6881 111.008 65.8612 110.916 66.0636C110.832 66.2596 110.789 66.4881 110.789 66.7494C110.789 66.9322 110.812 67.1183 110.858 67.3077H110.182C110.097 67.0139 110.054 66.7428 110.054 66.4947C110.054 66.2269 110.097 65.9918 110.182 65.7894C110.273 65.5804 110.381 65.4073 110.505 65.2702C110.629 65.1265 110.796 64.9567 111.005 64.7608C111.259 64.5322 111.449 64.333 111.573 64.1632C111.697 63.9869 111.759 63.7812 111.759 63.5461C111.759 63.2522 111.658 63.0171 111.455 62.8408C111.253 62.6645 110.988 62.5763 110.662 62.5763C109.996 62.5763 109.512 62.9453 109.212 63.6832L108.536 63.2914ZM110.603 69.4334C110.453 69.4334 110.322 69.3779 110.211 69.2669C110.107 69.1559 110.054 69.0253 110.054 68.8751C110.054 68.7183 110.107 68.5845 110.211 68.4734C110.322 68.3624 110.453 68.3069 110.603 68.3069C110.76 68.3069 110.89 68.3624 110.995 68.4734C111.106 68.5845 111.161 68.7183 111.161 68.8751C111.161 69.0253 111.106 69.1559 110.995 69.2669C110.89 69.3779 110.76 69.4334 110.603 69.4334Z" fill="#6B6B6B"/>
<path d="M198.35 57.0605H154.268C152.014 57.0605 150.187 58.888 150.187 61.1422V69.3054C150.187 71.5596 152.014 73.387 154.268 73.387H198.35C200.604 73.387 202.431 71.5596 202.431 69.3054V61.1422C202.431 58.888 200.604 57.0605 198.35 57.0605Z" fill="#CECECE"/>
<path d="M174.467 65.9042V65.1989H178.032V65.9042H174.467Z" fill="#6B6B6B"/>
<path d="M262.022 57.0605H217.94C215.686 57.0605 213.858 58.888 213.858 61.1422V69.3054C213.858 71.5596 215.686 73.387 217.94 73.387H262.022C264.276 73.387 266.103 71.5596 266.103 69.3054V61.1422C266.103 58.888 264.276 57.0605 262.022 57.0605Z" fill="#FFE27A"/>
<path d="M233.239 62.1552C233.722 62.1552 234.153 62.2499 234.532 62.4393C234.917 62.6287 235.218 62.8931 235.433 63.2327C235.649 63.5658 235.756 63.9477 235.756 64.3788C235.756 64.8098 235.649 65.1951 235.433 65.5347C235.224 65.8677 234.927 66.129 234.542 66.3183C234.163 66.5012 233.729 66.5926 233.239 66.5926H231.907V69.3257H231.035V62.1552H233.239ZM233.131 65.8285C233.68 65.8285 234.101 65.6948 234.395 65.427C234.689 65.1527 234.836 64.8032 234.836 64.3788C234.836 63.9543 234.689 63.605 234.395 63.3307C234.101 63.0564 233.68 62.9193 233.131 62.9193H231.907V65.8285H233.131ZM236.851 62.1552H237.723V68.542H241.259V69.3257H236.851V62.1552ZM245.103 62.1552L247.983 69.3257H247.014L246.22 67.2686H243.252L242.498 69.3257H241.616L244.369 62.1552H245.103ZM245.916 66.485L244.702 63.3209L243.546 66.485H245.916Z" fill="#6B6B6B"/>
<path d="M46.5557 47.4612L49.4357 54.6318H48.4659L47.6724 52.5747H44.7043L43.95 54.6318H43.0684L45.821 47.4612H46.5557ZM47.3688 51.791L46.1541 48.6269L44.9982 51.791H47.3688ZM50.4747 49.5674V48.6661L52.5612 47.4514H53.2273V54.6318H52.3457V48.4996L50.4747 49.5674Z" fill="#6B6B6B"/>
<path d="M108.03 47.4612L110.91 54.6318H109.94L109.146 52.5747H106.178L105.424 54.6318H104.542L107.295 47.4612H108.03ZM108.843 51.791L107.628 48.6269L106.472 51.791H108.843ZM112.801 53.858H116.043V54.6318H111.469V54.0735L113.79 51.4874C114.228 51.0041 114.528 50.6253 114.691 50.351C114.855 50.0702 114.936 49.7665 114.936 49.44C114.936 49.022 114.822 48.6988 114.593 48.4702C114.365 48.2416 114.077 48.1274 113.731 48.1274C113.379 48.1274 113.069 48.2482 112.801 48.4898C112.533 48.7249 112.34 49.0384 112.223 49.4302L111.517 49.0286C111.661 48.4931 111.945 48.0784 112.37 47.7845C112.794 47.4841 113.268 47.3339 113.79 47.3339C114.169 47.3339 114.515 47.4155 114.829 47.5788C115.142 47.7355 115.39 47.9706 115.573 48.2841C115.762 48.591 115.857 48.9633 115.857 49.4008C115.857 49.8253 115.753 50.2269 115.544 50.6057C115.335 50.9845 114.969 51.4612 114.446 52.0359L112.801 53.858Z" fill="#6B6B6B"/>
<path d="M174.152 47.4613L177.032 54.6319H176.062L175.268 52.5747H172.3L171.546 54.6319H170.664L173.417 47.4613H174.152ZM174.965 51.791L173.75 48.6269L172.594 51.791H174.965ZM180.882 50.8017C181.313 50.9389 181.633 51.1608 181.842 51.4678C182.058 51.7747 182.165 52.1535 182.165 52.6041C182.165 53.0482 182.061 53.4335 181.852 53.76C181.643 54.08 181.365 54.325 181.019 54.4948C180.673 54.6581 180.294 54.7397 179.883 54.7397C179.36 54.7397 178.877 54.6058 178.433 54.3381C177.995 54.0703 177.702 53.6784 177.551 53.1625L178.257 52.7608C178.381 53.1527 178.593 53.4498 178.893 53.6522C179.2 53.8482 179.53 53.9461 179.883 53.9461C180.268 53.9461 180.588 53.8286 180.843 53.5935C181.104 53.3518 181.235 53.0188 181.235 52.5943C181.235 51.7192 180.637 51.2817 179.442 51.2817H179.138L179.148 50.4981H179.491C179.974 50.4981 180.34 50.3805 180.588 50.1454C180.843 49.9103 180.97 49.6098 180.97 49.2441C180.97 48.898 180.862 48.6269 180.647 48.431C180.431 48.2351 180.154 48.1372 179.814 48.1372C179.462 48.1372 179.161 48.2416 178.913 48.4506C178.671 48.6596 178.485 48.96 178.355 49.3518L177.649 48.9502C177.806 48.4212 178.08 48.0229 178.472 47.7551C178.871 47.4808 179.334 47.3438 179.863 47.3438C180.477 47.3438 180.97 47.5167 181.342 47.8629C181.715 48.209 181.901 48.6629 181.901 49.2245C181.901 49.5837 181.816 49.9005 181.646 50.1748C181.483 50.4491 181.228 50.6581 180.882 50.8017Z" fill="#6B6B6B"/>
<path d="M236.19 47.4612L239.07 54.6318H238.1L237.306 52.5747H234.338L233.584 54.6318H232.702L235.455 47.4612H236.19ZM237.003 51.791L235.788 48.6269L234.632 51.791H237.003ZM243.547 50.2825V52.2906H244.576V53.0449H243.547V54.6318H242.675V53.0449H239.501V52.4376L242.195 47.4514H243.145L240.52 52.2906H242.675V50.2825H243.547Z" fill="#6B6B6B"/>
<path d="M117.093 16.6596L120.234 24.4277H118.6L117.921 22.6555H114.896L114.238 24.4277H112.699L115.745 16.6596H117.093ZM117.422 21.3396L116.382 18.6122L115.374 21.3396H117.422ZM127.638 16.6596H128.805V24.4277H127.341V19.4188L125.367 22.3583H124.56L122.576 19.3975V24.4277H121.122V16.6596H122.342L124.995 20.6816L127.638 16.6596ZM135.681 22.1779C135.681 22.7086 135.543 23.1543 135.267 23.5151C134.998 23.8688 134.645 24.1306 134.206 24.3004C133.774 24.4702 133.311 24.5551 132.816 24.5551C132.094 24.5551 131.443 24.3888 130.863 24.0563C130.283 23.7167 129.897 23.2392 129.706 22.6237L130.959 21.9126C131.128 22.3088 131.376 22.6166 131.702 22.8359C132.027 23.0552 132.416 23.1649 132.869 23.1649C133.237 23.1649 133.527 23.0906 133.739 22.942C133.958 22.7935 134.068 22.5777 134.068 22.2947C134.068 22.0683 133.994 21.8808 133.845 21.7322C133.704 21.5837 133.523 21.4669 133.304 21.382C133.092 21.2971 132.798 21.1981 132.423 21.0849C131.921 20.9363 131.511 20.7913 131.192 20.6498C130.874 20.5012 130.601 20.2819 130.375 19.9918C130.149 19.7018 130.035 19.3197 130.035 18.8457C130.035 18.3434 130.166 17.9189 130.428 17.5722C130.697 17.2185 131.047 16.9567 131.479 16.7869C131.917 16.6101 132.388 16.5216 132.89 16.5216C133.576 16.5216 134.164 16.6773 134.652 16.9886C135.14 17.2999 135.455 17.7208 135.596 18.2514L134.344 18.9624C134.217 18.6299 134.026 18.3717 133.771 18.1877C133.516 17.9967 133.198 17.9012 132.816 17.9012C132.469 17.9012 132.186 17.9826 131.967 18.1453C131.755 18.3009 131.648 18.5096 131.648 18.7714C131.648 18.9695 131.716 19.1358 131.85 19.2702C131.985 19.3975 132.154 19.5037 132.359 19.5886C132.572 19.6664 132.855 19.7584 133.208 19.8645C133.718 20.013 134.139 20.1652 134.471 20.3208C134.804 20.4694 135.087 20.6958 135.32 21C135.561 21.2971 135.681 21.6898 135.681 22.1779ZM144.822 22.1779C144.822 22.7086 144.684 23.1543 144.408 23.5151C144.139 23.8688 143.785 24.1306 143.347 24.3004C142.915 24.4702 142.452 24.5551 141.956 24.5551C141.235 24.5551 140.584 24.3888 140.004 24.0563C139.424 23.7167 139.038 23.2392 138.847 22.6237L140.099 21.9126C140.269 22.3088 140.517 22.6166 140.842 22.8359C141.168 23.0552 141.557 23.1649 142.009 23.1649C142.377 23.1649 142.667 23.0906 142.88 22.942C143.099 22.7935 143.209 22.5777 143.209 22.2947C143.209 22.0683 143.134 21.8808 142.986 21.7322C142.844 21.5837 142.664 21.4669 142.445 21.382C142.232 21.2971 141.939 21.1981 141.564 21.0849C141.061 20.9363 140.651 20.7913 140.333 20.6498C140.014 20.5012 139.742 20.2819 139.516 19.9918C139.289 19.7018 139.176 19.3197 139.176 18.8457C139.176 18.3434 139.307 17.9189 139.569 17.5722C139.838 17.2185 140.188 16.9567 140.619 16.7869C141.058 16.6101 141.528 16.5216 142.031 16.5216C142.717 16.5216 143.304 16.6773 143.792 16.9886C144.28 17.2999 144.595 17.7208 144.737 18.2514L143.485 18.9624C143.357 18.6299 143.166 18.3717 142.912 18.1877C142.657 17.9967 142.338 17.9012 141.956 17.9012C141.61 17.9012 141.327 17.9826 141.107 18.1453C140.895 18.3009 140.789 18.5096 140.789 18.7714C140.789 18.9695 140.856 19.1358 140.991 19.2702C141.125 19.3975 141.295 19.5037 141.5 19.5886C141.712 19.6664 141.995 19.7584 142.349 19.8645C142.858 20.013 143.279 20.1652 143.612 20.3208C143.944 20.4694 144.227 20.6958 144.461 21C144.701 21.2971 144.822 21.6898 144.822 22.1779ZM147.207 24.4277H145.732V16.3518H147.207V24.4277ZM148.253 21.6792C148.253 21.1061 148.381 20.6003 148.635 20.1616C148.897 19.723 149.244 19.3869 149.675 19.1535C150.107 18.9129 150.574 18.7926 151.076 18.7926C151.572 18.7926 152.031 18.9129 152.456 19.1535C152.887 19.3869 153.231 19.723 153.485 20.1616C153.747 20.6003 153.878 21.1061 153.878 21.6792C153.878 22.2522 153.747 22.7581 153.485 23.1967C153.231 23.6354 152.887 23.9714 152.456 24.2049C152.031 24.4383 151.572 24.5551 151.076 24.5551C150.574 24.5551 150.107 24.4383 149.675 24.2049C149.244 23.9714 148.897 23.6354 148.635 23.1967C148.381 22.7581 148.253 22.2522 148.253 21.6792ZM149.782 21.6792C149.782 22.1673 149.902 22.5564 150.142 22.8465C150.39 23.1295 150.698 23.271 151.066 23.271C151.434 23.271 151.738 23.1295 151.978 22.8465C152.219 22.5564 152.339 22.1673 152.339 21.6792C152.339 21.191 152.219 20.8019 151.978 20.5118C151.738 20.2218 151.434 20.0767 151.066 20.0767C150.698 20.0767 150.39 20.2218 150.142 20.5118C149.902 20.8019 149.782 21.191 149.782 21.6792ZM158.704 24.1094C158.343 24.4065 157.84 24.5551 157.197 24.5551C156.602 24.5551 156.121 24.3994 155.753 24.0881C155.393 23.7698 155.212 23.2038 155.212 22.3902V20.1722H154.236V18.9306H155.212V17.2433H156.687V18.9306H158.343V20.1722H156.687V22.1461C156.687 22.514 156.751 22.7935 156.878 22.9845C157.006 23.1755 157.211 23.271 157.494 23.271C157.741 23.271 157.975 23.1967 158.194 23.0481L158.704 24.1094ZM163.446 22.7935C163.446 23.3382 163.233 23.7698 162.809 24.0881C162.392 24.3994 161.847 24.5551 161.175 24.5551C160.595 24.5551 160.092 24.4313 159.668 24.1837C159.25 23.936 158.967 23.5929 158.819 23.1543L159.891 22.5281C159.997 22.7899 160.163 22.9951 160.389 23.1437C160.616 23.2852 160.881 23.3559 161.185 23.3559C161.412 23.3559 161.592 23.3135 161.726 23.2286C161.861 23.1437 161.928 23.0234 161.928 22.8677C161.928 22.6909 161.84 22.5564 161.663 22.4645C161.486 22.3654 161.21 22.2628 160.835 22.1567C160.46 22.0435 160.152 21.9339 159.912 21.8277C159.678 21.7216 159.473 21.5695 159.296 21.3714C159.126 21.1662 159.042 20.9009 159.042 20.5755C159.042 20.2076 159.141 19.8892 159.339 19.6204C159.544 19.3516 159.816 19.1464 160.156 19.0049C160.495 18.8634 160.867 18.7926 161.27 18.7926C161.822 18.7926 162.289 18.9129 162.671 19.1535C163.053 19.3869 163.294 19.6982 163.393 20.0873L162.321 20.6922C162.109 20.2324 161.751 20.0024 161.249 20.0024C161.037 20.0024 160.867 20.0449 160.74 20.1298C160.612 20.2076 160.549 20.3208 160.549 20.4694C160.549 20.6392 160.633 20.7701 160.803 20.862C160.973 20.9469 161.238 21.0389 161.599 21.1379C161.981 21.2441 162.296 21.3502 162.544 21.4563C162.791 21.5624 163.004 21.7252 163.18 21.9445C163.357 22.1567 163.446 22.4397 163.446 22.7935Z" fill="#323A3D"/>
<path d="M5.69629 32.9786H284.88" stroke="#CECECE" stroke-width="0.816325"/>
</g>
</g>
<defs>
<filter id="filter0_d_10670_19417" x="0.879883" y="-0.000976562" width="288" height="94.5452" filterUnits="userSpaceOnUse" color-interpolation-filters="sRGB">
<feFlood flood-opacity="0" result="BackgroundImageFix"/>
<feColorMatrix in="SourceAlpha" type="matrix" values="0 0 0 0 0 0 0 0 0 0 0 0 0 0 0 0 0 0 127 0" result="hardAlpha"/>
<feOffset/>
<feGaussianBlur stdDeviation="2"/>
<feComposite in2="hardAlpha" operator="out"/>
<feColorMatrix type="matrix" values="0 0 0 0 0 0 0 0 0 0 0 0 0 0 0 0 0 0 0.1 0"/>
<feBlend mode="normal" in2="BackgroundImageFix" result="effect1_dropShadow_10670_19417"/>
<feBlend mode="normal" in="SourceGraphic" in2="effect1_dropShadow_10670_19417" result="shape"/>
</filter>
<linearGradient id="paint0_linear_10670_19417" x1="32.9153" y1="3.99902" x2="32.9153" y2="16.8441" gradientUnits="userSpaceOnUse">
<stop stop-color="#F8F8F8"/>
<stop offset="1" stop-color="#F1F1F1"/>
</linearGradient>
<linearGradient id="paint1_linear_10670_19417" x1="144.88" y1="8.89697" x2="144.88" y2="33.3867" gradientUnits="userSpaceOnUse">
<stop stop-color="#F8F8F8"/>
<stop offset="1" stop-color="#F1F1F1"/>
</linearGradient>
<clipPath id="clip0_10670_19417">
<rect width="289" height="95" fill="white"/>
</clipPath>
</defs>
</svg>
