<svg width="24" height="24" viewBox="0 0 24 24" fill="none" xmlns="http://www.w3.org/2000/svg">
<path d="M20.5 22C21.0523 22 21.5 20.433 21.5 18.5C21.5 16.567 21.0523 15 20.5 15C19.9477 15 19.5 16.567 19.5 18.5C19.5 20.433 19.9477 22 20.5 22Z" stroke="#FF7C3F" stroke-linecap="round" stroke-linejoin="round"/>
<path d="M16.5 21.5C15.948 21.5 15.5 19.92 15.5 18.5C15.5 17.08 15.948 15.5 16.5 15.5" stroke="#FF7C3F" stroke-linecap="round" stroke-linejoin="round"/>
<path d="M18.5 21.5C17.948 21.5 17.5 19.92 17.5 18.5C17.5 17.08 17.948 15.5 18.5 15.5" stroke="#FF7C3F" stroke-linecap="round" stroke-linejoin="round"/>
<path d="M14.5 22C13.948 22 13.5 20.157 13.5 18.5C13.5 16.843 13.948 15 14.5 15" stroke="#FF7C3F" stroke-linecap="round" stroke-linejoin="round"/>
<path d="M11.5 13.5C13.1569 13.5 14.5 12.1569 14.5 10.5C14.5 8.84315 13.1569 7.5 11.5 7.5C9.84315 7.5 8.5 8.84315 8.5 10.5C8.5 12.1569 9.84315 13.5 11.5 13.5Z" stroke="#FF7C3F" stroke-linecap="round" stroke-linejoin="round"/>
<path d="M20.9136 11.556L21.2296 10.986C21.3123 10.8374 21.3556 10.6701 21.3556 10.5C21.3556 10.3299 21.3123 10.1626 21.2296 10.014L16.7856 2.014C16.699 1.8582 16.5722 1.72839 16.4186 1.63802C16.2649 1.54764 16.0899 1.49999 15.9116 1.5H7.0876C6.90932 1.49999 6.73429 1.54764 6.58062 1.63802C6.42695 1.72839 6.30024 1.8582 6.2136 2.014L1.7696 10.014C1.68694 10.1626 1.64355 10.3299 1.64355 10.5C1.64355 10.6701 1.68694 10.8374 1.7696 10.986L6.2136 18.986C6.30024 19.1418 6.42695 19.2716 6.58062 19.362C6.73429 19.4524 6.90932 19.5 7.0876 19.5H10.4996" stroke="#FF7C3F" stroke-linecap="round" stroke-linejoin="round"/>
</svg>
