<svg width="22" height="20" viewBox="0 0 22 20" fill="none" xmlns="http://www.w3.org/2000/svg">
<g clip-path="url(#clip0_10670_19373)">
<path d="M0.500035 6.5C0.500035 5.057 2.81404 0.5 3.50004 0.5C4.18604 0.5 6.50004 5.263 6.50004 6.5C6.50004 7.29565 6.18396 8.05871 5.62136 8.62132C5.05875 9.18393 4.29568 9.5 3.50004 9.5C3.10165 9.51652 2.70418 9.45023 2.33272 9.30532C1.96127 9.1604 1.62391 8.94001 1.34197 8.65807C1.06003 8.37613 0.839638 8.03877 0.69472 7.66731C0.549803 7.29586 0.483512 6.89838 0.500035 6.5Z" stroke="#949494" stroke-linecap="round"/>
<path d="M2.5 5.5C2.5 6.5 2.5 7.5 3.5 7.5" stroke="#949494" stroke-linecap="round"/>
<path d="M21.5 18.5H18.5" stroke="#FF7C3F" stroke-miterlimit="10" stroke-linecap="square"/>
<path d="M21.5 14.5H18.5" stroke="#FF7C3F" stroke-miterlimit="10" stroke-linecap="square"/>
<path d="M21.5 10.5H18.5" stroke="#FF7C3F" stroke-miterlimit="10" stroke-linecap="square"/>
<path d="M21.5 6.5H18.5" stroke="#FF7C3F" stroke-miterlimit="10" stroke-linecap="square"/>
<path d="M21.5 2.5H18.5" stroke="#FF7C3F" stroke-miterlimit="10" stroke-linecap="square"/>
<path d="M13.5 9.922V2.5C13.5 1.96957 13.2893 1.46086 12.9142 1.08579C12.5391 0.710714 12.0304 0.5 11.5 0.5C10.9696 0.5 10.4609 0.710714 10.0858 1.08579C9.71072 1.46086 9.50001 1.96957 9.50001 2.5V9.922C8.44721 10.3815 7.58472 11.1895 7.05758 12.2101C6.53043 13.2307 6.37078 14.4017 6.60548 15.5261C6.84017 16.6506 7.45488 17.66 8.34626 18.3845C9.23764 19.1091 10.3513 19.5046 11.5 19.5046C12.6487 19.5046 13.7624 19.1091 14.6538 18.3845C15.5451 17.66 16.1598 16.6506 16.3945 15.5261C16.6292 14.4017 16.4696 13.2307 15.9424 12.2101C15.4153 11.1895 14.5528 10.3815 13.5 9.922Z" stroke="#949494" stroke-linecap="round"/>
<path d="M9 14.5C9 15.163 9.26339 15.7989 9.73223 16.2678C10.2011 16.7366 10.837 17 11.5 17C12.163 17 12.7989 16.7366 13.2678 16.2678C13.7366 15.7989 14 15.163 14 14.5C13.9997 14.3321 13.9829 14.1646 13.95 14H9.05C9.01709 14.1646 9.00034 14.3321 9 14.5Z" fill="#FF7C3F"/>
<path opacity="0.5" d="M11.9998 12.055V3.5C11.9998 3.36739 11.9471 3.24021 11.8534 3.14645C11.7596 3.05268 11.6324 3 11.4998 3C11.3672 3 11.24 3.05268 11.1463 3.14645C11.0525 3.24021 10.9998 3.36739 10.9998 3.5V12.055C10.52 12.1526 10.0795 12.389 9.73281 12.7348C9.38616 13.0805 9.14867 13.5205 9.0498 14H13.9498C13.8509 13.5205 13.6134 13.0805 13.2668 12.7348C12.9201 12.389 12.4796 12.1526 11.9998 12.055Z" fill="#949494"/>
</g>
<defs>
<clipPath id="clip0_10670_19373">
<rect width="22" height="20" fill="white"/>
</clipPath>
</defs>
</svg>
