<svg width="16" height="16" viewBox="0 0 16 16" fill="none" xmlns="http://www.w3.org/2000/svg">
<path d="M4.5 14.5H1.5C1.23478 14.5 0.98043 14.3946 0.792893 14.2071C0.605357 14.0196 0.5 13.7652 0.5 13.5V7.5C0.5 7.23478 0.605357 6.98043 0.792893 6.79289C0.98043 6.60536 1.23478 6.5 1.5 6.5" stroke="#949494" stroke-linecap="round" stroke-linejoin="round"/>
<path d="M3.5 2.5V6.5" stroke="#FF7C3F" stroke-linecap="round" stroke-linejoin="round"/>
<path d="M5.5 2.5V5.5" stroke="#FF7C3F" stroke-linecap="round" stroke-linejoin="round"/>
<path d="M7.5 2.5V5" stroke="#FF7C3F" stroke-linecap="round" stroke-linejoin="round"/>
<path d="M9.5 2.5V4.5" stroke="#FF7C3F" stroke-linecap="round" stroke-linejoin="round"/>
<path d="M11.5 2.5V4.5" stroke="#FF7C3F" stroke-linecap="round" stroke-linejoin="round"/>
<path d="M4.5 6.5H1.5V1.5C1.5 1.23478 1.60536 0.98043 1.79289 0.792893C1.98043 0.605357 2.23478 0.5 2.5 0.5H12.5C12.7652 0.5 13.0196 0.605357 13.2071 0.792893C13.3946 0.98043 13.5 1.23478 13.5 1.5V4.5" stroke="#949494" stroke-linecap="round" stroke-linejoin="round"/>
<path d="M10.5 14.5C12.7091 14.5 14.5 12.7091 14.5 10.5C14.5 8.29086 12.7091 6.5 10.5 6.5C8.29086 6.5 6.5 8.29086 6.5 10.5C6.5 12.7091 8.29086 14.5 10.5 14.5Z" stroke="#FF7C3F" stroke-linecap="round" stroke-linejoin="round"/>
<path d="M11.5 8.5L12.5 9.5H8.5" stroke="#FF7C3F" stroke-linecap="round" stroke-linejoin="round"/>
<path d="M12.5 11.5H8.5L9.5 12.5" stroke="#FF7C3F" stroke-linecap="square" stroke-linejoin="round"/>
</svg>
