<svg width="16" height="16" viewBox="0 0 16 16" fill="none" xmlns="http://www.w3.org/2000/svg">
<g clip-path="url(#clip0_10670_19545)">
<path d="M0.5 1.5V4.5H3.5" stroke="#FF7C3F" stroke-linecap="round" stroke-linejoin="round"/>
<path d="M14.5 13.5V10.5H11.5" stroke="#FF7C3F" stroke-linecap="round" stroke-linejoin="round"/>
<path d="M14.4998 7.5C14.5005 5.91012 13.96 4.36737 12.9671 3.1256C11.9743 1.88384 10.5883 1.01705 9.03722 0.667869C7.48616 0.318687 5.86243 0.507918 4.43323 1.20442C3.00403 1.90093 1.85451 3.06321 1.17383 4.5" stroke="#FF7C3F" stroke-linecap="round" stroke-linejoin="round"/>
<path d="M0.500001 7.5C0.499308 9.08988 1.03986 10.6326 2.03271 11.8744C3.02556 13.1162 4.41155 13.983 5.96261 14.3321C7.51367 14.6813 9.1374 14.4921 10.5666 13.7956C11.9958 13.0991 13.1453 11.9368 13.826 10.5" stroke="#FF7C3F" stroke-linecap="round" stroke-linejoin="round"/>
<path d="M5.5 5.5V9.5" stroke="#FF7C3F" stroke-linecap="square" stroke-linejoin="round"/>
<path d="M9.5 9.5V5.5" stroke="#FF7C3F" stroke-linecap="square" stroke-linejoin="round"/>
<path d="M6.5 7.5H8.5" stroke="#FF7C3F" stroke-linecap="square" stroke-linejoin="round"/>
<path d="M6.5 4.5H8.5" stroke="#FF7C3F" stroke-linecap="square" stroke-linejoin="round"/>
</g>
<defs>
<clipPath id="clip0_10670_19545">
<rect width="16" height="16" fill="white"/>
</clipPath>
</defs>
</svg>
