<svg width="20" height="20" viewBox="0 0 20 20" fill="none" xmlns="http://www.w3.org/2000/svg">
<path d="M9.5 18C14.1944 18 18 14.1944 18 9.5C18 4.80558 14.1944 1 9.5 1C4.80558 1 1 4.80558 1 9.5C1 14.1944 4.80558 18 9.5 18Z" fill="#54545A"/>
<path d="M9.5 1.5C11.0823 1.5 12.629 1.96919 13.9446 2.84824C15.2602 3.72729 16.2855 4.97672 16.891 6.43853C17.4965 7.90034 17.655 9.50887 17.3463 11.0607C17.0376 12.6126 16.2757 14.038 15.1569 15.1569C14.038 16.2757 12.6126 17.0376 11.0607 17.3463C9.50888 17.655 7.90034 17.4965 6.43854 16.891C4.97673 16.2855 3.7273 15.2602 2.84825 13.9446C1.9692 12.629 1.5 11.0823 1.5 9.5C1.50239 7.379 2.34601 5.34555 3.84578 3.84578C5.34556 2.346 7.379 1.50238 9.5 1.5ZM9.5 0.5C7.71997 0.5 5.97991 1.02784 4.49987 2.01677C3.01983 3.00571 1.86628 4.41131 1.18509 6.05585C0.5039 7.70038 0.32567 9.50998 0.672937 11.2558C1.0202 13.0016 1.87737 14.6053 3.13604 15.864C4.39472 17.1226 5.99836 17.9798 7.74419 18.3271C9.49002 18.6743 11.2996 18.4961 12.9442 17.8149C14.5887 17.1337 15.9943 15.9802 16.9832 14.5001C17.9722 13.0201 18.5 11.28 18.5 9.5C18.5 7.11305 17.5518 4.82387 15.864 3.13604C14.1761 1.44821 11.887 0.5 9.5 0.5Z" fill="#54545A"/>
<path d="M4.5 4.5L14.5 14.5" stroke="#CECECE" stroke-linecap="round" stroke-linejoin="round"/>
<path d="M14.5 4.5L4.5 14.5" stroke="#CECECE" stroke-linecap="round" stroke-linejoin="round"/>
</svg>
