<svg width="31" height="507" viewBox="0 0 31 507" fill="none" xmlns="http://www.w3.org/2000/svg">
<g clip-path="url(#clip0_10670_19895)">
<mask id="mask0_10670_19895" style="mask-type:luminance" maskUnits="userSpaceOnUse" x="0" y="0" width="31" height="507">
<path d="M31 0H0V507H31V0Z" fill="white"/>
</mask>
<g mask="url(#mask0_10670_19895)">
<path d="M23.9767 127.531H6.49052C4.80117 127.531 3.4082 128.894 3.4082 130.554V145.491H6.8758V133.251C6.8758 132.747 7.26109 132.392 7.7353 132.392H22.7023C23.1765 132.392 23.5618 132.777 23.5618 133.251V145.491H26.9998V130.554C26.9998 128.865 25.6364 127.531 23.9767 127.531Z" fill="#B3B3B3"/>
<path d="M21.4868 163.6V151.3C21.4868 149.611 20.1531 148.307 18.4934 148.307H6.46054C4.77119 148.307 3.4375 149.641 3.4375 151.3V163.6C3.4375 165.23 4.80083 166.593 6.46054 166.593H18.4934C20.1828 166.593 21.4868 165.23 21.4868 163.6ZM6.34199 161.881V152.99H18.5823V161.881H6.34199Z" fill="#B3B3B3"/>
<path d="M21.4868 184.317V172.017C21.4868 170.328 20.1531 169.024 18.4934 169.024H6.46054C4.77119 169.024 3.4375 170.357 3.4375 172.017V184.317C3.4375 185.947 4.80083 187.31 6.46054 187.31H18.4934C20.1828 187.31 21.4868 185.947 21.4868 184.317ZM6.34199 182.627V173.736H18.5823V182.627H6.34199Z" fill="#B3B3B3"/>
<path d="M26.9998 194.631V189.77H6.54979C4.80117 189.77 3.4082 191.163 3.4082 192.882V199.521H6.43124V194.631H26.9998Z" fill="#B3B3B3"/>
<path d="M26.9998 231.381V212.087H3.4082V216.948H11.0547V231.411C11.0547 233.1 12.418 234.464 14.0778 234.464H23.9767C25.6661 234.464 26.9998 233.1 26.9998 231.411V231.381ZM15.2929 229.574C14.7891 229.574 14.4334 229.188 14.4334 228.714V216.948H23.6211V228.684C23.6211 229.159 23.2358 229.603 22.7616 229.603H15.2929V229.574Z" fill="#B3B3B3"/>
<path d="M26.9998 242.081V237.22H6.54979C4.80117 237.22 3.4082 238.613 3.4082 240.332V246.971H6.43124V242.081H26.9998Z" fill="#B3B3B3"/>
<path d="M21.4872 263.657V250.557H18.4938V263.094H14.5816V252.157C14.5816 250.438 13.1886 249.045 11.4696 249.045H6.52015C4.80117 249.045 3.4082 250.438 3.4082 252.157V267.954H18.0492C19.946 267.954 21.4575 266.028 21.4575 263.657H21.4872ZM6.4016 263.094V253.906H11.5289V263.094H6.4016Z" fill="#B3B3B3"/>
<path d="M26.9998 279.394V274.534H21.4575V270.74H18.4641V274.534H6.52015C4.80117 274.534 3.4082 275.927 3.4082 277.646V283.158H6.43124V280.58C6.43124 279.958 6.96472 279.394 7.58711 279.394H18.4345V283.158H21.4279V279.394H26.9998Z" fill="#B3B3B3"/>
<path d="M21.369 301.297V288.701C21.369 286.982 19.976 285.618 18.257 285.618H6.49087C4.77188 285.618 3.37891 286.982 3.37891 288.701V304.112H6.34268V290.449H10.3437V304.409H18.2274C19.9464 304.409 21.3393 303.016 21.3393 301.297H21.369ZM13.3964 299.548V290.42H18.4645V299.548H13.3964Z" fill="#B3B3B3"/>
<path d="M16.5974 20.8057H23.4734C25.1627 20.8057 26.4668 19.4423 26.4668 17.8122V0H3.20117V19.057C3.20117 20.6871 4.5645 22.0504 6.22421 22.0504H14.0782C14.997 22.0504 15.8565 21.6651 16.4196 20.9242L16.5678 20.776L16.5974 20.8057ZM23.1177 4.83094V15.1745C23.1177 15.6191 22.7324 16.034 22.2582 16.034H17.3976C16.9234 16.034 16.5382 15.6191 16.5382 15.1745V4.83094H23.1177ZM7.46899 17.2788C6.96515 17.2788 6.6095 16.8935 6.6095 16.4193V4.83094H13.1595V16.4193C13.1595 16.9231 12.7742 17.2788 12.3296 17.2788H7.46899Z" fill="#B3B3B3"/>
<path d="M21.3095 39.4478V26.3479H18.3161V38.8846H14.4039V27.9483C14.4039 26.2294 13.0109 24.8364 11.2919 24.8364H6.34243C4.62344 24.8364 3.23047 26.2294 3.23047 27.9483V43.7452H17.8715C19.7683 43.7452 21.2798 41.8188 21.2798 39.4478H21.3095ZM6.22388 38.8846V29.697H11.3512V38.8846H6.22388Z" fill="#B3B3B3"/>
<path d="M21.3098 69.0854V46.5311H3.2308V51.4214H18.2571V56.934H3.20117V61.7946H18.2868V67.3072H3.20117V72.1974H18.1979C19.9169 72.1974 21.3098 70.8044 21.3098 69.0854Z" fill="#B3B3B3"/>
<path d="M21.3095 90.4246V79.5476H26.8221V74.6573H3.23047V90.4246C3.23047 92.1732 4.62344 93.5662 6.34243 93.5662H18.1975C19.9165 93.5662 21.3095 92.1732 21.3095 90.4246ZM6.25351 88.676V79.5179H18.2864V88.676H6.25351Z" fill="#B3B3B3"/>
<path d="M6.10533 109.63V100.738H21.3095V96.0261H6.25351C4.56417 96.0261 3.23047 97.3894 3.23047 99.0491V114.313H21.3095V109.63H6.10533Z" fill="#B3B3B3"/>
<path d="M26.4661 322.162L14.9074 313.745L3.34863 322.162V325.066L14.9074 316.619L26.4661 325.066V322.162Z" fill="#B3B3B3"/>
<path d="M26.4661 498.654V495.779L14.9074 504.196L3.34863 495.779V498.654L14.9074 507.071L26.4661 498.654Z" fill="#B3B3B3"/>
<path d="M16.1819 351.651V340.626C16.1819 340.241 16.5079 339.915 16.8932 339.915H21.25C21.6353 339.915 21.9909 340.241 21.9909 340.626V353.489H24.7472V338.433C24.7472 337.04 23.6506 335.914 22.2873 335.914H15.9152C14.5815 335.914 13.4553 337.01 13.4553 338.373V349.458C13.4553 349.843 13.0996 350.229 12.7143 350.229H9.15778C8.74286 350.229 8.32793 349.873 8.32793 349.488V336.566H5.54199V351.681C5.54199 353.044 6.66822 354.141 8.03155 354.141H13.6924C15.0557 354.141 16.1819 353.014 16.1819 351.681V351.651Z" fill="#B3B3B3"/>
<path d="M7.85408 367.478V360.216H20.2426V356.363H7.97263C6.6093 356.363 5.5127 357.46 5.5127 358.823V371.242H20.2426V367.418H7.88372V367.478H7.85408Z" fill="#B3B3B3"/>
<path d="M20.2425 386.149V373.287H0V377.228H5.51261V386.12C5.51261 387.542 6.63884 388.669 8.03181 388.669H17.6937C19.0866 388.669 20.2129 387.542 20.2129 386.12L20.2425 386.149ZM7.9429 384.727V377.258H17.7529V384.727H7.9429Z" fill="#B3B3B3"/>
<path d="M20.1534 403.458V393.203C20.1534 391.81 19.0272 390.714 17.6342 390.714H8.06119C6.66822 390.714 5.54199 391.81 5.54199 393.203V405.74H7.97228V394.626H11.2324V406.007H17.6638C19.0568 406.007 20.183 404.88 20.183 403.487L20.1534 403.458ZM13.6331 402.035V394.626H17.7527V402.035H13.6331Z" fill="#B3B3B3"/>
<path d="M18.4644 412.557L17.5456 411.934H20.213V407.992H5.5127V411.934H16.3008V418.277H20.2426V415.906C20.2426 414.572 19.561 413.297 18.4644 412.557Z" fill="#B3B3B3"/>
<path d="M21.9616 420.262V426.783H5.5127V430.784H21.9616V437.274H24.7476V420.262H21.9616Z" fill="#B3B3B3"/>
<path d="M20.2426 450.878V440.209H17.7827V450.434H14.5818V441.542C14.5818 440.149 13.4556 439.023 12.0626 439.023H8.03191C6.63893 439.023 5.5127 440.149 5.5127 441.542V454.405H17.4567C18.9979 454.405 20.2426 452.834 20.2426 450.908V450.878ZM7.94299 450.434V442.965H12.1219V450.434H7.94299Z" fill="#B3B3B3"/>
<path d="M17.7231 456.657H8.06119C6.66822 456.657 5.54199 457.784 5.54199 459.177V471.625H8.00191V460.599H17.8416V471.625H20.3016V459.177C20.3016 457.784 19.1753 456.657 17.7824 456.657H17.7231Z" fill="#B3B3B3"/>
<path d="M14.3744 485.702L20.2426 488.251V484.458L15.2042 482.235V477.582H24.7476V473.64H5.5127V477.582H13.011V482.413L5.54234 484.991V488.666L14.2558 485.643L14.3744 485.702Z" fill="#B3B3B3"/>
</g>
</g>
<defs>
<clipPath id="clip0_10670_19895">
<rect width="31" height="507" fill="white"/>
</clipPath>
</defs>
</svg>
