<svg width="31" height="738" viewBox="0 0 31 738" fill="none" xmlns="http://www.w3.org/2000/svg">
<g clip-path="url(#clip0_10670_19791)">
<path d="M16.7703 150.39H9.63027C8.19027 150.39 7.03027 149.23 7.03027 147.79V129.27H9.42027V145.05C9.42027 145.82 10.1903 146.49 11.0003 146.49H15.5303C16.3003 146.49 16.9703 145.82 16.9703 145.01V130.98C17.0003 129.57 18.1603 128.41 19.5703 128.41H27.6203C29.0303 128.41 30.2203 129.61 30.2203 131.08V149.53H27.7903V133.82C27.7903 133.05 27.1203 132.38 26.3503 132.38H20.8303C20.0203 132.38 19.3503 133.05 19.3503 133.82V147.77C19.3503 149.21 18.1903 150.37 16.7503 150.37L16.7703 150.39Z" fill="#B3B3B3"/>
<path d="M24.6403 153.21V175.99C24.6403 177.43 23.4403 178.66 21.9703 178.66H7.03027V174.72L22.2903 174.68H22.6403V167.86H7.03027V163.96H22.6003V157.11H7.03027V153.21H24.6403Z" fill="#B3B3B3"/>
<path d="M22.0695 181.48C23.4795 181.48 24.6395 182.64 24.6395 184.05V196.74C24.6395 198.18 23.4795 199.34 22.0695 199.34H9.58953C8.17953 199.34 7.01953 198.18 7.01953 196.74V184.05C7.01953 182.64 8.17953 181.48 9.58953 181.48H22.0695ZM22.6995 185.24H8.95953V195.54H22.6995V185.24Z" fill="#B3B3B3"/>
<path d="M22.0695 202.15C23.4795 202.15 24.6395 203.31 24.6395 204.72V217.41C24.6395 218.85 23.4795 220.01 22.0695 220.01H9.58953C8.17953 220.01 7.01953 218.85 7.01953 217.41V204.72C7.01953 203.31 8.17953 202.15 9.58953 202.15H22.0695ZM22.6995 205.91H8.95953V216.21H22.6995V205.91Z" fill="#B3B3B3"/>
<path d="M9.00027 232.04V234.18H7.03027V229.05C7.03027 227.57 8.19027 226.38 9.67027 226.38H22.5003V222.48H24.5003V226.38H30.2303V230.28H24.5003V234.18H22.5003V230.28H10.7903C9.81027 230.28 9.00027 231.09 9.00027 232.04Z" fill="#B3B3B3"/>
<path d="M30.1203 236.65V240.55H24.4603V252.33C24.4603 253.81 23.2603 254.97 21.8203 254.97H7.03027V251.1H22.4603V240.55H7.03027V236.65H30.1203Z" fill="#B3B3B3"/>
<path d="M30.2303 268.33V287.63C30.2303 289.07 29.0703 290.23 27.6303 290.23H17.4703C16.0303 290.23 14.8703 289.07 14.8703 287.63V272.2H7.03027V268.33H30.2303ZM18.7303 286.33L26.3603 286.29C27.1703 286.29 27.8003 285.66 27.8003 284.85V272.19H17.2503V284.85C17.2503 285.66 17.9203 286.33 18.7303 286.33Z" fill="#B3B3B3"/>
<path d="M30.2303 293.04V310.55H27.8003V298.42C27.8003 297.61 27.1303 296.98 26.3603 296.98H20.2103V310.55H17.8203V298.42C17.8203 297.61 17.1503 296.98 16.3403 296.98H9.42027V310.55H7.03027V293.04H30.2303Z" fill="#B3B3B3"/>
<path d="M30.2303 314.07V317.97H7.03027V314.07H30.2303Z" fill="#B3B3B3"/>
<path d="M30.2303 331.33V350.63C30.2303 352.07 29.0703 353.23 27.6303 353.23H17.4703C16.0303 353.23 14.8703 352.07 14.8703 350.63V335.2H7.03027V331.33H30.2303ZM18.7303 349.33L26.3603 349.29C27.1703 349.29 27.8003 348.66 27.8003 347.85V335.19H17.2503V347.85C17.2503 348.66 17.9203 349.33 18.7303 349.33Z" fill="#B3B3B3"/>
<path d="M9.74027 356.05H30.4803V359.99H9.07027V365.05H7.03027V358.72C7.03027 357.24 8.26027 356.05 9.74027 356.05Z" fill="#B3B3B3"/>
<path d="M14.8303 367.87C16.3103 367.87 17.5003 369.07 17.5003 370.51V382.39H22.6303V369.42H24.6303V382.43C24.6303 384.57 23.2903 386.33 21.6403 386.33H7.03027V370.51C7.03027 369.07 8.23027 367.87 9.70027 367.87H14.8303ZM15.4603 371.77H9.03027V382.39H15.4603V371.77Z" fill="#B3B3B3"/>
<path d="M9.00027 398.35V400.49H7.03027V395.36C7.03027 393.88 8.19027 392.69 9.67027 392.69H22.5003V388.79H24.5003V392.69H30.2303V396.59H24.5003V400.49H22.5003V396.59H10.7903C9.81027 396.59 9.00027 397.4 9.00027 398.35Z" fill="#B3B3B3"/>
<path d="M21.9703 402.96C23.4503 402.96 24.6403 404.16 24.6403 405.63V418.78C24.6403 420.26 23.4403 421.45 21.9703 421.45H14.2703V406.9H9.00027V421.14H7.03027V405.64C7.03027 404.16 8.23027 402.97 9.70027 402.97H21.9703V402.96ZM22.7103 406.9H16.3103V417.52H22.7103V406.9Z" fill="#B3B3B3"/>
<path d="M30.2303 445.5L7.03027 438.79V436.58L30.2303 443.26V445.51V445.5Z" fill="#B3B3B3"/>
<path d="M17.7503 464.49H7.03027V460.62H30.2303V464.49H20.1403V476.44H30.2303V480.34H7.03027V476.44H17.7503V464.49Z" fill="#B3B3B3"/>
<path d="M24.5403 483.16V487.06H7.03027V483.16H24.5403ZM30.2303 483.16V487.06H28.2303V483.16H30.2303Z" fill="#B3B3B3"/>
<path d="M21.79 489.87C22.49 489.87 23.16 490.15 23.65 490.64C24.14 491.13 24.42 491.8 24.42 492.5V506.49C24.42 507.93 23.22 509.13 21.78 509.13H2.64C1.2 509.13 0 507.93 0 506.49V490.18H2V505.22H6.99V492.53C6.99 491.05 8.15 489.86 9.63 489.86H21.79V489.87ZM22.39 505.23V493.81L8.96 493.77V505.23H22.39Z" fill="#B3B3B3"/>
<path d="M30.1203 511.95V515.85H24.4603V527.63C24.4603 529.11 23.2603 530.27 21.8203 530.27H7.03027V526.4H22.4603V515.85H7.03027V511.95H30.1203Z" fill="#B3B3B3"/>
<path d="M7.03027 551.89H27.8003V543.63H30.2303V564.05H27.8003V555.79H7.03027V551.89Z" fill="#B3B3B3"/>
<path d="M21.9703 566.17C23.4503 566.17 24.6403 567.37 24.6403 568.84V581.99C24.6403 583.47 23.4403 584.66 21.9703 584.66H14.2703V570.11H9.00027V584.35H7.03027V568.85C7.03027 567.37 8.23027 566.18 9.70027 566.18H21.9703V566.17ZM22.7103 570.11H16.3103V580.73H22.7103V570.11Z" fill="#B3B3B3"/>
<path d="M24.6403 587.48V610.26C24.6403 611.7 23.4403 612.93 21.9703 612.93H7.03027V608.99L22.2903 608.95H22.6403V602.13H7.03027V598.23H22.6003V591.38H7.03027V587.48H24.6403Z" fill="#B3B3B3"/>
<path d="M24.43 615.75V631.43C24.43 632.91 23.23 634.07 21.76 634.07H9.6C8.16 634.07 6.96 632.91 6.96 631.43V619.65H0V615.75H24.43ZM22.43 619.65H8.93V630.2H22.43V619.65Z" fill="#B3B3B3"/>
<path d="M30.2303 647.08V666.38C30.2303 667.82 29.0703 668.98 27.6303 668.98H17.4703C16.0303 668.98 14.8703 667.82 14.8703 666.38V650.95H7.03027V647.08H30.2303ZM18.7303 665.08L26.3603 665.04C27.1703 665.04 27.8003 664.41 27.8003 663.6V650.94H17.2503V663.6C17.2503 664.41 17.9203 665.08 18.7303 665.08Z" fill="#B3B3B3"/>
<path d="M9.74027 671.79H30.4803V675.73H9.07027V680.79H7.03027V674.46C7.03027 672.98 8.26027 671.79 9.74027 671.79Z" fill="#B3B3B3"/>
<path d="M14.8303 683.61C16.3103 683.61 17.5003 684.81 17.5003 686.25V698.13H22.6303V685.16H24.6303V698.17C24.6303 700.31 23.2903 702.07 21.6403 702.07H7.03027V686.25C7.03027 684.81 8.23027 683.61 9.70027 683.61H14.8303ZM15.4603 687.51H9.03027V698.13H15.4603V687.51Z" fill="#B3B3B3"/>
<path d="M9.00027 714.09V716.23H7.03027V711.1C7.03027 709.62 8.19027 708.43 9.67027 708.43H22.5003V704.53H24.5003V708.43H30.2303V712.33H24.5003V716.23H22.5003V712.33H10.7903C9.81027 712.33 9.00027 713.14 9.00027 714.09Z" fill="#B3B3B3"/>
<path d="M21.9703 718.7C23.4503 718.7 24.6403 719.9 24.6403 721.37V734.52C24.6403 736 23.4403 737.19 21.9703 737.19H14.2703V722.64H9.00027V736.88H7.03027V721.38C7.03027 719.9 8.23027 718.71 9.70027 718.71H21.9703V718.7ZM22.7103 722.64H16.3103V733.26H22.7103V722.64Z" fill="#B3B3B3"/>
<path d="M30.2403 0V17.93C30.2403 19.58 28.9103 20.95 27.2203 20.95H20.2903L20.1503 21.09C19.5903 21.83 18.7103 22.21 17.7903 22.21H9.88031C8.19031 22.21 6.82031 20.84 6.82031 19.19V0H30.2303H30.2403ZM16.8503 16.52V4.85H10.2403V16.52C10.2403 17.01 10.6303 17.4 11.1203 17.4H16.0103C16.4703 17.4 16.8503 17.01 16.8503 16.52ZM20.2203 15.25C20.2203 15.71 20.6103 16.13 21.1003 16.13H25.9903C26.4803 16.13 26.8703 15.71 26.8703 15.25V4.85H20.2303V15.25H20.2203Z" fill="#B3B3B3"/>
<path d="M14.9501 25.03C16.6701 25.03 18.0801 26.44 18.0801 28.16V39.16H22.0201V26.54H25.0401V39.72C25.0401 42.11 23.4901 44.04 21.5901 44.04H6.83008V28.15C6.83008 26.43 8.24008 25.02 9.96008 25.02H14.9501V25.03ZM15.0201 39.16V29.92H9.85008V39.16H15.0201Z" fill="#B3B3B3"/>
<path d="M21.9101 72.71H6.83008V67.79H22.0201V62.24H6.83008V57.35H21.9801V51.8H6.83008V46.88H25.0401V69.59C25.0401 71.31 23.6301 72.72 21.9101 72.72V72.71Z" fill="#B3B3B3"/>
<path d="M30.5998 75.17V80.09H25.0498V91.06C25.0498 92.82 23.6398 94.22 21.9198 94.22H9.96984C8.24984 94.22 6.83984 92.81 6.83984 91.06V75.17H30.5998ZM22.0198 89.3V80.09H9.88984V89.3H22.0198Z" fill="#B3B3B3"/>
<path d="M25.0401 115.11H6.83008V99.7499C6.83008 98.0599 8.20008 96.6899 9.89008 96.6899H25.0401V101.44H9.75008V110.4H25.0401V115.11Z" fill="#B3B3B3"/>
</g>
<defs>
<clipPath id="clip0_10670_19791">
<rect width="31" height="738" fill="white"/>
</clipPath>
</defs>
</svg>
