<svg width="234" height="17" viewBox="0 0 234 17" fill="none" xmlns="http://www.w3.org/2000/svg">
<path d="M169.731 3.76782H28.1201V4.7823H169.731V3.76782Z" fill="#B3B3B3"/>
<path d="M30.8688 1.82983L19.082 9.38447L19.3511 9.81276L31.1378 2.25812L30.8688 1.82983Z" fill="#B3B3B3"/>
<path d="M31.1348 2.24609V15.4343H31.6369V2.24609H31.1348Z" fill="#B3B3B3"/>
<path d="M206.39 8.5V15.5H206.892V8.5H206.39Z" fill="#B3B3B3"/>
<path d="M222.957 1.23169V15.4344H223.459V1.23169H222.957Z" fill="#B3B3B3"/>
<path d="M216.935 1.23169V8.33301H217.437V1.23169H216.935Z" fill="#B3B3B3"/>
<path d="M217.438 8.31213L206.39 8.3695L206.393 8.87673L217.44 8.81936L217.438 8.31213Z" fill="#B3B3B3"/>
<path d="M223.2 0.997559L217.2 1.02872L217.203 1.53595L223.203 1.50479L223.2 0.997559Z" fill="#B3B3B3"/>
<path d="M169.731 5.79675H28.1201V6.81123H169.731V5.79675Z" fill="#B3B3B3"/>
<path d="M169.731 7.82568H28.1201V8.84016H169.731V7.82568Z" fill="#B3B3B3"/>
<path d="M28.1212 9.34741H0V11.3764H28.1212V9.34741Z" fill="#B3B3B3"/>
<path d="M174.25 9.85461H28.1201V10.8691H174.25V9.85461Z" fill="#B3B3B3"/>
<path d="M215.93 11.8835H28.1201V12.8979H215.93V11.8835Z" fill="#B3B3B3"/>
<path d="M233.004 14.927H0.00390625V15.9415H233.004V14.927Z" fill="#B3B3B3"/>
<path d="M232.999 5.28955H231.46V15.4786H232.999V5.28955Z" fill="#B3B3B3"/>
</svg>
