<svg width="31" height="427" viewBox="0 0 31 427" fill="none" xmlns="http://www.w3.org/2000/svg">
<g clip-path="url(#clip0_10670_19659)">
<path d="M30.2303 128.42V145.93H27.8003V133.8C27.8003 132.99 27.1303 132.36 26.3603 132.36H20.2103V145.93H17.8203V133.8C17.8203 132.99 17.1503 132.36 16.3403 132.36H9.42027V145.93H7.03027V128.42H30.2303Z" fill="#B3B3B3"/>
<path d="M21.9703 167.2H7.03027V163.26H22.6403V152.64H7.03027V148.74H24.6403V164.52C24.6403 166 23.4403 167.19 21.9703 167.19V167.2Z" fill="#B3B3B3"/>
<path d="M21.79 170.02C22.49 170.02 23.16 170.3 23.65 170.79C24.14 171.28 24.42 171.95 24.42 172.65V186.64C24.42 188.08 23.22 189.28 21.78 189.28H2.64C1.2 189.28 0 188.08 0 186.64V170.33H2V185.38H6.99V172.69C6.99 171.21 8.15 170.02 9.63 170.02H21.79ZM22.39 185.38V173.96L8.96 173.92V185.38H22.39Z" fill="#B3B3B3"/>
<path d="M24.5403 192.1V196H7.03027V192.1H24.5403ZM30.2303 192.1V196H28.2303V192.1H30.2303Z" fill="#B3B3B3"/>
<path d="M21.9703 217.27H7.03027V213.33H22.6403V202.71H7.03027V198.81H24.6403V214.59C24.6403 216.07 23.4403 217.26 21.9703 217.26V217.27Z" fill="#B3B3B3"/>
<path d="M21.9703 220.09C23.4503 220.09 24.6403 221.29 24.6403 222.76V235.91C24.6403 237.39 23.4403 238.58 21.9703 238.58H14.2703V224.03H9.00027V238.27H7.03027V222.77C7.03027 221.29 8.23027 220.1 9.70027 220.1H21.9703V220.09ZM22.7103 224.03H16.3103V234.65H22.7103V224.03Z" fill="#B3B3B3"/>
<path d="M21.9703 241.39C23.4503 241.39 24.6403 242.59 24.6403 244.06V257.21C24.6403 258.69 23.4403 259.88 21.9703 259.88H14.2703V245.33H9.00027V259.57H7.03027V244.07C7.03027 242.59 8.23027 241.4 9.70027 241.4H21.9703V241.39ZM22.7103 245.33H16.3103V255.95H22.7103V245.33Z" fill="#B3B3B3"/>
<path d="M24.3203 271.45V274.44H20.4903V266.53H7.03027V262.7H24.2903V266.53H20.5303L22.3203 267.69C23.5903 268.53 24.3203 269.94 24.3203 271.45Z" fill="#B3B3B3"/>
<path d="M24.5403 276.9V280.8H7.03027V276.9H24.5403ZM30.2303 276.9V280.8H28.2303V276.9H30.2303Z" fill="#B3B3B3"/>
<path d="M21.9703 302.08H7.03027V298.14H22.6403V287.52H7.03027V283.62H24.6403V299.4C24.6403 300.88 23.4403 302.07 21.9703 302.07V302.08Z" fill="#B3B3B3"/>
<path d="M21.79 304.89C22.49 304.89 23.16 305.17 23.65 305.66C24.14 306.15 24.42 306.82 24.42 307.52V321.51C24.42 322.95 23.22 324.15 21.78 324.15H2.64C1.2 324.15 0 322.95 0 321.51V305.2H2V320.25H6.99V307.56C6.99 306.08 8.15 304.89 9.63 304.89H21.79ZM22.39 320.25V308.83L8.96 308.79V320.25H22.39Z" fill="#B3B3B3"/>
<path d="M30.2303 337.52V356.82C30.2303 358.26 29.0703 359.42 27.6303 359.42H17.4703C16.0303 359.42 14.8703 358.26 14.8703 356.82V341.39H7.03027V337.52H30.2303ZM18.7303 355.52L26.3603 355.48C27.1703 355.48 27.8003 354.85 27.8003 354.04V341.38H17.2503V354.04C17.2503 354.85 17.9203 355.52 18.7303 355.52Z" fill="#B3B3B3"/>
<path d="M9.74027 362.24H30.4803V366.18H9.07027V371.24H7.03027V364.91C7.03027 363.43 8.26027 362.24 9.74027 362.24Z" fill="#B3B3B3"/>
<path d="M14.8303 374.05C16.3103 374.05 17.5003 375.25 17.5003 376.69V388.57H22.6303V375.6H24.6303V388.61C24.6303 390.75 23.2903 392.51 21.6403 392.51H7.03027V376.69C7.03027 375.25 8.23027 374.05 9.70027 374.05H14.8303ZM15.4603 377.95H9.03027V388.57H15.4603V377.95Z" fill="#B3B3B3"/>
<path d="M9.00027 403.87V406.01H7.03027V400.88C7.03027 399.4 8.19027 398.21 9.67027 398.21H22.5003V394.31H24.5003V398.21H30.2303V402.11H24.5003V406.01H22.5003V402.11H10.7903C9.81027 402.11 9.00027 402.92 9.00027 403.87Z" fill="#B3B3B3"/>
<path d="M21.9703 408.12C23.4503 408.12 24.6403 409.32 24.6403 410.79V423.94C24.6403 425.42 23.4403 426.61 21.9703 426.61H14.2703V412.06H9.00027V426.3H7.03027V410.8C7.03027 409.32 8.23027 408.13 9.70027 408.13H21.9703V408.12ZM22.7103 412.06H16.3103V422.68H22.7103V412.06Z" fill="#B3B3B3"/>
<path d="M30.2403 0V17.93C30.2403 19.58 28.9103 20.95 27.2203 20.95H20.2903L20.1503 21.09C19.5903 21.83 18.7103 22.21 17.7903 22.21H9.88031C8.19031 22.21 6.82031 20.84 6.82031 19.19V0H30.2303H30.2403ZM16.8503 16.52V4.85H10.2403V16.52C10.2403 17.01 10.6303 17.4 11.1203 17.4H16.0103C16.4703 17.4 16.8503 17.01 16.8503 16.52ZM20.2203 15.25C20.2203 15.71 20.6103 16.13 21.1003 16.13H25.9903C26.4803 16.13 26.8703 15.71 26.8703 15.25V4.85H20.2303V15.25H20.2203Z" fill="#B3B3B3"/>
<path d="M14.9501 25.03C16.6701 25.03 18.0801 26.44 18.0801 28.16V39.16H22.0201V26.54H25.0401V39.72C25.0401 42.11 23.4901 44.04 21.5901 44.04H6.83008V28.15C6.83008 26.43 8.24008 25.02 9.96008 25.02H14.9501V25.03ZM15.0201 39.16V29.92H9.85008V39.16H15.0201Z" fill="#B3B3B3"/>
<path d="M21.9101 72.71H6.83008V67.79H22.0201V62.24H6.83008V57.35H21.9801V51.8H6.83008V46.88H25.0401V69.59C25.0401 71.31 23.6301 72.72 21.9101 72.72V72.71Z" fill="#B3B3B3"/>
<path d="M30.5998 75.17V80.09H25.0498V91.06C25.0498 92.82 23.6398 94.22 21.9198 94.22H9.96984C8.24984 94.22 6.83984 92.81 6.83984 91.06V75.17H30.5998ZM22.0198 89.3V80.09H9.88984V89.3H22.0198Z" fill="#B3B3B3"/>
<path d="M25.0401 115.11H6.83008V99.7499C6.83008 98.0599 8.20008 96.6899 9.89008 96.6899H25.0401V101.44H9.75008V110.4H25.0401V115.11Z" fill="#B3B3B3"/>
</g>
<defs>
<clipPath id="clip0_10670_19659">
<rect width="31" height="427" fill="white"/>
</clipPath>
</defs>
</svg>
