<svg width="24" height="446" viewBox="0 0 24 446" fill="none" xmlns="http://www.w3.org/2000/svg">
<g clip-path="url(#clip0_10670_19852)">
<path d="M0.200195 136.26H20.9702V128H23.4002V148.42H20.9702V140.16H0.200195V136.26Z" fill="#B3B3B3"/>
<path d="M15.1402 150.53C16.6202 150.53 17.8102 151.73 17.8102 153.2V166.35C17.8102 167.83 16.6202 169.02 15.1402 169.02H7.44019V154.47H2.16019V168.71H0.200195V153.21C0.200195 151.73 1.40019 150.54 2.87019 150.54H15.1402V150.53ZM15.8802 154.47H9.48019V165.09H15.8802V154.47Z" fill="#B3B3B3"/>
<path d="M0.200195 185.23L6.28019 180.59L0.200195 175.95V171.84L8.78019 178.41L8.99019 178.55L17.8102 171.84V175.92L11.7002 180.6L17.8102 185.27V189.38L9.20019 182.77L8.99019 182.63L0.200195 189.34V185.23Z" fill="#B3B3B3"/>
<path d="M2.16019 201.06V203.2H0.200195V198.07C0.200195 196.59 1.36019 195.4 2.84019 195.4H15.6702V191.5H17.6702V195.4H23.4002V199.3H17.6702V203.2H15.6702V199.3H3.96019C2.97019 199.3 2.17019 200.11 2.17019 201.06H2.16019Z" fill="#B3B3B3"/>
<path d="M0.200195 223.49V208.24C0.200195 206.83 1.36019 205.67 2.77019 205.67H17.8102V209.47H2.13019V219.7H17.8102V223.5H0.200195V223.49Z" fill="#B3B3B3"/>
<path d="M17.4902 234.71V237.7H13.6602V229.79H0.200195V225.96H17.4602V229.79H13.7002L15.4902 230.95C16.7502 231.79 17.4902 233.2 17.4902 234.71Z" fill="#B3B3B3"/>
<path d="M15.1402 240.16C16.6202 240.16 17.8102 241.36 17.8102 242.83V255.98C17.8102 257.46 16.6202 258.65 15.1402 258.65H7.44019V244.1H2.16019V258.34H0.200195V242.84C0.200195 241.36 1.40019 240.17 2.87019 240.17H15.1402V240.16ZM15.8802 244.1H9.48019V254.72H15.8802V244.1Z" fill="#B3B3B3"/>
<path d="M15.0302 261.47C16.5102 261.47 17.7002 262.67 17.7002 264.11V275.92H23.3902V279.82H0.200195V264.11C0.200195 262.67 1.36019 261.47 2.84019 261.47H15.0402H15.0302ZM15.7002 275.92V265.37H2.16019V275.92H15.6902H15.7002Z" fill="#B3B3B3"/>
<path d="M23.4002 293.18V312.48C23.4002 313.92 22.2402 315.08 20.8002 315.08H10.6402C9.20019 315.08 8.04019 313.92 8.04019 312.48V297.05H0.200195V293.18H23.4002ZM11.9002 311.18L19.5302 311.14C20.3402 311.14 20.9702 310.51 20.9702 309.7V297.04H10.4202V309.7C10.4202 310.51 11.0902 311.18 11.9002 311.18Z" fill="#B3B3B3"/>
<path d="M23.4002 317.9V335.41H20.9702V323.28C20.9702 322.47 20.3002 321.84 19.5302 321.84H13.3802V335.41H10.9902V323.28C10.9902 322.47 10.3202 321.84 9.51019 321.84H2.59019V335.41H0.200195V317.9H23.4002Z" fill="#B3B3B3"/>
<path d="M23.4002 338.92V342.82H0.200195V338.92H23.4002Z" fill="#B3B3B3"/>
<path d="M23.4002 356.19V375.49C23.4002 376.93 22.2402 378.09 20.8002 378.09H10.6402C9.20019 378.09 8.04019 376.93 8.04019 375.49V360.06H0.200195V356.19H23.4002ZM11.9002 374.19L19.5302 374.15C20.3402 374.15 20.9702 373.52 20.9702 372.71V360.05H10.4202V372.71C10.4202 373.52 11.0902 374.19 11.9002 374.19Z" fill="#B3B3B3"/>
<path d="M2.90019 380.91H23.6402V384.85H2.23019V389.91H0.200195V383.58C0.200195 382.1 1.43019 380.91 2.91019 380.91H2.90019Z" fill="#B3B3B3"/>
<path d="M8.00019 392.72C9.48019 392.72 10.6702 393.92 10.6702 395.36V407.24H15.8002V394.27H17.8002V407.28C17.8002 409.42 16.4702 411.18 14.8102 411.18H0.200195V395.36C0.200195 393.92 1.40019 392.72 2.87019 392.72H8.00019ZM8.63019 396.62H2.20019V407.23H8.63019V396.62Z" fill="#B3B3B3"/>
<path d="M2.16019 422.53V424.67H0.200195V419.54C0.200195 418.06 1.36019 416.87 2.84019 416.87H15.6702V412.97H17.6702V416.87H23.4002V420.77H17.6702V424.67H15.6702V420.77H3.96019C2.97019 420.77 2.17019 421.58 2.17019 422.53H2.16019Z" fill="#B3B3B3"/>
<path d="M15.1402 426.79C16.6202 426.79 17.8102 427.99 17.8102 429.46V442.61C17.8102 444.09 16.6202 445.28 15.1402 445.28H7.44019V430.73H2.16019V444.97H0.200195V429.47C0.200195 427.99 1.40019 426.8 2.87019 426.8H15.1402V426.79ZM15.8802 430.73H9.48019V441.35H15.8802V430.73Z" fill="#B3B3B3"/>
<path d="M23.41 0V17.93C23.41 19.58 22.07 20.95 20.39 20.95H13.46L13.32 21.09C12.76 21.83 11.88 22.21 10.96 22.21H3.06C1.37 22.21 0 20.84 0 19.19V0H23.41ZM10.02 16.52V4.85H3.41V16.52C3.41 17.01 3.8 17.4 4.29 17.4H9.17C9.63 17.4 10.01 17.01 10.01 16.52H10.02ZM13.39 15.25C13.39 15.71 13.78 16.13 14.27 16.13H19.16C19.65 16.13 20.04 15.71 20.04 15.25V4.85H13.4V15.25H13.39Z" fill="#B3B3B3"/>
<path d="M8.12 25.03C9.84 25.03 11.25 26.44 11.25 28.16V39.16H15.19V26.54H18.21V39.72C18.21 42.11 16.67 44.04 14.77 44.04H0V28.15C0 26.43 1.41 25.02 3.13 25.02H8.12V25.03ZM8.19 39.16V29.92H3.02V39.16H8.19Z" fill="#B3B3B3"/>
<path d="M15.08 72.71H0V67.79H15.19V62.24H0V57.35H15.15V51.8H0V46.88H18.21V69.59C18.21 71.31 16.8 72.72 15.08 72.72V72.71Z" fill="#B3B3B3"/>
<path d="M23.76 75.17V80.09H18.2V91.06C18.2 92.82 16.79 94.22 15.07 94.22H3.13C1.41 94.22 0 92.81 0 91.06V75.17H23.76ZM15.18 89.3V80.09H3.06V89.3H15.19H15.18Z" fill="#B3B3B3"/>
<path d="M18.21 115.11H0V99.7499C0 98.0599 1.37 96.6899 3.06 96.6899H18.21V101.44H2.92V110.4H18.21V115.11Z" fill="#B3B3B3"/>
</g>
<defs>
<clipPath id="clip0_10670_19852">
<rect width="24" height="446" fill="white"/>
</clipPath>
</defs>
</svg>
