<svg width="32" height="32" viewBox="0 0 32 32" fill="none" xmlns="http://www.w3.org/2000/svg">
<path d="M12.5 25C14.9723 25 17.389 24.2669 19.4446 22.8934C21.5002 21.5199 23.1024 19.5676 24.0485 17.2835C24.9946 14.9995 25.2421 12.4861 24.7598 10.0614C24.2775 7.63661 23.087 5.40933 21.3388 3.66117C19.5907 1.91301 17.3634 0.722505 14.9386 0.24019C12.5139 -0.242126 10.0005 0.00541604 7.71646 0.951511C5.43238 1.89761 3.48015 3.49976 2.10663 5.55538C0.733112 7.61099 0 10.0277 0 12.5C0 15.8152 1.31696 18.9946 3.66117 21.3388C6.00537 23.683 9.18479 25 12.5 25ZM12.5 20C12.2033 20 11.9133 19.912 11.6666 19.7472C11.42 19.5824 11.2277 19.3481 11.1142 19.074C11.0006 18.7999 10.9709 18.4983 11.0288 18.2074C11.0867 17.9164 11.2296 17.6491 11.4393 17.4393C11.6491 17.2296 11.9164 17.0867 12.2074 17.0288C12.4983 16.9709 12.7999 17.0007 13.074 17.1142C13.3481 17.2277 13.5824 17.42 13.7472 17.6667C13.912 17.9133 14 18.2033 14 18.5C14 18.8978 13.842 19.2794 13.5607 19.5607C13.2794 19.842 12.8978 20 12.5 20ZM14 14.5C14 14.8978 13.842 15.2794 13.5607 15.5607C13.2794 15.842 12.8978 16 12.5 16C12.1022 16 11.7206 15.842 11.4393 15.5607C11.158 15.2794 11 14.8978 11 14.5V6.50001C11 6.10218 11.158 5.72065 11.4393 5.43935C11.7206 5.15804 12.1022 5.00001 12.5 5.00001C12.8978 5.00001 13.2794 5.15804 13.5607 5.43935C13.842 5.72065 14 6.10218 14 6.50001V14.5Z" fill="#D9D9D9"/>
</svg>
