<svg width="32" height="32" viewBox="0 0 32 32" fill="none" xmlns="http://www.w3.org/2000/svg">
<path d="M12.5 25C14.9723 25 17.389 24.2669 19.4446 22.8934C21.5002 21.5199 23.1024 19.5676 24.0485 17.2835C24.9946 14.9995 25.2421 12.4861 24.7598 10.0614C24.2775 7.63661 23.087 5.40933 21.3388 3.66117C19.5907 1.91301 17.3634 0.722505 14.9386 0.24019C12.5139 -0.242126 10.0005 0.00541604 7.71646 0.951511C5.43238 1.89761 3.48015 3.49976 2.10663 5.55538C0.733112 7.61099 0 10.0277 0 12.5C0 15.8152 1.31696 18.9946 3.66117 21.3388C6.00537 23.683 9.18479 25 12.5 25ZM12.5 20C12.2033 20 11.9133 19.912 11.6666 19.7472C11.42 19.5824 11.2277 19.3481 11.1142 19.074C11.0006 18.7999 10.9709 18.4983 11.0288 18.2074C11.0867 17.9164 11.2296 17.6491 11.4393 17.4393C11.6491 17.2296 11.9164 17.0867 12.2074 17.0288C12.4983 16.9709 12.7999 17.0007 13.074 17.1142C13.3481 17.2277 13.5824 17.42 13.7472 17.6667C13.912 17.9133 14 18.2033 14 18.5C14 18.8978 13.842 19.2794 13.5607 19.5607C13.2794 19.842 12.8978 20 12.5 20ZM14 14.5C14 14.8978 13.842 15.2794 13.5607 15.5607C13.2794 15.842 12.8978 16 12.5 16C12.1022 16 11.7206 15.842 11.4393 15.5607C11.158 15.2794 11 14.8978 11 14.5V6.50001C11 6.10218 11.158 5.72065 11.4393 5.43935C11.7206 5.15804 12.1022 5.00001 12.5 5.00001C12.8978 5.00001 13.2794 5.15804 13.5607 5.43935C13.842 5.72065 14 6.10218 14 6.50001V14.5Z" fill="#D9D9D9"/>
<path d="M19.7739 28C21.106 27.974 22.4146 28.3526 23.5269 29.086C24.4115 29.6531 25.4351 29.9656 26.4856 29.9893C27.5361 30.0129 28.5728 29.7467 29.4819 29.22C29.4739 29.093 29.4719 28.966 29.4539 28.84C29.2975 27.877 28.8537 26.9839 28.1807 26.2776C27.5078 25.5713 26.6372 25.0848 25.6829 24.882C24.9842 23.7779 23.9331 22.9421 22.6999 22.51C22.6699 22.4975 22.6367 22.4949 22.6051 22.5026C22.5736 22.5103 22.5453 22.5278 22.5243 22.5527C22.5034 22.5775 22.4909 22.6084 22.4887 22.6408C22.4864 22.6732 22.4946 22.7055 22.5119 22.733C22.7781 23.1193 22.955 23.5599 23.0299 24.023C23.0785 24.3358 23.0785 24.6542 23.0299 24.967C21.793 25.3288 20.7426 26.1522 20.0959 27.267C19.9675 27.5015 19.8598 27.7468 19.7739 28Z" fill="black"/>
<path d="M26.3609 28.441C26.9069 28.571 27.4129 28.48 27.4899 28.241C27.5669 28.002 27.1899 27.695 26.6389 27.564C26.0879 27.433 25.5869 27.525 25.5099 27.764C25.4329 28.003 25.8139 28.31 26.3609 28.441Z" fill="#D9D9D9" stroke="#D9D9D9" stroke-miterlimit="10"/>
<path d="M1.5 30.5L3 29.5C4.00486 28.8479 5.17711 28.5009 6.375 28.5009C7.57289 28.5009 8.74514 28.8479 9.75 29.5C10.7549 30.1521 11.9271 30.4991 13.125 30.4991C14.3229 30.4991 15.4951 30.1521 16.5 29.5C17.5049 28.8479 18.6771 28.5009 19.875 28.5009C21.0729 28.5009 22.2451 28.8479 23.25 29.5C24.2549 30.1521 25.4271 30.4991 26.625 30.4991C27.8229 30.4991 28.9951 30.1521 30 29.5L31.5 28.5" stroke="#FF7C3F" stroke-linecap="round" stroke-linejoin="round"/>
</svg>
