<svg width="18" height="18" viewBox="0 0 18 18" fill="none" xmlns="http://www.w3.org/2000/svg">
<path d="M7.5 15.5H4.5C4.23478 15.5 3.98043 15.3946 3.79289 15.2071C3.60536 15.0196 3.5 14.7652 3.5 14.5V11.5" stroke="white" stroke-linecap="square" stroke-linejoin="round"/>
<path d="M15.5 11.5V14.5C15.5 14.7652 15.3946 15.0196 15.2071 15.2071C15.0196 15.3946 14.7652 15.5 14.5 15.5H11.5" stroke="white" stroke-linecap="square" stroke-linejoin="round"/>
<path d="M11.5 3.5H14.5C14.7652 3.5 15.0196 3.60536 15.2071 3.79289C15.3946 3.98043 15.5 4.23478 15.5 4.5V7.5" stroke="white" stroke-linecap="square" stroke-linejoin="round"/>
<path d="M3.5 7.5V4.5C3.5 4.23478 3.60536 3.98043 3.79289 3.79289C3.98043 3.60536 4.23478 3.5 4.5 3.5H7.5" stroke="white" stroke-linecap="square" stroke-linejoin="round"/>
<path d="M9.5 3.5V5.5" stroke="white" stroke-linecap="square" stroke-linejoin="round"/>
<path d="M9.5 8.5V10.5" stroke="white" stroke-linecap="square" stroke-linejoin="round"/>
<path d="M9.5 13.5V15.5" stroke="white" stroke-linecap="square" stroke-linejoin="round"/>
<path d="M15.5 9.5H13.5" stroke="white" stroke-linecap="square" stroke-linejoin="round"/>
<path d="M5.5 9.5H3.5" stroke="white" stroke-linecap="square" stroke-linejoin="round"/>
<path d="M10.5 9.5H8.5" stroke="white" stroke-linecap="square" stroke-linejoin="round"/>
</svg>
