<svg width="38" height="22" viewBox="0 0 38 22" fill="none" xmlns="http://www.w3.org/2000/svg">
<path d="M17.5 7.5H8.5C7.94772 7.5 7.5 7.94772 7.5 8.5V17.5C7.5 18.0523 7.94772 18.5 8.5 18.5H17.5C18.0523 18.5 18.5 18.0523 18.5 17.5V8.5C18.5 7.94772 18.0523 7.5 17.5 7.5Z" stroke="#949494" stroke-linecap="round" stroke-linejoin="round"/>
<path d="M18.5 12.5L22.5 9.5V16.5L18.5 13.5" stroke="#949494" stroke-linecap="round" stroke-linejoin="round"/>
<path d="M26.5 8.5L30.5 11.5V4.5L26.5 7.5" stroke="#949494" stroke-linecap="round" stroke-linejoin="round"/>
<path d="M9.5 10.5H12.5" stroke="#949494" stroke-linecap="round" stroke-linejoin="round"/>
<path d="M11 16.5C11.8284 16.5 12.5 15.8284 12.5 15C12.5 14.1716 11.8284 13.5 11 13.5C10.1716 13.5 9.5 14.1716 9.5 15C9.5 15.8284 10.1716 16.5 11 16.5Z" stroke="#949494" stroke-linecap="round" stroke-linejoin="round"/>
<path d="M15.5 5.5V3.5C15.5 3.23478 15.6054 2.98043 15.7929 2.79289C15.9804 2.60536 16.2348 2.5 16.5 2.5H25.5C25.7652 2.5 26.0196 2.60536 26.2071 2.79289C26.3946 2.98043 26.5 3.23478 26.5 3.5V12.5C26.5 12.7652 26.3946 13.0196 26.2071 13.2071C26.0196 13.3946 25.7652 13.5 25.5 13.5H24.5" stroke="#949494" stroke-linecap="round" stroke-linejoin="round"/>
<path d="M8.5 4.5V3.5" stroke="#949494" stroke-linecap="round" stroke-linejoin="round"/>
<path d="M12.5 3.5H8.5" stroke="#949494" stroke-linecap="round" stroke-linejoin="round"/>
<path d="M11.5 2.5L12.5 3.5" stroke="#949494" stroke-linecap="round" stroke-linejoin="round"/>
<path d="M11.5 4.5L12.5 3.5" stroke="#949494" stroke-linecap="round" stroke-linejoin="round"/>
<path d="M29.5 16.5V17.5" stroke="#949494" stroke-linecap="round" stroke-linejoin="round"/>
<path d="M25.5 17.5H29.5" stroke="#949494" stroke-linecap="round" stroke-linejoin="round"/>
<path d="M26.5 18.5L25.5 17.5" stroke="#949494" stroke-linecap="round" stroke-linejoin="round"/>
<path d="M26.5 16.5L25.5 17.5" stroke="#949494" stroke-linecap="round" stroke-linejoin="round"/>
</svg>
