<svg width="24" height="24" viewBox="0 0 24 24" fill="none" xmlns="http://www.w3.org/2000/svg">
<g clip-path="url(#clip0_10670_20163)">
<path d="M12 0C9.62663 0 7.30655 0.703788 5.33316 2.02236C3.35977 3.34094 1.8217 5.21509 0.913451 7.4078C0.00519943 9.60051 -0.232441 12.0133 0.230582 14.3411C0.693605 16.6689 1.83649 18.8071 3.51472 20.4853C5.19295 22.1635 7.33115 23.3064 9.65892 23.7694C11.9867 24.2324 14.3995 23.9948 16.5922 23.0866C18.7849 22.1783 20.6591 20.6402 21.9776 18.6668C23.2962 16.6935 24 14.3734 24 12C24 8.8174 22.7357 5.76515 20.4853 3.51472C18.2348 1.26428 15.1826 0 12 0ZM18.356 10.192L10.45 16.661C10.3674 16.7193 10.2789 16.7689 10.186 16.809C10.1359 16.8416 10.0838 16.871 10.03 16.897C9.86106 16.9632 9.68146 16.9981 9.50001 17C9.32308 16.9978 9.14798 16.9639 8.98301 16.9C8.96101 16.892 8.93901 16.887 8.91701 16.878C8.75579 16.8081 8.60819 16.7103 8.48101 16.589C8.46901 16.577 8.453 16.574 8.44001 16.562L5.44001 13.562C5.15861 13.2806 5.00052 12.899 5.00052 12.501C5.00052 12.304 5.03934 12.1088 5.11474 11.9268C5.19015 11.7447 5.30067 11.5793 5.44001 11.44C5.57934 11.3007 5.74475 11.1901 5.9268 11.1147C6.10884 11.0393 6.30396 11.0005 6.50101 11.0005C6.89896 11.0005 7.28061 11.1586 7.56201 11.44L9.60201 13.48L16.457 7.87C16.7649 7.61804 17.1603 7.49873 17.5562 7.5383C17.7522 7.55789 17.9425 7.6159 18.1161 7.70902C18.2897 7.80214 18.4433 7.92854 18.568 8.081C18.6928 8.23347 18.7863 8.40901 18.8432 8.59761C18.9001 8.78621 18.9193 8.98417 18.8997 9.1802C18.8801 9.37622 18.8221 9.56647 18.729 9.74008C18.6359 9.91368 18.5085 10.0672 18.356 10.192Z" fill="#FF7C3F"/>
</g>
<defs>
<clipPath id="clip0_10670_20163">
<rect width="24" height="24" fill="white"/>
</clipPath>
</defs>
</svg>
