<svg width="16" height="16" viewBox="0 0 16 16" fill="none" xmlns="http://www.w3.org/2000/svg">
<path d="M3.5 8.5H9.5" stroke="#FF7C3F" stroke-linecap="square" stroke-linejoin="round"/>
<path d="M3.5 10.5H9.5" stroke="#FF7C3F" stroke-linecap="square" stroke-linejoin="round"/>
<path d="M3.5 12.5H9.5" stroke="#FF7C3F" stroke-linecap="square" stroke-linejoin="round"/>
<path d="M10.5 4.5H2.5C1.94772 4.5 1.5 4.94772 1.5 5.5V13.5C1.5 14.0523 1.94772 14.5 2.5 14.5H10.5C11.0523 14.5 11.5 14.0523 11.5 13.5V5.5C11.5 4.94772 11.0523 4.5 10.5 4.5Z" stroke="#B3B3B3" stroke-linecap="square" stroke-linejoin="round"/>
<path d="M4.5 2.5C4.5 2.23478 4.60536 1.98043 4.79289 1.79289C4.98043 1.60536 5.23478 1.5 5.5 1.5H13.5C13.7652 1.5 14.0196 1.60536 14.2071 1.79289C14.3946 1.98043 14.5 2.23478 14.5 2.5V10.5C14.5 10.7652 14.3946 11.0196 14.2071 11.2071C14.0196 11.3946 13.7652 11.5 13.5 11.5" stroke="#B3B3B3" stroke-linecap="square" stroke-linejoin="round"/>
<path d="M8.5 4.5H4.5V6.5H8.5V4.5Z" stroke="#FF7C3F" stroke-linecap="round" stroke-linejoin="round"/>
</svg>
