<svg width="16" height="16" viewBox="0 0 16 16" fill="none" xmlns="http://www.w3.org/2000/svg">
<path d="M9.20714 7.50002L14.8541 1.85402C14.948 1.76013 15.0008 1.6328 15.0008 1.50002C15.0008 1.36725 14.948 1.23991 14.8541 1.14602C14.7603 1.05213 14.6329 0.99939 14.5001 0.99939C14.3674 0.99939 14.24 1.05213 14.1461 1.14602L8.50014 6.79302L2.85414 1.14602C2.76026 1.05213 2.63292 0.99939 2.50014 0.99939C2.36737 0.99939 2.24003 1.05213 2.14614 1.14602C2.05226 1.23991 1.99951 1.36725 1.99951 1.50002C1.99951 1.6328 2.05226 1.76013 2.14614 1.85402L7.79314 7.50002L2.14614 13.146C2.09966 13.1925 2.06278 13.2477 2.03762 13.3084C2.01246 13.3692 1.99951 13.4343 1.99951 13.5C1.99951 13.5658 2.01246 13.6309 2.03762 13.6916C2.06278 13.7523 2.09966 13.8075 2.14614 13.854C2.19263 13.9005 2.24782 13.9374 2.30856 13.9625C2.3693 13.9877 2.4344 14.0007 2.50014 14.0007C2.56589 14.0007 2.63099 13.9877 2.69173 13.9625C2.75247 13.9374 2.80766 13.9005 2.85414 13.854L8.50014 8.20702L14.1461 13.854C14.24 13.9479 14.3674 14.0007 14.5001 14.0007C14.6329 14.0007 14.7603 13.9479 14.8541 13.854C14.948 13.7601 15.0008 13.6328 15.0008 13.5C15.0008 13.3672 14.948 13.2399 14.8541 13.146L9.20714 7.50002Z" fill="#FF7C3F"/>
</svg>
