<svg width="16" height="16" viewBox="0 0 16 16" fill="none" xmlns="http://www.w3.org/2000/svg">
<path d="M7.5 6C7.79667 6 8.08668 6.08797 8.33336 6.2528C8.58003 6.41762 8.77229 6.65189 8.88582 6.92597C8.99935 7.20006 9.02906 7.50166 8.97118 7.79264C8.9133 8.08361 8.77044 8.35088 8.56066 8.56066C8.35088 8.77044 8.08361 8.9133 7.79264 8.97118C7.50167 9.02906 7.20007 8.99935 6.92598 8.88582C6.65189 8.77229 6.41762 8.58003 6.2528 8.33335C6.08797 8.08668 6 7.79667 6 7.5C6 7.10218 6.15804 6.72064 6.43934 6.43934C6.72065 6.15804 7.10218 6 7.5 6ZM7.5 5C7.00555 5 6.5222 5.14662 6.11108 5.42133C5.69995 5.69603 5.37952 6.08648 5.1903 6.54329C5.00108 7.00011 4.95157 7.50277 5.04804 7.98773C5.1445 8.47268 5.3826 8.91814 5.73223 9.26777C6.08187 9.6174 6.52732 9.8555 7.01228 9.95196C7.49723 10.0484 7.9999 9.99892 8.45671 9.8097C8.91353 9.62048 9.30397 9.30005 9.57868 8.88893C9.85338 8.4778 10 7.99445 10 7.5C10 6.83696 9.73661 6.20107 9.26777 5.73223C8.79893 5.26339 8.16304 5 7.5 5Z" fill="#FF7C3F"/>
</svg>
