<svg width="16" height="16" viewBox="0 0 16 16" fill="none" xmlns="http://www.w3.org/2000/svg">
<path d="M7.5 9C8.32843 9 9 8.32843 9 7.5C9 6.67157 8.32843 6 7.5 6C6.67157 6 6 6.67157 6 7.5C6 8.32843 6.67157 9 7.5 9Z" fill="#FF7C3F"/>
<path d="M6.5 2.49994C8.5 1.49994 11 3.99994 8.5 6.49994" stroke="#FF7C3F" stroke-linecap="round" stroke-linejoin="round"/>
<path d="M8.49968 12.5C6.49968 13.5 3.99968 11 6.49968 8.5" stroke="#FF7C3F" stroke-linecap="round" stroke-linejoin="round"/>
<path d="M2.66992 5.86599C2.80392 3.63399 6.21892 2.71899 7.13392 6.13399" stroke="#FF7C3F" stroke-linecap="round" stroke-linejoin="round"/>
<path d="M12.3302 9.13397C12.1962 11.366 8.78121 12.281 7.86621 8.86597" stroke="#FF7C3F" stroke-linecap="round" stroke-linejoin="round"/>
<path d="M3.67046 10.866C1.80046 9.63402 2.71946 6.21902 6.13446 7.13402" stroke="#FF7C3F" stroke-linecap="round" stroke-linejoin="round"/>
<path d="M11.3302 4.13403C13.1962 5.36603 12.2812 8.78103 8.86621 7.86603" stroke="#FF7C3F" stroke-linecap="round" stroke-linejoin="round"/>
<path d="M13.5 0.5H1.5C0.947715 0.5 0.5 0.947715 0.5 1.5V13.5C0.5 14.0523 0.947715 14.5 1.5 14.5H13.5C14.0523 14.5 14.5 14.0523 14.5 13.5V1.5C14.5 0.947715 14.0523 0.5 13.5 0.5Z" stroke="#949494" stroke-linecap="round" stroke-linejoin="round"/>
<path d="M7.5 14.5C11.366 14.5 14.5 11.366 14.5 7.5C14.5 3.63401 11.366 0.5 7.5 0.5C3.63401 0.5 0.5 3.63401 0.5 7.5C0.5 11.366 3.63401 14.5 7.5 14.5Z" stroke="#949494" stroke-linecap="round" stroke-linejoin="round"/>
</svg>
