<svg width="16" height="16" viewBox="0 0 16 16" fill="none" xmlns="http://www.w3.org/2000/svg">
<g clip-path="url(#clip0_10670_20193)">
<path d="M10.1997 13.8C8.6547 12.2451 7.36422 10.4565 6.37573 8.50002C4.30473 4.67302 3.35273 1.12402 4.24973 0.572021" stroke="#949494" stroke-linecap="round" stroke-linejoin="round"/>
<path d="M1.78125 6.381C3.78906 5.73578 5.89223 5.43784 8.00025 5.5C12.1423 5.5 15.5002 6.4 15.5002 7.5" stroke="#949494" stroke-linecap="round" stroke-linejoin="round"/>
<path d="M12.017 2.31396C11.5393 4.48589 10.7323 6.572 9.624 8.49996C7.553 12.326 5.147 14.98 4.25 14.427" stroke="#949494" stroke-linecap="round" stroke-linejoin="round"/>
<path d="M15.5 7.49996C15.5 8.59996 12.142 9.49996 8 9.49996C3.858 9.49996 0.5 8.59996 0.5 7.49996C0.5 7.08596 0.972 6.69996 1.781 6.38196" stroke="#FF7C3F" stroke-linecap="round" stroke-linejoin="round"/>
<path d="M4.25002 14.4259C3.35002 13.8739 4.30502 10.3259 6.37602 6.49895C8.44702 2.67195 10.853 0.0199466 11.75 0.571947C12.086 0.778947 12.163 1.40695 12.017 2.31395" stroke="#FF7C3F" stroke-linecap="round" stroke-linejoin="round"/>
<path d="M4.25 0.571947C5.15 0.0199466 7.55 2.67195 9.624 6.49895C11.698 10.3259 12.647 13.8739 11.75 14.4259C11.414 14.6329 10.865 14.3899 10.202 13.8019" stroke="#FF7C3F" stroke-linecap="round" stroke-linejoin="round"/>
<path d="M12 3.80395C12.5523 3.80395 13 3.35624 13 2.80395C13 2.25167 12.5523 1.80396 12 1.80396C11.4477 1.80396 11 2.25167 11 2.80395C11 3.35624 11.4477 3.80395 12 3.80395Z" fill="#FF7C3F" stroke="#FF7C3F" stroke-linecap="round" stroke-linejoin="round"/>
<path d="M9.59961 14.196C10.1519 14.196 10.5996 13.7483 10.5996 13.196C10.5996 12.6438 10.1519 12.196 9.59961 12.196C9.04732 12.196 8.59961 12.6438 8.59961 13.196C8.59961 13.7483 9.04732 14.196 9.59961 14.196Z" fill="#FF7C3F" stroke="#FF7C3F" stroke-linecap="round" stroke-linejoin="round"/>
<path d="M2.5 7.49902C3.05228 7.49902 3.5 7.05131 3.5 6.49902C3.5 5.94674 3.05228 5.49902 2.5 5.49902C1.94772 5.49902 1.5 5.94674 1.5 6.49902C1.5 7.05131 1.94772 7.49902 2.5 7.49902Z" fill="#FF7C3F" stroke="#FF7C3F" stroke-linecap="round" stroke-linejoin="round"/>
</g>
<defs>
<clipPath id="clip0_10670_20193">
<rect width="16" height="16" fill="white"/>
</clipPath>
</defs>
</svg>
