<svg width="16" height="16" viewBox="0 0 16 16" fill="none" xmlns="http://www.w3.org/2000/svg">
<path d="M14.5 2.5V1.5C14.5 1.23478 14.3946 0.98043 14.2071 0.792893C14.0196 0.605357 13.7652 0.5 13.5 0.5H9.5" stroke="#949494" stroke-linecap="square" stroke-linejoin="round"/>
<path d="M5.5 0.5H1.5C1.23478 0.5 0.98043 0.605357 0.792893 0.792893C0.605357 0.98043 0.5 1.23478 0.5 1.5V2.5" stroke="#949494" stroke-linecap="square" stroke-linejoin="round"/>
<path d="M0.5 12.5V13.5C0.5 13.7652 0.605357 14.0196 0.792893 14.2071C0.98043 14.3946 1.23478 14.5 1.5 14.5H5.5" stroke="#949494" stroke-linecap="square" stroke-linejoin="round"/>
<path d="M9.5 14.5H13.5C13.7652 14.5 14.0196 14.3946 14.2071 14.2071C14.3946 14.0196 14.5 13.7652 14.5 13.5V12.5" stroke="#949494" stroke-linecap="square" stroke-linejoin="round"/>
<path d="M7.5 0.5V14.5" stroke="#949494" stroke-linecap="square" stroke-linejoin="round"/>
<path d="M11.5 10.5C13.1569 10.5 14.5 9.15685 14.5 7.5C14.5 5.84315 13.1569 4.5 11.5 4.5C9.84315 4.5 8.5 5.84315 8.5 7.5C8.5 9.15685 9.84315 10.5 11.5 10.5Z" stroke="#FF7C3F" stroke-miterlimit="10"/>
<path d="M3.5 10.5C5.15685 10.5 6.5 9.15685 6.5 7.5C6.5 5.84315 5.15685 4.5 3.5 4.5C1.84315 4.5 0.5 5.84315 0.5 7.5C0.5 9.15685 1.84315 10.5 3.5 10.5Z" stroke="#FF7C3F" stroke-miterlimit="10"/>
<path d="M3.5 8C3.77614 8 4 7.77614 4 7.5C4 7.22386 3.77614 7 3.5 7C3.22386 7 3 7.22386 3 7.5C3 7.77614 3.22386 8 3.5 8Z" fill="#FF7C3F"/>
<path d="M11.5 8C11.7761 8 12 7.77614 12 7.5C12 7.22386 11.7761 7 11.5 7C11.2239 7 11 7.22386 11 7.5C11 7.77614 11.2239 8 11.5 8Z" fill="#FF7C3F"/>
</svg>
