<svg width="16" height="16" viewBox="0 0 16 16" fill="none" xmlns="http://www.w3.org/2000/svg">
<path d="M8 7V12H7V7H8ZM8 6H7C6.73478 6 6.48043 6.10536 6.29289 6.29289C6.10536 6.48043 6 6.73478 6 7V12C6 12.2652 6.10536 12.5196 6.29289 12.7071C6.48043 12.8946 6.73478 13 7 13H8C8.26522 13 8.51957 12.8946 8.70711 12.7071C8.89464 12.5196 9 12.2652 9 12V7C9 6.73478 8.89464 6.48043 8.70711 6.29289C8.51957 6.10536 8.26522 6 8 6Z" fill="#FF7C3F"/>
<path d="M7.5 3C7.59889 3 7.69556 3.02932 7.77779 3.08427C7.86001 3.13921 7.9241 3.2173 7.96194 3.30866C7.99978 3.40002 8.00969 3.50055 7.99039 3.59755C7.9711 3.69454 7.92348 3.78363 7.85355 3.85355C7.78363 3.92348 7.69454 3.9711 7.59755 3.99039C7.50056 4.00969 7.40002 3.99978 7.30866 3.96194C7.2173 3.9241 7.13921 3.86001 7.08427 3.77779C7.02933 3.69556 7 3.59889 7 3.5C7 3.36739 7.05268 3.24021 7.14645 3.14645C7.24022 3.05268 7.36739 3 7.5 3ZM7.5 2C7.20333 2 6.91332 2.08797 6.66665 2.2528C6.41997 2.41762 6.22771 2.65189 6.11418 2.92597C6.00065 3.20006 5.97094 3.50166 6.02882 3.79264C6.0867 4.08361 6.22956 4.35088 6.43934 4.56066C6.64912 4.77044 6.91639 4.9133 7.20737 4.97118C7.49834 5.02906 7.79994 4.99935 8.07403 4.88582C8.34811 4.77229 8.58238 4.58003 8.74721 4.33336C8.91203 4.08668 9 3.79667 9 3.5C9 3.10218 8.84197 2.72064 8.56066 2.43934C8.27936 2.15804 7.89783 2 7.5 2Z" fill="#FF7C3F"/>
</svg>
