<svg width="16" height="16" viewBox="0 0 16 16" fill="none" xmlns="http://www.w3.org/2000/svg">
<path d="M2.5 3.5V12.5" stroke="#FF7C3F" stroke-linecap="round" stroke-linejoin="round"/>
<path d="M4.5 3.5V12.5" stroke="#FF7C3F" stroke-linecap="round" stroke-linejoin="round"/>
<path d="M6.5 3.5H0.5V12.5H6.5V3.5Z" stroke="#FF7C3F" stroke-linecap="round" stroke-linejoin="round"/>
<path d="M13.5 0.5H1.5C1.23478 0.5 0.98043 0.605357 0.792893 0.792893C0.605357 0.98043 0.5 1.23478 0.5 1.5V3.5H10.5C10.7652 3.5 11.0196 3.60536 11.2071 3.79289C11.3946 3.98043 11.5 4.23478 11.5 4.5V12.5H13.5C13.7652 12.5 14.0196 12.3946 14.2071 12.2071C14.3946 12.0196 14.5 11.7652 14.5 11.5V1.5C14.5 1.23478 14.3946 0.98043 14.2071 0.792893C14.0196 0.605357 13.7652 0.5 13.5 0.5Z" stroke="#949494" stroke-linecap="round" stroke-linejoin="round"/>
<path d="M0.5 14.5H14.5" stroke="#949494" stroke-linecap="square" stroke-linejoin="round"/>
</svg>
