<svg width="16" height="16" viewBox="0 0 16 16" fill="none" xmlns="http://www.w3.org/2000/svg">
<path d="M6.83887 2.5C7.11387 1.341 7.53187 0.5 7.99987 0.5C8.46787 0.5 8.88587 1.341 9.16087 2.5" stroke="#949494" stroke-linecap="round" stroke-linejoin="round"/>
<path d="M2.5 10.173C2.44764 10.2625 2.37523 10.3386 2.28847 10.3953C2.2017 10.4521 2.10296 10.4879 2 10.5C1.172 10.5 0.5 7.867 0.5 5.5C0.5 3.133 1.172 0.5 2 0.5C2.207 0.5 2.4 0.665 2.584 0.948" stroke="#949494" stroke-linecap="round" stroke-linejoin="round"/>
<path d="M4 10.5C3.172 10.5 2.5 7.867 2.5 5.5C2.5 3.133 3.172 0.5 4 0.5" stroke="#FF7C3F" stroke-linecap="round" stroke-linejoin="round"/>
<path d="M4.64941 3.5C4.89141 1.858 5.40541 0.5 6.00041 0.5" stroke="#FF7C3F" stroke-linecap="round" stroke-linejoin="round"/>
<path d="M13 14.5C13.8284 14.5 14.5 12.2614 14.5 9.5C14.5 6.73858 13.8284 4.5 13 4.5C12.1716 4.5 11.5 6.73858 11.5 9.5C11.5 12.2614 12.1716 14.5 13 14.5Z" stroke="#949494" stroke-linecap="round" stroke-linejoin="round"/>
<path d="M7.5 14.173C7.44764 14.2625 7.37523 14.3386 7.28847 14.3953C7.2017 14.4521 7.10296 14.4879 7 14.5C6.172 14.5 5.5 11.867 5.5 9.5C5.5 7.133 6.172 4.5 7 4.5C7.207 4.5 7.4 4.665 7.584 4.948" stroke="#949494" stroke-linecap="round" stroke-linejoin="round"/>
<path d="M11 14.5C10.172 14.5 9.5 11.867 9.5 9.5C9.5 7.133 10.172 4.5 11 4.5" stroke="#FF7C3F" stroke-linecap="round" stroke-linejoin="round"/>
<path d="M9 14.5C8.172 14.5 7.5 11.867 7.5 9.5C7.5 7.133 8.172 4.5 9 4.5" stroke="#FF7C3F" stroke-linecap="round" stroke-linejoin="round"/>
<path d="M3.5 11.5C3.45408 12.2807 3.12327 13.0173 2.5703 13.5703C2.01733 14.1233 1.28066 14.4541 0.5 14.5H5.5" stroke="#FF7C3F" stroke-linecap="round" stroke-linejoin="round"/>
</svg>
