<svg width="16" height="16" viewBox="0 0 16 16" fill="none" xmlns="http://www.w3.org/2000/svg">
<path d="M0.5 7.5H1.5L2.5 5.5L5.5 11.5L10.5 2.5L13.344 7.5H14.5" stroke="#FF7C3F" stroke-linecap="square" stroke-linejoin="round"/>
<path d="M0.5 10.5V13.5C0.5 13.7652 0.605357 14.0196 0.792893 14.2071C0.98043 14.3946 1.23478 14.5 1.5 14.5H13.5C13.7652 14.5 14.0196 14.3946 14.2071 14.2071C14.3946 14.0196 14.5 13.7652 14.5 13.5V10.5" stroke="#949494" stroke-linecap="square" stroke-linejoin="round"/>
<path d="M14.5 4.5V1.5C14.5 1.23478 14.3946 0.98043 14.2071 0.792893C14.0196 0.605357 13.7652 0.5 13.5 0.5H1.5C1.23478 0.5 0.98043 0.605357 0.792893 0.792893C0.605357 0.98043 0.5 1.23478 0.5 1.5V4.5" stroke="#949494" stroke-linecap="square" stroke-linejoin="round"/>
<path d="M11 10C11.1978 10 11.3911 10.0586 11.5556 10.1685C11.72 10.2784 11.8482 10.4346 11.9239 10.6173C11.9996 10.8 12.0194 11.0011 11.9808 11.1951C11.9422 11.3891 11.847 11.5673 11.7071 11.7071C11.5673 11.847 11.3891 11.9422 11.1951 11.9808C11.0011 12.0194 10.8 11.9996 10.6173 11.9239C10.4346 11.8482 10.2784 11.72 10.1685 11.5556C10.0587 11.3911 10 11.1978 10 11C10 10.7348 10.1054 10.4804 10.2929 10.2929C10.4804 10.1054 10.7348 10 11 10ZM11 9C10.6044 9 10.2178 9.1173 9.88886 9.33706C9.55996 9.55682 9.30362 9.86918 9.15224 10.2346C9.00087 10.6001 8.96126 11.0022 9.03843 11.3902C9.1156 11.7781 9.30608 12.1345 9.58579 12.4142C9.86549 12.6939 10.2219 12.8844 10.6098 12.9616C10.9978 13.0387 11.3999 12.9991 11.7654 12.8478C12.1308 12.6964 12.4432 12.44 12.6629 12.1111C12.8827 11.7822 13 11.3956 13 11C13 10.4696 12.7893 9.96086 12.4142 9.58579C12.0391 9.21071 11.5304 9 11 9Z" fill="#FF7C3F"/>
</svg>
