<svg width="16" height="16" viewBox="0 0 16 16" fill="none" xmlns="http://www.w3.org/2000/svg">
<path d="M14.5 14.5H0.5V0.5" stroke="#949494" stroke-linecap="square" stroke-linejoin="round"/>
<path d="M4.5 6.5C4.5 5.94772 4.05228 5.5 3.5 5.5C2.94772 5.5 2.5 5.94772 2.5 6.5V11.5C2.5 12.0523 2.94772 12.5 3.5 12.5C4.05228 12.5 4.5 12.0523 4.5 11.5V6.5Z" stroke="#FF7C3F" stroke-linecap="round" stroke-linejoin="round"/>
<path d="M9.5 2.5C9.5 1.94772 9.05228 1.5 8.5 1.5C7.94772 1.5 7.5 1.94772 7.5 2.5V11.5C7.5 12.0523 7.94772 12.5 8.5 12.5C9.05228 12.5 9.5 12.0523 9.5 11.5V2.5Z" stroke="#FF7C3F" stroke-linecap="round" stroke-linejoin="round"/>
<path d="M14.5 4.5C14.5 3.94772 14.0523 3.5 13.5 3.5C12.9477 3.5 12.5 3.94772 12.5 4.5V11.5C12.5 12.0523 12.9477 12.5 13.5 12.5C14.0523 12.5 14.5 12.0523 14.5 11.5V4.5Z" stroke="#FF7C3F" stroke-linecap="round" stroke-linejoin="round"/>
</svg>
