<svg width="16" height="16" viewBox="0 0 16 16" fill="none" xmlns="http://www.w3.org/2000/svg">
<path d="M6.5 2.5H12.5" stroke="#FF7C3F" stroke-linecap="square" stroke-linejoin="round"/>
<path d="M13.5 0.5H1.5C0.947715 0.5 0.5 0.947715 0.5 1.5V13.5C0.5 14.0523 0.947715 14.5 1.5 14.5H13.5C14.0523 14.5 14.5 14.0523 14.5 13.5V1.5C14.5 0.947715 14.0523 0.5 13.5 0.5Z" stroke="#949494" stroke-linecap="round" stroke-linejoin="round"/>
<path d="M6.5 6.5H12.5" stroke="#FF7C3F" stroke-linecap="square" stroke-linejoin="round"/>
<path d="M6.5 8.5H8.5" stroke="#FF7C3F" stroke-linecap="square" stroke-linejoin="round"/>
<path d="M6.5 12.5H8.5" stroke="#FF7C3F" stroke-linecap="square" stroke-linejoin="round"/>
<path d="M6.5 4.5H8.5" stroke="#FF7C3F" stroke-linecap="square" stroke-linejoin="round"/>
<path d="M6.5 10.5H12.5" stroke="#FF7C3F" stroke-linecap="square" stroke-linejoin="round"/>
<path d="M4.5 3.5C4.5 2.94772 4.05228 2.5 3.5 2.5C2.94772 2.5 2.5 2.94772 2.5 3.5C2.5 4.05228 2.94772 4.5 3.5 4.5C4.05228 4.5 4.5 4.05228 4.5 3.5Z" stroke="#FF7C3F" stroke-miterlimit="10"/>
<path d="M4.5 7.5C4.5 6.94772 4.05228 6.5 3.5 6.5C2.94772 6.5 2.5 6.94772 2.5 7.5C2.5 8.05228 2.94772 8.5 3.5 8.5C4.05228 8.5 4.5 8.05228 4.5 7.5Z" stroke="#FF7C3F" stroke-miterlimit="10"/>
<path d="M4.5 11.5C4.5 10.9477 4.05228 10.5 3.5 10.5C2.94772 10.5 2.5 10.9477 2.5 11.5C2.5 12.0523 2.94772 12.5 3.5 12.5C4.05228 12.5 4.5 12.0523 4.5 11.5Z" stroke="#FF7C3F" stroke-miterlimit="10"/>
</svg>
