<svg width="16" height="16" viewBox="0 0 16 16" fill="none" xmlns="http://www.w3.org/2000/svg">
<path d="M2 4.5C2.82843 4.5 3.5 3.82843 3.5 3C3.5 2.17157 2.82843 1.5 2 1.5C1.17157 1.5 0.5 2.17157 0.5 3C0.5 3.82843 1.17157 4.5 2 4.5Z" stroke="#949494" stroke-linecap="round" stroke-linejoin="round"/>
<path d="M4.5 9C4.50053 9.96495 4.81123 10.9042 5.38624 11.6791C5.96125 12.454 6.77013 13.0235 7.69352 13.3037C8.6169 13.5838 9.60588 13.5598 10.5145 13.235C11.4232 12.9102 12.2034 12.302 12.74 11.5" stroke="#949494" stroke-linecap="square" stroke-linejoin="round"/>
<path d="M12.74 4.49996C12.2034 3.69798 11.4232 3.08974 10.5145 2.76497C9.60588 2.4402 8.6169 2.41612 7.69352 2.69627C6.77013 2.97642 5.96125 3.54598 5.38624 4.32088C4.81123 5.09579 4.50053 6.03502 4.5 6.99996" stroke="#949494" stroke-linecap="square" stroke-linejoin="round"/>
<path d="M4.5 7.5V8.5" stroke="#949494" stroke-linecap="square" stroke-linejoin="round"/>
</svg>
