<svg width="16" height="16" viewBox="0 0 16 16" fill="none" xmlns="http://www.w3.org/2000/svg">
<path d="M14.5 6.49997V13.5C14.5 13.7652 14.3946 14.0195 14.2071 14.2071C14.0196 14.3946 13.7652 14.5 13.5 14.5H1.5C1.23478 14.5 0.98043 14.3946 0.792893 14.2071C0.605357 14.0195 0.5 13.7652 0.5 13.5V1.49997C0.5 1.23475 0.605357 0.980399 0.792893 0.792863C0.98043 0.605326 1.23478 0.499969 1.5 0.499969H8.5M3.5 9.49997V11.5H5.5L14.086 2.91397C14.3512 2.64875 14.5002 2.28904 14.5002 1.91397C14.5002 1.5389 14.3512 1.17919 14.086 0.913969C13.8208 0.648753 13.4611 0.499756 13.086 0.499756C12.7109 0.499756 12.3512 0.648753 12.086 0.913969L3.5 9.49997Z" stroke="#949494" stroke-linecap="square" stroke-linejoin="round"/>
</svg>
