<svg width="32" height="32" viewBox="0 0 32 32" fill="none" xmlns="http://www.w3.org/2000/svg">
<path d="M24.633 18.9999L14.848 2.33288C14.6055 1.92572 14.2615 1.58853 13.8495 1.35436C13.4376 1.12019 12.9718 0.99707 12.498 0.99707C12.0241 0.99707 11.5584 1.12019 11.1464 1.35436C10.7344 1.58853 10.3904 1.92572 10.148 2.33288L0.366953 18.9999C0.131262 19.4082 0.00801993 19.8717 0.00978431 20.3432C0.0115487 20.8146 0.138256 21.2772 0.376997 21.6837C0.615739 22.0903 0.95798 22.4262 1.36885 22.6574C1.77973 22.8887 2.24455 23.0068 2.71595 22.9999H22.284C22.7554 23.0068 23.2202 22.8887 23.6311 22.6574C24.0419 22.4262 24.3842 22.0903 24.6229 21.6837C24.8617 21.2772 24.9884 20.8146 24.9901 20.3432C24.9919 19.8717 24.8686 19.4082 24.633 18.9999ZM12.5 19.9999C12.2033 19.9999 11.9133 19.9119 11.6666 19.7471C11.4199 19.5823 11.2277 19.348 11.1141 19.0739C11.0006 18.7998 10.9709 18.4982 11.0288 18.2072C11.0867 17.9163 11.2295 17.649 11.4393 17.4392C11.6491 17.2294 11.9163 17.0866 12.2073 17.0287C12.4983 16.9708 12.7999 17.0005 13.074 17.1141C13.3481 17.2276 13.5823 17.4199 13.7472 17.6665C13.912 17.9132 14 18.2032 14 18.4999C14 18.8977 13.8419 19.2792 13.5606 19.5605C13.2793 19.8418 12.8978 19.9999 12.5 19.9999ZM14 14.4999C14 14.8977 13.8419 15.2792 13.5606 15.5605C13.2793 15.8418 12.8978 15.9999 12.5 15.9999C12.1021 15.9999 11.7206 15.8418 11.4393 15.5605C11.158 15.2792 11 14.8977 11 14.4999V6.49988C11 6.10206 11.158 5.72053 11.4393 5.43922C11.7206 5.15792 12.1021 4.99988 12.5 4.99988C12.8978 4.99988 13.2793 5.15792 13.5606 5.43922C13.8419 5.72053 14 6.10206 14 6.49988V14.4999Z" fill="#FF6F00"/>
<path d="M23.5272 29.084C24.4514 29.6797 25.5276 29.9965 26.6272 29.9965C27.7267 29.9965 28.803 29.6797 29.7272 29.084L30.4272 28.615C30.2433 27.5388 29.7603 26.536 29.0333 25.7215C28.3063 24.9069 27.3647 24.3135 26.3162 24.009C25.495 22.8794 24.3491 22.0269 23.0312 21.565L22.8152 21.5H22.6462C22.4346 21.4995 22.227 21.557 22.046 21.6664C21.8649 21.7757 21.7172 21.9326 21.6192 22.12C21.5216 22.3042 21.4766 22.5117 21.4889 22.7198C21.5013 22.9279 21.5705 23.1286 21.6892 23.3C21.8722 23.5628 21.9933 23.8637 22.0432 24.18C22.0432 24.206 22.0512 24.233 22.0552 24.26C20.8666 24.7698 19.8756 25.6516 19.2312 26.773C18.9971 27.1927 18.8189 27.6411 18.7012 28.107C20.3756 27.8007 22.1037 28.1505 23.5272 29.084Z" fill="#D9D9D9"/>
<path d="M19.7739 28C21.106 27.974 22.4146 28.3526 23.5269 29.086C24.4115 29.6531 25.4351 29.9656 26.4856 29.9893C27.5361 30.0129 28.5728 29.7467 29.4819 29.22C29.4739 29.093 29.4719 28.966 29.4539 28.84C29.2975 27.877 28.8537 26.9839 28.1807 26.2776C27.5078 25.5713 26.6372 25.0848 25.6829 24.882C24.9842 23.7779 23.9331 22.9421 22.6999 22.51C22.6699 22.4975 22.6367 22.4949 22.6051 22.5026C22.5736 22.5103 22.5453 22.5278 22.5243 22.5527C22.5034 22.5775 22.4909 22.6084 22.4887 22.6408C22.4864 22.6732 22.4946 22.7055 22.5119 22.733C22.7781 23.1193 22.955 23.5599 23.0299 24.023C23.0785 24.3358 23.0785 24.6542 23.0299 24.967C21.793 25.3288 20.7426 26.1522 20.0959 27.267C19.9675 27.5015 19.8598 27.7468 19.7739 28Z" fill="black"/>
<path d="M26.3609 28.441C26.9069 28.571 27.4129 28.48 27.4899 28.241C27.5669 28.002 27.1899 27.695 26.6389 27.564C26.0879 27.433 25.5869 27.525 25.5099 27.764C25.4329 28.003 25.8139 28.31 26.3609 28.441Z" fill="#D9D9D9" stroke="#D9D9D9" stroke-miterlimit="10"/>
<path d="M1.5 30.5L3 29.5C4.00486 28.8479 5.17711 28.5009 6.375 28.5009C7.57289 28.5009 8.74514 28.8479 9.75 29.5C10.7549 30.1521 11.9271 30.4991 13.125 30.4991C14.3229 30.4991 15.4951 30.1521 16.5 29.5C17.5049 28.8479 18.6771 28.5009 19.875 28.5009C21.0729 28.5009 22.2451 28.8479 23.25 29.5C24.2549 30.1521 25.4271 30.4991 26.625 30.4991C27.8229 30.4991 28.9951 30.1521 30 29.5L31.5 28.5" stroke="#FF7C3F" stroke-linecap="round" stroke-linejoin="round"/>
</svg>
