<svg width="32" height="32" viewBox="0 0 32 32" fill="none" xmlns="http://www.w3.org/2000/svg">
<path d="M24.633 18.9999L14.848 2.33288C14.6055 1.92572 14.2615 1.58853 13.8495 1.35436C13.4376 1.12019 12.9718 0.99707 12.498 0.99707C12.0241 0.99707 11.5584 1.12019 11.1464 1.35436C10.7344 1.58853 10.3904 1.92572 10.148 2.33288L0.366953 18.9999C0.131262 19.4082 0.00801993 19.8717 0.00978431 20.3432C0.0115487 20.8146 0.138256 21.2772 0.376997 21.6837C0.615739 22.0903 0.95798 22.4262 1.36885 22.6574C1.77973 22.8887 2.24455 23.0068 2.71595 22.9999H22.284C22.7554 23.0068 23.2202 22.8887 23.6311 22.6574C24.0419 22.4262 24.3842 22.0903 24.6229 21.6837C24.8617 21.2772 24.9884 20.8146 24.9901 20.3432C24.9919 19.8717 24.8686 19.4082 24.633 18.9999ZM12.5 19.9999C12.2033 19.9999 11.9133 19.9119 11.6666 19.7471C11.4199 19.5823 11.2277 19.348 11.1141 19.0739C11.0006 18.7998 10.9709 18.4982 11.0288 18.2072C11.0867 17.9163 11.2295 17.649 11.4393 17.4392C11.6491 17.2294 11.9163 17.0866 12.2073 17.0287C12.4983 16.9708 12.7999 17.0005 13.074 17.1141C13.3481 17.2276 13.5823 17.4199 13.7472 17.6665C13.912 17.9132 14 18.2032 14 18.4999C14 18.8977 13.8419 19.2792 13.5606 19.5605C13.2793 19.8418 12.8978 19.9999 12.5 19.9999ZM14 14.4999C14 14.8977 13.8419 15.2792 13.5606 15.5605C13.2793 15.8418 12.8978 15.9999 12.5 15.9999C12.1021 15.9999 11.7206 15.8418 11.4393 15.5605C11.158 15.2792 11 14.8977 11 14.4999V6.49988C11 6.10206 11.158 5.72053 11.4393 5.43922C11.7206 5.15792 12.1021 4.99988 12.5 4.99988C12.8978 4.99988 13.2793 5.15792 13.5606 5.43922C13.8419 5.72053 14 6.10206 14 6.49988V14.4999Z" fill="#FF6F00"/>
</svg>
