<svg width="64" height="64" viewBox="0 0 64 64" fill="none" xmlns="http://www.w3.org/2000/svg">
<path d="M4.53333 30.6667H59.4667C59.8222 30.6667 60 30.8444 60 31.2V34.1333C60 34.4889 59.8222 34.6667 59.4667 34.6667H4.53333C4.17778 34.6667 4 34.4889 4 34.1333V31.2C4 30.8444 4.17778 30.6667 4.53333 30.6667Z" fill="#1296DB"/>
<path d="M8 41.8667V51.5C7.99972 52.648 8.43818 53.7526 9.22564 54.5879C10.0131 55.4232 11.09 55.926 12.236 55.9933L12.5 56H22.1333C22.4267 56 22.6667 56.24 22.6667 56.5333V59.4667C22.6667 59.5367 22.6529 59.6061 22.6261 59.6708C22.5993 59.7355 22.56 59.7943 22.5105 59.8438C22.4609 59.8933 22.4021 59.9326 22.3374 59.9594C22.2727 59.9862 22.2034 60 22.1333 60H12.8427C10.4974 60 8.24828 59.0684 6.58996 57.41C4.93164 55.7517 4 53.5026 4 51.1573V41.8667C4 41.5733 4.24 41.3333 4.53333 41.3333H7.46667C7.76 41.3333 8 41.5733 8 41.8667ZM60 41.8667V51.1573C60 53.5026 59.0684 55.7517 57.41 57.41C55.7517 59.0684 53.5026 60 51.1573 60H41.8667C41.7966 60 41.7273 59.9862 41.6626 59.9594C41.5979 59.9326 41.5391 59.8933 41.4895 59.8438C41.44 59.7943 41.4007 59.7355 41.3739 59.6708C41.3471 59.6061 41.3333 59.5367 41.3333 59.4667V56.5333C41.3333 56.24 41.5733 56 41.8667 56H51.5C52.648 56.0003 53.7526 55.5618 54.5879 54.7744C55.4232 53.9869 55.926 52.91 55.9933 51.764L56 51.5V41.8667C56 41.5733 56.24 41.3333 56.5333 41.3333H59.4667C59.76 41.3333 60 41.5733 60 41.8667ZM22.6667 4.53333V7.46667C22.6667 7.53671 22.6529 7.60606 22.6261 7.67076C22.5993 7.73547 22.56 7.79427 22.5105 7.84379C22.4609 7.89332 22.4021 7.9326 22.3374 7.9594C22.2727 7.98621 22.2034 8 22.1333 8H12.5C11.352 7.99972 10.2474 8.43818 9.41208 9.22564C8.57678 10.0131 8.07401 11.09 8.00667 12.236L8 12.5V22.1333C8 22.2034 7.98621 22.2727 7.9594 22.3374C7.9326 22.4021 7.89332 22.4609 7.84379 22.5105C7.79427 22.56 7.73547 22.5993 7.67076 22.6261C7.60606 22.6529 7.53671 22.6667 7.46667 22.6667H4.53333C4.46329 22.6667 4.39394 22.6529 4.32924 22.6261C4.26453 22.5993 4.20573 22.56 4.15621 22.5105C4.10668 22.4609 4.0674 22.4021 4.0406 22.3374C4.01379 22.2727 4 22.2034 4 22.1333V12.8427C4 10.4974 4.93164 8.24828 6.58996 6.58996C8.24828 4.93164 10.4974 4 12.8427 4H22.1333C22.4267 4 22.6667 4.24 22.6667 4.53333ZM51.1573 4C53.5026 4 55.7517 4.93164 57.41 6.58996C59.0684 8.24828 60 10.4974 60 12.8427V22.1333C60 22.2034 59.9862 22.2727 59.9594 22.3374C59.9326 22.4021 59.8933 22.4609 59.8438 22.5105C59.7943 22.56 59.7355 22.5993 59.6708 22.6261C59.6061 22.6529 59.5367 22.6667 59.4667 22.6667H56.5333C56.4633 22.6667 56.3939 22.6529 56.3292 22.6261C56.2645 22.5993 56.2057 22.56 56.1562 22.5105C56.1067 22.4609 56.0674 22.4021 56.0406 22.3374C56.0138 22.2727 56 22.2034 56 22.1333V12.5C56.0003 11.352 55.5618 10.2474 54.7744 9.41208C53.9869 8.57678 52.91 8.07401 51.764 8.00667L51.5 8H41.8667C41.7966 8 41.7273 7.98621 41.6626 7.9594C41.5979 7.9326 41.5391 7.89332 41.4895 7.84379C41.44 7.79427 41.4007 7.73547 41.3739 7.67076C41.3471 7.60606 41.3333 7.53671 41.3333 7.46667V4.53333C41.3333 4.24 41.5733 4 41.8667 4H51.1573ZM43.3787 38.668L46.7547 38.6667C46.7998 38.6666 46.8443 38.6764 46.8853 38.6954C46.9262 38.7143 46.9625 38.7419 46.9917 38.7763C47.0209 38.8107 47.0422 38.851 47.0542 38.8945C47.0663 38.9379 47.0687 38.9835 47.0613 39.028C46.5306 42.5685 44.7696 45.8089 42.0875 48.1801C39.4053 50.5514 35.9735 51.902 32.3947 51.9947L32 52C28.3774 52 24.8734 50.7087 22.1171 48.3578C19.3609 46.007 17.5329 42.7506 16.9613 39.1733C16.9521 39.1103 16.9566 39.046 16.9745 38.9849C16.9925 38.9237 17.0233 38.8672 17.0651 38.8191C17.1069 38.771 17.1586 38.7325 17.2166 38.7062C17.2746 38.6799 17.3376 38.6664 17.4013 38.6667H17.4733C18.4796 38.6667 19.4858 38.6667 20.492 38.6667C20.6147 38.667 20.7336 38.7095 20.8286 38.7873C20.9235 38.865 20.9888 38.9731 21.0133 39.0933L21.036 39.2C22.1373 44.1853 26.4933 47.836 31.6013 47.9947L31.948 48L32.292 47.996C34.8374 47.9299 37.2847 47.0006 39.2326 45.3607C41.1804 43.7208 42.5131 41.4676 43.012 38.9707C43.0284 38.8855 43.074 38.8087 43.1409 38.7534C43.2078 38.6982 43.2919 38.668 43.3787 38.668ZM32 12C41.0267 12 48.3427 19.3173 48.3427 28.3427C48.3427 29.0653 48.2947 29.7867 48.2 30.5027L47.644 34.6667H43.608L44.2347 29.9733C44.4644 28.2454 44.3255 26.4883 43.8271 24.8179C43.3287 23.1475 42.4821 21.6016 41.3431 20.282C40.204 18.9624 38.7984 17.8991 37.2188 17.162C35.6391 16.4248 33.9212 16.0307 32.1782 16.0055C30.4352 15.9803 28.7066 16.3245 27.1063 17.0156C25.506 17.7067 24.0702 18.729 22.8935 20.0151C21.7167 21.3011 20.8258 22.8219 20.2793 24.4772C19.7327 26.1325 19.543 27.8848 19.7227 29.6187L19.7653 29.9747L20.3893 34.6667H16.3547L15.8 30.5027C14.608 21.556 20.8933 13.336 29.84 12.1427C30.5561 12.0474 31.2776 11.9998 32 12Z" fill="#1296DB"/>
</svg>
