<svg width="100" height="100" viewBox="0 0 100 100" fill="none" xmlns="http://www.w3.org/2000/svg">
<g clip-path="url(#clip0_10670_18137)">
<mask id="mask0_10670_18137" style="mask-type:luminance" maskUnits="userSpaceOnUse" x="0" y="0" width="100" height="100">
<path d="M100 0H0V100H100V0Z" fill="white"/>
</mask>
<g mask="url(#mask0_10670_18137)">
<path fill-rule="evenodd" clip-rule="evenodd" d="M32.2532 15.2624C37.0179 12.8234 42.3504 11.3358 47.9999 11.0504V13.0531C42.7142 13.3347 37.723 14.7256 33.2548 16.9972L32.2532 15.2624ZM28.7909 17.2656C24.1875 20.2544 20.2541 24.1879 17.2654 28.7913L19.0001 29.7929C21.8099 25.4912 25.4908 21.8102 29.7925 19.0004L28.7909 17.2656ZM11.0503 48C11.3357 42.3506 12.8232 37.0183 15.2622 32.2536L16.9969 33.2552C14.7254 37.7233 13.3346 42.7145 13.0531 48H11.0503ZM70.2068 81C74.5087 78.1901 78.1898 74.509 80.9997 70.2072L82.7344 71.2087C79.7456 75.8124 75.812 79.7459 71.2083 82.7347L70.2068 81ZM88.9495 52C88.6642 57.6494 87.1766 62.9818 84.7376 67.7465L83.0029 66.7449C85.2744 62.2768 86.6653 57.2856 86.9468 52H88.9495ZM51.9999 11.0504V13.0531C57.2854 13.3347 62.2764 14.7254 66.7445 16.9969L67.7461 15.2621C62.9815 12.8232 57.6492 11.3358 51.9999 11.0504ZM71.2084 17.2653L70.2068 19C74.5087 21.8099 78.1898 25.491 80.9997 29.7929L82.7345 28.7913C79.7457 24.1877 75.812 20.2541 71.2084 17.2653ZM29.7925 80.9996C25.4909 78.1898 21.8099 74.5089 19.0001 70.2072L17.2654 71.2087C20.2541 75.8122 24.1875 79.7456 28.791 82.7344L29.7925 80.9996ZM13.0531 52C13.3346 57.2856 14.7254 62.2767 16.997 66.7449L15.2622 67.7465C12.8232 62.9818 11.3357 57.6494 11.0503 52H13.0531ZM84.7377 32.2536L83.0029 33.2552C85.2744 37.7233 86.6653 42.7144 86.9468 48H88.9495C88.6642 42.3506 87.1766 37.0182 84.7377 32.2536Z" fill="#FF7C3F"/>
<path fill-rule="evenodd" clip-rule="evenodd" d="M4.46154 50C4.46154 24.8498 24.8498 4.46154 50 4.46154C75.1502 4.46154 95.5385 24.8498 95.5385 50C95.5385 66.1387 87.1432 80.3165 74.4817 88.4047L75.7138 90.5387C89.1106 82.0233 98 67.0498 98 50C98 23.4903 76.5097 2 50 2C23.4903 2 2 23.4903 2 50C2 67.0493 10.8889 82.0225 24.2851 90.538L25.5172 88.404C12.8563 80.3157 4.46154 66.1382 4.46154 50Z" fill="#6B6B6B"/>
</g>
</g>
<defs>
<clipPath id="clip0_10670_18137">
<rect width="100" height="100" fill="white"/>
</clipPath>
</defs>
</svg>
