<svg width="18" height="18" viewBox="0 0 18 18" fill="none" xmlns="http://www.w3.org/2000/svg">
<path d="M8.5 16.5C12.9183 16.5 16.5 12.9183 16.5 8.5C16.5 4.08172 12.9183 0.5 8.5 0.5C4.08172 0.5 0.5 4.08172 0.5 8.5C0.5 12.9183 4.08172 16.5 8.5 16.5Z" stroke="#949494" stroke-linecap="round" stroke-linejoin="round"/>
<path d="M8.5 10.5C9.60457 10.5 10.5 9.60457 10.5 8.5C10.5 7.39543 9.60457 6.5 8.5 6.5C7.39543 6.5 6.5 7.39543 6.5 8.5C6.5 9.60457 7.39543 10.5 8.5 10.5Z" stroke="#FF7C3F" stroke-linecap="round" stroke-linejoin="round"/>
<path d="M7.5 2.5C9.5 1.5 12 4 9.5 6.5" stroke="#FF7C3F" stroke-linecap="round" stroke-linejoin="round"/>
<path d="M9.49968 14.5C7.49968 15.5 4.99968 13 7.49968 10.5" stroke="#FF7C3F" stroke-linecap="round" stroke-linejoin="round"/>
<path d="M13.2003 4.634C15.0663 5.866 14.1513 9.281 10.7363 8.366" stroke="#FF7C3F" stroke-linecap="round" stroke-linejoin="round"/>
<path d="M3.79954 12.366C1.93354 11.134 2.84854 7.719 6.26354 8.634" stroke="#FF7C3F" stroke-linecap="round" stroke-linejoin="round"/>
<path d="M14.2003 10.634C14.0663 12.866 10.6513 13.781 9.73633 10.366" stroke="#FF7C3F" stroke-linecap="round" stroke-linejoin="round"/>
<path d="M2.7998 6.366C2.9338 4.134 6.3488 3.219 7.2638 6.634" stroke="#FF7C3F" stroke-linecap="round" stroke-linejoin="round"/>
</svg>
