<svg width="16" height="16" viewBox="0 0 16 16" fill="none" xmlns="http://www.w3.org/2000/svg">
<path d="M5.5 14.5C4.395 14.5 3.5 10.814 3.5 7.5C3.5 4.186 4.395 0.5 5.5 0.5" stroke="#FF7C3F" stroke-linecap="round" stroke-linejoin="round"/>
<path d="M8.5 14.5C7.395 14.5 6.5 10.814 6.5 7.5C6.5 4.186 7.395 0.5 8.5 0.5" stroke="#FF7C3F" stroke-linecap="round" stroke-linejoin="round"/>
<path d="M3.5 13.7C3.206 14.211 2.864 14.5 2.5 14.5C1.4 14.5 0.5 10.814 0.5 7.5C0.5 4.186 1.4 0.5 2.5 0.5C2.865 0.5 3.207 0.793 3.5 1.305" stroke="#949494" stroke-linecap="round" stroke-linejoin="round"/>
<path d="M11.5 14.5C12.6046 14.5 13.5 11.366 13.5 7.5C13.5 3.63401 12.6046 0.5 11.5 0.5C10.3954 0.5 9.5 3.63401 9.5 7.5C9.5 11.366 10.3954 14.5 11.5 14.5Z" stroke="#949494" stroke-linecap="round" stroke-linejoin="round"/>
</svg>
