<svg width="14" height="14" viewBox="0 0 14 14" fill="none" xmlns="http://www.w3.org/2000/svg">
<g clip-path="url(#clip0_10670_18194)">
<path d="M3.5 13.5H0.5" stroke="#949494" stroke-linecap="square" stroke-linejoin="round"/>
<path d="M6.5 1.5H8.5" stroke="#FF7C3F" stroke-linecap="round" stroke-linejoin="round"/>
<path d="M7.5 0.5V2.5" stroke="#FF7C3F" stroke-linecap="round" stroke-linejoin="round"/>
<path d="M0.5 5.5H4.5" stroke="#FF7C3F" stroke-linecap="round" stroke-linejoin="round"/>
<path d="M2.5 3.5V7.5" stroke="#FF7C3F" stroke-linecap="round" stroke-linejoin="round"/>
<path d="M0.5 3C0.776142 3 1 2.77614 1 2.5C1 2.22386 0.776142 2 0.5 2C0.223858 2 0 2.22386 0 2.5C0 2.77614 0.223858 3 0.5 3Z" fill="#FF7C3F"/>
<path d="M5.5 4C5.77614 4 6 3.77614 6 3.5C6 3.22386 5.77614 3 5.5 3C5.22386 3 5 3.22386 5 3.5C5 3.77614 5.22386 4 5.5 4Z" fill="#FF7C3F"/>
<path d="M4.5 8C4.77614 8 5 7.77614 5 7.5C5 7.22386 4.77614 7 4.5 7C4.22386 7 4 7.22386 4 7.5C4 7.77614 4.22386 8 4.5 8Z" fill="#FF7C3F"/>
<path d="M3.5 11C3.77614 11 4 10.7761 4 10.5C4 10.2239 3.77614 10 3.5 10C3.22386 10 3 10.2239 3 10.5C3 10.7761 3.22386 11 3.5 11Z" fill="#FF7C3F"/>
<path d="M0.5 10C0.776142 10 1 9.77614 1 9.5C1 9.22386 0.776142 9 0.5 9C0.223858 9 0 9.22386 0 9.5C0 9.77614 0.223858 10 0.5 10Z" fill="#FF7C3F"/>
<path d="M3.5 2C3.77614 2 4 1.77614 4 1.5C4 1.22386 3.77614 1 3.5 1C3.22386 1 3 1.22386 3 1.5C3 1.77614 3.22386 2 3.5 2Z" fill="#FF7C3F"/>
<path d="M1.5 1C1.77614 1 2 0.776142 2 0.5C2 0.223858 1.77614 0 1.5 0C1.22386 0 1 0.223858 1 0.5C1 0.776142 1.22386 1 1.5 1Z" fill="#FF7C3F"/>
<path d="M13.5 10.667C13.5 12.5 12.5 13.5 11.5 13.5" stroke="#FF7C3F" stroke-linecap="round" stroke-linejoin="round"/>
<path d="M11.5 10.667C11.5 12.5 10.5 13.5 9.5 13.5" stroke="#FF7C3F" stroke-linecap="round" stroke-linejoin="round"/>
<path d="M9.5 10.667C9.5 12.5 8.5 13.5 7.5 13.5" stroke="#FF7C3F" stroke-linecap="round" stroke-linejoin="round"/>
<path d="M7.5 10.667C7.5 12.5 6.5 13.5 5.5 13.5" stroke="#FF7C3F" stroke-linecap="round" stroke-linejoin="round"/>
<path d="M13.5 7.5H11.5L13.136 1.775C13.1786 1.62612 13.186 1.46938 13.1577 1.31714C13.1294 1.1649 13.0661 1.02131 12.9728 0.897698C12.8796 0.774085 12.7589 0.67382 12.6202 0.604806C12.4816 0.535792 12.3289 0.499914 12.174 0.5H11.5C11.2348 0.5 10.9804 0.605357 10.7929 0.792893C10.6054 0.98043 10.5 1.23478 10.5 1.5V7.5H8.5L7.5 9.5H13.5V7.5Z" stroke="#949494" stroke-linecap="round" stroke-linejoin="round"/>
</g>
<defs>
<clipPath id="clip0_10670_18194">
<rect width="14" height="14" fill="white"/>
</clipPath>
</defs>
</svg>
