<svg width="18" height="18" viewBox="0 0 18 18" fill="none" xmlns="http://www.w3.org/2000/svg">
<path d="M4 6H2V7H4V6Z" fill="#FF7C3F"/>
<path d="M1 6H0V7H1V6Z" fill="#949494"/>
<path d="M7 6H5V7H7V6Z" fill="#FF7C3F"/>
<path d="M10 6H8V7H10V6Z" fill="#FF7C3F"/>
<path d="M13 6H11V7H13V6Z" fill="#FF7C3F"/>
<path d="M3 4H1V5H3V4Z" fill="#FF7C3F"/>
<path d="M6 4H4V5H6V4Z" fill="#FF7C3F"/>
<path d="M9 4H7V5H9V4Z" fill="#FF7C3F"/>
<path d="M4 2H2V3H4V2Z" fill="#FF7C3F"/>
<path d="M7 2H5V3H7V2Z" fill="#FF7C3F"/>
<path d="M9 2H8V3H9V2Z" fill="#FF7C3F"/>
<path d="M12 4H10V5H12V4Z" fill="#FF7C3F"/>
<path d="M4 10H2V11H4V10Z" fill="#FF7C3F"/>
<path d="M1 10H0V11H1V10Z" fill="#949494"/>
<path d="M7 10H5V11H7V10Z" fill="#FF7C3F"/>
<path d="M10 10H8V11H10V10Z" fill="#FF7C3F"/>
<path d="M3 8H1V9H3V8Z" fill="#FF7C3F"/>
<path d="M6 8H4V9H6V8Z" fill="#FF7C3F"/>
<path d="M9 8H7V9H9V8Z" fill="#FF7C3F"/>
<path d="M11 8H10V9H11V8Z" fill="#FF7C3F"/>
<path d="M3 12H1V13H3V12Z" fill="#FF7C3F"/>
<path d="M4 14H2V15H4V14Z" fill="#FF7C3F"/>
<path d="M6 14H5V15H6V14Z" fill="#FF7C3F"/>
<path d="M6 12H4V13H6V12Z" fill="#FF7C3F"/>
<path d="M8 12H7V13H8V12Z" fill="#FF7C3F"/>
<path d="M0.5 14.5V15.5C0.5 16.05 0.95 16.5 1.5 16.5H15.5C16.05 16.5 16.5 16.05 16.5 15.5V1.5C16.5 0.95 16.05 0.5 15.5 0.5H1.5C0.95 0.5 0.5 0.95 0.5 1.5V2.5" stroke="#949494" stroke-linecap="round" stroke-linejoin="round"/>
</svg>
