<svg width="36" height="36" viewBox="0 0 36 36" fill="none" xmlns="http://www.w3.org/2000/svg">
<g clip-path="url(#clip0_10670_18249)">
<g filter="url(#filter0_d_10670_18249)">
<path d="M2 4L2 32C2 33.1046 2.89543 34 4 34H32C33.1046 34 34 33.1046 34 32V4C34 2.89543 33.1046 2 32 2L4 2C2.89543 2 2 2.89543 2 4Z" fill="#EEEEEE"/>
</g>
<path d="M13.3006 18.65C12.8998 18.3331 12.8998 17.6669 13.3006 17.35L19.8807 12.1469C20.351 11.7751 21 12.152 21 12.7969V23.2031C21 23.848 20.351 24.2249 19.8807 23.8531L13.3006 18.65Z" fill="#909090"/>
</g>
<defs>
<filter id="filter0_d_10670_18249" x="0.953722" y="0.953722" width="34.0926" height="34.0926" filterUnits="userSpaceOnUse" color-interpolation-filters="sRGB">
<feFlood flood-opacity="0" result="BackgroundImageFix"/>
<feColorMatrix in="SourceAlpha" type="matrix" values="0 0 0 0 0 0 0 0 0 0 0 0 0 0 0 0 0 0 127 0" result="hardAlpha"/>
<feOffset/>
<feGaussianBlur stdDeviation="0.523139"/>
<feComposite in2="hardAlpha" operator="out"/>
<feColorMatrix type="matrix" values="0 0 0 0 0 0 0 0 0 0 0 0 0 0 0 0 0 0 0.15 0"/>
<feBlend mode="normal" in2="BackgroundImageFix" result="effect1_dropShadow_10670_18249"/>
<feBlend mode="normal" in="SourceGraphic" in2="effect1_dropShadow_10670_18249" result="shape"/>
</filter>
<clipPath id="clip0_10670_18249">
<rect width="36" height="36" fill="white"/>
</clipPath>
</defs>
</svg>
