<svg width="18" height="18" viewBox="0 0 18 18" fill="none" xmlns="http://www.w3.org/2000/svg">
<path d="M16.7649 13.273L10.4999 1.90901C10.3554 1.63564 10.1391 1.40685 9.87426 1.24727C9.60942 1.08769 9.30608 1.00336 8.99687 1.00336C8.68767 1.00336 8.38433 1.08769 8.11949 1.24727C7.85465 1.40685 7.63835 1.63564 7.49388 1.90901L1.23488 13.273C1.0783 13.5442 0.994405 13.8513 0.9913 14.1644C0.988195 14.4776 1.06599 14.7862 1.21715 15.0605C1.36831 15.3347 1.58772 15.5653 1.85414 15.7299C2.12056 15.8945 2.42496 15.9876 2.73788 16H15.2619C15.5748 15.9876 15.8792 15.8945 16.1456 15.7299C16.412 15.5653 16.6314 15.3347 16.7826 15.0605C16.9338 14.7862 17.0116 14.4776 17.0085 14.1644C17.0053 13.8513 16.9214 13.5442 16.7649 13.273Z" fill="#FF6F00"/>
<path d="M10 11H8V4H10V11ZM10 12H8V14H10V12Z" fill="#E6E6E6"/>
</svg>
