<svg width="18" height="18" viewBox="0 0 18 18" fill="none" xmlns="http://www.w3.org/2000/svg">
<path d="M9 17C10.5823 17 12.129 16.5308 13.4446 15.6518C14.7602 14.7727 15.7855 13.5233 16.391 12.0615C16.9965 10.5997 17.155 8.99113 16.8463 7.43928C16.5376 5.88743 15.7757 4.46197 14.6569 3.34315C13.538 2.22433 12.1126 1.4624 10.5607 1.15372C9.00887 0.84504 7.40034 1.00347 5.93853 1.60897C4.47672 2.21447 3.22729 3.23985 2.34824 4.55544C1.46919 5.87103 1 7.41775 1 9C1 11.1217 1.84285 13.1566 3.34315 14.6569C4.84344 16.1571 6.87827 17 9 17Z" fill="#ED1C24"/>
<path d="M10 11H8V4H10V11ZM10 12H8V14H10V12Z" fill="#E6E6E6"/>
</svg>
