<svg width="54" height="54" viewBox="0 0 54 54" fill="none" xmlns="http://www.w3.org/2000/svg">
<path fill-rule="evenodd" clip-rule="evenodd" d="M9.80164 26.4449C8.44807 29.5938 7.60156 32.3462 7.60156 34.1636C7.60156 41.1348 12.8786 48.3795 23.6424 49.7664H31.045C41.8501 48.2863 46.6491 40.1796 46.6491 34.1636C46.6491 32.6462 45.8811 30.1266 44.6426 27.1418C42.1221 27.9536 39.1564 28.6157 36.313 28.6157C33.0003 28.6157 30.8231 27.753 28.562 26.8572C26.1197 25.8896 23.5796 24.8832 19.4051 24.8832C14.4785 24.8832 11.7458 25.7958 10.0485 26.3626C9.96366 26.391 9.88143 26.4184 9.80164 26.4449Z" fill="#94DFFF"/>
<path d="M7.60156 34.1636C7.60156 26.4128 22.9971 1.65861 27.4598 1.65881C31.9225 1.65902 46.649 27.5191 46.649 34.1636C46.649 40.8082 40.7948 50.0033 27.4598 50.0033C14.1249 50.0033 7.60156 41.9145 7.60156 34.1636Z" stroke="#858585" stroke-width="1.65888"/>
<path d="M31.2066 26.5702C32.4209 27.028 33.3466 27.7048 33.9836 28.6006C34.6206 29.4765 34.9391 30.5714 34.9391 31.8852C34.9391 33.2389 34.5907 34.4034 33.894 35.3788C33.2172 36.3343 32.2915 37.0709 31.117 37.5884C29.9624 38.0861 28.6785 38.3349 27.2651 38.3349C25.4536 38.3349 23.871 37.9069 22.5174 37.051C21.1837 36.195 20.2381 34.9508 19.6807 33.3185L23.1146 31.3477C23.4331 32.3829 23.9606 33.1692 24.6972 33.7067C25.4337 34.2242 26.2598 34.483 27.1755 34.483C28.0713 34.483 28.8178 34.2242 29.415 33.7067C30.0321 33.1891 30.3407 32.4725 30.3407 31.5568C30.3407 29.5462 28.8079 28.5409 25.7423 28.5409H24.936V24.9577H26.1006C27.2353 24.9577 28.1012 24.689 28.6984 24.1515C29.3155 23.5941 29.624 22.9073 29.624 22.0912C29.624 21.3347 29.3752 20.7276 28.8775 20.2697C28.3799 19.8119 27.7329 19.583 26.9367 19.583C26.0807 19.583 25.3342 19.8616 24.6972 20.419C24.0801 20.9565 23.6023 21.7329 23.2639 22.7481L19.9793 20.8669C20.4969 19.1948 21.4026 17.9208 22.6966 17.0449C23.9905 16.1491 25.5233 15.7012 27.295 15.7012C28.6685 15.7012 29.8729 15.96 30.908 16.4775C31.9631 16.9752 32.7792 17.6819 33.3565 18.5976C33.9338 19.5133 34.2225 20.5683 34.2225 21.7627C34.2225 22.8775 33.9637 23.843 33.4461 24.6591C32.9484 25.4753 32.2019 26.1123 31.2066 26.5702Z" fill="#858585"/>
</svg>
