<svg width="54" height="54" viewBox="0 0 54 54" fill="none" xmlns="http://www.w3.org/2000/svg">
<path fill-rule="evenodd" clip-rule="evenodd" d="M16.8177 13.3563C11.9966 20.8736 7.52637 29.9871 7.52637 34.1636C7.52637 41.1346 12.803 48.379 23.566 49.7662H30.9709C41.7752 48.2858 46.5739 40.1794 46.5739 34.1636C46.5739 31.0432 43.3259 23.6847 39.4184 16.757C38.3607 16.9125 37.2908 17.0034 36.2378 17.0034C32.9251 17.0034 30.7479 16.1407 28.4868 15.2449C26.0445 14.2773 23.5044 13.2709 19.3299 13.2709C18.4201 13.2709 17.5852 13.302 16.8177 13.3563Z" fill="#23A4DC"/>
<path d="M7.52637 34.1636C7.52637 26.4128 22.9219 1.65861 27.3846 1.65881C31.8473 1.65902 46.5738 27.5191 46.5738 34.1636C46.5738 40.8082 40.7195 50.0033 27.3846 50.0033C14.0497 50.0033 7.52637 41.9145 7.52637 34.1636Z" stroke="#E1E1E1" stroke-width="1.65888"/>
<path d="M32.161 24.7189V29.8249H35.1172V33.5275H32.161V37.9766H27.9209V33.5275H18.5449V30.5714L26.0696 16.0894H30.6083L23.4121 29.8249H27.9209V24.7189H32.161Z" fill="white"/>
</svg>
