<svg width="54" height="54" viewBox="0 0 54 54" fill="none" xmlns="http://www.w3.org/2000/svg">
<path d="M7.61035 34.1636C7.61035 26.4128 23.0059 1.65861 27.4687 1.65881C31.9314 1.65902 46.6579 27.5191 46.6579 34.1636C46.6579 40.8082 40.8036 50.0033 27.4687 50.0033C14.1337 50.0033 7.61035 41.9145 7.61035 34.1636Z" fill="#94DFFF"/>
<path d="M7.61035 34.1636C7.61035 26.4128 23.0059 1.65861 27.4687 1.65881C31.9314 1.65902 46.6579 27.5191 46.6579 34.1636C46.6579 40.8082 40.8036 50.0033 27.4687 50.0033C14.1337 50.0033 7.61035 41.9145 7.61035 34.1636Z" stroke="#858585" stroke-width="1.65888"/>
<path d="M28.17 23.7633C29.4241 23.7633 30.5687 24.0619 31.6039 24.6591C32.639 25.2364 33.4552 26.0725 34.0524 27.1674C34.6496 28.2423 34.9482 29.4865 34.9482 30.8998C34.9482 32.4326 34.6098 33.7664 33.9329 34.9011C33.276 36.0158 32.3703 36.8718 31.2157 37.469C30.0611 38.0463 28.7871 38.3349 27.3936 38.3349C25.7414 38.3349 24.3081 37.9567 23.0938 37.2003C21.8994 36.4438 21.0534 35.2992 20.5557 33.7664L24.0493 31.7658C24.3081 32.6616 24.7262 33.3384 25.3035 33.7962C25.8807 34.2541 26.5576 34.483 27.3339 34.483C28.3093 34.483 29.0558 34.1645 29.5734 33.5275C30.1109 32.8706 30.3796 32.0445 30.3796 31.0491C30.3796 30.0538 30.1009 29.2277 29.5436 28.5708C29.0061 27.8939 28.2297 27.5555 27.2145 27.5555C25.9007 27.5555 24.8556 28.2025 24.0792 29.4964L20.9738 27.9736L22.4668 16.0894H33.9329V19.792H26.1097L25.5125 24.3008C26.3685 23.9425 27.2543 23.7633 28.17 23.7633Z" fill="#858585"/>
</svg>
