<svg width="54" height="54" viewBox="0 0 54 54" fill="none" xmlns="http://www.w3.org/2000/svg">
<path d="M7.27344 34.1636C7.27344 26.4128 22.669 1.65861 27.1317 1.65881C31.5945 1.65902 46.321 27.5191 46.321 34.1636C46.321 40.8082 40.4667 50.0033 27.1317 50.0033C13.7968 50.0033 7.27344 41.9145 7.27344 34.1636Z" fill="#23A4DC"/>
<path d="M7.27344 34.1636C7.27344 26.4128 22.669 1.65861 27.1317 1.65881C31.5945 1.65902 46.321 27.5191 46.321 34.1636C46.321 40.8082 40.4667 50.0033 27.1317 50.0033C13.7968 50.0033 7.27344 41.9145 7.27344 34.1636Z" stroke="#E1E1E1" stroke-width="1.65888"/>
<path d="M27.8326 23.7633C29.0867 23.7633 30.2313 24.0619 31.2665 24.6591C32.3016 25.2364 33.1178 26.0725 33.715 27.1674C34.3122 28.2423 34.6108 29.4865 34.6108 30.8998C34.6108 32.4326 34.2723 33.7664 33.5955 34.9011C32.9386 36.0158 32.0329 36.8718 30.8783 37.469C29.7237 38.0463 28.4497 38.3349 27.0562 38.3349C25.404 38.3349 23.9707 37.9567 22.7564 37.2003C21.562 36.4438 20.716 35.2992 20.2183 33.7664L23.7119 31.7658C23.9707 32.6616 24.3887 33.3384 24.966 33.7962C25.5433 34.2541 26.2201 34.483 26.9965 34.483C27.9719 34.483 28.7184 34.1645 29.236 33.5275C29.7735 32.8706 30.0422 32.0445 30.0422 31.0491C30.0422 30.0538 29.7635 29.2277 29.2061 28.5708C28.6686 27.8939 27.8923 27.5555 26.8771 27.5555C25.5632 27.5555 24.5181 28.2025 23.7418 29.4964L20.6363 27.9736L22.1293 16.0894H33.5955V19.792H25.7722L25.175 24.3008C26.031 23.9425 26.9169 23.7633 27.8326 23.7633Z" fill="white"/>
</svg>
