<svg width="54" height="54" viewBox="0 0 54 54" fill="none" xmlns="http://www.w3.org/2000/svg">
<path fill-rule="evenodd" clip-rule="evenodd" d="M23.3137 49.5304C18.1409 48.8671 14.2353 46.8575 11.5737 44.1788C13.873 43.957 17.1372 43.7528 21.0549 43.7528C25.2294 43.7528 27.2362 44.4204 29.1657 45.0624C30.9521 45.6567 32.6722 46.2289 35.9849 46.2289C37.3003 46.2289 38.6418 46.1036 39.9534 45.8978C37.585 47.6742 34.5239 49.0115 30.7175 49.5304H23.3137Z" fill="#23A4DC"/>
<path d="M7.27344 34.0043C7.27344 26.2915 22.669 1.65861 27.1317 1.65881C31.5945 1.65902 46.321 27.3924 46.321 34.0043C46.321 40.6163 40.4667 49.7663 27.1317 49.7663C13.7968 49.7663 7.27344 41.7171 7.27344 34.0043Z" stroke="#E1E1E1" stroke-width="1.65888"/>
<path d="M19.2163 22.3651V18.2146L25.9049 14.4224H29.2791V36.3096H24.8897V19.1999L19.2163 22.3651Z" fill="white"/>
</svg>
