<svg width="54" height="54" viewBox="0 0 54 54" fill="none" xmlns="http://www.w3.org/2000/svg">
<path fill-rule="evenodd" clip-rule="evenodd" d="M45.7887 38.3055C43.8831 44.0795 37.9992 50.0033 27.296 50.0033C16.5143 50.0033 10.1855 44.7155 8.15723 38.5938L8.58618 38.3615C8.94444 38.2887 9.36627 38.1478 9.88467 37.9747C11.582 37.4079 14.3146 36.4952 19.2413 36.4952C23.4157 36.4952 25.9558 37.5016 28.3981 38.4693C30.6592 39.3651 32.8365 40.2277 36.1491 40.2277C39.5025 40.2277 43.026 39.3069 45.7887 38.3055Z" fill="#94DFFF"/>
<path d="M7.4375 34.1636C7.4375 26.4128 22.8331 1.65861 27.2958 1.65881C31.7585 1.65902 46.485 27.5191 46.485 34.1636C46.485 40.8082 40.6308 50.0033 27.2958 50.0033C13.9609 50.0033 7.4375 41.9145 7.4375 34.1636Z" stroke="#858585" stroke-width="1.65888"/>
<path d="M26.2051 34.1844H34.954V37.9766H19.8748V35.1698L26.4738 27.7646C27.6085 26.4905 28.3948 25.4952 28.8327 24.7786C29.2906 24.042 29.5195 23.2856 29.5195 22.5092C29.5195 21.6532 29.2806 20.9665 28.8029 20.4489C28.3251 19.9313 27.6782 19.6725 26.862 19.6725C26.0259 19.6725 25.2894 19.9811 24.6524 20.5982C24.0153 21.1954 23.5276 22.0514 23.1892 23.1661L19.7852 21.1954C20.3028 19.4237 21.2384 18.0701 22.592 17.1344C23.9457 16.1789 25.5083 15.7012 27.28 15.7012C28.6735 15.7012 29.8778 15.9898 30.8931 16.5671C31.9282 17.1245 32.7145 17.9008 33.252 18.8962C33.8094 19.8915 34.0881 21.0262 34.0881 22.3002C34.0881 23.5543 33.7795 24.7288 33.1624 25.8237C32.5652 26.8986 31.4903 28.302 29.9375 30.0339L26.2051 34.1844Z" fill="#858585"/>
</svg>
