<svg width="54" height="54" viewBox="0 0 54 54" fill="none" xmlns="http://www.w3.org/2000/svg">
<path fill-rule="evenodd" clip-rule="evenodd" d="M45.7086 38.3055C43.803 44.0795 37.9191 50.0033 27.216 50.0033C16.4343 50.0033 10.1055 44.7155 8.07715 38.5938L8.50611 38.3615C8.86437 38.2887 9.28619 38.1478 9.80459 37.9747C11.5019 37.4079 14.2346 36.4952 19.1612 36.4952C23.3357 36.4952 25.8758 37.5016 28.3181 38.4693C30.5792 39.3651 32.7564 40.2277 36.0691 40.2277C39.4225 40.2277 42.9459 39.3069 45.7086 38.3055Z" fill="#23A4DC"/>
<path d="M7.35742 34.1636C7.35742 26.4128 22.753 1.65861 27.2157 1.65881C31.6784 1.65902 46.4049 27.5191 46.4049 34.1636C46.4049 40.8082 40.5507 50.0033 27.2157 50.0033C13.8808 50.0033 7.35742 41.9145 7.35742 34.1636Z" stroke="#E1E1E1" stroke-width="1.65888"/>
<path d="M26.125 34.1844H34.8739V37.9766H19.7947V35.1698L26.3938 27.7646C27.5284 26.4905 28.3147 25.4952 28.7527 24.7786C29.2105 24.042 29.4395 23.2856 29.4395 22.5092C29.4395 21.6532 29.2006 20.9665 28.7228 20.4489C28.2451 19.9313 27.5981 19.6725 26.7819 19.6725C25.9459 19.6725 25.2093 19.9811 24.5723 20.5982C23.9353 21.1954 23.4476 22.0514 23.1092 23.1661L19.7051 21.1954C20.2227 19.4237 21.1583 18.0701 22.512 17.1344C23.8656 16.1789 25.4283 15.7012 27.2 15.7012C28.5934 15.7012 29.7978 15.9898 30.813 16.5671C31.8481 17.1245 32.6345 17.9008 33.1719 18.8962C33.7293 19.8915 34.008 21.0262 34.008 22.3002C34.008 23.5543 33.6995 24.7288 33.0824 25.8237C32.4852 26.8986 31.4102 28.302 29.8575 30.0339L26.125 34.1844Z" fill="white"/>
</svg>
