<svg width="54" height="54" viewBox="0 0 54 54" fill="none" xmlns="http://www.w3.org/2000/svg">
<path fill-rule="evenodd" clip-rule="evenodd" d="M9.64246 26.4449C8.28889 29.5938 7.44238 32.3462 7.44238 34.1636C7.44238 41.1348 12.7194 48.3795 23.4831 49.7664H30.8858C41.6909 48.2863 46.4899 40.1796 46.4899 34.1636C46.4899 32.6462 45.7218 30.1266 44.4834 27.1418C41.9629 27.9536 38.9972 28.6157 36.1537 28.6157C32.8411 28.6157 30.6638 27.753 28.4027 26.8572C25.9604 25.8896 23.4203 24.8832 19.2459 24.8832C14.3193 24.8832 11.5866 25.7958 9.88929 26.3626C9.80448 26.391 9.72225 26.4184 9.64246 26.4449Z" fill="#23A4DC"/>
<path d="M7.44141 34.1636C7.44141 26.4128 22.8369 1.65861 27.2997 1.65881C31.7624 1.65902 46.4889 27.5191 46.4889 34.1636C46.4889 40.8082 40.6346 50.0033 27.2997 50.0033C13.9647 50.0033 7.44141 41.9145 7.44141 34.1636Z" stroke="#E1E1E1" stroke-width="1.65888"/>
<path d="M31.0464 26.5702C32.2607 27.028 33.1863 27.7048 33.8233 28.6006C34.4604 29.4765 34.7789 30.5714 34.7789 31.8852C34.7789 33.2389 34.4305 34.4034 33.7338 35.3788C33.0569 36.3343 32.1313 37.0709 30.9568 37.5884C29.8022 38.0861 28.5182 38.3349 27.1049 38.3349C25.2934 38.3349 23.7108 37.9069 22.3572 37.051C21.0234 36.195 20.0779 34.9508 19.5205 33.3185L22.9544 31.3477C23.2729 32.3829 23.8004 33.1692 24.5369 33.7067C25.2735 34.2242 26.0996 34.483 27.0153 34.483C27.9111 34.483 28.6576 34.2242 29.2548 33.7067C29.8719 33.1891 30.1804 32.4725 30.1804 31.5568C30.1804 29.5462 28.6476 28.5409 25.582 28.5409H24.7758V24.9577H25.9403C27.075 24.9577 27.941 24.689 28.5381 24.1515C29.1553 23.5941 29.4638 22.9073 29.4638 22.0912C29.4638 21.3347 29.215 20.7276 28.7173 20.2697C28.2196 19.8119 27.5727 19.583 26.7764 19.583C25.9204 19.583 25.1739 19.8616 24.5369 20.419C23.9198 20.9565 23.4421 21.7329 23.1037 22.7481L19.8191 20.8669C20.3366 19.1948 21.2424 17.9208 22.5363 17.0449C23.8302 16.1491 25.3631 15.7012 27.1347 15.7012C28.5083 15.7012 29.7126 15.96 30.7478 16.4775C31.8028 16.9752 32.619 17.6819 33.1963 18.5976C33.7736 19.5133 34.0622 20.5683 34.0622 21.7627C34.0622 22.8775 33.8034 23.843 33.2859 24.6591C32.7882 25.4753 32.0417 26.1123 31.0464 26.5702Z" fill="white"/>
</svg>
