<svg width="54" height="54" viewBox="0 0 54 54" fill="none" xmlns="http://www.w3.org/2000/svg">
<path fill-rule="evenodd" clip-rule="evenodd" d="M17.058 13.3563C12.2368 20.8736 7.7666 29.9871 7.7666 34.1636C7.7666 41.1346 13.0433 48.379 23.8063 49.7662H31.2111C42.0155 48.2858 46.8141 40.1794 46.8141 34.1636C46.8141 31.0432 43.5662 23.6847 39.6587 16.757C38.6009 16.9125 37.5311 17.0034 36.478 17.0034C33.1654 17.0034 30.9881 16.1407 28.727 15.2449C26.2847 14.2773 23.7446 13.2709 19.5702 13.2709C18.6604 13.2709 17.8254 13.302 17.058 13.3563Z" fill="#94DFFF"/>
<path d="M7.7666 34.1636C7.7666 26.4128 23.1621 1.65861 27.6249 1.65881C32.0876 1.65902 46.8141 27.5191 46.8141 34.1636C46.8141 40.8082 40.9598 50.0033 27.6249 50.0033C14.2899 50.0033 7.7666 41.9145 7.7666 34.1636Z" stroke="#858585" stroke-width="1.65888"/>
<path d="M32.4013 24.7189V29.8249H35.3574V33.5275H32.4013V37.9766H28.1612V33.5275H18.7852V30.5714L26.3099 16.0894H30.8486L23.6524 29.8249H28.1612V24.7189H32.4013Z" fill="#858585"/>
</svg>
