<svg width="50" height="50" viewBox="0 0 50 50" fill="none" xmlns="http://www.w3.org/2000/svg">
<path d="M18.5 7.5V6.5C18.5 6.23478 18.6054 5.98043 18.7929 5.79289C18.9804 5.60536 19.2348 5.5 19.5 5.5H36.5C36.7652 5.5 37.0196 5.60536 37.2071 5.79289C37.3946 5.98043 37.5 6.23478 37.5 6.5V23.5C37.5 23.7652 37.3946 24.0196 37.2071 24.2071C37.0196 24.3946 36.7652 24.5 36.5 24.5H35.5" stroke="#C4C4C4" stroke-linecap="round" stroke-linejoin="round"/>
<path d="M16.5 9.5V8.5C16.5 8.23478 16.6054 7.98043 16.7929 7.79289C16.9804 7.60536 17.2348 7.5 17.5 7.5H34.5C34.7652 7.5 35.0196 7.60536 35.2071 7.79289C35.3946 7.98043 35.5 8.23478 35.5 8.5V25.5C35.5 25.7652 35.3946 26.0196 35.2071 26.2071C35.0196 26.3946 34.7652 26.5 34.5 26.5H33.5" stroke="#C4C4C4" stroke-linecap="round" stroke-linejoin="round"/>
<path d="M32.5 9.5H15.5C14.9477 9.5 14.5 9.94772 14.5 10.5V27.5C14.5 28.0523 14.9477 28.5 15.5 28.5H32.5C33.0523 28.5 33.5 28.0523 33.5 27.5V10.5C33.5 9.94772 33.0523 9.5 32.5 9.5Z" stroke="#C4C4C4" stroke-linecap="round" stroke-linejoin="round"/>
<path d="M18 20C18.5523 20 19 19.5523 19 19C19 18.4477 18.5523 18 18 18C17.4477 18 17 18.4477 17 19C17 19.5523 17.4477 20 18 20Z" fill="#FF7C3F"/>
<path d="M24 20C24.5523 20 25 19.5523 25 19C25 18.4477 24.5523 18 24 18C23.4477 18 23 18.4477 23 19C23 19.5523 23.4477 20 24 20Z" fill="#FF7C3F"/>
<path d="M30 20C30.5523 20 31 19.5523 31 19C31 18.4477 30.5523 18 30 18C29.4477 18 29 18.4477 29 19C29 19.5523 29.4477 20 30 20Z" fill="#FF7C3F"/>
</svg>
