<svg width="50" height="50" viewBox="0 0 50 50" fill="none" xmlns="http://www.w3.org/2000/svg">
<path d="M18.5 7.5V6.5C18.5 5.95 18.95 5.5 19.5 5.5H36.5C37.05 5.5 37.5 5.95 37.5 6.5V23.5C37.5 24.05 37.05 24.5 36.5 24.5H35.5" stroke="#808080" stroke-linecap="round" stroke-linejoin="round"/>
<path d="M16.5 9.5V8.5C16.5 7.95 16.95 7.5 17.5 7.5H34.5C35.05 7.5 35.5 7.95 35.5 8.5V25.5C35.5 26.05 35.05 26.5 34.5 26.5H33.5" stroke="#808080" stroke-linecap="round" stroke-linejoin="round"/>
<path d="M32.5 9.5H15.5C14.9477 9.5 14.5 9.94772 14.5 10.5V27.5C14.5 28.0523 14.9477 28.5 15.5 28.5H32.5C33.0523 28.5 33.5 28.0523 33.5 27.5V10.5C33.5 9.94772 33.0523 9.5 32.5 9.5Z" stroke="#808080" stroke-linecap="round" stroke-linejoin="round"/>
<path d="M31 19C31 22.87 27.87 26 24 26C20.13 26 17 22.87 17 19C17 15.13 20.13 12 24 12C27.87 12 31 15.13 31 19ZM23 23C23 23.55 23.45 24 24 24C24.55 24 25 23.55 25 23C25 22.45 24.55 22 24 22C23.45 22 23 22.45 23 23ZM24 14C23.45 14 23 14.45 23 15V20C23 20.55 23.45 21 24 21C24.55 21 25 20.55 25 20V15C25 14.45 24.55 14 24 14Z" fill="#E14747"/>
</svg>
