<svg width="16" height="16" viewBox="0 0 16 16" fill="none" xmlns="http://www.w3.org/2000/svg">
<g clip-path="url(#clip0_10670_18452)">
<path d="M5.50035 3.374C6.14029 3.13432 6.81704 3.00776 7.50035 3C8.88161 3.09596 10.2109 3.56528 11.3462 4.35784C12.4815 5.15041 13.3802 6.23645 13.9464 7.5C13.4871 8.43211 12.8646 9.27441 12.1084 9.987L12.8254 10.704C13.7747 9.79872 14.5303 8.71005 15.0464 7.504C14.4468 5.9609 13.4171 4.62216 12.0796 3.64659C10.7421 2.67102 9.15285 2.09956 7.50035 2C6.5467 2.01604 5.60616 2.2249 4.73535 2.614L5.50035 3.374Z" fill="#808080"/>
<path d="M7.49996 4C7.10222 4.00392 6.70813 4.07631 6.33496 4.214L10.786 8.665C10.9237 8.29183 10.996 7.89774 11 7.5C11 6.57174 10.6312 5.6815 9.97483 5.02513C9.31846 4.36875 8.42822 4 7.49996 4Z" fill="#808080"/>
<path d="M9.5051 11.626C8.86359 11.8662 8.18509 11.9928 7.5001 12C6.11884 11.904 4.78959 11.4347 3.65428 10.6421C2.51897 9.84958 1.62026 8.76353 1.0541 7.49999C1.51333 6.56788 2.13583 5.72557 2.8921 5.01299L2.1751 4.29999C1.22573 5.20527 0.470128 6.29394 -0.0458984 7.49999C0.554306 9.04234 1.58419 10.3802 2.92165 11.3551C4.25911 12.3299 5.84806 12.9008 7.5001 13C8.45374 12.9838 9.39426 12.775 10.2651 12.386L9.5051 11.626Z" fill="#808080"/>
<path d="M7.5 11C7.89774 10.9961 8.29183 10.9237 8.665 10.786L4.214 6.33499C4.07631 6.70816 4.00392 7.10225 4 7.49999C4 8.42825 4.36875 9.31849 5.02513 9.97486C5.6815 10.6312 6.57174 11 7.5 11Z" fill="#808080"/>
<path d="M13.4997 14C13.4339 14.0001 13.3689 13.9873 13.3081 13.9622C13.2474 13.9372 13.1922 13.9004 13.1457 13.854L1.14566 1.85399C1.05177 1.7601 0.999023 1.63277 0.999023 1.49999C0.999023 1.36721 1.05177 1.23988 1.14566 1.14599C1.23954 1.0521 1.36688 0.999359 1.49966 0.999359C1.63243 0.999359 1.75977 1.0521 1.85365 1.14599L13.8537 13.146C13.9238 13.2159 13.9715 13.3051 13.9909 13.4022C14.0103 13.4993 14.0004 13.6 13.9624 13.6915C13.9245 13.7829 13.8603 13.8611 13.7779 13.916C13.6955 13.9709 13.5987 14.0002 13.4997 14Z" fill="#808080"/>
</g>
<defs>
<clipPath id="clip0_10670_18452">
<rect width="16" height="16" fill="white"/>
</clipPath>
</defs>
</svg>
