<svg width="16" height="16" viewBox="0 0 16 16" fill="none" xmlns="http://www.w3.org/2000/svg">
<g clip-path="url(#clip0_10670_18478)">
<path d="M7.5001 3C8.88136 3.09596 10.2106 3.56528 11.3459 4.35784C12.4812 5.15041 13.3799 6.23645 13.9461 7.5C13.3799 8.76355 12.4812 9.84959 11.3459 10.6422C10.2106 11.4347 8.88136 11.904 7.5001 12C6.11884 11.904 4.78959 11.4347 3.65428 10.6422C2.51897 9.84959 1.62026 8.76355 1.0541 7.5C1.62026 6.23645 2.51897 5.15041 3.65428 4.35784C4.78959 3.56528 6.11884 3.09596 7.5001 3ZM7.5001 2C5.84806 2.09923 4.25911 2.6701 2.92165 3.64492C1.58419 4.61975 0.554306 5.95765 -0.0458984 7.5C0.554306 9.04235 1.58419 10.3802 2.92165 11.3551C4.25911 12.3299 5.84806 12.9008 7.5001 13C9.15214 12.9008 10.7411 12.3299 12.0786 11.3551C13.416 10.3802 14.4459 9.04235 15.0461 7.5C14.4459 5.95765 13.416 4.61975 12.0786 3.64492C10.7411 2.6701 9.15214 2.09923 7.5001 2Z" fill="#FF7C3F"/>
<path d="M7.5 4C6.80777 4 6.13108 4.20527 5.55551 4.58986C4.97993 4.97444 4.53133 5.52107 4.26642 6.16061C4.00152 6.80015 3.9322 7.50388 4.06725 8.18282C4.2023 8.86175 4.53564 9.48539 5.02513 9.97487C5.51461 10.4644 6.13825 10.7977 6.81719 10.9327C7.49612 11.0678 8.19985 10.9985 8.83939 10.7336C9.47893 10.4687 10.0256 10.0201 10.4101 9.4445C10.7947 8.86892 11 8.19223 11 7.5C11 6.57174 10.6313 5.6815 9.97487 5.02513C9.3185 4.36875 8.42826 4 7.5 4Z" fill="#FF7C3F"/>
</g>
<defs>
<clipPath id="clip0_10670_18478">
<rect width="16" height="16" fill="white"/>
</clipPath>
</defs>
</svg>
