<svg width="32" height="32" viewBox="0 0 32 32" fill="none" xmlns="http://www.w3.org/2000/svg">
<path d="M23.5272 29.084C24.4514 29.6797 25.5276 29.9965 26.6272 29.9965C27.7267 29.9965 28.803 29.6797 29.7272 29.084L30.4272 28.615C30.2433 27.5388 29.7603 26.536 29.0333 25.7215C28.3063 24.9069 27.3647 24.3135 26.3162 24.009C25.495 22.8794 24.3491 22.0269 23.0312 21.565L22.8152 21.5H22.6462C22.4346 21.4995 22.227 21.557 22.046 21.6664C21.8649 21.7757 21.7172 21.9326 21.6192 22.12C21.5216 22.3042 21.4766 22.5117 21.4889 22.7198C21.5013 22.9279 21.5705 23.1286 21.6892 23.3C21.8722 23.5628 21.9933 23.8637 22.0432 24.18C22.0432 24.206 22.0512 24.233 22.0552 24.26C20.8666 24.7698 19.8756 25.6516 19.2312 26.773C18.9971 27.1927 18.8189 27.6411 18.7012 28.107C20.3756 27.8007 22.1037 28.1505 23.5272 29.084Z" fill="#D9D9D9"/>
<path d="M19.7744 28C21.1065 27.974 22.4151 28.3527 23.5274 29.086C24.412 29.6531 25.4356 29.9657 26.4861 29.9893C27.5366 30.0129 28.5733 29.7468 29.4824 29.22C29.4744 29.093 29.4724 28.966 29.4544 28.84C29.298 27.8771 28.8542 26.9839 28.1812 26.2776C27.5083 25.5713 26.6376 25.0848 25.6834 24.882C24.9847 23.7779 23.9335 22.9421 22.7004 22.51C22.6704 22.4975 22.6372 22.495 22.6056 22.5027C22.5741 22.5103 22.5458 22.5279 22.5248 22.5527C22.5039 22.5775 22.4914 22.6084 22.4891 22.6408C22.4869 22.6732 22.4951 22.7055 22.5124 22.733C22.7785 23.1193 22.9555 23.5599 23.0304 24.023C23.079 24.3358 23.079 24.6542 23.0304 24.967C21.7935 25.3288 20.7431 26.1523 20.0964 27.267C19.968 27.5015 19.8603 27.7468 19.7744 28Z" fill="black"/>
<path d="M26.3609 28.441C26.9069 28.571 27.4129 28.48 27.4899 28.241C27.5669 28.002 27.1899 27.695 26.6389 27.564C26.0879 27.433 25.5869 27.525 25.5099 27.764C25.4329 28.003 25.8139 28.31 26.3609 28.441Z" fill="#D9D9D9" stroke="#D9D9D9" stroke-miterlimit="10"/>
<path d="M12.5 0C10.0277 0 7.61099 0.733112 5.55538 2.10663C3.49976 3.48015 1.89761 5.43238 0.951511 7.71646C0.00541604 10.0005 -0.242126 12.5139 0.24019 14.9386C0.722505 17.3634 1.91301 19.5907 3.66117 21.3388C5.40933 23.087 7.63661 24.2775 10.0614 24.7598C12.4861 25.2421 14.9995 24.9946 17.2835 24.0485C19.5676 23.1024 21.5199 21.5002 22.8934 19.4446C24.2669 17.389 25 14.9723 25 12.5C25 9.18479 23.683 6.00537 21.3388 3.66117C18.9946 1.31696 15.8152 0 12.5 0ZM12.5 5C12.7967 5 13.0867 5.08797 13.3334 5.2528C13.58 5.41762 13.7723 5.65189 13.8858 5.92597C13.9994 6.20006 14.0291 6.50166 13.9712 6.79264C13.9133 7.08361 13.7704 7.35088 13.5607 7.56066C13.3509 7.77044 13.0836 7.9133 12.7926 7.97118C12.5017 8.02906 12.2001 7.99935 11.926 7.88582C11.6519 7.77229 11.4176 7.58003 11.2528 7.33336C11.088 7.08668 11 6.79667 11 6.5C11 6.10218 11.158 5.72064 11.4393 5.43934C11.7206 5.15804 12.1022 5 12.5 5ZM11 10.5C11 10.1022 11.158 9.72064 11.4393 9.43934C11.7206 9.15804 12.1022 9 12.5 9C12.8978 9 13.2794 9.15804 13.5607 9.43934C13.842 9.72064 14 10.1022 14 10.5V18.5C14 18.8978 13.842 19.2794 13.5607 19.5607C13.2794 19.842 12.8978 20 12.5 20C12.1022 20 11.7206 19.842 11.4393 19.5607C11.158 19.2794 11 18.8978 11 18.5V10.5Z" fill="#FF7C3F"/>
<path d="M1.5 30.5L3 29.5C4.00486 28.8479 5.17711 28.5009 6.375 28.5009C7.57289 28.5009 8.74514 28.8479 9.75 29.5C10.7549 30.1521 11.9271 30.4991 13.125 30.4991C14.3229 30.4991 15.4951 30.1521 16.5 29.5C17.5049 28.8479 18.6771 28.5009 19.875 28.5009C21.0729 28.5009 22.2451 28.8479 23.25 29.5C24.2549 30.1521 25.4271 30.4991 26.625 30.4991C27.8229 30.4991 28.9951 30.1521 30 29.5L31.5 28.5" stroke="#FF7C3F" stroke-linecap="round" stroke-linejoin="round"/>
</svg>
