<svg width="32" height="32" viewBox="0 0 32 32" fill="none" xmlns="http://www.w3.org/2000/svg">
<path d="M12.5 0C10.0277 0 7.61099 0.733112 5.55538 2.10663C3.49976 3.48015 1.89761 5.43238 0.951511 7.71646C0.00541604 10.0005 -0.242126 12.5139 0.24019 14.9386C0.722505 17.3634 1.91301 19.5907 3.66117 21.3388C5.40933 23.087 7.63661 24.2775 10.0614 24.7598C12.4861 25.2421 14.9995 24.9946 17.2835 24.0485C19.5676 23.1024 21.5199 21.5002 22.8934 19.4446C24.2669 17.389 25 14.9723 25 12.5C25 9.18479 23.683 6.00537 21.3388 3.66117C18.9946 1.31696 15.8152 0 12.5 0ZM12.5 5C12.7967 5 13.0867 5.08797 13.3334 5.2528C13.58 5.41762 13.7723 5.65189 13.8858 5.92597C13.9994 6.20006 14.0291 6.50166 13.9712 6.79264C13.9133 7.08361 13.7704 7.35088 13.5607 7.56066C13.3509 7.77044 13.0836 7.9133 12.7926 7.97118C12.5017 8.02906 12.2001 7.99935 11.926 7.88582C11.6519 7.77229 11.4176 7.58003 11.2528 7.33336C11.088 7.08668 11 6.79667 11 6.5C11 6.10218 11.158 5.72064 11.4393 5.43934C11.7206 5.15804 12.1022 5 12.5 5ZM11 10.5C11 10.1022 11.158 9.72064 11.4393 9.43934C11.7206 9.15804 12.1022 9 12.5 9C12.8978 9 13.2794 9.15804 13.5607 9.43934C13.842 9.72064 14 10.1022 14 10.5V18.5C14 18.8978 13.842 19.2794 13.5607 19.5607C13.2794 19.842 12.8978 20 12.5 20C12.1022 20 11.7206 19.842 11.4393 19.5607C11.158 19.2794 11 18.8978 11 18.5V10.5Z" fill="#FF7C3F"/>
</svg>
