<svg width="16" height="16" viewBox="0 0 16 16" fill="none" xmlns="http://www.w3.org/2000/svg">
<path d="M8 0H7C3.13401 0 0 3.13401 0 7V8C0 11.866 3.13401 15 7 15H8C11.866 15 15 11.866 15 8V7C15 3.13401 11.866 0 8 0Z" fill="#FF6F00"/>
<path d="M8 12H7V13H8V12Z" fill="#E6E6E6"/>
<path d="M4.5 5.5C4.5 4.70435 4.81607 3.94129 5.37868 3.37868C5.94129 2.81607 6.70435 2.5 7.5 2.5C8.29565 2.5 9.05871 2.81607 9.62132 3.37868C10.1839 3.94129 10.5 4.70435 10.5 5.5C10.5 8.5 7.5 7.5 7.5 9.5V10.5" stroke="#E6E6E6" stroke-linecap="round" stroke-linejoin="round"/>
</svg>
