<svg width="16" height="16" viewBox="0 0 16 16" fill="none" xmlns="http://www.w3.org/2000/svg">
<path d="M11.5 7.5H3.5C2.94772 7.5 2.5 7.94772 2.5 8.5V13.5C2.5 14.0523 2.94772 14.5 3.5 14.5H11.5C12.0523 14.5 12.5 14.0523 12.5 13.5V8.5C12.5 7.94772 12.0523 7.5 11.5 7.5Z" stroke="#FF7C3F" stroke-linecap="round" stroke-linejoin="round"/>
<path d="M3.5 7.5V4.5C3.5 3.43913 3.92143 2.42172 4.67157 1.67157C5.42172 0.921427 6.43913 0.5 7.5 0.5C8.56087 0.5 9.57828 0.921427 10.3284 1.67157C11.0786 2.42172 11.5 3.43913 11.5 4.5V7.5" stroke="#FF7C3F" stroke-linecap="round" stroke-linejoin="round"/>
</svg>
