<svg width="16" height="16" viewBox="0 0 16 16" fill="none" xmlns="http://www.w3.org/2000/svg">
<g clip-path="url(#clip0_10670_18522)">
<path d="M11.5 7.5H3.5C2.94772 7.5 2.5 7.94772 2.5 8.5V13.5C2.5 14.0523 2.94772 14.5 3.5 14.5H11.5C12.0523 14.5 12.5 14.0523 12.5 13.5V8.5C12.5 7.94772 12.0523 7.5 11.5 7.5Z" stroke="#949494" stroke-linecap="round" stroke-linejoin="round"/>
<path d="M11.5 7.5V4.5C11.5009 3.52573 11.1463 2.58461 10.5026 1.85327C9.85891 1.12193 8.97043 0.650662 8.00393 0.527916C7.03743 0.40517 6.05936 0.639386 5.25329 1.1866C4.44722 1.73382 3.86858 2.55642 3.62598 3.5" stroke="#949494" stroke-linecap="round" stroke-linejoin="round"/>
</g>
<defs>
<clipPath id="clip0_10670_18522">
<rect width="16" height="16" fill="white"/>
</clipPath>
</defs>
</svg>
