<svg width="10" height="10" viewBox="0 0 10 10" fill="none" xmlns="http://www.w3.org/2000/svg">
<path d="M8.20685 4.793L5.20685 7.793C5.01932 7.98047 4.76501 8.08579 4.49985 8.08579C4.23468 8.08579 3.98038 7.98047 3.79285 7.793L2.20685 6.207C2.01938 6.01947 1.91406 5.76516 1.91406 5.5C1.91406 5.23484 2.01938 4.98053 2.20685 4.793L5.20685 1.793C5.39434 1.60545 5.64865 1.50006 5.91385 1.5H7.99985C8.13246 1.5 8.25963 1.55268 8.3534 1.64645C8.44717 1.74021 8.49985 1.86739 8.49985 2V4.086C8.49979 4.35119 8.3944 4.60551 8.20685 4.793Z" stroke="#262E30" stroke-miterlimit="10"/>
<path d="M6.5 4C6.77614 4 7 3.77614 7 3.5C7 3.22386 6.77614 3 6.5 3C6.22386 3 6 3.22386 6 3.5C6 3.77614 6.22386 4 6.5 4Z" fill="#262E30"/>
</svg>
