<svg width="21" height="21" viewBox="0 0 21 21" fill="none" xmlns="http://www.w3.org/2000/svg">
<g clip-path="url(#clip0_10670_18773)">
<path d="M3.5 13.5H2.5C1.96957 13.5 1.46086 13.2893 1.08579 12.9142C0.710714 12.5391 0.5 12.0304 0.5 11.5V6.5C0.5 5.96957 0.710714 5.46086 1.08579 5.08579C1.46086 4.71071 1.96957 4.5 2.5 4.5H18.5C19.0304 4.5 19.5391 4.71071 19.9142 5.08579C20.2893 5.46086 20.5 5.96957 20.5 6.5V11.5C20.5 12.0304 20.2893 12.5391 19.9142 12.9142C19.5391 13.2893 19.0304 13.5 18.5 13.5H17.5" stroke="#262E30" stroke-miterlimit="10"/>
<path d="M14.5 16.5H6.5" stroke="#262E30" stroke-linecap="square" stroke-linejoin="round"/>
<path d="M14.5 13.5H6.5" stroke="#262E30" stroke-linecap="square" stroke-linejoin="round"/>
<path d="M3.5 4.5V2.5C3.5 1.96957 3.71071 1.46086 4.08579 1.08579C4.46086 0.710714 4.96957 0.5 5.5 0.5H15.5C16.0304 0.5 16.5391 0.710714 16.9142 1.08579C17.2893 1.46086 17.5 1.96957 17.5 2.5V4.5" stroke="#262E30" stroke-miterlimit="10" stroke-linecap="round"/>
<path d="M3.5 9.5H17.5V18.5C17.5 19.0304 17.2893 19.5391 16.9142 19.9142C16.5391 20.2893 16.0304 20.5 15.5 20.5H5.5C4.96957 20.5 4.46086 20.2893 4.08579 19.9142C3.71071 19.5391 3.5 19.0304 3.5 18.5V9.5Z" stroke="#262E30" stroke-miterlimit="10"/>
<path d="M19 6H18V7H19V6Z" fill="#262E30"/>
</g>
<defs>
<clipPath id="clip0_10670_18773">
<rect width="21" height="21" fill="white"/>
</clipPath>
</defs>
</svg>
