<svg width="8" height="8" viewBox="0 0 8 8" fill="none" xmlns="http://www.w3.org/2000/svg">
<g clip-path="url(#clip0_10670_18780)">
<path d="M7.07507 2.97499C7.33607 2.70095 7.47958 2.33573 7.47496 1.95732C7.47035 1.5789 7.31797 1.21729 7.05038 0.949689C6.78278 0.682091 6.42116 0.529716 6.04275 0.525102C5.66434 0.520488 5.29912 0.664 5.02507 0.924994L2.97507 2.97499C2.77908 3.17043 2.64325 3.41798 2.5837 3.68828C2.52414 3.95858 2.54336 4.24029 2.63907 4.49999" stroke="#262E30" stroke-miterlimit="10" stroke-linecap="round"/>
<path d="M5.36139 3.5C5.4571 3.75971 5.47632 4.04142 5.41676 4.31172C5.35721 4.58201 5.22138 4.82956 5.02539 5.025L2.97539 7.075C2.70135 7.33599 2.33612 7.47951 1.95771 7.47489C1.5793 7.47028 1.21768 7.3179 0.950086 7.0503C0.682488 6.78271 0.530113 6.42109 0.525499 6.04268C0.520884 5.66427 0.664397 5.29904 0.925391 5.025" stroke="#262E30" stroke-miterlimit="10" stroke-linecap="round"/>
</g>
<defs>
<clipPath id="clip0_10670_18780">
<rect width="8" height="8" fill="white"/>
</clipPath>
</defs>
</svg>
