<svg width="16" height="16" viewBox="0 0 16 16" fill="none" xmlns="http://www.w3.org/2000/svg">
<path d="M11.035 7.575C11.6538 6.8594 11.9961 5.94602 12 5C12 3.93913 11.5786 2.92172 10.8284 2.17157C10.0783 1.42143 9.06087 1 8 1H3C2.73478 1 2.48043 1.10536 2.29289 1.29289C2.10536 1.48043 2 1.73478 2 2V14C2 14.2652 2.10536 14.5196 2.29289 14.7071C2.48043 14.8946 2.73478 15 3 15H9C9.87611 15.0027 10.7287 14.7169 11.4262 14.1866C12.1236 13.6563 12.6269 12.9111 12.8585 12.0662C13.0901 11.2212 13.037 10.3235 12.7074 9.51174C12.3778 8.69998 11.7901 8.01935 11.035 7.575ZM4 3H8C8.53043 3 9.03914 3.21071 9.41421 3.58579C9.78929 3.96086 10 4.46957 10 5C10 5.53043 9.78929 6.03914 9.41421 6.41421C9.03914 6.78929 8.53043 7 8 7H4V3ZM9 13H4V9H9C9.53043 9 10.0391 9.21071 10.4142 9.58579C10.7893 9.96086 11 10.4696 11 11C11 11.5304 10.7893 12.0391 10.4142 12.4142C10.0391 12.7893 9.53043 13 9 13Z" fill="#FF7C3F"/>
</svg>
