<svg width="240" height="160" viewBox="0 0 240 160" fill="none" xmlns="http://www.w3.org/2000/svg">
<path opacity="0.5" d="M149.984 80.986C149.749 88.3008 146.847 95.2772 141.827 100.602C136.806 105.927 130.012 109.233 122.724 109.897C115.435 110.562 108.155 108.539 102.254 104.21C96.3535 99.8813 92.2384 93.5446 90.684 86.393C90.6275 86.1244 90.6266 85.8471 90.6815 85.5782C90.7364 85.3093 90.8458 85.0544 91.0031 84.8295C91.1604 84.6046 91.3621 84.4143 91.5958 84.2704C91.8296 84.1265 92.0903 84.0321 92.362 83.993C92.8628 83.9214 93.3721 84.0422 93.7874 84.3311C94.2027 84.62 94.493 85.0555 94.6 85.55C95.8929 91.6651 99.3336 97.1148 104.299 100.912C109.263 104.708 115.424 106.601 121.664 106.247C127.905 105.893 133.812 103.315 138.315 98.9806C142.818 94.6463 145.62 88.8423 146.213 82.6201C146.805 76.398 145.149 70.1694 141.545 65.0629C137.941 59.9565 132.627 56.3099 126.566 54.7841C120.505 53.2583 114.097 53.954 108.505 56.7454C102.913 59.5367 98.5051 64.2389 96.081 70H102C102.53 70 103.039 70.2107 103.414 70.5858C103.789 70.9609 104 71.4696 104 72C104 72.5304 103.789 73.0391 103.414 73.4142C103.039 73.7893 102.53 74 102 74H92C91.4696 74 90.9609 73.7893 90.5858 73.4142C90.2107 73.0391 90 72.5304 90 72V62C90 61.4696 90.2107 60.9609 90.5858 60.5858C90.9609 60.2107 91.4696 60 92 60C92.5304 60 93.0391 60.2107 93.4142 60.5858C93.7893 60.9609 94 61.4696 94 62V65.228C97.2935 59.3872 102.453 54.8216 108.651 52.263C114.849 49.7045 121.727 49.3013 128.181 51.1181C134.636 52.9348 140.293 56.8664 144.247 62.2823C148.2 67.6982 150.221 74.2848 149.984 80.986ZM126 90C127.061 90 128.078 89.5786 128.828 88.8284C129.579 88.0783 130 87.0609 130 86V74C130 72.9391 129.579 71.9217 128.828 71.1716C128.078 70.4214 127.061 70 126 70H114C112.939 70 111.922 70.4214 111.172 71.1716C110.421 71.9217 110 72.9391 110 74V86C110 87.0609 110.421 88.0783 111.172 88.8284C111.922 89.5786 112.939 90 114 90H126Z" fill="#CCCCCC"/>
</svg>
