<svg width="240" height="160" viewBox="0 0 240 160" fill="none" xmlns="http://www.w3.org/2000/svg">
<path opacity="0.5" d="M134.867 68.2C134.528 68.0344 134.149 67.9689 133.774 68.0112C133.399 68.0536 133.044 68.202 132.75 68.439L116 81.834V66C115.998 64.4093 115.365 62.8842 114.241 61.7594C113.116 60.6346 111.591 60.0019 110 60H70C68.4092 60.0016 66.884 60.6342 65.7591 61.7591C64.6342 62.884 64.0016 64.4092 64 66V110C64.0016 111.591 64.6342 113.116 65.7591 114.241C66.884 115.366 68.4092 115.998 70 116H110C111.591 115.998 113.116 115.365 114.241 114.241C115.365 113.116 115.998 111.591 116 110V94.163L132.75 107.563C133.044 107.799 133.399 107.946 133.774 107.989C134.148 108.032 134.527 107.968 134.867 107.804C135.207 107.641 135.493 107.385 135.694 107.066C135.894 106.746 136 106.377 136 106V70C136 69.6238 135.893 69.2553 135.693 68.9369C135.492 68.6185 135.206 68.3631 134.867 68.2ZM112 110C112 110.53 111.789 111.039 111.414 111.414C111.039 111.789 110.53 112 110 112H70C69.4696 112 68.9609 111.789 68.5858 111.414C68.2107 111.039 68 110.53 68 110V66C68 65.4696 68.2107 64.9609 68.5858 64.5858C68.9609 64.2107 69.4696 64 70 64H110C110.53 64 111.039 64.2107 111.414 64.5858C111.789 64.9609 112 65.4696 112 66V110ZM132 101.84L116 89.04V86.959L132 74.159V101.84ZM92 76H76C75.4696 76 74.9609 75.7893 74.5858 75.4142C74.2107 75.0391 74 74.5304 74 74C74 73.4696 74.2107 72.9609 74.5858 72.5858C74.9609 72.2107 75.4696 72 76 72H92C92.5304 72 93.0391 72.2107 93.4142 72.5858C93.7893 72.9609 94 73.4696 94 74C94 74.5304 93.7893 75.0391 93.4142 75.4142C93.0391 75.7893 92.5304 76 92 76ZM84 84C81.6266 84 79.3066 84.7038 77.3332 86.0224C75.3598 87.3409 73.8217 89.2151 72.9134 91.4078C72.0052 93.6005 71.7676 96.0133 72.2306 98.3411C72.6936 100.669 73.8365 102.807 75.5147 104.485C77.1929 106.164 79.3311 107.306 81.6589 107.769C83.9867 108.232 86.3995 107.995 88.5922 107.087C90.7849 106.178 92.6591 104.64 93.9776 102.667C95.2962 100.693 96 98.3734 96 96C95.9966 92.8185 94.7312 89.7682 92.4815 87.5185C90.2318 85.2688 87.1815 84.0034 84 84ZM84 104C82.4177 104 80.871 103.531 79.5554 102.652C78.2398 101.773 77.2145 100.523 76.609 99.0615C76.0035 97.5997 75.845 95.9911 76.1537 94.4393C76.4624 92.8874 77.2243 91.462 78.3431 90.3431C79.462 89.2243 80.8874 88.4624 82.4393 88.1537C83.9911 87.845 85.5997 88.0035 87.0615 88.609C88.5233 89.2145 89.7727 90.2398 90.6518 91.5554C91.5308 92.871 92 94.4178 92 96C91.9974 98.1209 91.1536 100.154 89.6539 101.654C88.1542 103.154 86.1209 103.997 84 104ZM156 94C156 94.5304 155.789 95.0391 155.414 95.4142C155.039 95.7893 154.53 96 154 96H142C141.629 96 141.264 95.8966 140.949 95.7013C140.633 95.506 140.377 95.2266 140.211 94.8944C140.045 94.5622 139.975 94.1903 140.008 93.8204C140.041 93.4505 140.177 93.0971 140.4 92.8L150 80H142C141.47 80 140.961 79.7893 140.586 79.4142C140.211 79.0391 140 78.5304 140 78C140 77.4696 140.211 76.9609 140.586 76.5858C140.961 76.2107 141.47 76 142 76H154C154.371 76 154.736 76.1034 155.051 76.2987C155.367 76.494 155.623 76.7734 155.789 77.1056C155.955 77.4378 156.025 77.8097 155.992 78.1796C155.959 78.5495 155.823 78.9029 155.6 79.2L146 92H154C154.53 92 155.039 92.2107 155.414 92.5858C155.789 92.9609 156 93.4696 156 94ZM176 70C176 70.5304 175.789 71.0391 175.414 71.4142C175.039 71.7893 174.53 72 174 72H154C153.62 72 153.247 71.8917 152.927 71.6876C152.606 71.4836 152.35 71.1923 152.189 70.848C152.027 70.5036 151.968 70.1205 152.016 69.7434C152.065 69.3663 152.22 69.011 152.464 68.719L169.73 48H154C153.47 48 152.961 47.7893 152.586 47.4142C152.211 47.0391 152 46.5304 152 46C152 45.4696 152.211 44.9609 152.586 44.5858C152.961 44.2107 153.47 44 154 44H174C174.38 44.0002 174.752 44.1087 175.073 44.3128C175.394 44.5169 175.65 44.8082 175.811 45.1525C175.972 45.4968 176.031 45.8799 175.983 46.2568C175.934 46.6338 175.778 46.9891 175.535 47.281L158.269 68H174C174.53 68 175.039 68.2107 175.414 68.5858C175.789 68.9609 176 69.4696 176 70Z" fill="#CCCCCC"/>
</svg>
