<svg width="24" height="24" viewBox="0 0 24 24" fill="none" xmlns="http://www.w3.org/2000/svg">
<path d="M11.5 23C17.8513 23 23 17.8513 23 11.5C23 5.14873 17.8513 0 11.5 0C5.14873 0 0 5.14873 0 11.5C0 17.8513 5.14873 23 11.5 23Z" fill="#FF7C3F"/>
<path d="M9.014 16.591L16.071 12.357C16.2189 12.2681 16.3412 12.1424 16.4261 11.9923C16.511 11.8421 16.5557 11.6725 16.5557 11.5C16.5557 11.3275 16.511 11.1579 16.4261 11.0077C16.3412 10.8575 16.2189 10.7319 16.071 10.643L9.014 6.40899C8.8623 6.3181 8.68921 6.26905 8.51238 6.26686C8.33555 6.26467 8.16129 6.30942 8.00739 6.39653C7.85349 6.48365 7.72545 6.61002 7.63631 6.76276C7.54717 6.9155 7.50014 7.08915 7.5 7.26599V15.734C7.50014 15.9108 7.54717 16.0845 7.63631 16.2372C7.72545 16.39 7.85349 16.5163 8.00739 16.6035C8.16129 16.6906 8.33555 16.7353 8.51238 16.7331C8.68921 16.7309 8.8623 16.6819 9.014 16.591Z" fill="#F2F2F2" stroke="#F2F2F2" stroke-miterlimit="10"/>
</svg>
