<svg width="16" height="16" viewBox="0 0 16 16" fill="none" xmlns="http://www.w3.org/2000/svg">
<path d="M6.5 14.5H8.5C8.76522 14.5 9.01957 14.3946 9.20711 14.2071C9.39464 14.0196 9.5 13.7652 9.5 13.5V4.5H13.5C13.7652 4.5 14.0196 4.39464 14.2071 4.20711C14.3946 4.01957 14.5 3.76522 14.5 3.5V1.5C14.5 1.23478 14.3946 0.98043 14.2071 0.792893C14.0196 0.605357 13.7652 0.5 13.5 0.5H1.5C1.23478 0.5 0.98043 0.605357 0.792893 0.792893C0.605357 0.98043 0.5 1.23478 0.5 1.5V3.5C0.5 3.76522 0.605357 4.01957 0.792893 4.20711C0.98043 4.39464 1.23478 4.5 1.5 4.5H5.5V13.5C5.5 13.7652 5.60536 14.0196 5.79289 14.2071C5.98043 14.3946 6.23478 14.5 6.5 14.5Z" stroke="#949494" stroke-linecap="round" stroke-linejoin="round"/>
</svg>
