<svg width="16" height="16" viewBox="0 0 16 16" fill="none" xmlns="http://www.w3.org/2000/svg">
<path d="M7.5 14.5C11.366 14.5 14.5 11.366 14.5 7.5C14.5 3.63401 11.366 0.5 7.5 0.5C3.63401 0.5 0.5 3.63401 0.5 7.5C0.5 11.366 3.63401 14.5 7.5 14.5Z" stroke="#949494" stroke-linecap="round" stroke-linejoin="round"/>
<path d="M11.5 4.5C12.2221 5.46286 12.5727 6.6539 12.4874 7.85444C12.4021 9.05499 11.8866 10.1845 11.0355 11.0355C10.1845 11.8866 9.05499 12.4021 7.85444 12.4874C6.6539 12.5727 5.46286 12.2221 4.5 11.5" stroke="#949494" stroke-linecap="round" stroke-linejoin="round"/>
<path d="M6.479 3C6.04076 3.08782 5.62585 3.26673 5.26116 3.52513C4.89647 3.78353 4.59014 4.11566 4.362 4.5C3.823 5.327 3.894 6 4.521 6C4.95924 5.91218 5.37414 5.73327 5.73883 5.47487C6.10352 5.21647 6.40986 4.88434 6.638 4.5C7.177 3.673 7.106 3 6.479 3Z" fill="#949494"/>
</svg>
