<svg width="16" height="16" viewBox="0 0 16 16" fill="none" xmlns="http://www.w3.org/2000/svg">
<path d="M10.5 3.5H1.5C0.947715 3.5 0.5 3.94772 0.5 4.5V13.5C0.5 14.0523 0.947715 14.5 1.5 14.5H10.5C11.0523 14.5 11.5 14.0523 11.5 13.5V4.5C11.5 3.94772 11.0523 3.5 10.5 3.5Z" stroke="#808080" stroke-linecap="round" stroke-linejoin="round"/>
<path d="M3.5 1.5C3.5 1.23478 3.60536 0.98043 3.79289 0.792893C3.98043 0.605357 4.23478 0.5 4.5 0.5H13.5C13.7652 0.5 14.0196 0.605357 14.2071 0.792893C14.3946 0.98043 14.5 1.23478 14.5 1.5V10.5C14.5 10.7652 14.3946 11.0196 14.2071 11.2071C14.0196 11.3946 13.7652 11.5 13.5 11.5" stroke="#808080" stroke-linecap="round" stroke-linejoin="round"/>
</svg>
