<svg width="16" height="16" viewBox="0 0 16 16" fill="none" xmlns="http://www.w3.org/2000/svg">
<path d="M0.5 3.5V1.5C0.5 1.23478 0.605357 0.98043 0.792893 0.792893C0.98043 0.605357 1.23478 0.5 1.5 0.5H13.5C13.7652 0.5 14.0196 0.605357 14.2071 0.792893C14.3946 0.98043 14.5 1.23478 14.5 1.5V13.5C14.5 13.7652 14.3946 14.0196 14.2071 14.2071C14.0196 14.3946 13.7652 14.5 13.5 14.5H11.5" stroke="#949494" stroke-linecap="round" stroke-linejoin="round"/>
<path d="M5.5 4C4.04131 4 2.64236 4.57946 1.61091 5.61091C0.579463 6.64236 0 8.04131 0 9.5C0 10.9587 0.579463 12.3576 1.61091 13.3891C2.64236 14.4205 4.04131 15 5.5 15C6.22227 15 6.93747 14.8577 7.60476 14.5813C8.27205 14.3049 8.87837 13.8998 9.38909 13.3891C9.89981 12.8784 10.3049 12.272 10.5813 11.6048C10.8577 10.9375 11 10.2223 11 9.5C11 8.04131 10.4205 6.64236 9.38909 5.61091C8.35764 4.57946 6.95869 4 5.5 4ZM9 10H2V9H9V10Z" fill="#FF7C3F"/>
</svg>
