<svg width="16" height="16" viewBox="0 0 16 16" fill="none" xmlns="http://www.w3.org/2000/svg">
<path d="M8 4H7V5H8V4Z" fill="#FF7C3F"/>
<path d="M8 2H7V3H8V2Z" fill="#FF7C3F"/>
<path d="M8 0H7V1H8V0Z" fill="#FF7C3F"/>
<path d="M1 7H0V8H1V7Z" fill="#FF7C3F"/>
<path d="M3 7H2V8H3V7Z" fill="#FF7C3F"/>
<path d="M5 7H4V8H5V7Z" fill="#FF7C3F"/>
<path d="M7 7H6V8H7V7Z" fill="#FF7C3F"/>
<path d="M9 7H8V8H9V7Z" fill="#FF7C3F"/>
<path d="M11 7H10V8H11V7Z" fill="#FF7C3F"/>
<path d="M13 7H12V8H13V7Z" fill="#FF7C3F"/>
<path d="M15 7H14V8H15V7Z" fill="#FF7C3F"/>
<path d="M8 14H7V15H8V14Z" fill="#FF7C3F"/>
<path d="M8 12H7V13H8V12Z" fill="#FF7C3F"/>
<path d="M8 10H7V11H8V10Z" fill="#FF7C3F"/>
<path d="M8 6H7V9H8V6Z" fill="#FF7C3F"/>
<path d="M3.5 0.5H5.5V5.5H0.5V3.5C0.5 2.70435 0.81607 1.94129 1.37868 1.37868C1.94129 0.81607 2.70435 0.5 3.5 0.5Z" stroke="#949494" stroke-linecap="round" stroke-linejoin="round"/>
<path d="M9.5 0.5H11.5C12.2956 0.5 13.0587 0.81607 13.6213 1.37868C14.1839 1.94129 14.5 2.70435 14.5 3.5V5.5H9.5V0.5Z" stroke="#949494" stroke-linecap="round" stroke-linejoin="round"/>
<path d="M0.5 9.5H5.5V14.5H3.5C2.70435 14.5 1.94129 14.1839 1.37868 13.6213C0.81607 13.0587 0.5 12.2956 0.5 11.5V9.5Z" stroke="#949494" stroke-linecap="round" stroke-linejoin="round"/>
<path d="M9.5 9.5H14.5V11.5C14.5 12.2956 14.1839 13.0587 13.6213 13.6213C13.0587 14.1839 12.2956 14.5 11.5 14.5H9.5V9.5Z" stroke="#949494" stroke-linecap="round" stroke-linejoin="round"/>
</svg>
