<svg width="40" height="40" viewBox="0 0 40 40" fill="none" xmlns="http://www.w3.org/2000/svg">
<path d="M32.5 23H31.5C31.2239 23 31 23.2239 31 23.5V24.5C31 24.7761 31.2239 25 31.5 25H32.5C32.7761 25 33 24.7761 33 24.5V23.5C33 23.2239 32.7761 23 32.5 23Z" fill="#FF7C3F"/>
<path d="M29.4999 27C29.4009 27.0002 29.3041 26.971 29.2217 26.916C29.1393 26.8611 29.0751 26.783 29.0371 26.6915C28.9992 26.6 28.9893 26.4993 29.0087 26.4022C29.028 26.3051 29.0758 26.216 29.1459 26.146L31.1459 24.146C31.2398 24.0521 31.3671 23.9994 31.4999 23.9994C31.6327 23.9994 31.76 24.0521 31.8539 24.146C31.9478 24.2399 32.0006 24.3672 32.0006 24.5C32.0006 24.6328 31.9478 24.7601 31.8539 24.854L29.8539 26.854C29.8074 26.9004 29.7522 26.9372 29.6914 26.9623C29.6307 26.9873 29.5656 27.0001 29.4999 27Z" fill="#FF7C3F"/>
<path d="M34.5001 27C34.4344 27.0001 34.3694 26.9873 34.3086 26.9623C34.2479 26.9372 34.1927 26.9004 34.1461 26.854L32.1461 24.854C32.0523 24.7601 31.9995 24.6328 31.9995 24.5C31.9995 24.3672 32.0523 24.2399 32.1461 24.146C32.24 24.0521 32.3674 23.9994 32.5001 23.9994C32.6329 23.9994 32.7603 24.0521 32.8541 24.146L34.8541 26.146C34.9243 26.216 34.972 26.3051 34.9914 26.4022C35.0107 26.4993 35.0008 26.6 34.9629 26.6915C34.925 26.783 34.8608 26.8611 34.7784 26.916C34.696 26.971 34.5992 27.0002 34.5001 27Z" fill="#FF7C3F"/>
<path d="M33.5 35H30.5C30.1022 35 29.7206 34.842 29.4393 34.5607C29.158 34.2794 29 33.8978 29 33.5V26.5C29 26.3674 29.0527 26.2402 29.1464 26.1464C29.2402 26.0527 29.3674 26 29.5 26C29.6326 26 29.7598 26.0527 29.8536 26.1464C29.9473 26.2402 30 26.3674 30 26.5V33.5C30 33.6326 30.0527 33.7598 30.1464 33.8536C30.2402 33.9473 30.3674 34 30.5 34H33.5C33.6326 34 33.7598 33.9473 33.8536 33.8536C33.9473 33.7598 34 33.6326 34 33.5V26.5C34 26.3674 34.0527 26.2402 34.1464 26.1464C34.2402 26.0527 34.3674 26 34.5 26C34.6326 26 34.7598 26.0527 34.8536 26.1464C34.9473 26.2402 35 26.3674 35 26.5V33.5C35 33.8978 34.842 34.2794 34.5607 34.5607C34.2794 34.842 33.8978 35 33.5 35Z" fill="#FF7C3F"/>
<path d="M34.5 27H29.5C29.3674 27 29.2402 26.9473 29.1464 26.8536C29.0527 26.7598 29 26.6326 29 26.5C29 26.3674 29.0527 26.2402 29.1464 26.1464C29.2402 26.0527 29.3674 26 29.5 26H34.5C34.6326 26 34.7598 26.0527 34.8536 26.1464C34.9473 26.2402 35 26.3674 35 26.5C35 26.6326 34.9473 26.7598 34.8536 26.8536C34.7598 26.9473 34.6326 27 34.5 27Z" fill="#FF7C3F"/>
<path d="M29 23H28V24H29V23Z" fill="#FF7C3F"/>
<path d="M27 22H26V23H27V22Z" fill="#FF7C3F"/>
<path d="M27 24H26V25H27V24Z" fill="#FF7C3F"/>
<path d="M25 23H24V24H25V23Z" fill="#FF7C3F"/>
<path d="M25 25H24V26H25V25Z" fill="#FF7C3F"/>
<path d="M25 21H24V22H25V21Z" fill="#FF7C3F"/>
<path d="M23 22H22V23H23V22Z" fill="#FF7C3F"/>
<path d="M23 24H22V25H23V24Z" fill="#FF7C3F"/>
<path d="M23 26H22V27H23V26Z" fill="#FF7C3F"/>
<path d="M23 20H22V21H23V20Z" fill="#FF7C3F"/>
<path d="M34.5 22C34.3674 22 34.2402 21.9473 34.1464 21.8536C34.0527 21.7598 34 21.6326 34 21.5V12.5C34 12.3674 34.0527 12.2402 34.1464 12.1464C34.2402 12.0527 34.3674 12 34.5 12C34.6326 12 34.7598 12.0527 34.8536 12.1464C34.9473 12.2402 35 12.3674 35 12.5V21.5C35 21.6326 34.9473 21.7598 34.8536 21.8536C34.7598 21.9473 34.6326 22 34.5 22Z" fill="#FF7C3F"/>
<path d="M34.5 13C34.3674 13 34.2402 12.9473 34.1464 12.8536C34.0527 12.7598 34 12.6326 34 12.5V5.5C34 5.36739 33.9473 5.24021 33.8536 5.14645C33.7598 5.05268 33.6326 5 33.5 5H5.5C5.36739 5 5.24021 5.05268 5.14645 5.14645C5.05268 5.24021 5 5.36739 5 5.5V11.5C5 11.6326 4.94732 11.7598 4.85355 11.8536C4.75979 11.9473 4.63261 12 4.5 12C4.36739 12 4.24021 11.9473 4.14645 11.8536C4.05268 11.7598 4 11.6326 4 11.5V5.5C4 5.10218 4.15804 4.72064 4.43934 4.43934C4.72064 4.15804 5.10218 4 5.5 4H33.5C33.8978 4 34.2794 4.15804 34.5607 4.43934C34.842 4.72064 35 5.10218 35 5.5V12.5C35 12.6326 34.9473 12.7598 34.8536 12.8536C34.7598 12.9473 34.6326 13 34.5 13Z" fill="#B6B6B6"/>
<path d="M26.5 35H5.5C5.10218 35 4.72064 34.842 4.43934 34.5607C4.15804 34.2794 4 33.8978 4 33.5V11.5C4 11.3674 4.05268 11.2402 4.14645 11.1464C4.24021 11.0527 4.36739 11 4.5 11C4.63261 11 4.75979 11.0527 4.85355 11.1464C4.94732 11.2402 5 11.3674 5 11.5V33.5C5 33.6326 5.05268 33.7598 5.14645 33.8536C5.24021 33.9473 5.36739 34 5.5 34H26.5C26.6326 34 26.7598 34.0527 26.8536 34.1464C26.9473 34.2402 27 34.3674 27 34.5C27 34.6326 26.9473 34.7598 26.8536 34.8536C26.7598 34.9473 26.6326 35 26.5 35Z" fill="#FF7C3F"/>
<path d="M12.5 31C12.2033 31 11.9133 30.912 11.6666 30.7472C11.42 30.5824 11.2277 30.3481 11.1142 30.074C11.0006 29.7999 10.9709 29.4983 11.0288 29.2074C11.0867 28.9164 11.2296 28.6491 11.4393 28.4393C11.6491 28.2296 11.9164 28.0867 12.2074 28.0288C12.4983 27.9709 12.7999 28.0007 13.074 28.1142C13.3481 28.2277 13.5824 28.42 13.7472 28.6666C13.912 28.9133 14 29.2033 14 29.5C14 29.8978 13.842 30.2794 13.5607 30.5607C13.2794 30.842 12.8978 31 12.5 31ZM12.5 29C12.4011 29 12.3044 29.0293 12.2222 29.0843C12.14 29.1392 12.0759 29.2173 12.0381 29.3087C12.0002 29.4 11.9903 29.5006 12.0096 29.5975C12.0289 29.6945 12.0765 29.7836 12.1464 29.8536C12.2164 29.9235 12.3055 29.9711 12.4025 29.9904C12.4994 30.0097 12.6 29.9998 12.6913 29.9619C12.7827 29.9241 12.8608 29.86 12.9157 29.7778C12.9707 29.6956 13 29.5989 13 29.5C13 29.3674 12.9473 29.2402 12.8536 29.1464C12.7598 29.0527 12.6326 29 12.5 29Z" fill="#FF7C3F"/>
<path d="M10.5 26C10.0055 26 9.5222 25.8534 9.11108 25.5787C8.69995 25.304 8.37952 24.9135 8.1903 24.4567C8.00108 23.9999 7.95157 23.4972 8.04804 23.0123C8.1445 22.5273 8.3826 22.0819 8.73223 21.7322C9.08187 21.3826 9.52732 21.1445 10.0123 21.048C10.4972 20.9516 10.9999 21.0011 11.4567 21.1903C11.9135 21.3795 12.304 21.7 12.5787 22.1111C12.8534 22.5222 13 23.0055 13 23.5C13 24.163 12.7366 24.7989 12.2678 25.2678C11.7989 25.7366 11.163 26 10.5 26ZM10.5 22C10.2033 22 9.91332 22.088 9.66665 22.2528C9.41997 22.4176 9.22771 22.6519 9.11418 22.926C9.00065 23.2001 8.97095 23.5017 9.02882 23.7926C9.0867 24.0836 9.22956 24.3509 9.43934 24.5607C9.64912 24.7704 9.91639 24.9133 10.2074 24.9712C10.4983 25.0291 10.7999 24.9994 11.074 24.8858C11.3481 24.7723 11.5824 24.58 11.7472 24.3334C11.912 24.0867 12 23.7967 12 23.5C12 23.1022 11.842 22.7206 11.5607 22.4393C11.2794 22.158 10.8978 22 10.5 22Z" fill="#FF7C3F"/>
<path d="M28.9189 15C26.1459 15 23.4089 13.71 21.2519 12.479C17.8849 10.56 11.2689 7.99997 4.78291 12.458C4.72889 12.4972 4.66756 12.5252 4.60255 12.5403C4.53753 12.5554 4.47015 12.5574 4.40437 12.546C4.33859 12.5347 4.27575 12.5103 4.21954 12.4743C4.16334 12.4383 4.11491 12.3914 4.07712 12.3364C4.03933 12.2814 4.01293 12.2193 3.9995 12.154C3.98606 12.0886 3.98585 12.0212 3.99887 11.9557C4.0119 11.8902 4.03791 11.828 4.07535 11.7728C4.1128 11.7175 4.16093 11.6703 4.21691 11.634C11.4109 6.68997 18.8729 9.97197 21.7479 11.612C25.4869 13.745 30.2719 15.682 34.1419 11.698C34.1879 11.651 34.2426 11.6135 34.3031 11.5876C34.3636 11.5618 34.4285 11.5481 34.4943 11.5473C34.56 11.5466 34.6252 11.5588 34.6863 11.5833C34.7473 11.6078 34.8029 11.644 34.8499 11.69C34.8969 11.7359 34.9344 11.7907 34.9603 11.8512C34.9861 11.9116 34.9998 11.9766 35.0005 12.0423C35.0013 12.1081 34.9891 12.1733 34.9646 12.2343C34.9401 12.2954 34.9039 12.351 34.8579 12.398C34.1044 13.2222 33.1867 13.8795 32.1638 14.3276C31.141 14.7758 30.0356 15.0048 28.9189 15Z" fill="#FF7C3F"/>
</svg>
