<svg width="14" height="14" viewBox="0 0 14 14" fill="none" xmlns="http://www.w3.org/2000/svg">
<path d="M11.3202 12.5H1.6802C1.53504 12.4999 1.39164 12.4683 1.25995 12.4072C1.12826 12.3461 1.01145 12.2571 0.917626 12.1464C0.823802 12.0356 0.755216 11.9057 0.716634 11.7658C0.678052 11.6259 0.670398 11.4792 0.694204 11.336L1.3612 7.336C1.40002 7.1025 1.52041 6.89034 1.70096 6.73726C1.8815 6.58418 2.1105 6.50011 2.3472 6.5H10.6532C10.8899 6.50011 11.1189 6.58418 11.2994 6.73726C11.48 6.89034 11.6004 7.1025 11.6392 7.336L12.3062 11.336C12.33 11.4792 12.3224 11.6259 12.2838 11.7658C12.2452 11.9057 12.1766 12.0356 12.0828 12.1464C11.989 12.2571 11.8721 12.3461 11.7405 12.4072C11.6088 12.4683 11.4654 12.4999 11.3202 12.5Z" stroke="#949494" stroke-linecap="round" stroke-linejoin="round"/>
<path d="M6.5 12.5C8.15685 12.5 9.5 11.1569 9.5 9.5C9.5 7.84315 8.15685 6.5 6.5 6.5C4.84315 6.5 3.5 7.84315 3.5 9.5C3.5 11.1569 4.84315 12.5 6.5 12.5Z" stroke="#949494" stroke-linecap="round" stroke-linejoin="round"/>
<path d="M5.5 4.5V6.5" stroke="#949494" stroke-linecap="round" stroke-linejoin="round"/>
<path d="M7.5 4.5V6.5" stroke="#949494" stroke-linecap="round" stroke-linejoin="round"/>
<path d="M6.5 9.5L7.5 8.5" stroke="#949494" stroke-linecap="round" stroke-linejoin="round"/>
<path d="M12.5 2.5V3.5C12.5 3.76522 12.3946 4.01957 12.2071 4.20711C12.0196 4.39464 11.7652 4.5 11.5 4.5H1.5C1.23478 4.5 0.98043 4.39464 0.792893 4.20711C0.605357 4.01957 0.5 3.76522 0.5 3.5V2.5" stroke="#949494" stroke-linecap="round" stroke-linejoin="round"/>
<path d="M10.562 2C9.5 1.25 9.5 0.5 6.438 0.5C5.43188 0.661318 4.49652 1.11838 3.751 1.813L2.5 0.5V3.5L3.751 2.187C4.49652 2.88162 5.43188 3.33868 6.438 3.5C9.5 3.5 9.5 2.75 10.562 2Z" stroke="#FF7C3F" stroke-linecap="round" stroke-linejoin="round"/>
<path d="M8.5 2.5L7.5 3.5" stroke="#FF7C3F" stroke-linecap="round" stroke-linejoin="round"/>
<path d="M8.5 2C8.77614 2 9 1.77614 9 1.5C9 1.22386 8.77614 1 8.5 1C8.22386 1 8 1.22386 8 1.5C8 1.77614 8.22386 2 8.5 2Z" fill="#FF7C3F"/>
<circle cx="10.5" cy="2.5" r="0.5" fill="#FF7C3F"/>
</svg>
