<svg width="250" height="240" viewBox="0 0 250 240" fill="none" xmlns="http://www.w3.org/2000/svg">
<g clip-path="url(#clip0_10670_22727)">
<g opacity="0.8">
<path d="M62.4197 158.739C62.4366 158.727 62.4568 158.721 62.4776 158.721H183.293C183.391 158.721 183.431 158.846 183.351 158.902L128.68 197.765C128.663 197.777 128.643 197.783 128.622 197.783H7.80624C7.70884 197.783 7.66892 197.658 7.7483 197.602L62.4197 158.739Z" fill="#817E7E"/>
<path d="M128.654 197.783H8.15527V199.107H128.654V197.783Z" fill="#686666"/>
<path d="M92.9017 78.6074H53.1768V93.1732H92.9017V78.6074Z" fill="#B3B3B3"/>
<path d="M80.9836 93.1729H63.7695V107.739H80.9836V93.1729Z" fill="#B3B3B3"/>
<path d="M74.3632 107.738H71.7148V122.304H74.3632V107.738Z" fill="#B3B3B3"/>
<path d="M73.0389 126.277C74.5016 126.277 75.6873 125.091 75.6873 123.629C75.6873 122.166 74.5016 120.98 73.0389 120.98C71.5763 120.98 70.3906 122.166 70.3906 123.629C70.3906 125.091 71.5763 126.277 73.0389 126.277Z" fill="#67A0F5"/>
<path opacity="0.15" d="M128.654 78.6084H0.209961V207.052H128.654V78.6084Z" fill="#352F2D"/>
<path d="M60.4593 35.5723H188.904L128.654 78.6075H0.209961L60.4593 35.5723Z" fill="#E1E1E1"/>
<path d="M128.653 78.6085L187.579 34.9111V163.355L128.653 207.052V78.6085Z" fill="#B8B8B8"/>
<path d="M94.2257 203.081L4.18262 120.983V203.081H94.2257Z" fill="white" fill-opacity="0.3"/>
<path fill-rule="evenodd" clip-rule="evenodd" d="M128.654 130.251H120.709V148.789H128.654V144.769C128.871 144.8 129.092 144.816 129.316 144.816C131.876 144.816 133.951 142.741 133.951 140.182C133.951 137.622 131.876 135.547 129.316 135.547C129.092 135.547 128.871 135.563 128.654 135.594V130.251Z" fill="#ACACAC"/>
</g>
<path d="M200.098 14.75H199.848V15V17.5854V17.8354H200.098H214.77L198.803 38.4069L198.75 38.4746V38.5602V41V41.25H199H220H220.25V41V38.4146V38.1646H220H203.388L219.319 17.6294L219.372 17.5618V17.4762V15V14.75H219.122H200.098Z" fill="#B8B8B8" stroke="#B8B8B8" stroke-width="0.5"/>
<path d="M237.627 0.75H237.377V1V2.4916V2.7416H237.627H245.796L236.802 14.4401L236.75 14.5074V14.5924V16V16.25H237H249H249.25V16V14.5084V14.2584H249H239.723L248.696 2.5809L248.748 2.51353V2.42857V1V0.75H248.498H237.627Z" fill="#B8B8B8" stroke="#B8B8B8" stroke-width="0.5"/>
<path d="M101.5 240C143.197 240 177 235.523 177 230C177 224.477 143.197 220 101.5 220C59.8025 220 26 224.477 26 230C26 235.523 59.8025 240 101.5 240Z" fill="#DEDEDE"/>
</g>
<defs>
<clipPath id="clip0_10670_22727">
<rect width="250" height="240" fill="white"/>
</clipPath>
</defs>
</svg>
