<svg width="26" height="26" viewBox="0 0 26 26" fill="none" xmlns="http://www.w3.org/2000/svg">
<path d="M5.5 15.5H4.5C3.96957 15.5 3.46086 15.2893 3.08579 14.9142C2.71071 14.5391 2.5 14.0304 2.5 13.5V8.5C2.5 7.96957 2.71071 7.46086 3.08579 7.08579C3.46086 6.71071 3.96957 6.5 4.5 6.5H21.5C22.0304 6.5 22.5391 6.71071 22.9142 7.08579C23.2893 7.46086 23.5 7.96957 23.5 8.5V13.5C23.5 14.0304 23.2893 14.5391 22.9142 14.9142C22.5391 15.2893 22.0304 15.5 21.5 15.5H20.5" stroke="#262E30" stroke-miterlimit="10"/>
<path d="M17.5 19.5H8.5" stroke="#262E30" stroke-linecap="square" stroke-linejoin="round"/>
<path d="M17.5 15.5H8.5" stroke="#262E30" stroke-linecap="square" stroke-linejoin="round"/>
<path d="M5.5 6.5V4.5C5.5 3.96957 5.71071 3.46086 6.08579 3.08579C6.46086 2.71071 6.96957 2.5 7.5 2.5H18.5C19.0304 2.5 19.5391 2.71071 19.9142 3.08579C20.2893 3.46086 20.5 3.96957 20.5 4.5V6.5" stroke="#262E30" stroke-miterlimit="10" stroke-linecap="round"/>
<path d="M5.5 11.5H20.5V21.5C20.5 22.0304 20.2893 22.5391 19.9142 22.9142C19.5391 23.2893 19.0304 23.5 18.5 23.5H7.5C6.96957 23.5 6.46086 23.2893 6.08579 22.9142C5.71071 22.5391 5.5 22.0304 5.5 21.5V11.5Z" stroke="#262E30" stroke-miterlimit="10"/>
<path d="M22 8H21V9H22V8Z" fill="#262E30"/>
</svg>
