<svg width="16" height="16" viewBox="0 0 16 16" fill="none" xmlns="http://www.w3.org/2000/svg">
<g opacity="0.88">
<path fill-rule="evenodd" clip-rule="evenodd" d="M4.59457 7.94345C4.33289 7.73623 3.95167 7.7535 3.70991 7.99525C3.44956 8.2556 3.44956 8.67771 3.70991 8.93806L7.48115 12.7093L7.5393 12.7611C7.80097 12.9683 8.1822 12.9511 8.42396 12.7093L12.1952 8.93806L12.247 8.87991C12.4542 8.61823 12.4369 8.237 12.1952 7.99525L12.137 7.94345C11.8753 7.73623 11.4941 7.7535 11.2524 7.99525L7.95249 11.2951L4.65272 7.99525L4.59457 7.94345ZM4.59457 3.94345C4.3329 3.73623 3.95167 3.7535 3.70991 3.99525C3.44956 4.2556 3.44956 4.67771 3.70991 4.93806L7.48115 8.7093L7.53929 8.7611C7.80097 8.96832 8.1822 8.95105 8.42396 8.7093L12.1952 4.93806L12.247 4.87991C12.4542 4.61823 12.4369 4.237 12.1952 3.99525L12.137 3.94345C11.8753 3.73623 11.4941 3.7535 11.2524 3.99525L7.95249 7.29508L4.65272 3.99525L4.59457 3.94345Z" fill="white"/>
</g>
</svg>
