<svg width="16" height="16" viewBox="0 0 16 16" fill="none" xmlns="http://www.w3.org/2000/svg">
<g opacity="0.88">
<path fill-rule="evenodd" clip-rule="evenodd" d="M11.4053 8.05657C11.6669 8.26379 12.0482 8.24652 12.2899 8.00477C12.5503 7.74442 12.5503 7.32231 12.2899 7.06196L8.51868 3.29072L8.46053 3.23892C8.19886 3.0317 7.81763 3.04897 7.57587 3.29072L3.80464 7.06196L3.75283 7.12011C3.54562 7.38179 3.56288 7.76302 3.80464 8.00477L3.86278 8.05657C4.12446 8.26379 4.50569 8.24652 4.74745 8.00477L8.04734 4.70494L11.3471 8.00477L11.4053 8.05657ZM11.4053 12.0565C11.6669 12.2638 12.0482 12.2465 12.2899 12.0047C12.5503 11.7444 12.5503 11.3223 12.2899 11.0619L8.51868 7.29072L8.46054 7.23892C8.19886 7.0317 7.81763 7.04897 7.57587 7.29072L3.80464 11.0619L3.75283 11.1201C3.54562 11.3818 3.56288 11.763 3.80464 12.0047L3.86278 12.0565C4.12446 12.2638 4.50569 12.2465 4.74745 12.0047L8.04734 8.70494L11.3471 12.0047L11.4053 12.0565Z" fill="white"/>
</g>
</svg>
