<svg width="18" height="18" viewBox="0 0 18 18" fill="none" xmlns="http://www.w3.org/2000/svg">
<path d="M8.5 16.5C12.9183 16.5 16.5 12.9183 16.5 8.5C16.5 4.08172 12.9183 0.5 8.5 0.5C4.08172 0.5 0.5 4.08172 0.5 8.5C0.5 12.9183 4.08172 16.5 8.5 16.5Z" stroke="#949494" stroke-linecap="round" stroke-linejoin="round"/>
<path d="M8.5 10.5C9.60457 10.5 10.5 9.60457 10.5 8.5C10.5 7.39543 9.60457 6.5 8.5 6.5C7.39543 6.5 6.5 7.39543 6.5 8.5C6.5 9.60457 7.39543 10.5 8.5 10.5Z" stroke="#FF7C3F" stroke-linecap="round" stroke-linejoin="round"/>
<path d="M7.5 2.5C9.5 1.5 12 4 9.5 6.5" stroke="#FF7C3F" stroke-linecap="round" stroke-linejoin="round"/>
<path d="M9.50017 14.5C7.50017 15.5 5.00017 13 7.50017 10.5" stroke="#FF7C3F" stroke-linecap="round" stroke-linejoin="round"/>
<path d="M13.1998 4.63397C15.0658 5.86597 14.1508 9.28097 10.7358 8.36597" stroke="#FF7C3F" stroke-linecap="round" stroke-linejoin="round"/>
<path d="M3.80003 12.366C1.93403 11.134 2.84903 7.71902 6.26403 8.63402" stroke="#FF7C3F" stroke-linecap="round" stroke-linejoin="round"/>
<path d="M14.1998 10.634C14.0658 12.866 10.6508 13.781 9.73584 10.366" stroke="#FF7C3F" stroke-linecap="round" stroke-linejoin="round"/>
<path d="M2.7998 6.36599C2.9338 4.13399 6.3488 3.21899 7.2638 6.63399" stroke="#FF7C3F" stroke-linecap="round" stroke-linejoin="round"/>
</svg>
