<svg width="16" height="16" viewBox="0 0 16 16" fill="none" xmlns="http://www.w3.org/2000/svg">
<path d="M0.999799 14.5L1.3058 14.1C1.43214 13.9239 1.50009 13.7127 1.50009 13.496C1.50009 13.2793 1.43214 13.0681 1.3058 12.892L0.693799 12.1C0.567462 11.9239 0.499512 11.7127 0.499512 11.496C0.499512 11.2793 0.567462 11.0681 0.693799 10.892L1.3058 10.1C1.43214 9.92394 1.50009 9.7127 1.50009 9.496C1.50009 9.2793 1.43214 9.06806 1.3058 8.892L0.693799 8.1C0.567462 7.92394 0.499512 7.7127 0.499512 7.496C0.499512 7.2793 0.567462 7.06806 0.693799 6.892L0.999799 6.5" stroke="#FF6F00" stroke-linecap="round" stroke-linejoin="round"/>
<path d="M4.9998 14.5001L5.3058 14.1001C5.43214 13.924 5.50009 13.7128 5.50009 13.4961C5.50009 13.2794 5.43214 13.0681 5.3058 12.8921L4.6938 12.1001C4.56746 11.924 4.49951 11.7128 4.49951 11.4961C4.49951 11.2794 4.56746 11.0681 4.6938 10.8921" stroke="#FF6F00" stroke-linecap="round" stroke-linejoin="round"/>
<path d="M9.9998 14.5001L10.3058 14.1001C10.4321 13.924 10.5001 13.7128 10.5001 13.4961C10.5001 13.2794 10.4321 13.0681 10.3058 12.8921L9.6938 12.1001C9.56746 11.924 9.49951 11.7128 9.49951 11.4961C9.49951 11.2794 9.56746 11.0681 9.6938 10.8921" stroke="#FF6F00" stroke-linecap="round" stroke-linejoin="round"/>
<path d="M13.9998 14.5L14.3058 14.1C14.4321 13.9239 14.5001 13.7127 14.5001 13.496C14.5001 13.2793 14.4321 13.0681 14.3058 12.892L13.6938 12.1C13.5675 11.9239 13.4995 11.7127 13.4995 11.496C13.4995 11.2793 13.5675 11.0681 13.6938 10.892L14.3058 10.1C14.4321 9.92394 14.5001 9.7127 14.5001 9.496C14.5001 9.2793 14.4321 9.06806 14.3058 8.892L13.6938 8.1C13.5675 7.92394 13.4995 7.7127 13.4995 7.496C13.4995 7.2793 13.5675 7.06806 13.6938 6.892L13.9998 6.5" stroke="#FF6F00" stroke-linecap="round" stroke-linejoin="round"/>
<path d="M4.5 4.5C3.5 5.5 3.5 5.5 2.5 4.5" stroke="#FF6F00" stroke-linecap="round" stroke-linejoin="round"/>
<path d="M12.5 4.5C11.5 5.5 11.5 5.5 10.5 4.5" stroke="#FF6F00" stroke-linecap="round" stroke-linejoin="round"/>
<path d="M10.5 0.5V4.5C9.57671 4.99242 8.5464 5.25 7.5 5.25C6.4536 5.25 5.42329 4.99242 4.5 4.5V0.5" stroke="#FF6F00" stroke-linecap="round" stroke-linejoin="round"/>
<path d="M2.5 0.5H12.5V4.5L7.5 9.5L2.5 4.5V0.5Z" stroke="#FF6F00" stroke-linecap="round" stroke-linejoin="round"/>
</svg>
