<svg width="18" height="18" viewBox="0 0 18 18" fill="none" xmlns="http://www.w3.org/2000/svg">
<path d="M3.5 11.5H2.5C2.23478 11.5 1.98043 11.3946 1.79289 11.2071C1.60536 11.0196 1.5 10.7652 1.5 10.5V5.5C1.5 5.23478 1.60536 4.98043 1.79289 4.79289C1.98043 4.60536 2.23478 4.5 2.5 4.5H15.5C15.7652 4.5 16.0196 4.60536 16.2071 4.79289C16.3946 4.98043 16.5 5.23478 16.5 5.5V10.5C16.5 10.7652 16.3946 11.0196 16.2071 11.2071C16.0196 11.3946 15.7652 11.5 15.5 11.5H14.5" stroke="#FF7C3F" stroke-miterlimit="10"/>
<path d="M11.5 13.5H6.5" stroke="#FF7C3F" stroke-linecap="square" stroke-linejoin="round"/>
<path d="M11.5 11.5H6.5" stroke="#FF7C3F" stroke-linecap="square" stroke-linejoin="round"/>
<path d="M3.5 4.5V2.5C3.5 2.23478 3.60536 1.98043 3.79289 1.79289C3.98043 1.60536 4.23478 1.5 4.5 1.5H13.5C13.7652 1.5 14.0196 1.60536 14.2071 1.79289C14.3946 1.98043 14.5 2.23478 14.5 2.5V4.5" stroke="#FF7C3F" stroke-miterlimit="10" stroke-linecap="round"/>
<path d="M3.5 8.5H14.5V15.5C14.5 15.7652 14.3946 16.0196 14.2071 16.2071C14.0196 16.3946 13.7652 16.5 13.5 16.5H4.5C4.23478 16.5 3.98043 16.3946 3.79289 16.2071C3.60536 16.0196 3.5 15.7652 3.5 15.5V8.5Z" stroke="#FF7C3F" stroke-miterlimit="10"/>
<path d="M15 6H14V7H15V6Z" fill="#FF7C3F"/>
</svg>
