<svg width="24" height="24" viewBox="0 0 24 24" fill="none" xmlns="http://www.w3.org/2000/svg">
<path d="M11.5 2.5V4.5" stroke="#949494" stroke-linecap="round" stroke-linejoin="round"/>
<path d="M7 3.70605L8 5.43805" stroke="#949494" stroke-linecap="round" stroke-linejoin="round"/>
<path d="M3.70605 7L5.43805 8" stroke="#949494" stroke-linecap="round" stroke-linejoin="round"/>
<path d="M11.5 11.5L19.294 16" stroke="#949494" stroke-linecap="round" stroke-linejoin="round"/>
<path d="M2.5 11.5H4.5" stroke="#949494" stroke-linecap="round" stroke-linejoin="round"/>
<path d="M18.5 11.5H20.5" stroke="#949494" stroke-linecap="round" stroke-linejoin="round"/>
<path d="M3.70605 16L5.43805 15" stroke="#949494" stroke-linecap="round" stroke-linejoin="round"/>
<path d="M17.5615 8L19.2935 7" stroke="#949494" stroke-linecap="round" stroke-linejoin="round"/>
<path d="M15 5.43805L16 3.70605" stroke="#949494" stroke-linecap="round" stroke-linejoin="round"/>
<path d="M11.5 13C12.3284 13 13 12.3284 13 11.5C13 10.6716 12.3284 10 11.5 10C10.6716 10 10 10.6716 10 11.5C10 12.3284 10.6716 13 11.5 13Z" fill="#949494"/>
<path d="M11.5 22.5C17.5751 22.5 22.5 17.5751 22.5 11.5C22.5 5.42487 17.5751 0.5 11.5 0.5C5.42487 0.5 0.5 5.42487 0.5 11.5C0.5 17.5751 5.42487 22.5 11.5 22.5Z" stroke="#949494" stroke-linecap="round" stroke-linejoin="round"/>
<path opacity="0.5" d="M8.5 18.5H14.5" stroke="#949494" stroke-linecap="square" stroke-linejoin="round"/>
</svg>
