<svg width="36" height="55" viewBox="0 0 36 55" fill="none" xmlns="http://www.w3.org/2000/svg">
<g clip-path="url(#clip0_10670_19073)">
<mask id="mask0_10670_19073" style="mask-type:luminance" maskUnits="userSpaceOnUse" x="0" y="0" width="36" height="55">
<path d="M36 0H0V55H36V0Z" fill="white"/>
</mask>
<g mask="url(#mask0_10670_19073)">
<path d="M25.8148 7.52539H10.1148C4.41484 7.52539 -0.285156 12.1254 -0.285156 17.9254V51.0254H36.2148V17.9254C36.2148 12.2254 31.6148 7.52539 25.8148 7.52539ZM18.0148 37.1254C13.8148 37.1254 10.4148 33.7254 10.4148 29.5254C10.4148 25.3254 13.8148 21.9254 18.0148 21.9254C22.2148 21.9254 25.6148 25.3254 25.6148 29.5254C25.6148 33.7254 22.2148 37.1254 18.0148 37.1254Z" fill="#ACACAC"/>
<path d="M24.3144 11.2256H11.6144C7.31445 11.2256 3.81445 14.7256 3.81445 19.0256V46.8256H32.0144V19.0256C32.1144 14.7256 28.6144 11.2256 24.3144 11.2256ZM18.0144 37.1256C13.8144 37.1256 10.4144 33.7256 10.4144 29.5256C10.4144 25.3256 13.8144 21.9256 18.0144 21.9256C22.2144 21.9256 25.6144 25.3256 25.6144 29.5256C25.6144 33.7256 22.2144 37.1256 18.0144 37.1256Z" fill="#C0C0C0"/>
<path d="M18.0146 21.925L18.4146 19.125H17.5146L17.9146 21.925C17.9146 21.925 17.9146 21.925 18.0146 21.925Z" fill="#818181"/>
<path d="M16.6148 19.2246L15.7148 19.4246L16.5148 22.1246H16.6148V19.2246Z" fill="#818181"/>
<path d="M14.8146 19.625L14.0146 19.925L15.3146 22.425C15.3146 22.425 15.4146 22.425 15.4146 22.325L14.8146 19.625Z" fill="#818181"/>
<path d="M13.1145 20.3242L12.3145 20.7242L14.0145 22.9242L14.1145 22.8242L13.1145 20.3242Z" fill="#818181"/>
<path d="M11.615 21.3242L10.915 21.8242L13.015 23.7242L13.115 23.6242L11.615 21.3242Z" fill="#818181"/>
<path d="M10.3148 22.5254L9.71484 23.2254L12.1148 24.7254L12.2148 24.6254L10.3148 22.5254Z" fill="#818181"/>
<path d="M9.21445 23.9258L8.81445 24.7258L11.4144 25.8258L11.5144 25.7258L9.21445 23.9258Z" fill="#818181"/>
<path d="M8.31563 25.5254L8.01562 26.3254L10.7156 26.9254C10.7156 26.9254 10.7156 26.8254 10.8156 26.8254L8.31563 25.5254Z" fill="#818181"/>
<path d="M7.81523 27.3242L7.61523 28.2242L10.4152 28.3242V28.2242L7.81523 27.3242Z" fill="#818181"/>
<path d="M10.3156 29.4254L7.51562 29.0254V29.9254L10.3156 29.5254C10.3156 29.6254 10.3156 29.5254 10.3156 29.4254C10.3156 29.5254 10.3156 29.5254 10.3156 29.4254Z" fill="#818181"/>
<path d="M7.61523 30.9258L7.81523 31.8258L10.5152 31.0258V30.9258H7.61523Z" fill="#818181"/>
<path d="M8.01562 32.725L8.31563 33.525L10.8156 32.225C10.8156 32.225 10.8156 32.125 10.7156 32.125L8.01562 32.725Z" fill="#818181"/>
<path d="M8.71484 34.3242L9.11484 35.1242L11.3148 33.4242L11.2148 33.3242L8.71484 34.3242Z" fill="#818181"/>
<path d="M9.71484 35.9258L10.3148 36.6258L12.2148 34.5258L12.1148 34.4258L9.71484 35.9258Z" fill="#818181"/>
<path d="M10.915 37.2242L11.615 37.8242L13.115 35.4242L13.015 35.3242L10.915 37.2242Z" fill="#818181"/>
<path d="M12.415 38.3254L13.215 38.7254L14.315 36.1254L14.215 36.0254L12.415 38.3254Z" fill="#818181"/>
<path d="M14.0146 39.125L14.8146 39.425L15.4146 36.725C15.4146 36.725 15.3146 36.725 15.3146 36.625L14.0146 39.125Z" fill="#818181"/>
<path d="M15.7148 39.725L16.6148 39.925L16.7148 37.125H16.6148L15.7148 39.725Z" fill="#818181"/>
<path d="M17.9146 37.125L17.5146 39.925H18.4146L18.0146 37.125C18.0146 37.125 18.0146 37.125 17.9146 37.125Z" fill="#818181"/>
<path d="M19.3145 39.8258L20.2145 39.6258L19.4145 36.9258H19.3145V39.8258Z" fill="#818181"/>
<path d="M21.1146 39.425L21.9146 39.125L20.6146 36.625C20.6146 36.625 20.5146 36.625 20.5146 36.725L21.1146 39.425Z" fill="#818181"/>
<path d="M22.8148 38.725L23.6148 38.325L21.8148 36.125L21.7148 36.225L22.8148 38.725Z" fill="#818181"/>
<path d="M24.3145 37.8242L25.0145 37.2242L22.9145 35.3242L22.8145 35.4242L24.3145 37.8242Z" fill="#818181"/>
<path d="M25.6148 36.5258L26.2148 35.8258L23.8148 34.4258L23.7148 34.5258L25.6148 36.5258Z" fill="#818181"/>
<path d="M26.715 35.1246L27.115 34.3246L24.515 33.2246L24.415 33.3246L26.715 35.1246Z" fill="#818181"/>
<path d="M27.6152 33.525L27.9152 32.725L25.2152 32.125C25.2152 32.125 25.2152 32.225 25.1152 32.225L27.6152 33.525Z" fill="#818181"/>
<path d="M28.1146 31.8242L28.3146 30.9242L25.5146 30.8242V30.9242L28.1146 31.8242Z" fill="#818181"/>
<path d="M25.6152 29.625L28.4152 30.025V29.125L25.6152 29.525C25.6152 29.525 25.6152 29.525 25.6152 29.625Z" fill="#818181"/>
<path d="M28.315 28.1246L28.115 27.2246L25.415 28.0246V28.1246H28.315Z" fill="#818181"/>
<path d="M27.9152 26.425L27.6152 25.625L25.1152 26.825C25.1152 26.825 25.1152 26.925 25.2152 26.925L27.9152 26.425Z" fill="#818181"/>
<path d="M27.2152 24.7258L26.8152 23.9258L24.6152 25.6258L24.7152 25.7258L27.2152 24.7258Z" fill="#818181"/>
<path d="M26.2148 23.2254L25.6148 22.5254L23.7148 24.6254L23.8148 24.7254L26.2148 23.2254Z" fill="#818181"/>
<path d="M25.0145 21.8246L24.3145 21.2246L22.8145 23.6246L22.9145 23.7246L25.0145 21.8246Z" fill="#818181"/>
<path d="M23.5148 20.7242L22.8148 20.3242L21.7148 22.9242L21.8148 23.0242L23.5148 20.7242Z" fill="#818181"/>
<path d="M21.9146 19.925L21.1146 19.625L20.5146 22.325C20.5146 22.325 20.6146 22.325 20.6146 22.425L21.9146 19.925Z" fill="#818181"/>
<path d="M20.2148 19.325L19.3148 19.125L19.2148 21.925H19.3148L20.2148 19.325Z" fill="#818181"/>
<path d="M14.0146 51.0254H22.3146L21.7146 53.8254H14.8146L14.0146 51.0254Z" fill="#ACACAC"/>
<path d="M16.8145 53.8242H19.1145L18.9145 54.7242H17.0145L16.8145 53.8242Z" fill="#D0D0D0"/>
<path d="M-0.285156 45.9258H7.61484V53.3258H3.61484L-0.285156 51.4258V45.9258Z" fill="#BBBBBB"/>
<path d="M36.2145 45.9258H28.3145V53.3258H32.2145L36.1145 51.4258L36.2145 45.9258Z" fill="#BBBBBB"/>
<path d="M3.81445 45.9258H32.0144V51.4258H3.81445V45.9258Z" fill="#CFCFCF"/>
<path d="M3.81445 47.3242H32.0144V51.5242H3.81445V47.3242Z" fill="#DDDDDD"/>
<path d="M22.8146 8.22539C22.8146 8.62539 20.6146 8.92539 17.9146 8.92539C15.2146 8.92539 13.0146 8.62539 13.0146 8.22539C13.0146 7.82539 15.2146 7.52539 17.9146 7.52539C20.6146 7.52539 22.8146 7.82539 22.8146 8.22539Z" fill="#8C8C8C"/>
<path fill-rule="evenodd" clip-rule="evenodd" d="M15.2529 0.125C14.6529 0.125 14.2529 0.525 14.2529 1.125V7.025C14.2529 7.325 14.2529 7.925 14.2529 8.025C14.2529 8.325 15.9529 8.525 17.9529 8.525C19.9529 8.525 21.6529 8.325 21.6529 8.025C21.6529 7.925 21.6529 7.325 21.6529 7.025V1.125C21.6529 0.525 21.2529 0.125 20.6529 0.125H15.2529Z" fill="#C0C0C0"/>
<path d="M15.7773 2.52539C15.7773 1.92539 16.1773 1.52539 16.7773 1.52539H19.2773C19.8773 1.52539 20.2773 1.92539 20.2773 2.52539V5.82539C20.2773 6.42539 19.8773 6.82539 19.2773 6.82539H16.7773C16.1773 6.82539 15.7773 6.42539 15.7773 5.82539V2.52539Z" fill="#D2D2D2"/>
</g>
</g>
<defs>
<clipPath id="clip0_10670_19073">
<rect width="36" height="55" fill="white"/>
</clipPath>
</defs>
</svg>
