<svg width="1000" height="1000" viewBox="0 0 1000 1000" fill="none" xmlns="http://www.w3.org/2000/svg">
<g clip-path="url(#clip0_10670_22622)">
<path d="M1000 0H0V1000H1000V0Z" fill="#EEEEEE"/>
<path d="M430.68 479.835C428.416 477.559 425.722 475.645 422.666 474.309C419.575 472.973 416.268 472.214 412.781 472.214H381.943V485.614H386.868V557.306H400.202V524.62H412.781C416.268 524.62 419.575 523.32 422.666 521.947C425.722 520.611 428.453 518.444 430.717 516.169C432.981 513.893 434.815 511.004 436.142 507.934C437.473 504.828 438.155 501.433 438.155 497.93C438.155 494.426 437.473 491.067 436.142 487.961C434.815 484.855 432.981 482.11 430.717 479.835H430.68ZM424.643 502.878C423.961 504.431 423.024 505.803 421.875 506.995C420.687 508.187 419.287 509.307 417.741 509.993C416.196 510.643 414.507 511.185 412.745 511.185H400.166V485.577H412.745C414.507 485.577 416.196 485.577 417.741 486.228C419.287 486.914 420.687 487.672 421.875 488.864C423.061 490.056 423.994 491.356 424.643 492.909C425.288 494.462 425.613 496.124 425.613 497.893C425.613 499.663 425.288 501.325 424.643 502.878Z" fill="#ACACAC"/>
<path d="M519.922 474.202C516.76 475.538 513.957 477.38 511.62 479.764C509.25 482.148 507.055 484.928 505.725 488.107C504.361 491.285 503.391 494.716 503.391 498.328V524.116H517.264V498.328C517.264 496.486 517.406 494.752 518.091 493.163C518.773 491.574 519.67 490.129 520.895 488.901C522.116 487.673 523.48 486.698 525.062 486.012C526.645 485.326 528.297 484.965 530.167 484.965H530.958V472.251H530.167C526.536 472.251 523.123 472.829 519.958 474.202H519.922Z" fill="#ACACAC"/>
<path d="M581.817 478.969C579.371 476.513 576.497 474.526 573.263 473.118C570.026 471.709 566.504 470.951 562.803 470.951C559.102 470.951 555.435 471.673 552.165 473.082C548.894 474.49 546.018 476.477 543.611 478.933C541.201 481.389 539.262 484.278 537.858 487.565C536.422 490.851 535.703 494.427 535.703 498.147C535.703 501.867 536.422 505.406 537.825 508.693C539.225 511.98 541.165 514.869 543.575 517.361C545.981 519.817 548.858 521.804 552.128 523.212C555.399 524.657 558.993 525.379 562.767 525.379C566.541 525.379 569.993 524.657 573.227 523.248C576.425 521.84 579.337 519.853 581.781 517.397C584.224 514.941 586.2 512.016 587.603 508.729C589.004 505.442 589.758 501.867 589.758 498.183C589.758 494.463 589.04 490.924 587.639 487.601C586.2 484.314 584.26 481.389 581.817 478.933V478.969ZM575.491 503.601C574.773 505.298 573.8 506.779 572.542 507.971C571.284 509.199 569.775 510.21 568.123 510.968C566.504 511.727 564.707 512.088 562.84 512.088C560.97 512.088 559.136 511.691 557.448 510.968C555.759 510.21 554.25 509.199 552.992 507.971C551.734 506.743 550.761 505.262 550.043 503.565C549.325 501.867 549 500.061 549 498.147C549 496.233 549.361 494.463 550.079 492.802C550.798 491.14 551.77 489.659 553.028 488.395C554.286 487.131 555.796 486.12 557.484 485.434C559.172 484.711 560.97 484.386 562.876 484.386C564.78 484.386 566.541 484.747 568.195 485.434C569.847 486.156 571.321 487.167 572.578 488.395C573.836 489.659 574.843 491.14 575.528 492.802C576.21 494.463 576.604 496.233 576.604 498.147C576.604 500.061 576.246 501.867 575.528 503.565L575.491 503.601Z" fill="#ACACAC"/>
<path d="M593.891 485.002H625.665L593.855 510.537V524.153H646.689V510.428H615.205L646.725 484.677V472.289H593.891V485.002Z" fill="#ACACAC"/>
<path d="M760.733 479.908C758.396 477.524 755.593 475.646 752.431 474.31C749.267 472.938 745.854 472.251 742.223 472.251C739.528 472.251 737.082 472.649 734.639 473.407C732.699 474.021 730.435 474.852 729.211 475.899V472.36H710.452V485.073H715.338V524.224H729.211V498.545C729.211 496.703 729.429 494.933 730.111 493.308C730.793 491.682 731.693 490.274 732.915 489.082C734.136 487.89 735.536 486.915 737.119 486.229C738.701 485.542 740.389 485.181 742.259 485.181C744.093 485.181 745.854 485.542 747.433 486.229C749.052 486.915 750.488 487.89 751.676 489.082C752.862 490.274 753.904 491.719 754.623 493.344C755.305 494.969 755.738 496.703 755.738 498.581V524.26H768.389V498.581C768.389 494.933 767.705 491.502 766.377 488.323C765.046 485.145 763.14 482.328 760.77 479.98L760.733 479.908Z" fill="#ACACAC"/>
<path d="M696.901 476.477C691.293 472.035 684.14 471.096 679.29 471.096C653.448 471.096 652.081 492.838 652.081 497.208C652.081 515.917 661.498 525.416 680.224 525.416C684.861 525.416 700.28 524.404 705.133 509.091L705.239 508.874H689.46H689.39C688.202 512.558 683.925 514.87 680.224 514.87C668.939 514.87 667.86 506.238 667.394 503.637H706.354V499.484C706.354 489.01 703.011 481.245 696.937 476.441L696.901 476.477ZM667.788 494.102C668.721 486.084 672.568 483.989 678.893 483.989C681.194 483.989 688.778 484.784 689.929 494.102H667.788Z" fill="#ACACAC"/>
<path d="M488.114 480.196C485.85 477.921 483.155 475.862 480.136 474.526C477.081 473.189 473.774 472.25 470.359 472.25H457.922V437H440.385V448.269H445.486V524.115H457.922V486.192H470.395C472.12 486.192 473.774 486.047 475.354 486.733C476.9 487.42 478.266 488.106 479.415 489.226C480.531 490.381 481.537 491.609 482.183 493.126C482.831 494.643 483.262 496.16 483.262 497.93V524.115H495.877V497.93C495.877 494.499 495.052 491.212 493.722 488.178C492.427 485.144 490.415 482.472 488.151 480.196H488.114Z" fill="#ACACAC"/>
<path d="M330.356 513.385C328.737 515.327 326.257 517.485 323.439 519.16C320.626 520.832 317.427 522.052 314.374 522.052H273.06C271.346 524.108 264.021 532.883 257.021 541.268C253.407 545.597 249.879 549.823 247.255 552.966C245.943 554.537 244.857 555.839 244.099 556.747C243.72 557.201 243.422 557.557 243.22 557.799C243.153 557.878 243.097 557.946 243.052 558H301.902C303.006 558 304.808 557.464 306.737 556.45C308.653 555.444 310.627 554 312.085 552.256L312.087 552.254C312.088 552.253 312.09 552.251 312.092 552.248C312.096 552.242 312.104 552.234 312.113 552.223C312.132 552.2 312.159 552.167 312.195 552.123C312.268 552.036 312.377 551.906 312.518 551.736C312.8 551.398 313.214 550.902 313.739 550.271C314.791 549.01 316.291 547.21 318.085 545.059C321.673 540.755 326.437 535.042 331.139 529.403C335.84 523.765 340.48 518.2 343.821 514.194C345.492 512.192 346.837 510.578 347.703 509.54C348.136 509.021 348.45 508.646 348.624 508.438C348.635 508.424 348.646 508.411 348.656 508.399H334.519L330.356 513.385ZM242.119 528.013L242.118 528.014L240.591 529.828H256.31L265.576 518.704V518.703L277.543 504.354H261.916L242.119 528.013ZM278.711 515.273H314.374C317.354 515.273 320.248 513.511 322.488 511.617C323.914 510.412 325.038 509.184 325.71 508.399H284.453L278.711 515.273ZM348.797 508.412C348.827 508.516 348.887 508.654 349.003 508.766L349.094 508.658L348.797 508.412ZM318.136 498.649L318.132 498.653C316.677 500.354 314.841 501.979 312.779 503.354H329.919C336.481 495.562 336.026 496.104 350.895 478.297C350.909 478.276 350.921 478.258 350.932 478.241H335.167L318.136 498.649ZM300.033 494.711C298.645 494.711 296.79 495.327 294.896 496.341C293.388 497.148 291.893 498.188 290.64 499.31H301.866C302.937 499.31 304.651 498.816 306.508 497.865C308.036 497.083 309.619 496.011 310.969 494.711H300.033ZM289.718 478.278C288.43 478.278 286.456 478.853 284.382 479.929C282.319 480.998 280.219 482.531 278.672 484.383V484.384L266.134 499.346H281.709C281.739 499.307 281.775 499.261 281.818 499.206C282.094 498.857 282.661 498.143 283.828 496.681L283.835 496.672L284.206 496.24C286.103 494.092 288.636 492.085 291.33 490.583C294.198 488.984 297.293 487.933 300.033 487.933H300.241L300.277 487.969H316.799L324.88 478.278H289.718ZM289.718 449.709C288.586 449.709 286.77 450.294 284.837 451.354C282.919 452.406 280.96 453.886 279.535 455.597V455.598L243.377 498.901L243.363 498.919L243.348 498.934C243.301 498.98 243.276 499.065 243.308 499.162C243.335 499.246 243.391 499.296 243.472 499.31H257.352L273.52 479.985L273.888 479.558C275.77 477.427 278.296 475.459 281.072 473.978C284.069 472.362 287.169 471.463 289.718 471.463H330.528L348.676 449.709H289.718ZM359.909 476.369C359.909 477.613 359.431 478.813 358.56 479.734L358.561 479.735C358.018 480.345 342.251 499.204 338.764 503.394C345.525 503.422 348.904 503.4 350.679 503.396C351.604 503.393 352.112 503.396 352.436 503.417C352.792 503.44 352.952 503.487 353.17 503.561H353.169C355.42 504.278 356.281 506.972 354.923 508.772L354.924 508.773C354.655 509.14 344.907 520.843 335.254 532.423C330.42 538.222 325.601 543.999 321.991 548.327C320.186 550.491 318.683 552.293 317.632 553.554C317.106 554.184 316.693 554.679 316.411 555.017C316.271 555.185 316.162 555.314 316.09 555.401C316.054 555.445 316.026 555.478 316.008 555.5C315.999 555.511 315.992 555.52 315.987 555.525C315.985 555.528 315.983 555.53 315.981 555.531L315.98 555.533C315.98 555.533 315.974 555.528 315.596 555.213L315.979 555.533V555.534C314.207 557.649 311.763 559.53 309.246 560.882C306.737 562.23 304.1 563.081 301.938 563.081H239.494L239.48 563.08C237.13 562.953 235.571 560.549 236.455 558.35L236.47 558.313L236.49 558.279C236.491 558.279 236.493 558.275 236.497 558.268C236.503 558.257 236.508 558.246 236.518 558.227C236.536 558.19 236.561 558.141 236.597 558.079C236.668 557.955 236.774 557.787 236.95 557.543C237.301 557.059 237.942 556.259 239.166 554.885L254.396 536.644H236.121L236.113 536.643C232.299 536.521 230.167 532.165 232.419 529.094L232.438 529.068L253.101 504.391H239.399C237.961 504.391 236.904 503.552 236.418 502.459C235.937 501.377 236.007 500.026 236.809 498.966L236.822 498.948L236.823 498.947L236.824 498.945C236.826 498.944 236.828 498.942 236.831 498.938C236.837 498.932 236.845 498.921 236.858 498.905C236.885 498.874 236.928 498.821 236.996 498.739C237.132 498.576 237.368 498.294 237.764 497.818C238.556 496.867 239.993 495.144 242.569 492.054C247.722 485.873 257.435 474.225 275.676 452.356L275.677 452.355C277.447 450.243 279.888 448.327 282.404 446.938C284.912 445.555 287.55 444.664 289.718 444.664H351.933C354.872 444.664 356.502 448.115 354.657 450.391L354.654 450.395C351.273 454.479 341.741 465.858 337.078 471.463H355.024C357.64 471.463 359.757 473.526 359.867 476.12L359.909 476.162V476.369Z" fill="#ACACAC" stroke="#ACACAC"/>
</g>
<defs>
<clipPath id="clip0_10670_22622">
<rect width="1000" height="1000" fill="white"/>
</clipPath>
</defs>
</svg>
