<svg width="12" height="12" viewBox="0 0 12 12" fill="none" xmlns="http://www.w3.org/2000/svg">
<g clip-path="url(#clip0_10670_22743)">
<path d="M2.5 7.5H1.5C1.23478 7.5 0.98043 7.39464 0.792893 7.20711C0.605357 7.01957 0.5 6.76522 0.5 6.5V3.5C0.5 3.23478 0.605357 2.98043 0.792893 2.79289C0.98043 2.60536 1.23478 2.5 1.5 2.5H10.5C10.7652 2.5 11.0196 2.60536 11.2071 2.79289C11.3946 2.98043 11.5 3.23478 11.5 3.5V6.5C11.5 6.76522 11.3946 7.01957 11.2071 7.20711C11.0196 7.39464 10.7652 7.5 10.5 7.5H9.5" stroke="#FF7C3F" stroke-miterlimit="10"/>
<path d="M7.5 9.5H4.5" stroke="#FF7C3F" stroke-linecap="square" stroke-linejoin="round"/>
<path d="M7.5 7.5H4.5" stroke="#FF7C3F" stroke-linecap="square" stroke-linejoin="round"/>
<path d="M2.5 2.5V1.5C2.5 1.23478 2.60536 0.98043 2.79289 0.792893C2.98043 0.605357 3.23478 0.5 3.5 0.5H8.5C8.76522 0.5 9.01957 0.605357 9.20711 0.792893C9.39464 0.98043 9.5 1.23478 9.5 1.5V2.5" stroke="#FF7C3F" stroke-miterlimit="10" stroke-linecap="round"/>
<path d="M8.5 5.5H3.5C2.94772 5.5 2.5 5.94772 2.5 6.5V10.5C2.5 11.0523 2.94772 11.5 3.5 11.5H8.5C9.05228 11.5 9.5 11.0523 9.5 10.5V6.5C9.5 5.94772 9.05228 5.5 8.5 5.5Z" stroke="#FF7C3F" stroke-miterlimit="10"/>
</g>
<defs>
<clipPath id="clip0_10670_22743">
<rect width="12" height="12" fill="white"/>
</clipPath>
</defs>
</svg>
