<svg width="16" height="16" viewBox="0 0 16 16" fill="none" xmlns="http://www.w3.org/2000/svg">
<path d="M13.5 0.5H1.5C0.947715 0.5 0.5 0.947715 0.5 1.5V13.5C0.5 14.0523 0.947715 14.5 1.5 14.5H13.5C14.0523 14.5 14.5 14.0523 14.5 13.5V1.5C14.5 0.947715 14.0523 0.5 13.5 0.5Z" stroke="#FF6F00" stroke-linecap="round" stroke-linejoin="round"/>
<path d="M2.5 12.5H12.5" stroke="#FF6F00" stroke-linecap="square" stroke-linejoin="round"/>
<path d="M11.4998 10.5L11.8998 10.1C11.9793 10.0208 12.0423 9.92663 12.0853 9.82298C12.1283 9.71934 12.1505 9.60822 12.1505 9.496C12.1505 9.38379 12.1283 9.27267 12.0853 9.16903C12.0423 9.06538 11.9793 8.97124 11.8998 8.892L11.0998 8.1C11.0203 8.02077 10.9573 7.92663 10.9143 7.82298C10.8713 7.71934 10.8491 7.60822 10.8491 7.496C10.8491 7.38379 10.8713 7.27267 10.9143 7.16903C10.9573 7.06538 11.0203 6.97124 11.0998 6.892L11.8998 6.1C11.9793 6.02077 12.0423 5.92663 12.0853 5.82298C12.1283 5.71934 12.1505 5.60822 12.1505 5.496C12.1505 5.38379 12.1283 5.27267 12.0853 5.16903C12.0423 5.06538 11.9793 4.97124 11.8998 4.892L11.0998 4.1C11.0203 4.02077 10.9573 3.92663 10.9143 3.82298C10.8713 3.71934 10.8491 3.60822 10.8491 3.496C10.8491 3.38379 10.8713 3.27267 10.9143 3.16903C10.9573 3.06538 11.0203 2.97124 11.0998 2.892L11.4998 2.492" stroke="#FF6F00" stroke-linecap="round" stroke-linejoin="round"/>
<path d="M7.50021 10.5L7.90021 10.1C8.05825 9.9403 8.1469 9.72468 8.1469 9.5C8.1469 9.27532 8.05825 9.0597 7.90021 8.9L7.10021 8.1C6.94216 7.9403 6.85352 7.72468 6.85352 7.5C6.85352 7.27532 6.94216 7.0597 7.10021 6.9L7.90021 6.1C8.05825 5.9403 8.1469 5.72468 8.1469 5.5C8.1469 5.27532 8.05825 5.0597 7.90021 4.9L7.10021 4.1C6.94216 3.9403 6.85352 3.72468 6.85352 3.5C6.85352 3.27532 6.94216 3.0597 7.10021 2.9L7.50021 2.5" stroke="#FF6F00" stroke-linecap="round" stroke-linejoin="round"/>
<path d="M3.50021 10.5L3.90021 10.1C4.05825 9.9403 4.1469 9.72468 4.1469 9.5C4.1469 9.27532 4.05825 9.0597 3.90021 8.9L3.10021 8.1C2.94216 7.9403 2.85352 7.72468 2.85352 7.5C2.85352 7.27532 2.94216 7.0597 3.10021 6.9L3.90021 6.1C4.05825 5.9403 4.1469 5.72468 4.1469 5.5C4.1469 5.27532 4.05825 5.0597 3.90021 4.9L3.10021 4.1C2.94216 3.9403 2.85352 3.72468 2.85352 3.5C2.85352 3.27532 2.94216 3.0597 3.10021 2.9L3.50021 2.5" stroke="#FF6F00" stroke-linecap="round" stroke-linejoin="round"/>
</svg>
