<svg width="32" height="32" viewBox="0 0 32 32" fill="none" xmlns="http://www.w3.org/2000/svg">
<path opacity="0.5" d="M6.966 12.206L16 6.5L25.034 12.206C25.1767 12.2961 25.2942 12.4208 25.3757 12.5686C25.4571 12.7163 25.4999 12.8823 25.5 13.051V24.5C25.5 24.7652 25.3946 25.0196 25.2071 25.2071C25.0196 25.3946 24.7652 25.5 24.5 25.5H20.5C20.2348 25.5 19.9804 25.3946 19.7929 25.2071C19.6054 25.0196 19.5 24.7652 19.5 24.5V17.5C19.5 17.2348 19.3946 16.9804 19.2071 16.7929C19.0196 16.6054 18.7652 16.5 18.5 16.5H13.5C13.2348 16.5 12.9804 16.6054 12.7929 16.7929C12.6054 16.9804 12.5 17.2348 12.5 17.5V25.5H7.5C7.23478 25.5 6.98043 25.3946 6.79289 25.2071C6.60536 25.0196 6.5 24.7652 6.5 24.5V13.051C6.50008 12.8823 6.54285 12.7163 6.62433 12.5686C6.70581 12.4208 6.82335 12.2961 6.966 12.206Z" fill="#FF7C3F"/>
<path d="M6.966 12.206L16 6.5L25.034 12.206C25.1767 12.2961 25.2942 12.4208 25.3757 12.5686C25.4571 12.7163 25.4999 12.8823 25.5 13.051V24.5C25.5 24.7652 25.3946 25.0196 25.2071 25.2071C25.0196 25.3946 24.7652 25.5 24.5 25.5H20.5C20.2348 25.5 19.9804 25.3946 19.7929 25.2071C19.6054 25.0196 19.5 24.7652 19.5 24.5V17.5C19.5 17.2348 19.3946 16.9804 19.2071 16.7929C19.0196 16.6054 18.7652 16.5 18.5 16.5H13.5C13.2348 16.5 12.9804 16.6054 12.7929 16.7929C12.6054 16.9804 12.5 17.2348 12.5 17.5V25.5H7.5C7.23478 25.5 6.98043 25.3946 6.79289 25.2071C6.60536 25.0196 6.5 24.7652 6.5 24.5V13.051C6.50008 12.8823 6.54285 12.7163 6.62433 12.5686C6.70581 12.4208 6.82335 12.2961 6.966 12.206Z" stroke="#FF7C3F" stroke-linecap="round" stroke-linejoin="round"/>
</svg>
