<svg width="16" height="16" viewBox="0 0 16 16" fill="none" xmlns="http://www.w3.org/2000/svg">
<path d="M0.5 14.5H14.5" stroke="#FF6F00" stroke-linecap="square" stroke-linejoin="round"/>
<path d="M13.4999 11.5L13.8999 10.956C14.0637 10.7098 14.1511 10.4207 14.1511 10.125C14.1511 9.82929 14.0637 9.54018 13.8999 9.294L13.0999 8.206C12.936 7.95982 12.8486 7.67071 12.8486 7.375C12.8486 7.07929 12.936 6.79018 13.0999 6.544L13.8999 5.456C14.0637 5.20982 14.1511 4.92071 14.1511 4.625C14.1511 4.32929 14.0637 4.04018 13.8999 3.794L13.0999 2.706C12.936 2.45982 12.8486 2.17071 12.8486 1.875C12.8486 1.57929 12.936 1.29018 13.0999 1.044L13.4999 0.5" stroke="#FF6F00" stroke-linecap="round" stroke-linejoin="round"/>
<path d="M7.49986 11.5L7.89986 10.956C8.06368 10.7098 8.15108 10.4207 8.15108 10.125C8.15108 9.82929 8.06368 9.54018 7.89986 9.294L7.09986 8.206C6.93604 7.95982 6.84863 7.67071 6.84863 7.375C6.84863 7.07929 6.93604 6.79018 7.09986 6.544L7.89986 5.456C8.06368 5.20982 8.15108 4.92071 8.15108 4.625C8.15108 4.32929 8.06368 4.04018 7.89986 3.794L7.09986 2.706C6.93604 2.45982 6.84863 2.17071 6.84863 1.875C6.84863 1.57929 6.93604 1.29018 7.09986 1.044L7.49986 0.5" stroke="#FF6F00" stroke-linecap="round" stroke-linejoin="round"/>
<path d="M1.49986 11.5L1.89986 10.956C2.06368 10.7098 2.15108 10.4207 2.15108 10.125C2.15108 9.82929 2.06368 9.54018 1.89986 9.294L1.09986 8.206C0.936036 7.95982 0.848633 7.67071 0.848633 7.375C0.848633 7.07929 0.936036 6.79018 1.09986 6.544L1.89986 5.456C2.06368 5.20982 2.15108 4.92071 2.15108 4.625C2.15108 4.32929 2.06368 4.04018 1.89986 3.794L1.09986 2.706C0.936036 2.45982 0.848633 2.17071 0.848633 1.875C0.848633 1.57929 0.936036 1.29018 1.09986 1.044L1.49986 0.5" stroke="#FF6F00" stroke-linecap="round" stroke-linejoin="round"/>
</svg>
