<svg width="24" height="24" viewBox="0 0 24 24" fill="none" xmlns="http://www.w3.org/2000/svg">
<path d="M11.5 22.5C17.5751 22.5 22.5 17.5751 22.5 11.5C22.5 5.42487 17.5751 0.5 11.5 0.5C5.42487 0.5 0.5 5.42487 0.5 11.5C0.5 17.5751 5.42487 22.5 11.5 22.5Z" stroke="#949494" stroke-linecap="round" stroke-linejoin="round"/>
<path d="M11.5 14.5C13.1569 14.5 14.5 13.1569 14.5 11.5C14.5 9.84315 13.1569 8.5 11.5 8.5C9.84315 8.5 8.5 9.84315 8.5 11.5C8.5 13.1569 9.84315 14.5 11.5 14.5Z" stroke="#FF7C3F" stroke-linecap="round" stroke-linejoin="round"/>
<path d="M10.5 3.5C13.5 1.5 16.5 5.5 12.5 8.5" stroke="#FF7C3F" stroke-linecap="round" stroke-linejoin="round"/>
<path d="M12.4998 19.5C9.49983 21.5 6.53583 17.5 10.4998 14.5" stroke="#FF7C3F" stroke-linecap="round" stroke-linejoin="round"/>
<path d="M4.07624 8.37301C3.84424 4.77301 8.80824 4.17301 9.40624 9.14101" stroke="#FF7C3F" stroke-linecap="round" stroke-linejoin="round"/>
<path d="M18.932 14.641C19.164 18.241 14.2181 18.806 13.6021 13.873" stroke="#FF7C3F" stroke-linecap="round" stroke-linejoin="round"/>
<path d="M5.08414 16.373C1.85214 14.773 3.81614 10.173 8.41414 12.141" stroke="#FF7C3F" stroke-linecap="round" stroke-linejoin="round"/>
<path d="M17.9399 6.64099C21.1719 8.24099 19.1899 12.806 14.6099 10.873" stroke="#FF7C3F" stroke-linecap="round" stroke-linejoin="round"/>
</svg>
