<svg width="16" height="16" viewBox="0 0 16 16" fill="none" xmlns="http://www.w3.org/2000/svg">
<path d="M8.00037 6C7.11202 5.99935 6.23466 6.19644 5.43194 6.57696C4.62921 6.95748 3.92124 7.5119 3.35938 8.2L4.01338 9.017C4.47347 8.39206 5.07403 7.88403 5.7666 7.5339C6.45916 7.18377 7.22433 7.00134 8.00037 7.00134C8.77641 7.00134 9.54159 7.18377 10.2342 7.5339C10.9267 7.88403 11.5273 8.39206 11.9874 9.017L12.6414 8.2C12.0795 7.5119 11.3715 6.95748 10.5688 6.57696C9.76609 6.19644 8.88873 5.99935 8.00037 6Z" fill="#FF7C3F"/>
<path d="M7.99991 3C6.77473 2.99962 5.56247 3.25036 4.43797 3.73676C3.31348 4.22316 2.30061 4.93489 1.46191 5.828L2.09991 6.62C2.84635 5.79503 3.75739 5.13565 4.77429 4.68437C5.79119 4.23309 6.89138 3.99993 8.00391 3.99993C9.11645 3.99993 10.2166 4.23309 11.2335 4.68437C12.2504 5.13565 13.1615 5.79503 13.9079 6.62L14.5419 5.828C13.7028 4.9344 12.6892 4.22238 11.564 3.73597C10.4388 3.24955 9.22577 2.99907 7.99991 3Z" fill="#949494"/>
<path d="M0 3.99996L0.2 4.25196C1.22074 3.22131 2.43563 2.40318 3.77443 1.84484C5.11324 1.2865 6.54943 0.999017 8 0.999017C9.45057 0.999017 10.8868 1.2865 12.2256 1.84484C13.5644 2.40318 14.7793 3.22131 15.8 4.25196L16 3.99996V3.07396C13.8053 1.09518 10.9551 0 8 0C5.04494 0 2.19473 1.09518 0 3.07396L0 3.99996Z" fill="#949494"/>
<path d="M8 10C8.39556 10 8.78224 10.1173 9.11114 10.3371C9.44004 10.5568 9.69638 10.8692 9.84776 11.2346C9.99914 11.6001 10.0387 12.0022 9.96157 12.3902C9.8844 12.7781 9.69392 13.1345 9.41421 13.4142C9.13451 13.6939 8.77814 13.8844 8.39018 13.9616C8.00222 14.0387 7.60009 13.9991 7.23463 13.8478C6.86918 13.6964 6.55682 13.44 6.33706 13.1111C6.1173 12.7822 6 12.3956 6 12C6 11.4696 6.21071 10.9609 6.58579 10.5858C6.96086 10.2107 7.46957 10 8 10ZM8 9C7.40666 9 6.82664 9.17595 6.33329 9.50559C5.83994 9.83524 5.45543 10.3038 5.22836 10.8519C5.0013 11.4001 4.94189 12.0033 5.05765 12.5853C5.1734 13.1672 5.45912 13.7018 5.87868 14.1213C6.29824 14.5409 6.83279 14.8266 7.41473 14.9424C7.99667 15.0581 8.59987 14.9987 9.14805 14.7716C9.69623 14.5446 10.1648 14.1601 10.4944 13.6667C10.8241 13.1734 11 12.5933 11 12C11 11.2044 10.6839 10.4413 10.1213 9.87868C9.55871 9.31607 8.79565 9 8 9Z" fill="#FF7C3F"/>
</svg>
