<svg width="38" height="22" viewBox="0 0 38 22" fill="none" xmlns="http://www.w3.org/2000/svg">
<path d="M26.5 5.5H15.5C14.9477 5.5 14.5 5.94772 14.5 6.5V17.5C14.5 18.0523 14.9477 18.5 15.5 18.5H26.5C27.0523 18.5 27.5 18.0523 27.5 17.5V6.5C27.5 5.94772 27.0523 5.5 26.5 5.5Z" stroke="#949494" stroke-linecap="round" stroke-linejoin="round"/>
<path d="M27.5 10.5L31.5 7.5V15.5L27.5 12.5" stroke="#949494" stroke-linecap="round" stroke-linejoin="round"/>
<path d="M16.5 8.5H21.5" stroke="#949494" stroke-linecap="round" stroke-linejoin="round"/>
<path d="M19 16.5C20.3807 16.5 21.5 15.3807 21.5 14C21.5 12.6193 20.3807 11.5 19 11.5C17.6193 11.5 16.5 12.6193 16.5 14C16.5 15.3807 17.6193 16.5 19 16.5Z" fill="#FF7C3F" stroke="#949494" stroke-linecap="round" stroke-linejoin="round"/>
<path d="M9.5 16.5H12.5V13.5" stroke="#949494" stroke-linecap="square" stroke-linejoin="round"/>
<path d="M12.5 16.2101C11.5489 15.9255 10.6693 15.4418 9.91947 14.7913C9.16964 14.1407 8.56675 13.3381 8.15083 12.4367C7.73492 11.5353 7.51548 10.5558 7.50709 9.56308C7.49869 8.5704 7.70154 7.58729 8.10216 6.679C8.50278 5.77071 9.09201 4.95801 9.83074 4.29487C10.5695 3.63172 11.4408 3.13328 12.3869 2.83264C13.333 2.53199 14.3322 2.43602 15.3182 2.55109C16.3043 2.66616 17.2545 2.98965 18.106 3.50006" stroke="#949494" stroke-linecap="round" stroke-linejoin="round"/>
</svg>
