<svg width="24" height="24" viewBox="0 0 24 24" fill="none" xmlns="http://www.w3.org/2000/svg">
<path d="M18.5 9.5C18.5 11.3565 17.7625 13.137 16.4497 14.4497C15.137 15.7625 13.3565 16.5 11.5 16.5C9.64348 16.5 7.86301 15.7625 6.55025 14.4497C5.2375 13.137 4.5 11.3565 4.5 9.5" stroke="#949494" stroke-linecap="square" stroke-linejoin="round"/>
<path d="M2.5 9.5H0.5" stroke="#949494" stroke-linecap="square" stroke-linejoin="round"/>
<path d="M20.5 9.5H22.5" stroke="#949494" stroke-linecap="square" stroke-linejoin="round"/>
<path d="M11.5 20.5V18.5" stroke="#949494" stroke-linecap="square" stroke-linejoin="round"/>
<path d="M19.2939 14L21.0259 15" stroke="#949494" stroke-linecap="square" stroke-linejoin="round"/>
<path d="M3.70563 14L1.97363 15" stroke="#949494" stroke-linecap="square" stroke-linejoin="round"/>
<path d="M7 17.2939L6 19.0259" stroke="#949494" stroke-linecap="square" stroke-linejoin="round"/>
<path d="M16 17.2939L17 19.0259" stroke="#949494" stroke-linecap="square" stroke-linejoin="round"/>
<path d="M16.4999 9.5C16.4999 10.4237 16.244 11.3293 15.7606 12.1164C15.2773 12.9036 14.5853 13.5414 13.7615 13.9592C12.9377 14.377 12.0143 14.5584 11.0936 14.4834C10.173 14.4083 9.29115 14.0797 8.5459 13.534" stroke="#949494" stroke-linecap="round" stroke-linejoin="round"/>
<path d="M21.5 3.5H1.5C1.23478 3.5 0.98043 3.39464 0.792893 3.20711C0.605357 3.01957 0.5 2.76522 0.5 2.5V0.5" stroke="#949494" stroke-linecap="square" stroke-linejoin="round"/>
<path d="M22.5 0.5V2.5C22.5 2.76522 22.3946 3.01957 22.2071 3.20711C22.0196 3.39464 21.7652 3.5 21.5 3.5" stroke="#949494" stroke-linecap="square" stroke-linejoin="round"/>
<path d="M0.5 0.5H22.5" stroke="#949494" stroke-linecap="square" stroke-linejoin="round"/>
<path d="M4.5 9.5V3.5" stroke="#949494" stroke-linecap="square" stroke-linejoin="round"/>
<path d="M18.5 9.5V3.5" stroke="#949494" stroke-linecap="square" stroke-linejoin="round"/>
<path d="M6.5 5.5V9.5" stroke="#949494" stroke-linecap="square" stroke-linejoin="round"/>
</svg>
