<svg width="16" height="16" viewBox="0 0 16 16" fill="none" xmlns="http://www.w3.org/2000/svg">
<path d="M1.00029 14.5L1.30629 14.1C1.43262 13.9239 1.50057 13.7127 1.50057 13.496C1.50057 13.2793 1.43262 13.0681 1.30629 12.892L0.694287 12.1C0.56795 11.9239 0.5 11.7127 0.5 11.496C0.5 11.2793 0.56795 11.0681 0.694287 10.892L1.30629 10.1C1.43262 9.92394 1.50057 9.7127 1.50057 9.496C1.50057 9.2793 1.43262 9.06806 1.30629 8.892L0.694287 8.1C0.56795 7.92394 0.5 7.7127 0.5 7.496C0.5 7.2793 0.56795 7.06806 0.694287 6.892L1.00029 6.5" stroke="#949494" stroke-linecap="round" stroke-linejoin="round"/>
<path d="M5.00029 14.5001L5.30629 14.1001C5.43263 13.924 5.50058 13.7128 5.50058 13.4961C5.50058 13.2794 5.43263 13.0681 5.30629 12.8921L4.69429 12.1001C4.56795 11.924 4.5 11.7128 4.5 11.4961C4.5 11.2794 4.56795 11.0681 4.69429 10.8921" stroke="#949494" stroke-linecap="round" stroke-linejoin="round"/>
<path d="M10.0003 14.5001L10.3063 14.1001C10.4326 13.924 10.5006 13.7128 10.5006 13.4961C10.5006 13.2794 10.4326 13.0681 10.3063 12.8921L9.69429 12.1001C9.56795 11.924 9.5 11.7128 9.5 11.4961C9.5 11.2794 9.56795 11.0681 9.69429 10.8921" stroke="#949494" stroke-linecap="round" stroke-linejoin="round"/>
<path d="M14.0003 14.5L14.3063 14.1C14.4326 13.9239 14.5006 13.7127 14.5006 13.496C14.5006 13.2793 14.4326 13.0681 14.3063 12.892L13.6943 12.1C13.5679 11.9239 13.5 11.7127 13.5 11.496C13.5 11.2793 13.5679 11.0681 13.6943 10.892L14.3063 10.1C14.4326 9.92394 14.5006 9.7127 14.5006 9.496C14.5006 9.2793 14.4326 9.06806 14.3063 8.892L13.6943 8.1C13.5679 7.92394 13.5 7.7127 13.5 7.496C13.5 7.2793 13.5679 7.06806 13.6943 6.892L14.0003 6.5" stroke="#949494" stroke-linecap="round" stroke-linejoin="round"/>
<path d="M4.5 4.5C3.5 5.5 3.5 5.5 2.5 4.5" stroke="#949494" stroke-linecap="round" stroke-linejoin="round"/>
<path d="M12.5 4.5C11.5 5.5 11.5 5.5 10.5 4.5" stroke="#949494" stroke-linecap="round" stroke-linejoin="round"/>
<path d="M10.5 0.5V4.5C9.57671 4.99242 8.5464 5.25 7.5 5.25C6.4536 5.25 5.42329 4.99242 4.5 4.5V0.5" stroke="#949494" stroke-linecap="round" stroke-linejoin="round"/>
<path d="M2.5 0.5H12.5V4.5L7.5 9.5L2.5 4.5V0.5Z" stroke="#949494" stroke-linecap="round" stroke-linejoin="round"/>
</svg>
