<svg width="38" height="22" viewBox="0 0 38 22" fill="none" xmlns="http://www.w3.org/2000/svg">
<path d="M16.5 16.5C20.366 16.5 23.5 13.366 23.5 9.5C23.5 5.63401 20.366 2.5 16.5 2.5C12.634 2.5 9.5 5.63401 9.5 9.5C9.5 13.366 12.634 16.5 16.5 16.5Z" stroke="#949494" stroke-linecap="round" stroke-linejoin="round"/>
<path d="M16.5 13.5C18.7091 13.5 20.5 11.7091 20.5 9.5C20.5 7.29086 18.7091 5.5 16.5 5.5C14.2909 5.5 12.5 7.29086 12.5 9.5C12.5 11.7091 14.2909 13.5 16.5 13.5Z" fill="#FF7C3F" stroke="#949494" stroke-linecap="round" stroke-linejoin="round"/>
<path d="M14.7676 8.49986C14.9407 8.20107 15.188 7.95204 15.4856 7.77686" stroke="#CCCCCC" stroke-linecap="round" stroke-linejoin="round"/>
<path d="M18.5 9.5C18.5 10.0304 18.2893 10.5391 17.9142 10.9142C17.5391 11.2893 17.0304 11.5 16.5 11.5" stroke="#CCCCCC" stroke-linecap="round" stroke-linejoin="round"/>
<path d="M20.5 15.5L21.5 18.5H11.5L12.5 15.5" stroke="#949494" stroke-linecap="round" stroke-linejoin="round"/>
<path d="M28.5 11.5V8C28.5 7.60218 28.342 7.22064 28.0607 6.93934C27.7794 6.65804 27.3978 6.5 27 6.5C26.6022 6.5 26.2206 6.65804 25.9393 6.93934C25.658 7.22064 25.5 7.60218 25.5 8V16.5C25.5 17.0304 25.2893 17.5391 24.9142 17.9142C24.5391 18.2893 24.0304 18.5 23.5 18.5H21.5" stroke="#949494" stroke-linecap="round" stroke-linejoin="round"/>
</svg>
