<svg width="32" height="32" viewBox="0 0 32 32" fill="none" xmlns="http://www.w3.org/2000/svg">
<path d="M15.5 31C24.0604 31 31 24.0604 31 15.5C31 6.93959 24.0604 0 15.5 0C6.93959 0 0 6.93959 0 15.5C0 24.0604 6.93959 31 15.5 31Z" fill="#FF7C3F"/>
<path d="M12.024 22.5618L22.116 16.3518C22.2607 16.2621 22.3801 16.137 22.4629 15.9883C22.5458 15.8395 22.5892 15.6721 22.5892 15.5018C22.5892 15.3316 22.5458 15.1642 22.4629 15.0154C22.3801 14.8667 22.2607 14.7415 22.116 14.6518L12.024 8.43783C11.8725 8.3446 11.6988 8.29348 11.5209 8.28977C11.343 8.28605 11.1673 8.32987 11.012 8.41669C10.8567 8.50352 10.7274 8.63021 10.6374 8.7837C10.5474 8.93718 10.4999 9.1119 10.5 9.28983V21.7098C10.4999 21.8878 10.5474 22.0625 10.6374 22.216C10.7274 22.3695 10.8567 22.4961 11.012 22.583C11.1673 22.6698 11.343 22.7136 11.5209 22.7099C11.6988 22.7062 11.8725 22.6551 12.024 22.5618Z" fill="#F2F2F2" stroke="#F2F2F2" stroke-miterlimit="10"/>
</svg>
