<svg width="100" height="100" viewBox="0 0 100 100" fill="none" xmlns="http://www.w3.org/2000/svg">
<path d="M50.0002 90.3002C72.2573 90.3002 90.3002 72.2573 90.3002 50.0002C90.3002 27.7431 72.2573 9.7002 50.0002 9.7002C27.7431 9.7002 9.7002 27.7431 9.7002 50.0002C9.7002 72.2573 27.7431 90.3002 50.0002 90.3002Z" fill="#3E3E45"/>
<path d="M23.4053 71.9774V27.4274C23.4053 27.4274 23.4053 23.3774 27.4553 23.3774C31.5053 23.3774 43.6553 23.3774 47.7053 23.3774C51.7553 23.3774 51.7553 31.4774 55.8053 31.4774C59.8552 31.4774 72.0052 31.4774 72.0052 31.4774C72.0052 31.4774 76.0552 31.4774 76.0552 35.5274V43.6274H72.0052C72.0052 43.6274 72.0052 43.6274 72.0052 39.5774C72.0052 35.5274 67.9552 35.5274 67.9552 35.5274H53.7803C49.7303 35.5274 49.7303 27.4274 45.6803 27.4274C41.6303 27.4274 31.5053 27.4274 31.5053 27.4274C27.4553 27.4274 27.4553 31.4774 27.4553 31.4774V67.9274V71.9774H31.5053V76.0274C31.5053 76.0274 31.5053 76.0274 27.4553 76.0274C23.4053 76.0274 23.4053 71.9774 23.4053 71.9774Z" fill="#818183"/>
<path d="M38.7142 39.5776C36.4867 39.5776 34.0972 41.3191 33.3682 43.4251L23.7697 72.1801C23.0812 74.2861 24.3367 76.0276 26.5642 76.0276H67.0642C69.2917 76.0276 71.6812 74.2861 72.4102 72.1801L82.0087 43.4251C82.6972 41.3191 81.4417 39.5776 79.2142 39.5776H38.7142Z" fill="#818183"/>
</svg>
