<svg width="800" height="800" viewBox="0 0 800 800" fill="none" xmlns="http://www.w3.org/2000/svg">
<path d="M400 722.4C578.057 722.4 722.4 578.057 722.4 400C722.4 221.943 578.057 77.6001 400 77.6001C221.943 77.6001 77.6001 221.943 77.6001 400C77.6001 578.057 221.943 722.4 400 722.4Z" fill="#EEEEEE"/>
<path d="M317.952 562.362H257.177V231.797H317.952V562.362ZM366.147 590.242V204.002C366.147 192.782 357.052 183.687 345.832 183.687H229.297C218.077 183.687 208.982 192.782 208.982 204.002V590.242C208.982 601.462 218.077 610.557 229.297 610.557H345.747C356.967 610.557 366.147 601.462 366.147 590.242Z" fill="#ACACAC"/>
<path d="M210.064 199.089C211.169 195.006 213.373 191.558 216.695 188.714C222.115 184.075 218.802 184.28 288.028 184.288L350.477 184.295L353.919 185.897C357.975 187.786 361.676 191.295 363.796 195.262L365.318 198.111V397.119V596.127L363.796 598.976C361.676 602.943 357.975 606.452 353.919 608.34L350.477 609.943L288.028 609.95C218.24 609.958 222.045 610.212 216.306 605.16C214.613 603.669 212.434 600.784 211.378 598.633L209.485 594.778L209.359 398.468C209.26 244.798 209.413 201.492 210.064 199.089ZM287.739 562.734H318.433V397.119V231.503H287.739H257.044V397.119V562.734H287.739Z" fill="#ACACAC"/>
<path d="M533.785 563.71H473.01V233.145H533.785V563.71ZM581.98 591.59V205.35C581.98 194.13 572.885 185.035 561.665 185.035H445.13C433.91 185.035 424.815 194.13 424.815 205.35V591.59C424.815 602.81 433.91 611.905 445.13 611.905H561.58C572.8 611.905 581.98 602.81 581.98 591.59Z" fill="#323A3E"/>
<path d="M425.897 200.438C427.002 196.356 429.206 192.907 432.528 190.063C437.948 185.424 434.635 185.63 503.861 185.637L566.311 185.644L569.752 187.247C573.809 189.135 577.51 192.644 579.629 196.611L581.152 199.46V398.468V597.476L579.629 600.325C577.51 604.292 573.809 607.801 569.752 609.689L566.311 611.292L503.861 611.299C434.074 611.307 437.879 611.561 432.14 606.509C430.447 605.018 428.268 602.133 427.212 599.982L425.318 596.127L425.192 399.817C425.094 246.147 425.247 202.841 425.897 200.438ZM503.572 564.083H534.267V398.468V232.853H503.572H472.878V398.468V564.083H503.572Z" fill="#ACACAC"/>
</svg>
