<svg width="32" height="32" viewBox="0 0 32 32" fill="none" xmlns="http://www.w3.org/2000/svg">
<path d="M12.5 0C10.0277 0 7.61099 0.733112 5.55538 2.10663C3.49976 3.48015 1.89761 5.43238 0.951511 7.71646C0.00541604 10.0005 -0.242126 12.5139 0.24019 14.9386C0.722505 17.3634 1.91301 19.5907 3.66117 21.3388C5.40933 23.087 7.63661 24.2775 10.0614 24.7598C12.4861 25.2421 14.9995 24.9946 17.2835 24.0485C19.5676 23.1024 21.5199 21.5002 22.8934 19.4446C24.2669 17.389 25 14.9723 25 12.5C25 9.18479 23.683 6.00537 21.3388 3.66117C18.9946 1.31696 15.8152 0 12.5 0ZM19.356 10.192L11.45 16.661C11.3674 16.7193 11.2789 16.7689 11.186 16.809C11.1359 16.8416 11.0838 16.871 11.03 16.897C10.8612 16.9621 10.6819 16.996 10.501 16.997C10.3241 16.9948 10.149 16.9609 9.98401 16.897C9.96201 16.889 9.94001 16.884 9.91801 16.875C9.75679 16.8051 9.60919 16.7073 9.48201 16.586C9.47001 16.574 9.45401 16.571 9.44101 16.559L6.44101 13.559C6.15961 13.2776 6.00153 12.896 6.00153 12.498C6.00153 12.1 6.15961 11.7184 6.44101 11.437C6.7224 11.1556 7.10405 10.9975 7.50201 10.9975C7.89996 10.9975 8.28161 11.1556 8.56301 11.437L10.603 13.477L17.457 7.87C17.7649 7.61804 18.1603 7.49873 18.5562 7.5383C18.9521 7.57787 19.3161 7.77308 19.568 8.081C19.82 8.38892 19.9393 8.78431 19.8997 9.1802C19.8601 9.57609 19.6639 9.94004 19.356 10.192Z" fill="#FF7C3F"/>
<path d="M23.5272 29.084C24.4514 29.6797 25.5276 29.9965 26.6272 29.9965C27.7267 29.9965 28.803 29.6797 29.7272 29.084L30.4272 28.615C30.2433 27.5388 29.7603 26.536 29.0333 25.7215C28.3063 24.9069 27.3647 24.3135 26.3162 24.009C25.495 22.8794 24.3491 22.0269 23.0312 21.565L22.8152 21.5H22.6462C22.4346 21.4995 22.227 21.557 22.046 21.6664C21.8649 21.7757 21.7172 21.9326 21.6192 22.12C21.5216 22.3042 21.4766 22.5117 21.4889 22.7198C21.5013 22.9279 21.5705 23.1286 21.6892 23.3C21.8722 23.5628 21.9933 23.8637 22.0432 24.18C22.0432 24.206 22.0512 24.233 22.0552 24.26C20.8666 24.7698 19.8756 25.6516 19.2312 26.773C18.9971 27.1927 18.8189 27.6411 18.7012 28.107C20.3756 27.8007 22.1037 28.1505 23.5272 29.084Z" fill="#D9D9D9"/>
<path d="M19.7744 28.0002C21.1065 27.9742 22.4151 28.3529 23.5274 29.0862C24.412 29.6533 25.4356 29.9659 26.4861 29.9895C27.5366 30.0132 28.5733 29.747 29.4824 29.2202C29.4744 29.0932 29.4724 28.9662 29.4544 28.8402C29.298 27.8773 28.8542 26.9841 28.1812 26.2778C27.5083 25.5715 26.6376 25.0851 25.6834 24.8822C24.9847 23.7781 23.9335 22.9423 22.7004 22.5102C22.6704 22.4978 22.6372 22.4952 22.6056 22.5029C22.5741 22.5105 22.5458 22.5281 22.5248 22.5529C22.5039 22.5778 22.4914 22.6086 22.4891 22.641C22.4869 22.6735 22.4951 22.7057 22.5124 22.7332C22.7785 23.1195 22.9555 23.5601 23.0304 24.0232C23.079 24.336 23.079 24.6544 23.0304 24.9672C21.7935 25.329 20.7431 26.1525 20.0964 27.2672C19.968 27.5017 19.8603 27.747 19.7744 28.0002Z" fill="black"/>
<path d="M26.3609 28.4412C26.9069 28.5712 27.4129 28.4802 27.4899 28.2412C27.5669 28.0022 27.1899 27.6952 26.6389 27.5642C26.0879 27.4332 25.5869 27.5252 25.5099 27.7642C25.4329 28.0032 25.8139 28.3102 26.3609 28.4412Z" fill="#D9D9D9" stroke="#D9D9D9" stroke-miterlimit="10"/>
<path d="M1.5 30.5L3 29.5C4.00486 28.8479 5.17711 28.5009 6.375 28.5009C7.57289 28.5009 8.74514 28.8479 9.75 29.5C10.7549 30.1521 11.9271 30.4991 13.125 30.4991C14.3229 30.4991 15.4951 30.1521 16.5 29.5C17.5049 28.8479 18.6771 28.5009 19.875 28.5009C21.0729 28.5009 22.2451 28.8479 23.25 29.5C24.2549 30.1521 25.4271 30.4991 26.625 30.4991C27.8229 30.4991 28.9951 30.1521 30 29.5L31.5 28.5" stroke="#FF7C3F" stroke-linecap="round" stroke-linejoin="round"/>
</svg>
