<svg width="100" height="100" viewBox="0 0 100 100" fill="none" xmlns="http://www.w3.org/2000/svg">
<path d="M49.9998 97.6998C76.3438 97.6998 97.6998 76.3438 97.6998 49.9998C97.6998 23.6558 76.3438 2.2998 49.9998 2.2998C23.6558 2.2998 2.2998 23.6558 2.2998 49.9998C2.2998 76.3438 23.6558 97.6998 49.9998 97.6998Z" fill="#EEEEEE"/>
<path d="M18.5215 76.0128V23.2824C18.5215 23.2824 18.5215 18.4888 23.3152 18.4888C28.1088 18.4888 42.4898 18.4888 47.2835 18.4888C52.0772 18.4888 52.0772 28.0761 56.8709 28.0761C61.6645 28.0761 76.0455 28.0761 76.0455 28.0761C76.0455 28.0761 80.8392 28.0761 80.8392 32.8698V42.4571H76.0455C76.0455 42.4571 76.0455 42.4571 76.0455 37.6635C76.0455 32.8698 71.2518 32.8698 71.2518 32.8698H54.474C49.6804 32.8698 49.6804 23.2824 44.8867 23.2824C40.093 23.2824 28.1088 23.2824 28.1088 23.2824C23.3152 23.2824 23.3152 28.0761 23.3152 28.0761V71.2192V76.0128H28.1088V80.8065C28.1088 80.8065 28.1088 80.8065 23.3152 80.8065C18.5215 80.8065 18.5215 76.0128 18.5215 76.0128Z" fill="#ACACAC"/>
<path d="M36.6415 37.6636C34.0049 37.6636 31.1767 39.7249 30.3138 42.2176L18.9528 76.2526C18.1379 78.7453 19.6239 80.8066 22.2604 80.8066H70.1971C72.8336 80.8066 75.6619 78.7453 76.5248 76.2526L87.8858 42.2176C88.7007 39.7249 87.2147 37.6636 84.5781 37.6636H36.6415Z" fill="#ACACAC"/>
</svg>
