<svg width="16" height="16" viewBox="0 0 16 16" fill="none" xmlns="http://www.w3.org/2000/svg">
<path d="M13 0H4C2.89543 0 2 0.89543 2 2V11C2 12.1046 2.89543 13 4 13H13C14.1046 13 15 12.1046 15 11V2C15 0.89543 14.1046 0 13 0Z" fill="#E9E9E9"/>
<path d="M4.5 4.5H5.5" stroke="#FF7C3F" stroke-linecap="square" stroke-linejoin="round"/>
<path d="M7.5 4.5H12.5" stroke="#FF7C3F" stroke-linecap="square" stroke-linejoin="round"/>
<path d="M7.5 3.5C7.5 2.94772 7.05228 2.5 6.5 2.5C5.94772 2.5 5.5 2.94772 5.5 3.5V5.5C5.5 6.05228 5.94772 6.5 6.5 6.5C7.05228 6.5 7.5 6.05228 7.5 5.5V3.5Z" stroke="#FF7C3F" stroke-linecap="square" stroke-linejoin="round"/>
<path d="M12.5 8.5H11.5" stroke="#FF7C3F" stroke-linecap="square" stroke-linejoin="round"/>
<path d="M9.5 8.5H4.5" stroke="#FF7C3F" stroke-linecap="square" stroke-linejoin="round"/>
<path d="M9.5 9.5C9.5 10.0523 9.94772 10.5 10.5 10.5C11.0523 10.5 11.5 10.0523 11.5 9.5V7.5C11.5 6.94772 11.0523 6.5 10.5 6.5C9.94772 6.5 9.5 6.94772 9.5 7.5V9.5Z" stroke="#FF7C3F" stroke-linecap="square" stroke-linejoin="round"/>
</svg>
