<svg width="800" height="800" viewBox="0 0 800 800" fill="none" xmlns="http://www.w3.org/2000/svg">
<path d="M400 781.6C610.752 781.6 781.6 610.752 781.6 400C781.6 189.248 610.752 18.3999 400 18.3999C189.249 18.3999 18.4004 189.248 18.4004 400C18.4004 610.752 189.249 781.6 400 781.6Z" fill="#3E3E45"/>
<path d="M302.887 592.174H230.952V200.91H302.887V592.174ZM359.931 625.174V168.011C359.931 154.731 349.166 143.966 335.886 143.966H197.953C184.672 143.966 173.907 154.731 173.907 168.011V625.174C173.907 638.454 184.672 649.219 197.953 649.219H335.785C349.066 649.219 359.931 638.454 359.931 625.174Z" fill="#818183"/>
<path d="M175.188 162.197C176.496 157.365 179.104 153.283 183.037 149.917C189.452 144.426 185.53 144.669 267.468 144.678L341.384 144.686L345.458 146.583C350.259 148.819 354.64 152.972 357.149 157.667L358.951 161.039V396.59V632.14L357.149 635.513C354.64 640.208 350.259 644.361 345.458 646.596L341.384 648.493L267.468 648.502C184.866 648.511 189.37 648.811 182.577 642.832C180.573 641.068 177.993 637.652 176.744 635.107L174.503 630.544L174.354 398.187C174.237 216.299 174.418 165.041 175.188 162.197ZM267.126 592.615H303.457V396.589V200.564H267.126H230.795V396.589V592.615H267.126Z" fill="#818183"/>
<path d="M558.351 593.771H486.417V202.507H558.351V593.771ZM615.396 626.77V169.608C615.396 156.328 604.631 145.562 591.351 145.562H453.417C440.137 145.562 429.372 156.328 429.372 169.608V626.77C429.372 640.051 440.137 650.816 453.417 650.816H591.25C604.531 650.816 615.396 640.051 615.396 626.77Z" fill="#323A3E"/>
<path d="M430.653 163.794C431.96 158.962 434.569 154.88 438.501 151.514C444.917 146.023 440.995 146.266 522.933 146.275L596.849 146.283L600.923 148.18C605.724 150.416 610.105 154.569 612.614 159.264L614.416 162.636V398.186V633.737L612.614 637.109C610.105 641.804 605.724 645.957 600.923 648.193L596.849 650.09L522.933 650.098C440.331 650.108 444.835 650.408 438.042 644.428C436.038 642.664 433.458 639.249 432.208 636.703L429.968 632.14L429.819 399.784C429.702 217.896 429.883 166.638 430.653 163.794ZM522.591 594.212H558.922V398.186V202.16H522.591H486.26V398.186V594.212H522.591Z" fill="#818183"/>
</svg>
