<svg width="16" height="16" viewBox="0 0 16 16" fill="none" xmlns="http://www.w3.org/2000/svg">
<g clip-path="url(#clip0_10670_23047)">
<path d="M7.15906 0.510969L0.125056 13.511C0.0409234 13.6609 -0.00315629 13.8299 -0.00292881 14.0018C-0.00270133 14.1737 0.0418256 14.3426 0.126355 14.4922C0.210884 14.6419 0.332563 14.7672 0.479647 14.8562C0.626732 14.9451 0.794257 14.9946 0.966056 15H15.0341C15.2066 14.9951 15.3749 14.9457 15.5227 14.8564C15.6704 14.7672 15.7926 14.6413 15.8772 14.4909C15.9619 14.3405 16.0062 14.1707 16.0058 13.9981C16.0054 13.8256 15.9604 13.656 15.8751 13.506L8.84106 0.510969C8.761 0.357079 8.64025 0.228106 8.49196 0.138096C8.34367 0.0480853 8.17353 0.000488281 8.00006 0.000488281C7.82659 0.000488281 7.65644 0.0480853 7.50815 0.138096C7.35986 0.228106 7.23912 0.357079 7.15906 0.510969Z" fill="#FF7C3F"/>
<path d="M9 5C9 4.44772 8.55228 4 8 4C7.44772 4 7 4.44772 7 5V9C7 9.55228 7.44772 10 8 10C8.55228 10 9 9.55228 9 9V5Z" fill="white"/>
<path d="M9 12C9 11.4477 8.55228 11 8 11C7.44772 11 7 11.4477 7 12C7 12.5523 7.44772 13 8 13C8.55228 13 9 12.5523 9 12Z" fill="white"/>
</g>
<defs>
<clipPath id="clip0_10670_23047">
<rect width="16" height="16" fill="white"/>
</clipPath>
</defs>
</svg>
