<svg width="200" height="200" viewBox="0 0 200 200" fill="none" xmlns="http://www.w3.org/2000/svg">
<path d="M84.5894 128.457C87.0699 131.914 92.2066 131.914 94.687 128.457L135.82 71.4258C136.562 70.3906 135.82 68.9453 134.55 68.9453H125.39C123.398 68.9453 121.503 69.9023 120.332 71.543L89.648 114.121L75.7417 94.8242C74.5699 93.2031 72.6949 92.2266 70.6831 92.2266H61.523C60.2535 92.2266 59.5113 93.6719 60.2535 94.707L84.5894 128.457Z" fill="#515151"/>
<path d="M171.875 21.875H28.125C24.668 21.875 21.875 24.668 21.875 28.125V171.875C21.875 175.332 24.668 178.125 28.125 178.125H171.875C175.332 178.125 178.125 175.332 178.125 171.875V28.125C178.125 24.668 175.332 21.875 171.875 21.875ZM164.062 164.062H35.9375V35.9375H164.062V164.062Z" fill="#515151"/>
</svg>
