<svg width="200" height="200" viewBox="0 0 200 200" fill="none" xmlns="http://www.w3.org/2000/svg">
<path d="M163.75 36.25V163.75H36.25V36.25H163.75ZM36.25 25C33.2663 25 30.4048 26.1853 28.295 28.295C26.1853 30.4048 25 33.2663 25 36.25V163.75C25 169.967 30.0333 175 36.25 175H163.75C165.227 175 166.69 174.709 168.055 174.144C169.42 173.578 170.66 172.75 171.705 171.705C172.75 170.66 173.578 169.42 174.144 168.055C174.709 166.69 175 165.227 175 163.75V36.25C175 34.7726 174.709 33.3097 174.144 31.9448C173.578 30.5799 172.75 29.3397 171.705 28.295C170.66 27.2504 169.42 26.4217 168.055 25.8564C166.69 25.291 165.227 25 163.75 25H36.25Z" fill="#515151"/>
</svg>
