<svg width="16" height="16" viewBox="0 0 16 16" fill="none" xmlns="http://www.w3.org/2000/svg">
<path d="M5.5 14.5H0.5V0.5H14.5V4.5" stroke="#949494" stroke-linecap="square" stroke-linejoin="round"/>
<path d="M3 1H4V2H3V1ZM3 4H4V3H3V4ZM3 6H4V5H3V6ZM3 10H4V9H3V10ZM3 12H4V11H3V12ZM3 14H4V13H3V14ZM3 8H4V7H3V8Z" fill="#FF7C3F"/>
<path d="M4 2H5V3H4V2ZM4 5H5V4H4V5ZM4 7H5V6H4V7ZM4 11H5V10H4V11ZM4 13H5V12H4V13ZM4 9H5V8H4V9Z" fill="#FF7C3F"/>
<path d="M14.5 12.5V14.5H13.5" stroke="#949494" stroke-linecap="square" stroke-linejoin="round"/>
<path d="M7.78701 14.5C6.86701 14.5 8.45301 14.5 8.45301 12.834C8.45301 12.5045 8.55072 12.1824 8.73378 11.9084C8.91685 11.6344 9.17704 11.4209 9.48146 11.2948C9.78588 11.1687 10.1209 11.1357 10.444 11.2C10.7672 11.2643 11.0641 11.4229 11.2971 11.6559C11.53 11.8889 11.6887 12.1858 11.753 12.5089C11.8173 12.8321 11.7843 13.1671 11.6582 13.4715C11.5321 13.7759 11.3186 14.0361 11.0446 14.2192C10.7706 14.4023 10.4485 14.5 10.119 14.5H7.78701Z" stroke="#FF7C3F" stroke-miterlimit="10"/>
<path d="M11.7851 11.8342L14.4261 7.65623C14.4865 7.562 14.5085 7.44819 14.4874 7.33827C14.4664 7.22834 14.404 7.13068 14.3131 7.06541C14.2222 7.00014 14.1097 6.97224 13.9988 6.98746C13.8879 7.00268 13.7871 7.05987 13.7171 7.14722L10.4531 11.1682" stroke="#FF7C3F" stroke-miterlimit="10"/>
</svg>
