<svg width="28" height="28" viewBox="0 0 28 28" fill="none" xmlns="http://www.w3.org/2000/svg">
<g clip-path="url(#clip0_10670_23122)">
<path d="M26.812 5.64703L15.625 0.67503C15.1134 0.447596 14.5598 0.330078 14 0.330078C13.4402 0.330078 12.8866 0.447596 12.375 0.67503L1.188 5.64703C0.834362 5.80414 0.533896 6.06046 0.323029 6.38493C0.112162 6.70939 -4.90976e-05 7.08806 1.61155e-08 7.47503V20.525C-4.90976e-05 20.912 0.112162 21.2907 0.323029 21.6151C0.533896 21.9396 0.834362 22.1959 1.188 22.353L12.375 27.325C12.8866 27.5525 13.4402 27.67 14 27.67C14.5598 27.67 15.1134 27.5525 15.625 27.325L26.812 22.353C27.1656 22.1959 27.4661 21.9396 27.677 21.6151C27.8878 21.2907 28 20.912 28 20.525V7.47503C28 7.08806 27.8878 6.70939 27.677 6.38493C27.4661 6.06046 27.1656 5.80414 26.812 5.64703Z" fill="#414147"/>
<path d="M26.241 20.6752L14.885 25.8092C14.607 25.9353 14.3053 26.0005 14 26.0005C13.6948 26.0005 13.393 25.9353 13.115 25.8092L1.75902 20.6752C1.62926 20.6165 1.51919 20.5215 1.44199 20.4018C1.36479 20.2821 1.32373 20.1427 1.32373 20.0002C1.32373 19.8578 1.36479 19.7184 1.44199 19.5986C1.51919 19.4789 1.62926 19.384 1.75902 19.3252L5.08202 17.8252L12.5 21.1762C12.9723 21.3898 13.4847 21.5003 14.003 21.5003C14.5214 21.5003 15.0337 21.3898 15.506 21.1762L22.921 17.8232L26.244 19.3232C26.3742 19.382 26.4847 19.4772 26.562 19.5973C26.6394 19.7174 26.6804 19.8574 26.68 20.0002C26.6797 20.1431 26.6381 20.2828 26.5602 20.4026C26.4823 20.5223 26.3715 20.617 26.241 20.6752Z" fill="#808080"/>
<path d="M1.75902 8.67528L13.115 13.8093C13.393 13.9353 13.6948 14.0006 14 14.0006C14.3053 14.0006 14.607 13.9353 14.885 13.8093L26.241 8.67528C26.3708 8.61651 26.4809 8.52158 26.5581 8.40187C26.6353 8.28215 26.6763 8.14272 26.6763 8.00028C26.6763 7.85783 26.6353 7.7184 26.5581 7.59868C26.4809 7.47897 26.3708 7.38404 26.241 7.32528L14.885 2.19128C14.607 2.06521 14.3053 2 14 2C13.6948 2 13.393 2.06521 13.115 2.19128L1.75902 7.32528C1.62926 7.38404 1.51919 7.47897 1.44199 7.59868C1.36479 7.7184 1.32373 7.85783 1.32373 8.00028C1.32373 8.14272 1.36479 8.28215 1.44199 8.40187C1.51919 8.52158 1.62926 8.61651 1.75902 8.67528Z" fill="#808080"/>
<path d="M26.241 13.3252L22.918 11.8252L15.5 15.1762C15.0277 15.3898 14.5154 15.5003 13.997 15.5003C13.4787 15.5003 12.9663 15.3898 12.494 15.1762L5.08202 11.8232L1.75902 13.3232C1.62926 13.382 1.51919 13.4769 1.44199 13.5967C1.36479 13.7164 1.32373 13.8558 1.32373 13.9982C1.32373 14.1407 1.36479 14.2801 1.44199 14.3998C1.51919 14.5195 1.62926 14.6145 1.75902 14.6732L13.115 19.8072C13.393 19.9333 13.6948 19.9985 14 19.9985C14.3053 19.9985 14.607 19.9333 14.885 19.8072L26.241 14.6732C26.3702 14.6142 26.4797 14.5193 26.5565 14.3998C26.6333 14.2803 26.6741 14.1413 26.6741 13.9992C26.6741 13.8572 26.6333 13.7182 26.5565 13.5987C26.4797 13.4792 26.3702 13.3843 26.241 13.3252Z" fill="#FF7C3F"/>
</g>
<defs>
<clipPath id="clip0_10670_23122">
<rect width="28" height="28" fill="white"/>
</clipPath>
</defs>
</svg>
