<svg width="28" height="28" viewBox="0 0 28 28" fill="none" xmlns="http://www.w3.org/2000/svg">
<g clip-path="url(#clip0_10670_23099)">
<path d="M26.812 5.64703L15.625 0.67503C15.1134 0.447596 14.5598 0.330078 14 0.330078C13.4402 0.330078 12.8866 0.447596 12.375 0.67503L1.188 5.64703C0.834362 5.80414 0.533896 6.06046 0.323029 6.38493C0.112162 6.70939 -4.90976e-05 7.08806 1.61155e-08 7.47503V20.525C-4.90976e-05 20.912 0.112162 21.2907 0.323029 21.6151C0.533896 21.9396 0.834362 22.1959 1.188 22.353L12.375 27.325C12.8866 27.5525 13.4402 27.67 14 27.67C14.5598 27.67 15.1134 27.5525 15.625 27.325L26.812 22.353C27.1656 22.1959 27.4661 21.9396 27.677 21.6151C27.8878 21.2907 28 20.912 28 20.525V7.47503C28 7.08806 27.8878 6.70939 27.677 6.38493C27.4661 6.06046 27.1656 5.80414 26.812 5.64703Z" fill="white"/>
<path d="M26.2405 20.6748L14.8845 25.8088C14.6065 25.9349 14.3048 26.0001 13.9995 26.0001C13.6943 26.0001 13.3925 25.9349 13.1145 25.8088L1.75854 20.6748C1.62878 20.616 1.5187 20.5211 1.4415 20.4014C1.3643 20.2817 1.32324 20.1422 1.32324 19.9998C1.32324 19.8573 1.3643 19.7179 1.4415 19.5982C1.5187 19.4785 1.62878 19.3836 1.75854 19.3248L5.08154 17.8248L12.4995 21.1758C12.9718 21.3893 13.4842 21.4998 14.0025 21.4998C14.5209 21.4998 15.0332 21.3893 15.5055 21.1758L22.9205 17.8228L26.2435 19.3228C26.3737 19.3816 26.4842 19.4768 26.5615 19.5969C26.6389 19.717 26.6799 19.8569 26.6796 19.9998C26.6792 20.1426 26.6376 20.2823 26.5597 20.4021C26.4818 20.5219 26.371 20.6166 26.2405 20.6748ZM1.75854 8.67479L13.1145 13.8088C13.3925 13.9349 13.6943 14.0001 13.9995 14.0001C14.3048 14.0001 14.6065 13.9349 14.8845 13.8088L26.2405 8.67479C26.3703 8.61602 26.4804 8.52109 26.5576 8.40138C26.6348 8.28167 26.6758 8.14224 26.6758 7.99979C26.6758 7.85734 26.6348 7.71791 26.5576 7.5982C26.4804 7.47848 26.3703 7.38356 26.2405 7.32479L14.8845 2.19079C14.6065 2.06473 14.3048 1.99951 13.9995 1.99951C13.6943 1.99951 13.3925 2.06473 13.1145 2.19079L1.75854 7.32479C1.62878 7.38356 1.5187 7.47848 1.4415 7.5982C1.3643 7.71791 1.32324 7.85734 1.32324 7.99979C1.32324 8.14224 1.3643 8.28167 1.4415 8.40138C1.5187 8.52109 1.62878 8.61602 1.75854 8.67479ZM26.2405 13.3248L22.9175 11.8248L15.4995 15.1758C15.0272 15.3893 14.5149 15.4998 13.9965 15.4998C13.4782 15.4998 12.9658 15.3893 12.4935 15.1758L5.08154 11.8228L1.75854 13.3228C1.62878 13.3816 1.5187 13.4765 1.4415 13.5962C1.3643 13.7159 1.32324 13.8553 1.32324 13.9978C1.32324 14.1402 1.3643 14.2797 1.4415 14.3994C1.5187 14.5191 1.62878 14.614 1.75854 14.6728L13.1145 19.8068C13.3925 19.9328 13.6943 19.9981 13.9995 19.9981C14.3048 19.9981 14.6065 19.9328 14.8845 19.8068L26.2405 14.6728C26.3697 14.6138 26.4792 14.5189 26.556 14.3994C26.6328 14.2799 26.6736 14.1408 26.6736 13.9988C26.6736 13.8568 26.6328 13.7177 26.556 13.5982C26.4792 13.4787 26.3697 13.3838 26.2405 13.3248Z" fill="#FF9665"/>
</g>
<defs>
<clipPath id="clip0_10670_23099">
<rect width="28" height="28" fill="white"/>
</clipPath>
</defs>
</svg>
