<svg width="16" height="16" viewBox="0 0 16 16" fill="none" xmlns="http://www.w3.org/2000/svg">
<path d="M1.22021 14V3C1.22021 3 1.22021 2 2.22021 2C3.22021 2 6.22021 2 7.22021 2C8.22021 2 8.22021 4 9.22021 4C10.2202 4 13.2202 4 13.2202 4C13.2202 4 14.2202 4 14.2202 5V7H13.2202C13.2202 7 13.2202 7 13.2202 6C13.2202 5 12.2202 5 12.2202 5H8.72021C7.72021 5 7.72021 3 6.72021 3C5.72021 3 3.22021 3 3.22021 3C2.22021 3 2.22021 4 2.22021 4V13V14H3.22021V15C3.22021 15 3.22021 15 2.22021 15C1.22021 15 1.22021 14 1.22021 14Z" fill="#808080"/>
<path d="M5.00026 6C4.45026 6 3.86026 6.43 3.68026 6.95L1.31026 14.05C1.14026 14.57 1.45026 15 2.00026 15H12.0003C12.5503 15 13.1403 14.57 13.3203 14.05L15.6903 6.95C15.8603 6.43 15.5503 6 15.0003 6H5.00026Z" fill="#ED6B21"/>
</svg>
