<svg width="24" height="24" viewBox="0 0 24 24" fill="none" xmlns="http://www.w3.org/2000/svg">
<g opacity="0.75">
<path d="M18.5 14.167L21.5 12.5" stroke="#949494" stroke-linecap="round" stroke-linejoin="round"/>
<path d="M12.5 17.499V10.832" stroke="#949494" stroke-linecap="round" stroke-linejoin="round"/>
<path d="M6.5 7.5L12.5 10.833" stroke="#949494" stroke-linecap="round" stroke-linejoin="round"/>
<path d="M18.5 7.5L22.5 9.722" stroke="#949494" stroke-linecap="round" stroke-linejoin="round"/>
<path d="M18.5 7.5L12.5 10.833" stroke="#949494" stroke-linecap="round" stroke-linejoin="round"/>
<path d="M6.5 22.499V20.832" stroke="#949494" stroke-linecap="round" stroke-linejoin="round"/>
<path d="M1.5 18.0547L6.5 20.8317" stroke="#949494" stroke-linecap="round" stroke-linejoin="round"/>
<path d="M12.5 17.5L6.5 20.833" stroke="#949494" stroke-linecap="round" stroke-linejoin="round"/>
<path d="M18.5 22.499V20.832" stroke="#949494" stroke-linecap="round" stroke-linejoin="round"/>
<path d="M6.5 7.5V1.5" stroke="#949494" stroke-linecap="round" stroke-linejoin="round"/>
<path d="M18.5 7.5V1.5" stroke="#949494" stroke-linecap="round" stroke-linejoin="round"/>
<path d="M12.5 17.5L18.5 20.833" stroke="#949494" stroke-linecap="round" stroke-linejoin="round"/>
<path d="M22.5 18.6094L18.5 20.8314" stroke="#949494" stroke-linecap="round" stroke-linejoin="round"/>
<path d="M6.5 7.5L1.5 10.278" stroke="#949494" stroke-linecap="round" stroke-linejoin="round"/>
<path d="M18.5 14.168V17.501" stroke="#949494" stroke-linecap="round" stroke-linejoin="round"/>
<path d="M15.5 12.5L18.5 14.167" stroke="#949494" stroke-linecap="round" stroke-linejoin="round"/>
<path d="M6.5 14.167L9.5 12.5" stroke="#949494" stroke-linecap="round" stroke-linejoin="round"/>
<path d="M6.5 14.168V17.501" stroke="#949494" stroke-linecap="round" stroke-linejoin="round"/>
<path d="M3.5 12.5L6.5 14.167" stroke="#949494" stroke-linecap="round" stroke-linejoin="round"/>
<path d="M12.5 4.167L15.5 2.5" stroke="#949494" stroke-linecap="round" stroke-linejoin="round"/>
<path d="M12.5 4.16797V7.50097" stroke="#949494" stroke-linecap="round" stroke-linejoin="round"/>
<path d="M9.5 2.5L12.5 4.167" stroke="#949494" stroke-linecap="round" stroke-linejoin="round"/>
<path d="M1.5 3.611L3.5 2.5" stroke="#949494" stroke-linecap="round" stroke-linejoin="round"/>
</g>
<path d="M1.5 7.5H22.5" stroke="#FF7C3F" stroke-linecap="round" stroke-linejoin="round"/>
<path d="M1.5 17.5H22.5" stroke="#FF7C3F" stroke-linecap="round" stroke-linejoin="round"/>
<path d="M15.5003 22.5001L2.94727 1.57812" stroke="#FF7C3F" stroke-linecap="round" stroke-linejoin="round"/>
<path d="M10.1 1.5L1.5 15.833" stroke="#FF7C3F" stroke-linecap="round" stroke-linejoin="round"/>
<path d="M14.9004 1.5L22.5004 14.167" stroke="#FF7C3F" stroke-linecap="round" stroke-linejoin="round"/>
<path d="M9.5 22.5013L21.808 1.98828" stroke="#FF7C3F" stroke-linecap="round" stroke-linejoin="round"/>
<path d="M1.5 19.168L3.5 22.501" stroke="#FF7C3F" stroke-linecap="round" stroke-linejoin="round"/>
<path d="M20.5 1.5H3.5C2.39543 1.5 1.5 2.39543 1.5 3.5V20.5C1.5 21.6046 2.39543 22.5 3.5 22.5H20.5C21.6046 22.5 22.5 21.6046 22.5 20.5V3.5C22.5 2.39543 21.6046 1.5 20.5 1.5Z" stroke="#949494" stroke-linecap="round" stroke-linejoin="round"/>
</svg>
