<svg width="24" height="24" viewBox="0 0 24 24" fill="none" xmlns="http://www.w3.org/2000/svg">
<path d="M16.339 22.5L1.5 7.661M6.339 22.5L1.565 17.726M15.339 1.5L22.5 8.661M5.339 1.5L22.5 18.661" stroke="#FF7C3F" stroke-linecap="round" stroke-linejoin="round"/>
<path opacity="0.75" d="M12.5 22.5L1.5 11.5M21.914 21.914L2.086 2.086M11.5 1.5L22.5 12.5" stroke="#949494" stroke-linecap="round" stroke-linejoin="round"/>
<path d="M20.5 1.5H3.5C2.39543 1.5 1.5 2.39543 1.5 3.5V20.5C1.5 21.6046 2.39543 22.5 3.5 22.5H20.5C21.6046 22.5 22.5 21.6046 22.5 20.5V3.5C22.5 2.39543 21.6046 1.5 20.5 1.5Z" stroke="#949494" stroke-linecap="round" stroke-linejoin="round"/>
</svg>
