<svg width="24" height="24" viewBox="0 0 24 24" fill="none" xmlns="http://www.w3.org/2000/svg">
<path d="M9.49947 15.4982L1.60547 2.86719" stroke="#FF7C3F" stroke-linecap="round" stroke-linejoin="round"/>
<path d="M1.5 12.3L8.25 1.5" stroke="#FF7C3F" stroke-linecap="round" stroke-linejoin="round"/>
<path d="M22.5007 4.29853L20.7637 1.51953" stroke="#FF7C3F" stroke-linecap="round" stroke-linejoin="round"/>
<path d="M3.875 22.4992L1.5 18.6992" stroke="#FF7C3F" stroke-linecap="round" stroke-linejoin="round"/>
<path d="M13.875 22.5L9.5 15.5" stroke="#FF7C3F" stroke-linecap="round" stroke-linejoin="round"/>
<path d="M1.5 7.5H22.5" stroke="#FF7C3F" stroke-linecap="round" stroke-linejoin="round"/>
<path d="M1.5 15.5H22.5" stroke="#FF7C3F" stroke-linecap="round" stroke-linejoin="round"/>
<path d="M15.125 22.4992L22.5 10.6992" stroke="#FF7C3F" stroke-linecap="round" stroke-linejoin="round"/>
<path d="M22.5 20.3L10.75 1.5" stroke="#FF7C3F" stroke-linecap="round" stroke-linejoin="round"/>
<path d="M5.125 22.5L18.25 1.5" stroke="#FF7C3F" stroke-linecap="round" stroke-linejoin="round"/>
<path d="M20.5 1.5H3.5C2.39543 1.5 1.5 2.39543 1.5 3.5V20.5C1.5 21.6046 2.39543 22.5 3.5 22.5H20.5C21.6046 22.5 22.5 21.6046 22.5 20.5V3.5C22.5 2.39543 21.6046 1.5 20.5 1.5Z" stroke="#949494" stroke-linecap="round" stroke-linejoin="round"/>
</svg>
