<svg width="18" height="18" viewBox="0 0 18 18" fill="none" xmlns="http://www.w3.org/2000/svg">
<path d="M2.5 16.5H1.5C1.23478 16.5 0.98043 16.3946 0.792893 16.2071C0.605357 16.0196 0.5 15.7652 0.5 15.5V1.5C0.5 1.23478 0.605357 0.98043 0.792893 0.792893C0.98043 0.605357 1.23478 0.5 1.5 0.5H15.5C15.7652 0.5 16.0196 0.605357 16.2071 0.792893C16.3946 0.98043 16.5 1.23478 16.5 1.5V2.5" stroke="#949494" stroke-linecap="round" stroke-linejoin="round"/>
<path d="M2.5 16.5C2.5 12.787 3.975 9.22601 6.6005 6.6005C9.22601 3.975 12.787 2.5 16.5 2.5" stroke="#FF7C3F" stroke-linecap="round" stroke-linejoin="round"/>
<path opacity="0.75" d="M2.5 16.5009C2.5 8.76888 10.5 5.50088 16.5 7.50088" stroke="#FF7C3F" stroke-linecap="round" stroke-linejoin="round"/>
<path opacity="0.5" d="M2.5 16.4997C2.5 8.7677 13.5 10.4997 16.5 13.4997" stroke="#FF7C3F" stroke-linecap="round" stroke-linejoin="round"/>
</svg>
