<svg width="24" height="24" viewBox="0 0 24 24" fill="none" xmlns="http://www.w3.org/2000/svg">
<path d="M17.3125 18.5202L19.8961 21.0428L22.4796 18.5195" stroke="#808080" stroke-width="1.22095"/>
<path d="M17.3125 10.7741L19.8961 13.2967L22.4796 10.7734" stroke="#808080" stroke-width="1.22095"/>
<path d="M17.3125 2.7624L19.896 5.28499L22.4796 2.76172" stroke="#808080" stroke-width="1.22095"/>
<path d="M13.4492 14.6726L16.0328 17.1952L18.6163 14.6719" stroke="#808080" stroke-width="1.22095"/>
<path d="M13.4492 6.66084L16.0328 9.18343L18.6163 6.66016" stroke="#808080" stroke-width="1.22095"/>
<path d="M9.41992 18.5202L12.0035 21.0428L14.587 18.5195" stroke="#808080" stroke-width="1.22095"/>
<path d="M9.41992 10.7741L12.0035 13.2967L14.587 10.7734" stroke="#808080" stroke-width="1.22095"/>
<path d="M9.41992 2.7624L12.0035 5.28499L14.587 2.76172" stroke="#808080" stroke-width="1.22095"/>
<path d="M5.39062 14.6725L7.97416 17.1951L10.5577 14.6719" stroke="#808080" stroke-width="1.22095"/>
<path d="M5.39062 6.66084L7.97416 9.18343L10.5577 6.66016" stroke="#808080" stroke-width="1.22095"/>
<path d="M1.59961 18.8311L3.85725 21.0428L6.4408 18.5195" stroke="#808080" stroke-width="1.22095"/>
<path d="M1.43555 10.7741L4.0191 13.2967L6.60263 10.7734" stroke="#808080" stroke-width="1.22095"/>
<path d="M1.51367 2.97059L3.93613 5.2889L6.51968 2.76562" stroke="#808080" stroke-width="1.22095"/>
<path d="M22.5688 13.6797L13.6582 22.5887" stroke="#414147" stroke-width="1.221"/>
<path d="M10.6195 1.63281L1.43945 10.8113" stroke="#414147" stroke-width="1.221"/>
<path d="M22.4368 5.74219L5.7207 22.4554" stroke="#414147" stroke-width="1.221"/>
<path d="M18.5431 1.55859L1.46484 18.6339" stroke="#414147" stroke-width="1.221"/>
<path d="M10.3974 22.6351L1.48633 13.7266" stroke="#FF7C3F" stroke-width="1.22095"/>
<path d="M22.4462 10.6897L13.2656 1.51172" stroke="#FF7C3F" stroke-width="1.22095"/>
<path d="M18.3361 22.5052L1.61914 5.79297" stroke="#FF7C3F" stroke-width="1.22095"/>
<path d="M22.5205 18.6095L5.44141 1.53516" stroke="#FF7C3F" stroke-width="1.22095"/>
<path d="M3.5 1.58203H20.5C21.0304 1.58203 21.5391 1.79275 21.9142 2.16782C22.2893 2.54289 22.5 3.0516 22.5 3.58203V20.582C22.5 21.1125 22.2893 21.6212 21.9142 21.9962C21.5391 22.3713 21.0304 22.582 20.5 22.582H3.5C2.96957 22.582 2.46086 22.3713 2.08579 21.9962C1.71071 21.6212 1.5 21.1125 1.5 20.582V3.58203C1.5 3.0516 1.71071 2.54289 2.08579 2.16782C2.46086 1.79275 2.96957 1.58203 3.5 1.58203Z" stroke="#949494" stroke-linecap="round" stroke-linejoin="round"/>
</svg>
