<svg width="18" height="18" viewBox="0 0 18 18" fill="none" xmlns="http://www.w3.org/2000/svg">
<path d="M0.5 16.5H16.5" stroke="#949494" stroke-linecap="square" stroke-linejoin="round"/>
<path d="M15.5 0.5H13.5C12.9477 0.5 12.5 0.947715 12.5 1.5V13.5C12.5 14.0523 12.9477 14.5 13.5 14.5H15.5C16.0523 14.5 16.5 14.0523 16.5 13.5V1.5C16.5 0.947715 16.0523 0.5 15.5 0.5Z" stroke="#949494" stroke-linecap="round" stroke-linejoin="round"/>
<path d="M0.5 2.5L1.5 3.5" stroke="#FF7C3F" stroke-linecap="round" stroke-linejoin="round"/>
<path d="M10.5 2.5L9.5 3.5" stroke="#FF7C3F" stroke-linecap="round" stroke-linejoin="round"/>
<path d="M9.5 3.5L10.5 4.5" stroke="#FF7C3F" stroke-linecap="round" stroke-linejoin="round"/>
<path d="M1.5 3.5L0.5 4.5" stroke="#FF7C3F" stroke-linecap="round" stroke-linejoin="round"/>
<path d="M1.5 14.5012L8.682 10.4102" stroke="#FF7C3F" stroke-linecap="round" stroke-linejoin="round"/>
<path d="M2.16797 11.1686L8.13697 7.68359" stroke="#FF7C3F" stroke-linecap="round" stroke-linejoin="round"/>
<path d="M2.83203 7.83113L7.59003 4.95312" stroke="#FF7C3F" stroke-linecap="round" stroke-linejoin="round"/>
<path d="M6.5 4.5L7.5 1.5L5.5 0.5L3.5 1.5L4.5 4.5" stroke="#FF7C3F" stroke-linecap="round" stroke-linejoin="round"/>
<path d="M1.5 14.5L3.5 4.5H7.5L9.5 14.5H5.5" stroke="#FF7C3F" stroke-linecap="round" stroke-linejoin="round"/>
<path d="M3.5 1.5H7.5" stroke="#FF7C3F" stroke-linecap="round" stroke-linejoin="round"/>
</svg>
