<svg width="18" height="18" viewBox="0 0 18 18" fill="none" xmlns="http://www.w3.org/2000/svg">
<path d="M4 14H3V15H4V14Z" fill="#FF7C3F"/>
<path d="M5 15H4V16H5V15Z" fill="#FF7C3F"/>
<path d="M6 16H5V17H6V16Z" fill="#FF7C3F"/>
<path d="M2 14H1V15H2V14Z" fill="#FF7C3F"/>
<path d="M3 15H2V16H3V15Z" fill="#FF7C3F"/>
<path d="M4 16H3V17H4V16Z" fill="#FF7C3F"/>
<path d="M13 15H14V14H13V15Z" fill="#FF7C3F"/>
<path d="M12 16H13V15H12V16Z" fill="#FF7C3F"/>
<path d="M11 17H12V16H11V17Z" fill="#FF7C3F"/>
<path d="M15 15H16V14H15V15Z" fill="#FF7C3F"/>
<path d="M14 16H15V15H14V16Z" fill="#FF7C3F"/>
<path d="M13 17H14V16H13V17Z" fill="#FF7C3F"/>
<path d="M16.5 0.5V12.5C16.5 12.7652 16.3946 13.0196 16.2071 13.2071C16.0196 13.3946 15.7652 13.5 15.5 13.5H1.5C1.23478 13.5 0.98043 13.3946 0.792893 13.2071C0.605357 13.0196 0.5 12.7652 0.5 12.5V0.5" stroke="#949494" stroke-linecap="round" stroke-linejoin="round"/>
<path d="M8.5 10.5C11.2614 10.5 13.5 8.26142 13.5 5.5C13.5 2.73858 11.2614 0.5 8.5 0.5C5.73858 0.5 3.5 2.73858 3.5 5.5C3.5 8.26142 5.73858 10.5 8.5 10.5Z" stroke="#949494" stroke-linecap="round" stroke-linejoin="round"/>
<path d="M8.50048 6.72753C9.17924 6.72753 9.72948 6.17729 9.72948 5.49853C9.72948 4.81977 9.17924 4.26953 8.50048 4.26953C7.82173 4.26953 7.27148 4.81977 7.27148 5.49853C7.27148 6.17729 7.82173 6.72753 8.50048 6.72753Z" stroke="#FF7C3F" stroke-linecap="round" stroke-linejoin="round"/>
<path d="M7.88672 1.81434C9.11472 1.20034 10.6517 2.73634 9.11472 4.27234" stroke="#FF7C3F" stroke-linecap="round" stroke-linejoin="round"/>
<path d="M9.11485 9.18847C7.88685 9.80147 6.34985 8.26647 7.88685 6.73047" stroke="#FF7C3F" stroke-linecap="round" stroke-linejoin="round"/>
<path d="M11.3861 3.125C12.5321 3.882 11.9701 5.98 9.87109 5.418" stroke="#FF7C3F" stroke-linecap="round" stroke-linejoin="round"/>
<path d="M5.61457 7.87572C4.46856 7.11872 5.03057 5.02072 7.12957 5.58272" stroke="#FF7C3F" stroke-linecap="round" stroke-linejoin="round"/>
<path d="M12.0008 6.81244C11.9188 8.18444 9.81981 8.74644 9.25781 6.64844" stroke="#FF7C3F" stroke-linecap="round" stroke-linejoin="round"/>
<path d="M5 4.18833C5.082 2.81633 7.181 2.25433 7.743 4.35233" stroke="#FF7C3F" stroke-linecap="round" stroke-linejoin="round"/>
<path d="M6.5 14.5L8.5 16.5L10.5 14.5" stroke="#949494" stroke-linecap="round" stroke-linejoin="round"/>
</svg>
