<svg width="18" height="18" viewBox="0 0 18 18" fill="none" xmlns="http://www.w3.org/2000/svg">
<path d="M15.5 0.5H1.5C0.947715 0.5 0.5 0.947715 0.5 1.5V15.5C0.5 16.0523 0.947715 16.5 1.5 16.5H15.5C16.0523 16.5 16.5 16.0523 16.5 15.5V1.5C16.5 0.947715 16.0523 0.5 15.5 0.5Z" stroke="#949494" stroke-linecap="round" stroke-linejoin="round"/>
<path d="M8.5 16.5C12.9183 16.5 16.5 12.9183 16.5 8.5C16.5 4.08172 12.9183 0.5 8.5 0.5C4.08172 0.5 0.5 4.08172 0.5 8.5C0.5 12.9183 4.08172 16.5 8.5 16.5Z" stroke="#949494" stroke-linecap="round" stroke-linejoin="round"/>
<path d="M8.5 10.5C9.60457 10.5 10.5 9.60457 10.5 8.5C10.5 7.39543 9.60457 6.5 8.5 6.5C7.39543 6.5 6.5 7.39543 6.5 8.5C6.5 9.60457 7.39543 10.5 8.5 10.5Z" stroke="#FF7C3F" stroke-linecap="round" stroke-linejoin="round"/>
<path d="M7.5 2.49921C9.5 1.49921 12 3.99921 9.5 6.49921" stroke="#FF7C3F" stroke-linecap="round" stroke-linejoin="round"/>
<path d="M9.49968 14.5C7.49968 15.5 4.99968 13 7.49968 10.5" stroke="#FF7C3F" stroke-linecap="round" stroke-linejoin="round"/>
<path d="M13.2003 4.63281C15.0663 5.86481 14.1513 9.27981 10.7363 8.36481" stroke="#FF7C3F" stroke-linecap="round" stroke-linejoin="round"/>
<path d="M3.79954 12.3663C1.93354 11.1343 2.84854 7.71926 6.26354 8.63426" stroke="#FF7C3F" stroke-linecap="round" stroke-linejoin="round"/>
<path d="M14.2003 10.6352C14.0663 12.8672 10.6513 13.7822 9.73633 10.3672" stroke="#FF7C3F" stroke-linecap="round" stroke-linejoin="round"/>
<path d="M2.80078 6.36551C2.93478 4.13351 6.34978 3.21851 7.26478 6.63351" stroke="#FF7C3F" stroke-linecap="round" stroke-linejoin="round"/>
</svg>
