<svg width="24" height="24" viewBox="0 0 24 24" fill="none" xmlns="http://www.w3.org/2000/svg">
<path opacity="0.75" d="M16.5 1.5L17.5 2.55C17.8163 2.85679 18.0679 3.22399 18.2396 3.62981C18.4114 4.03564 18.4999 4.47183 18.4999 4.9125C18.4999 5.35317 18.4114 5.78936 18.2396 6.19519C18.0679 6.60101 17.8163 6.96821 17.5 7.275C17.1837 7.58179 16.9321 7.94899 16.7604 8.35481C16.5886 8.76064 16.5001 9.19682 16.5001 9.6375C16.5001 10.0782 16.5886 10.5144 16.7604 10.9202C16.9321 11.326 17.1837 11.6932 17.5 12C17.8163 12.3068 18.0679 12.674 18.2396 13.0798C18.4114 13.4856 18.4999 13.9218 18.4999 14.3625C18.4999 14.8032 18.4114 15.2394 18.2396 15.6452C18.0679 16.051 17.8163 16.4182 17.5 16.725C17.1837 17.0318 16.9321 17.399 16.7604 17.8048C16.5886 18.2106 16.5001 18.6468 16.5001 19.0875C16.5001 19.5282 16.5886 19.9644 16.7604 20.3702C16.9321 20.776 17.1837 21.1432 17.5 21.45L18.5 22.5M12.5 22.5L11.5 21.45C11.1837 21.1432 10.9321 20.776 10.7604 20.3702C10.5886 19.9644 10.5001 19.5282 10.5001 19.0875C10.5001 18.6468 10.5886 18.2106 10.7604 17.8048C10.9321 17.399 11.1837 17.0318 11.5 16.725C11.8163 16.4182 12.0679 16.051 12.2396 15.6452C12.4114 15.2394 12.4999 14.8032 12.4999 14.3625C12.4999 13.9218 12.4114 13.4856 12.2396 13.0798C12.0679 12.674 11.8163 12.3068 11.5 12C11.1837 11.6932 10.9321 11.326 10.7604 10.9202C10.5886 10.5144 10.5001 10.0782 10.5001 9.6375C10.5001 9.19682 10.5886 8.76064 10.7604 8.35481C10.9321 7.94899 11.1837 7.58179 11.5 7.275C11.8163 6.96821 12.0679 6.60101 12.2396 6.19519C12.4114 5.78936 12.4999 5.35317 12.4999 4.9125C12.4999 4.47183 12.4114 4.03564 12.2396 3.62981C12.0679 3.22399 11.8163 2.85679 11.5 2.55L10.5 1.5M6.5 22.5L5.5 21.45C5.18365 21.1432 4.93214 20.776 4.76039 20.3702C4.58863 19.9644 4.50013 19.5282 4.50013 19.0875C4.50013 18.6468 4.58863 18.2106 4.76039 17.8048C4.93214 17.399 5.18365 17.0318 5.5 16.725C5.81635 16.4182 6.06786 16.051 6.23961 15.6452C6.41137 15.2394 6.49987 14.8032 6.49987 14.3625C6.49987 13.9218 6.41137 13.4856 6.23961 13.0798C6.06786 12.674 5.81635 12.3068 5.5 12C5.18365 11.6932 4.93214 11.326 4.76039 10.9202C4.58863 10.5144 4.50013 10.0782 4.50013 9.6375C4.50013 9.19682 4.58863 8.76064 4.76039 8.35481C4.93214 7.94899 5.18365 7.58179 5.5 7.275C5.81635 6.96821 6.06786 6.60101 6.23961 6.19519C6.41137 5.78936 6.49987 5.35317 6.49987 4.9125C6.49987 4.47183 6.41137 4.03564 6.23961 3.62981C6.06786 3.22399 5.81635 2.85679 5.5 2.55L4.5 1.5" stroke="#949494" stroke-linecap="round" stroke-linejoin="round"/>
<path d="M1.5 7.5L2.55 6.5C2.85679 6.18365 3.22399 5.93214 3.62981 5.76039C4.03564 5.58863 4.47183 5.50013 4.9125 5.50013C5.35317 5.50013 5.78936 5.58863 6.19519 5.76039C6.60101 5.93214 6.96821 6.18365 7.275 6.5C7.58179 6.81635 7.94899 7.06786 8.35481 7.23961C8.76064 7.41137 9.19682 7.49987 9.6375 7.49987C10.0782 7.49987 10.5144 7.41137 10.9202 7.23961C11.326 7.06786 11.6932 6.81635 12 6.5C12.3068 6.18365 12.674 5.93214 13.0798 5.76039C13.4856 5.58863 13.9218 5.50013 14.3625 5.50013C14.8032 5.50013 15.2394 5.58863 15.6452 5.76039C16.051 5.93214 16.4182 6.18365 16.725 6.5C17.0318 6.81635 17.399 7.06786 17.8048 7.23961C18.2106 7.41137 18.6468 7.49987 19.0875 7.49987C19.5282 7.49987 19.9644 7.41137 20.3702 7.23961C20.776 7.06786 21.1432 6.81635 21.45 6.5L22.5 5.5M22.5 11.5L21.45 12.5C21.1432 12.8163 20.776 13.0679 20.3702 13.2396C19.9644 13.4114 19.5282 13.4999 19.0875 13.4999C18.6468 13.4999 18.2106 13.4114 17.8048 13.2396C17.399 13.0679 17.0318 12.8163 16.725 12.5C16.4182 12.1837 16.051 11.9321 15.6452 11.7604C15.2394 11.5886 14.8032 11.5001 14.3625 11.5001C13.9218 11.5001 13.4856 11.5886 13.0798 11.7604C12.674 11.9321 12.3068 12.1837 12 12.5C11.6932 12.8163 11.326 13.0679 10.9202 13.2396C10.5144 13.4114 10.0782 13.4999 9.6375 13.4999C9.19682 13.4999 8.76064 13.4114 8.35481 13.2396C7.94899 13.0679 7.58179 12.8163 7.275 12.5C6.96821 12.1837 6.60101 11.9321 6.19519 11.7604C5.78936 11.5886 5.35317 11.5001 4.9125 11.5001C4.47183 11.5001 4.03564 11.5886 3.62981 11.7604C3.22399 11.9321 2.85679 12.1837 2.55 12.5L1.5 13.5M22.5 17.5L21.45 18.5C21.1432 18.8163 20.776 19.0679 20.3702 19.2396C19.9644 19.4114 19.5282 19.4999 19.0875 19.4999C18.6468 19.4999 18.2106 19.4114 17.8048 19.2396C17.399 19.0679 17.0318 18.8163 16.725 18.5C16.4182 18.1837 16.051 17.9321 15.6452 17.7604C15.2394 17.5886 14.8032 17.5001 14.3625 17.5001C13.9218 17.5001 13.4856 17.5886 13.0798 17.7604C12.674 17.9321 12.3068 18.1837 12 18.5C11.6932 18.8163 11.326 19.0679 10.9202 19.2396C10.5144 19.4114 10.0782 19.4999 9.6375 19.4999C9.19682 19.4999 8.76064 19.4114 8.35481 19.2396C7.94899 19.0679 7.58179 18.8163 7.275 18.5C6.96821 18.1837 6.60101 17.9321 6.19519 17.7604C5.78936 17.5886 5.35317 17.5001 4.9125 17.5001C4.47183 17.5001 4.03564 17.5886 3.62981 17.7604C3.22399 17.9321 2.85679 18.1837 2.55 18.5L1.5 19.5" stroke="#FF7C3F" stroke-linecap="round" stroke-linejoin="round"/>
<path d="M1.5 3.5V20.5C1.5 21.0304 1.71071 21.5391 2.08579 21.9142C2.46086 22.2893 2.96957 22.5 3.5 22.5H20.5C21.0304 22.5 21.5391 22.2893 21.9142 21.9142C22.2893 21.5391 22.5 21.0304 22.5 20.5V3.5C22.5 2.96957 22.2893 2.46086 21.9142 2.08579C21.5391 1.71071 21.0304 1.5 20.5 1.5H3.5C2.96957 1.5 2.46086 1.71071 2.08579 2.08579C1.71071 2.46086 1.5 2.96957 1.5 3.5Z" stroke="#949494" stroke-linecap="round" stroke-linejoin="round"/>
</svg>
