<svg width="18" height="18" viewBox="0 0 18 18" fill="none" xmlns="http://www.w3.org/2000/svg">
<path d="M10.8488 14.7983C9.21465 13.2607 7.83722 11.4714 6.76878 9.49831C4.55978 5.67231 3.54378 2.12231 4.50078 1.57031" stroke="#949494" stroke-linecap="round" stroke-linejoin="round"/>
<path d="M1.86523 7.38233C4.0152 6.7356 6.25497 6.43782 8.49923 6.50033C12.9172 6.50033 16.4992 7.39533 16.4992 8.50033" stroke="#949494" stroke-linecap="round" stroke-linejoin="round"/>
<path d="M12.785 3.3125C12.2705 5.49782 11.4085 7.58638 10.232 9.4985C8.023 13.3245 5.457 15.9785 4.5 15.4265" stroke="#949494" stroke-linecap="round" stroke-linejoin="round"/>
<path d="M2.5 8.5C3.05228 8.5 3.5 8.05228 3.5 7.5C3.5 6.94772 3.05228 6.5 2.5 6.5C1.94772 6.5 1.5 6.94772 1.5 7.5C1.5 8.05228 1.94772 8.5 2.5 8.5Z" fill="#FF7C3F" stroke="#FF7C3F" stroke-linecap="round" stroke-linejoin="round"/>
<path d="M16.5 8.50081C16.5 9.60581 12.918 10.5008 8.5 10.5008C4.082 10.5008 0.5 9.60581 0.5 8.50081C0.5 8.08681 1 7.70081 1.866 7.38281" stroke="#FF7C3F" stroke-linecap="round" stroke-linejoin="round"/>
<path d="M12.3652 4.80469C12.9175 4.80469 13.3652 4.35697 13.3652 3.80469C13.3652 3.2524 12.9175 2.80469 12.3652 2.80469C11.8129 2.80469 11.3652 3.2524 11.3652 3.80469C11.3652 4.35697 11.8129 4.80469 12.3652 4.80469Z" fill="#FF7C3F" stroke="#FF7C3F" stroke-linecap="round" stroke-linejoin="round"/>
<path d="M4.50078 15.4287C3.54378 14.8767 4.55978 11.3287 6.76878 7.50068C8.97778 3.67268 11.5438 1.02068 12.5008 1.57268C12.8598 1.77968 12.9408 2.40868 12.7858 3.31468" stroke="#FF7C3F" stroke-linecap="round" stroke-linejoin="round"/>
<path d="M10.6348 15.1953C11.1871 15.1953 11.6348 14.7476 11.6348 14.1953C11.6348 13.643 11.1871 13.1953 10.6348 13.1953C10.0825 13.1953 9.63477 13.643 9.63477 14.1953C9.63477 14.7476 10.0825 15.1953 10.6348 15.1953Z" fill="#FF7C3F" stroke="#FF7C3F" stroke-linecap="round" stroke-linejoin="round"/>
<path d="M4.5 1.57268C5.457 1.02068 8.023 3.67268 10.232 7.50068C12.441 11.3287 13.457 14.8767 12.5 15.4287C12.141 15.6357 11.556 15.3927 10.848 14.8047" stroke="#FF7C3F" stroke-linecap="round" stroke-linejoin="round"/>
</svg>
