<svg width="18" height="18" viewBox="0 0 18 18" fill="none" xmlns="http://www.w3.org/2000/svg">
<path d="M6.5 1.5L8.5 0.5" stroke="#949494" stroke-linecap="round" stroke-linejoin="round"/>
<path d="M10.5 1.5L8.5 0.5" stroke="#949494" stroke-linecap="round" stroke-linejoin="round"/>
<path d="M10.5 1.5L8.5 2.5" stroke="#949494" stroke-linecap="round" stroke-linejoin="round"/>
<path d="M6.5 1.5L8.5 2.5" stroke="#949494" stroke-linecap="round" stroke-linejoin="round"/>
<path d="M10.5 4.5L8.5 5.5" stroke="#949494" stroke-linecap="round" stroke-linejoin="round"/>
<path d="M6.5 4.5L8.5 5.5" stroke="#949494" stroke-linecap="round" stroke-linejoin="round"/>
<path d="M6.5 1.5V4.5" stroke="#949494" stroke-linecap="round" stroke-linejoin="round"/>
<path d="M10.5 1.5V4.5" stroke="#949494" stroke-linecap="round" stroke-linejoin="round"/>
<path d="M8.5 2.5V5.5" stroke="#949494" stroke-linecap="round" stroke-linejoin="round"/>
<path d="M8.5 8.5V14.5" stroke="#FF7C3F" stroke-linecap="round" stroke-linejoin="round"/>
<path d="M12.567 4.533L14.5 5.5V11.5L8.5 14.5L2.5 11.5V5.5L4.5 4.5" stroke="#FF7C3F" stroke-linecap="round" stroke-linejoin="round"/>
<path d="M12.5 2.5L16.5 4.5V12.5L8.5 16.5L0.5 12.5V11.5V4.5L4.5 2.5" stroke="#949494" stroke-linecap="round" stroke-linejoin="round"/>
<path d="M2.5 5.5L8.5 8.5L14.5 5.5" stroke="#FF7C3F" stroke-linecap="round" stroke-linejoin="round"/>
</svg>
