<svg width="24" height="24" viewBox="0 0 24 24" fill="none" xmlns="http://www.w3.org/2000/svg">
<path d="M22.5 19.672L19.692 16.864L22.5 14.056V14.015L16.157 7.672L13.328 10.5L16.864 14.036L14.036 16.864L10.5 13.328L7.672 16.157L14.015 22.5H14.056L16.864 19.692L19.672 22.5M15.642 1.5L21.814 7.672L22.5 6.985M6.985 22.5L7.672 21.814L1.5 15.642M1.5 9.9L4.99 13.29C4.99 13.29 7.555 10.5 7.672 10.5C7.789 10.5 4.136 6.964 4.136 6.964L6.964 4.136L10.5 7.672L13.328 4.843L9.985 1.5" stroke="#FF7C3F" stroke-linecap="round" stroke-linejoin="round"/>
<path d="M20.5 1.5H3.5C2.39543 1.5 1.5 2.39543 1.5 3.5V20.5C1.5 21.6046 2.39543 22.5 3.5 22.5H20.5C21.6046 22.5 22.5 21.6046 22.5 20.5V3.5C22.5 2.39543 21.6046 1.5 20.5 1.5Z" stroke="#949494" stroke-linecap="round" stroke-linejoin="round"/>
</svg>
