<svg width="24" height="24" viewBox="0 0 24 24" fill="none" xmlns="http://www.w3.org/2000/svg">
<g clip-path="url(#clip0_10663_17642)">
<mask id="mask0_10663_17642" style="mask-type:luminance" maskUnits="userSpaceOnUse" x="-1" y="-1" width="26" height="26">
<path d="M24.2143 -0.131012H-0.20752V24.2853H24.2143V-0.131012Z" fill="white"/>
</mask>
<g mask="url(#mask0_10663_17642)">
<path d="M17.3125 18.525L19.8961 21.0476L22.4796 18.5244" stroke="#808080" stroke-width="1.22095"/>
<path d="M17.3125 10.7765L19.8961 13.2991L22.4796 10.7758" stroke="#808080" stroke-width="1.22095"/>
<path d="M17.3125 2.76619L19.896 5.28878L22.4796 2.7655" stroke="#808080" stroke-width="1.22095"/>
<path d="M13.4497 14.6746L16.0332 17.1972L18.6168 14.6739" stroke="#808080" stroke-width="1.22095"/>
<path d="M13.4497 6.66566L16.0332 9.18825L18.6168 6.66498" stroke="#808080" stroke-width="1.22095"/>
<path d="M9.41846 18.525L12.002 21.0476L14.5856 18.5244" stroke="#808080" stroke-width="1.22095"/>
<path d="M9.41846 10.7765L12.002 13.2991L14.5856 10.7758" stroke="#808080" stroke-width="1.22095"/>
<path d="M9.41846 2.76619L12.002 5.28878L14.5856 2.7655" stroke="#808080" stroke-width="1.22095"/>
<path d="M5.38965 14.6745L7.97318 17.1971L10.5567 14.6739" stroke="#808080" stroke-width="1.22095"/>
<path d="M5.38965 6.66566L7.97318 9.18825L10.5567 6.66498" stroke="#808080" stroke-width="1.22095"/>
<path d="M1.59814 18.8355L3.85578 21.0473L6.43934 18.524" stroke="#808080" stroke-width="1.22095"/>
<path d="M1.43506 10.7765L4.01861 13.2991L6.60215 10.7758" stroke="#808080" stroke-width="1.22095"/>
<path d="M1.51318 2.97253L3.93564 5.29085L6.5192 2.76758" stroke="#808080" stroke-width="1.22095"/>
<path d="M22.5678 13.683L13.6572 22.592" stroke="#225158" stroke-width="1.221"/>
<path d="M10.6186 1.63702L1.43848 10.8155" stroke="#225158" stroke-width="1.221"/>
<path d="M22.4353 5.74625L5.71924 22.4594" stroke="#225158" stroke-width="1.221"/>
<path d="M18.5417 1.56223L1.46338 18.6375" stroke="#225158" stroke-width="1.221"/>
<path d="M10.3969 22.6396L1.48584 13.731" stroke="#FF7C3F" stroke-width="1.22095"/>
<path d="M22.4457 10.6928L13.2651 1.51483" stroke="#FF7C3F" stroke-width="1.22095"/>
<path d="M18.3356 22.5068L1.61865 5.79453" stroke="#FF7C3F" stroke-width="1.22095"/>
<path d="M22.5205 18.614L5.44141 1.53958" stroke="#FF7C3F" stroke-width="1.22095"/>
</g>
<path d="M3.49951 1.5817H20.4995C21.0299 1.5817 21.5387 1.79241 21.9137 2.16748C22.2888 2.54255 22.4995 3.05126 22.4995 3.5817V20.5817C22.4995 21.1121 22.2888 21.6208 21.9137 21.9959C21.5387 22.371 21.0299 22.5817 20.4995 22.5817H3.49951C2.96908 22.5817 2.46037 22.371 2.0853 21.9959C1.71023 21.6208 1.49951 21.1121 1.49951 20.5817V3.5817C1.49951 3.05126 1.71023 2.54255 2.0853 2.16748C2.46037 1.79241 2.96908 1.5817 3.49951 1.5817Z" stroke="#949494" stroke-linecap="round" stroke-linejoin="round"/>
</g>
<defs>
<clipPath id="clip0_10663_17642">
<rect width="24" height="24" fill="white"/>
</clipPath>
</defs>
</svg>
