<svg width="18" height="18" viewBox="0 0 18 18" fill="none" xmlns="http://www.w3.org/2000/svg">
<path d="M0.5 16.5H16.5" stroke="#FF7C3F" stroke-linecap="square" stroke-linejoin="round"/>
<path d="M1.50015 13.5L2.11315 12.857C2.36193 12.5905 2.50029 12.2396 2.50029 11.875C2.50029 11.5104 2.36193 11.1595 2.11315 10.893L0.887146 9.607C0.638366 9.34052 0.5 8.98956 0.5 8.625C0.5 8.26044 0.638366 7.90948 0.887146 7.643L2.11315 6.357C2.36193 6.09052 2.50029 5.73956 2.50029 5.375C2.50029 5.01044 2.36193 4.65948 2.11315 4.393L0.887146 3.107C0.638366 2.84052 0.5 2.48956 0.5 2.125C0.5 1.76044 0.638366 1.40948 0.887146 1.143L1.50015 0.5" stroke="#949494" stroke-linecap="round" stroke-linejoin="round"/>
<path d="M8.50015 13.5L9.11315 12.857C9.36193 12.5905 9.50029 12.2396 9.50029 11.875C9.50029 11.5104 9.36193 11.1595 9.11315 10.893L7.88715 9.607C7.63837 9.34052 7.5 8.98956 7.5 8.625C7.5 8.26044 7.63837 7.90948 7.88715 7.643L9.11315 6.357C9.36193 6.09052 9.50029 5.73956 9.50029 5.375C9.50029 5.01044 9.36193 4.65948 9.11315 4.393L7.88715 3.107C7.63837 2.84052 7.5 2.48956 7.5 2.125C7.5 1.76044 7.63837 1.40948 7.88715 1.143L8.50015 0.5" stroke="#949494" stroke-linecap="round" stroke-linejoin="round"/>
<path d="M15.5001 13.5L16.1131 12.857C16.3619 12.5905 16.5003 12.2396 16.5003 11.875C16.5003 11.5104 16.3619 11.1595 16.1131 10.893L14.8871 9.607C14.6384 9.34052 14.5 8.98956 14.5 8.625C14.5 8.26044 14.6384 7.90948 14.8871 7.643L16.1131 6.357C16.3619 6.09052 16.5003 5.73956 16.5003 5.375C16.5003 5.01044 16.3619 4.65948 16.1131 4.393L14.8871 3.107C14.6384 2.84052 14.5 2.48956 14.5 2.125C14.5 1.76044 14.6384 1.40948 14.8871 1.143L15.5001 0.5" stroke="#949494" stroke-linecap="round" stroke-linejoin="round"/>
</svg>
