<svg width="18" height="18" viewBox="0 0 18 18" fill="none" xmlns="http://www.w3.org/2000/svg">
<path d="M14.3553 11.75L14.4168 11.7578C14.4763 11.773 14.5286 11.8099 14.5633 11.8623L17.2088 15.8623C17.2593 15.939 17.263 16.0372 17.2195 16.1182C17.1759 16.1992 17.0918 16.25 16.9998 16.25H0.999838C0.907819 16.25 0.823694 16.1992 0.780111 16.1182C0.736595 16.0372 0.740305 15.939 0.790854 15.8623L3.43636 11.8623L3.4764 11.8154C3.52188 11.774 3.58142 11.75 3.64437 11.75H14.3553Z" fill="#949494" stroke="white" stroke-width="0.5" stroke-linejoin="round"/>
<path d="M14.3553 9.75L14.4168 9.75781C14.4763 9.77296 14.5286 9.80988 14.5633 9.8623L17.2088 13.8623C17.2593 13.939 17.263 14.0372 17.2195 14.1182C17.1759 14.1992 17.0918 14.25 16.9998 14.25H0.999838C0.907819 14.25 0.823694 14.1992 0.780111 14.1182C0.736595 14.0372 0.740305 13.939 0.790854 13.8623L3.43636 9.8623L3.4764 9.81543C3.52188 9.77402 3.58142 9.75002 3.64437 9.75H14.3553Z" fill="#FF7C3F" stroke="white" stroke-width="0.5" stroke-linejoin="round"/>
<path d="M14.3553 7.75L14.4168 7.75781C14.4763 7.77296 14.5286 7.80988 14.5633 7.8623L17.2088 11.8623C17.2593 11.939 17.263 12.0372 17.2195 12.1182C17.1759 12.1992 17.0918 12.25 16.9998 12.25H0.999838C0.907819 12.25 0.823694 12.1992 0.780111 12.1182C0.736595 12.0372 0.740305 11.939 0.790854 11.8623L3.43636 7.8623L3.4764 7.81543C3.52188 7.77402 3.58142 7.75002 3.64437 7.75H14.3553Z" fill="#949494" stroke="white" stroke-width="0.5" stroke-linejoin="round"/>
<path d="M14.3553 5.75L14.4168 5.75781C14.4763 5.77296 14.5286 5.80988 14.5633 5.8623L17.2088 9.8623C17.2593 9.93902 17.263 10.0372 17.2195 10.1182C17.1759 10.1992 17.0918 10.25 16.9998 10.25H0.999838C0.907819 10.25 0.823694 10.1992 0.780111 10.1182C0.736595 10.0372 0.740305 9.93902 0.790854 9.8623L3.43636 5.8623L3.4764 5.81543C3.52188 5.77402 3.58142 5.75002 3.64437 5.75H14.3553Z" fill="#FF7C3F" stroke="white" stroke-width="0.5" stroke-linejoin="round"/>
<path d="M14.3553 3.75L14.4168 3.75781C14.4763 3.77296 14.5286 3.80988 14.5633 3.8623L17.2088 7.8623C17.2593 7.93902 17.263 8.03723 17.2195 8.11816C17.1759 8.19921 17.0918 8.25 16.9998 8.25H0.999838C0.907819 8.25 0.823694 8.19921 0.780111 8.11816C0.736595 8.03723 0.740305 7.93902 0.790854 7.8623L3.43636 3.8623L3.4764 3.81543C3.52188 3.77402 3.58142 3.75002 3.64437 3.75H14.3553Z" fill="#949494" stroke="white" stroke-width="0.5" stroke-linejoin="round"/>
<path d="M14.3553 1.75L14.4168 1.75781C14.4763 1.77296 14.5286 1.80988 14.5633 1.8623L17.2088 5.8623C17.2593 5.93902 17.263 6.03723 17.2195 6.11816C17.1759 6.19921 17.0918 6.25 16.9998 6.25H0.999838C0.907819 6.25 0.823694 6.19921 0.780111 6.11816C0.736595 6.03723 0.740305 5.93902 0.790854 5.8623L3.43636 1.8623L3.4764 1.81543C3.52188 1.77402 3.58142 1.75002 3.64437 1.75H14.3553Z" fill="#FF7C3F" stroke="white" stroke-width="0.5" stroke-linejoin="round"/>
</svg>
