<svg width="18" height="18" viewBox="0 0 18 18" fill="none" xmlns="http://www.w3.org/2000/svg">
<path d="M7.5 4.5H10.5C11.05 4.5 11.5 4.95 11.5 5.5V10.5C11.5 11.05 11.05 11.5 10.5 11.5H7.5" stroke="#949494" stroke-linecap="round" stroke-linejoin="round"/>
<path d="M8.5 9.5C9.05228 9.5 9.5 9.05228 9.5 8.5C9.5 7.94772 9.05228 7.5 8.5 7.5C7.94772 7.5 7.5 7.94772 7.5 8.5C7.5 9.05228 7.94772 9.5 8.5 9.5Z" stroke="#949494" stroke-linecap="round" stroke-linejoin="round"/>
<path d="M7.5 11.5L8.5 12.5L9.5 11.5" stroke="#949494" stroke-linecap="round" stroke-linejoin="round"/>
<path d="M12.5 4.5H15.5C16.05 4.5 16.5 4.95 16.5 5.5V10.5C16.5 11.05 16.05 11.5 15.5 11.5H12.5" stroke="#949494" stroke-linecap="round" stroke-linejoin="round"/>
<path d="M13.5 9.5C14.0523 9.5 14.5 9.05228 14.5 8.5C14.5 7.94772 14.0523 7.5 13.5 7.5C12.9477 7.5 12.5 7.94772 12.5 8.5C12.5 9.05228 12.9477 9.5 13.5 9.5Z" stroke="#949494" stroke-linecap="round" stroke-linejoin="round"/>
<path d="M12.5 11.5L13.5 12.5L14.5 11.5" stroke="#949494" stroke-linecap="round" stroke-linejoin="round"/>
<path d="M5.5 4.5H1.5C0.947715 4.5 0.5 4.94772 0.5 5.5V10.5C0.5 11.0523 0.947715 11.5 1.5 11.5H5.5C6.05228 11.5 6.5 11.0523 6.5 10.5V5.5C6.5 4.94772 6.05228 4.5 5.5 4.5Z" stroke="#FF7C3F" stroke-linecap="round" stroke-linejoin="round"/>
<path d="M3.5 9.5C4.05228 9.5 4.5 9.05228 4.5 8.5C4.5 7.94772 4.05228 7.5 3.5 7.5C2.94772 7.5 2.5 7.94772 2.5 8.5C2.5 9.05228 2.94772 9.5 3.5 9.5Z" stroke="#FF7C3F" stroke-linecap="round" stroke-linejoin="round"/>
<path d="M2.5 11.5L3.5 12.5L4.5 11.5" stroke="#FF7C3F" stroke-linecap="round" stroke-linejoin="round"/>
<path d="M11.5 16.5L13.5 14.5" stroke="#FF7C3F" stroke-linecap="round" stroke-linejoin="round"/>
<path d="M15.5 16.5L13.5 14.5" stroke="#FF7C3F" stroke-linecap="round" stroke-linejoin="round"/>
<path d="M15.5 16.5H4.5C3.95 16.5 3.5 16.05 3.5 15.5V14.5" stroke="#FF7C3F" stroke-linecap="round" stroke-linejoin="round"/>
<path d="M5.5 0.5L3.5 2.5" stroke="#FF7C3F" stroke-linecap="round" stroke-linejoin="round"/>
<path d="M1.5 0.5L3.5 2.5" stroke="#FF7C3F" stroke-linecap="round" stroke-linejoin="round"/>
<path d="M1.5 0.5H12.5C13.05 0.5 13.5 0.95 13.5 1.5V2.5" stroke="#FF7C3F" stroke-linecap="round" stroke-linejoin="round"/>
</svg>
