<svg width="18" height="18" viewBox="0 0 18 18" fill="none" xmlns="http://www.w3.org/2000/svg">
<path d="M4 5H5V4H4V5Z" fill="#FF7C3F"/>
<path d="M12 13H13V12H12V13Z" fill="#FF7C3F"/>
<path d="M0.5 4.5H2.5" stroke="#FF7C3F" stroke-linecap="square" stroke-linejoin="round"/>
<path d="M0.5 6.5H2.5" stroke="#FF7C3F" stroke-linecap="square" stroke-linejoin="round"/>
<path d="M0.5 8.5H2.5" stroke="#FF7C3F" stroke-linecap="square" stroke-linejoin="round"/>
<path d="M0.5 10.5H2.5" stroke="#FF7C3F" stroke-linecap="square" stroke-linejoin="round"/>
<path d="M0.5 12.5H2.5" stroke="#FF7C3F" stroke-linecap="square" stroke-linejoin="round"/>
<path d="M14.5 4.5H16.5" stroke="#FF7C3F" stroke-linecap="square" stroke-linejoin="round"/>
<path d="M14.5 6.5H16.5" stroke="#FF7C3F" stroke-linecap="square" stroke-linejoin="round"/>
<path d="M14.5 8.5H16.5" stroke="#FF7C3F" stroke-linecap="square" stroke-linejoin="round"/>
<path d="M14.5 10.5H16.5" stroke="#FF7C3F" stroke-linecap="square" stroke-linejoin="round"/>
<path d="M14.5 12.5H16.5" stroke="#FF7C3F" stroke-linecap="square" stroke-linejoin="round"/>
<path d="M16.5 2.5H0.5V1.5C0.5 1.23478 0.605356 0.98043 0.792892 0.792893C0.980429 0.605357 1.23478 0.5 1.5 0.5H15.5C15.7652 0.5 16.0196 0.605357 16.2071 0.792893C16.3946 0.98043 16.5 1.23478 16.5 1.5V2.5Z" stroke="#FF7C3F" stroke-linecap="square" stroke-linejoin="round"/>
<path d="M15.5 16.5H1.5C1.23478 16.5 0.980429 16.3946 0.792892 16.2071C0.605356 16.0196 0.5 15.7652 0.5 15.5V14.5H16.5V15.5C16.5 15.7652 16.3946 16.0196 16.2071 16.2071C16.0196 16.3946 15.7652 16.5 15.5 16.5Z" stroke="#FF7C3F" stroke-linecap="square" stroke-linejoin="round"/>
<path d="M12.5 4.5L4.5 12.5" stroke="#FF7C3F" stroke-linecap="round" stroke-linejoin="round"/>
<path d="M12.5 8.5L8.5 12.5" stroke="#FF7C3F" stroke-linecap="round" stroke-linejoin="round"/>
<path d="M8.5 4.5L4.5 8.5" stroke="#FF7C3F" stroke-linecap="round" stroke-linejoin="round"/>
</svg>
