<svg width="18" height="18" viewBox="0 0 18 18" fill="none" xmlns="http://www.w3.org/2000/svg">
<path d="M0.5 0.5V2.5M16.5 0.5V2.5M15.5 1.5H1.5" stroke="#FF7C3F" stroke-linecap="square" stroke-linejoin="round"/>
<path d="M0.5 16.5H16.5M15.5 14.5H1.5C1.23478 14.5 0.98043 14.3946 0.792893 14.2071C0.605357 14.0196 0.5 13.7652 0.5 13.5C0.5 13.2348 0.605357 12.9804 0.792893 12.7929C0.98043 12.6054 1.23478 12.5 1.5 12.5H15.5C15.7652 12.5 16.0196 12.6054 16.2071 12.7929C16.3946 12.9804 16.5 13.2348 16.5 13.5C16.5 13.7652 16.3946 14.0196 16.2071 14.2071C16.0196 14.3946 15.7652 14.5 15.5 14.5ZM16.5 9.5C16.5 9.23478 16.3946 8.98043 16.2071 8.79289C16.0196 8.60536 15.7652 8.5 15.5 8.5H1.5C1.23478 8.5 0.98043 8.60536 0.792893 8.79289C0.605357 8.98043 0.5 9.23478 0.5 9.5C0.5 9.76522 0.605357 10.0196 0.792893 10.2071C0.98043 10.3946 1.23478 10.5 1.5 10.5H15.5C15.7652 10.5 16.0196 10.3946 16.2071 10.2071C16.3946 10.0196 16.5 9.76522 16.5 9.5ZM16.5 5.5C16.5 5.23478 16.3946 4.98043 16.2071 4.79289C16.0196 4.60536 15.7652 4.5 15.5 4.5H1.5C1.23478 4.5 0.98043 4.60536 0.792893 4.79289C0.605357 4.98043 0.5 5.23478 0.5 5.5C0.5 5.76522 0.605357 6.01957 0.792893 6.20711C0.98043 6.39464 1.23478 6.5 1.5 6.5H15.5C15.7652 6.5 16.0196 6.39464 16.2071 6.20711C16.3946 6.01957 16.5 5.76522 16.5 5.5Z" stroke="#949494" stroke-linecap="square" stroke-linejoin="round"/>
</svg>
