<svg width="18" height="18" viewBox="0 0 18 18" fill="none" xmlns="http://www.w3.org/2000/svg">
<path d="M0.5 4.5H7.5" stroke="#949494" stroke-linecap="square" stroke-linejoin="round"/>
<path d="M15.5 4.5H16.5" stroke="#949494" stroke-linecap="square" stroke-linejoin="round"/>
<path d="M14.5 0.5H8.5C7.94772 0.5 7.5 0.947715 7.5 1.5V12.5C7.5 13.0523 7.94772 13.5 8.5 13.5H14.5C15.0523 13.5 15.5 13.0523 15.5 12.5V1.5C15.5 0.947715 15.0523 0.5 14.5 0.5Z" stroke="#949494" stroke-linecap="round" stroke-linejoin="round"/>
<path d="M1.5 2.5H5.5" stroke="#FF7C3F" stroke-linecap="round" stroke-linejoin="round"/>
<path d="M2.5 0.5H5.5" stroke="#FF7C3F" stroke-linecap="round" stroke-linejoin="round"/>
<path d="M0.5 6.5H5.5" stroke="#FF7C3F" stroke-linecap="round" stroke-linejoin="round"/>
<path d="M1.5 8.5H5.5" stroke="#FF7C3F" stroke-linecap="round" stroke-linejoin="round"/>
<path d="M2.5 10.5H5.5" stroke="#FF7C3F" stroke-linecap="round" stroke-linejoin="round"/>
<path d="M3.5 12.5H5.5" stroke="#FF7C3F" stroke-linecap="round" stroke-linejoin="round"/>
<path d="M4.5 14.5H6.5" stroke="#FF7C3F" stroke-linecap="round" stroke-linejoin="round"/>
<path d="M6.5 16.5H8.5" stroke="#FF7C3F" stroke-linecap="round" stroke-linejoin="round"/>
<path d="M11.5 9.5C12.6046 9.5 13.5 8.60457 13.5 7.5C13.5 6.39543 12.6046 5.5 11.5 5.5C10.3954 5.5 9.5 6.39543 9.5 7.5C9.5 8.60457 10.3954 9.5 11.5 9.5Z" stroke="#949494" stroke-linecap="round" stroke-linejoin="round"/>
<path d="M9.5 13.5L11.5 16.5L13.5 13.5" stroke="#949494" stroke-linecap="round" stroke-linejoin="round"/>
</svg>
