<svg width="18" height="18" viewBox="0 0 18 18" fill="none" xmlns="http://www.w3.org/2000/svg">
<path d="M3.5 15.582C3.206 16.166 2.864 16.5 2.5 16.5C1.4 16.5 0.5 12.287 0.5 8.5C0.5 4.713 1.4 0.5 2.5 0.5C2.865 0.5 3.207 0.835 3.5 1.42" stroke="#949494" stroke-linecap="round" stroke-linejoin="round"/>
<path d="M4.5 16.5C3.4 16.5 2.5 12.287 2.5 8.5C2.5 4.713 3.4 0.5 4.5 0.5" stroke="#FF7C3F" stroke-linecap="round" stroke-linejoin="round"/>
<path d="M6.5 16.5C7.60457 16.5 8.5 12.9183 8.5 8.5C8.5 4.08172 7.60457 0.5 6.5 0.5C5.39543 0.5 4.5 4.08172 4.5 8.5C4.5 12.9183 5.39543 16.5 6.5 16.5Z" stroke="#949494" stroke-linecap="round" stroke-linejoin="round"/>
<path d="M16.5 0.5H10.5V3.5H16.5V0.5Z" stroke="#949494" stroke-linecap="round" stroke-linejoin="round"/>
<path d="M8.5 16.5H10.5V5.5H12.5V16.5H14.5V5.5H16.5V16.5" stroke="#FF7C3F" stroke-linecap="square" stroke-linejoin="round"/>
</svg>
