<svg width="18" height="18" viewBox="0 0 18 18" fill="none" xmlns="http://www.w3.org/2000/svg">
<path d="M15.5 11.5L16.5 10.5V9.5H15.5V12.5C15.5 13.5 15.5 14.5 13.5 14.5" stroke="#FF7C3F" stroke-linecap="round" stroke-linejoin="round"/>
<path d="M14.5 14.5C14.5 11.5 13.261 9.5 10.5 9.5C8.291 9.5 5.5 10.5 5.5 14.5" stroke="#949494" stroke-linecap="round" stroke-linejoin="round"/>
<path d="M5.5 14.5H14.5" stroke="#949494" stroke-linecap="round" stroke-linejoin="round"/>
<path d="M6.5 14.5L4.5 16.5" stroke="#FF7C3F" stroke-linecap="round" stroke-linejoin="round"/>
<path d="M13.5 14.5L12.5 16.5" stroke="#FF7C3F" stroke-linecap="round" stroke-linejoin="round"/>
<path d="M7.5 10.5L9.5 12.5" stroke="#949494" stroke-linecap="round" stroke-linejoin="round"/>
<path d="M12.5 10.5L10.5 12.5" stroke="#949494" stroke-linecap="round" stroke-linejoin="round"/>
<path d="M12.5 13.5L11.5 12.5H8.5L7.5 13.5" stroke="#949494" stroke-linecap="round" stroke-linejoin="round"/>
<path d="M2.5 16.5H1.5C1.23478 16.5 0.98043 16.3946 0.792893 16.2071C0.605357 16.0196 0.5 15.7652 0.5 15.5V1.5C0.5 1.23478 0.605357 0.98043 0.792893 0.792893C0.98043 0.605357 1.23478 0.5 1.5 0.5H15.5C15.7652 0.5 16.0196 0.605357 16.2071 0.792893C16.3946 0.98043 16.5 1.23478 16.5 1.5V2.5" stroke="#949494" stroke-linecap="round" stroke-linejoin="round"/>
<path d="M2.5 16.5C2.5 12.787 3.975 9.22601 6.6005 6.6005C9.22601 3.975 12.787 2.5 16.5 2.5" stroke="#FF7C3F" stroke-linecap="round" stroke-linejoin="round"/>
</svg>
