<svg width="18" height="18" viewBox="0 0 18 18" fill="none" xmlns="http://www.w3.org/2000/svg">
<path d="M14.5 5.5H9.5C1.5 5.5 0.5 12.5 0.5 12.5H16.5L13.689 1.257C13.6348 1.04075 13.51 0.848809 13.3342 0.711655C13.1585 0.574502 12.9419 0.500006 12.719 0.5H5.5" stroke="#FF7C3F" stroke-linecap="round" stroke-linejoin="round"/>
<path d="M0.5 16.5H16.5" stroke="#949494" stroke-linecap="square" stroke-linejoin="round"/>
<path d="M10 14H9V15H10V14Z" fill="#FF7C3F"/>
<path d="M8 14H7V15H8V14Z" fill="#FF7C3F"/>
<path d="M6 14H5V15H6V14Z" fill="#FF7C3F"/>
<path d="M4 14H3V15H4V14Z" fill="#FF7C3F"/>
<path d="M2 14H1V15H2V14Z" fill="#FF7C3F"/>
<path d="M12 14H11V15H12V14Z" fill="#FF7C3F"/>
<path d="M14 14H13V15H14V14Z" fill="#FF7C3F"/>
<path d="M16 14H15V15H16V14Z" fill="#FF7C3F"/>
</svg>
