<svg width="18" height="18" viewBox="0 0 18 18" fill="none" xmlns="http://www.w3.org/2000/svg">
<path d="M8 14H6V15H8V14Z" fill="#FF7C3F"/>
<path d="M11 14H9V15H11V14Z" fill="#FF7C3F"/>
<path d="M14 14H12V15H14V14Z" fill="#FF7C3F"/>
<path d="M17 14H15V15H17V14Z" fill="#FF7C3F"/>
<path d="M15.5 0.5H9.5C8.94772 0.5 8.5 0.947715 8.5 1.5V11.5C8.5 12.0523 8.94772 12.5 9.5 12.5H15.5C16.0523 12.5 16.5 12.0523 16.5 11.5V1.5C16.5 0.947715 16.0523 0.5 15.5 0.5Z" stroke="#949494" stroke-linecap="round" stroke-linejoin="round"/>
<path d="M5.50078 7.5H1.50078L0.657777 1.6C0.638617 1.46321 0.649014 1.32391 0.688266 1.19148C0.727518 1.05905 0.794712 0.936581 0.885317 0.832328C0.975922 0.728075 1.08783 0.644465 1.21349 0.587137C1.33916 0.529808 1.47565 0.500094 1.61378 0.5H5.38778C5.5259 0.500094 5.6624 0.529808 5.78806 0.587137C5.91372 0.644465 6.02563 0.728075 6.11624 0.832328C6.20684 0.936581 6.27404 1.05905 6.31329 1.19148C6.35254 1.32391 6.36294 1.46321 6.34378 1.6L5.50078 7.5Z" stroke="#FF7C3F" stroke-linecap="round" stroke-linejoin="round"/>
<path d="M0.5 16.5H16.5" stroke="#949494" stroke-linecap="square" stroke-linejoin="round"/>
<path d="M3.5 11.5L2.5 8.5H4.5L3.5 11.5Z" stroke="#FF7C3F" stroke-linecap="round" stroke-linejoin="round"/>
<path d="M3.5 13.5C3.5 13.7652 3.60536 14.0196 3.79289 14.2071C3.98043 14.3946 4.23478 14.5 4.5 14.5" stroke="#FF7C3F" stroke-linecap="square" stroke-linejoin="round"/>
</svg>
