<svg width="18" height="18" viewBox="0 0 18 18" fill="none" xmlns="http://www.w3.org/2000/svg">
<path d="M14 6.5H17" stroke="#949494" stroke-linejoin="round"/>
<path d="M8 6.5H11" stroke="#949494" stroke-linejoin="round"/>
<path d="M12.5 2V5" stroke="#949494" stroke-linejoin="round"/>
<path d="M12.5 8V11" stroke="#949494" stroke-linejoin="round"/>
<path d="M10 14.5H15" stroke="#949494" stroke-linejoin="round"/>
<path d="M10 12.5H15" stroke="#949494" stroke-linejoin="round"/>
<path d="M10 0.5H15" stroke="#949494" stroke-linejoin="round"/>
<path d="M10 16.5H15" stroke="#949494" stroke-linejoin="round"/>
<path d="M6.5 9.055V2.5C6.5 1.96957 6.28929 1.46086 5.91422 1.08579C5.53914 0.710714 5.03043 0.5 4.5 0.5C3.96957 0.5 3.46086 0.710714 3.08579 1.08579C2.71072 1.46086 2.5 1.96957 2.5 2.5V9.055C1.73743 9.49527 1.14145 10.1749 0.804483 10.9884C0.467516 11.8019 0.408398 12.7038 0.636298 13.5544C0.864198 14.4049 1.36638 15.1565 2.06496 15.6925C2.76353 16.2286 3.61946 16.5191 4.5 16.5191C5.38054 16.5191 6.23647 16.2286 6.93505 15.6925C7.63362 15.1565 8.13581 14.4049 8.36371 13.5544C8.5916 12.7038 8.53249 11.8019 8.19552 10.9884C7.85855 10.1749 7.26257 9.49527 6.5 9.055Z" stroke="#FF7C3F" stroke-linecap="round" stroke-linejoin="round"/>
<path d="M12.5 9.5C14.1569 9.5 15.5 8.15685 15.5 6.5C15.5 4.84315 14.1569 3.5 12.5 3.5C10.8431 3.5 9.5 4.84315 9.5 6.5C9.5 8.15685 10.8431 9.5 12.5 9.5Z" stroke="#949494" stroke-linecap="round" stroke-linejoin="round"/>
<path d="M12.5 7C12.7761 7 13 6.77614 13 6.5C13 6.22386 12.7761 6 12.5 6C12.2239 6 12 6.22386 12 6.5C12 6.77614 12.2239 7 12.5 7Z" fill="#949494"/>
<path d="M4.5 2.5V11.5" stroke="#949494" stroke-linecap="round" stroke-linejoin="round"/>
<path d="M4.5 15C5.88071 15 7 13.8807 7 12.5C7 11.1193 5.88071 10 4.5 10C3.11929 10 2 11.1193 2 12.5C2 13.8807 3.11929 15 4.5 15Z" fill="#949494"/>
</svg>
