<svg width="18" height="18" viewBox="0 0 18 18" fill="none" xmlns="http://www.w3.org/2000/svg">
<path d="M11.5 4.5H5.5C4.94772 4.5 4.5 4.94772 4.5 5.5V11.5C4.5 12.0523 4.94772 12.5 5.5 12.5H11.5C12.0523 12.5 12.5 12.0523 12.5 11.5V5.5C12.5 4.94772 12.0523 4.5 11.5 4.5Z" stroke="#949494" stroke-linecap="round" stroke-linejoin="round"/>
<path d="M1 7H0V8H1V7Z" fill="#FF7C3F"/>
<path d="M1 5H0V6H1V5Z" fill="#FF7C3F"/>
<path d="M1 3H0V4H1V3Z" fill="#FF7C3F"/>
<path d="M2 1H1V2H2V1Z" fill="#FF7C3F"/>
<path d="M4 0H3V1H4V0Z" fill="#FF7C3F"/>
<path d="M6 0H5V1H6V0Z" fill="#FF7C3F"/>
<path d="M8 0H7V1H8V0Z" fill="#FF7C3F"/>
<path d="M10 0H9V1H10V0Z" fill="#FF7C3F"/>
<path d="M12 0H11V1H12V0Z" fill="#FF7C3F"/>
<path d="M14 0H13V1H14V0Z" fill="#FF7C3F"/>
<path d="M1 9H0V10H1V9Z" fill="#FF7C3F"/>
<path d="M1 11H0V12H1V11Z" fill="#FF7C3F"/>
<path d="M1 13H0V14H1V13Z" fill="#FF7C3F"/>
<path d="M17 7H16V8H17V7Z" fill="#FF7C3F"/>
<path d="M17 5H16V6H17V5Z" fill="#FF7C3F"/>
<path d="M17 3H16V4H17V3Z" fill="#FF7C3F"/>
<path d="M16 1H15V2H16V1Z" fill="#FF7C3F"/>
<path d="M17 9H16V10H17V9Z" fill="#FF7C3F"/>
<path d="M17 11H16V12H17V11Z" fill="#FF7C3F"/>
<path d="M17 13H16V14H17V13Z" fill="#FF7C3F"/>
<path d="M2 15H1V16H2V15Z" fill="#FF7C3F"/>
<path d="M16 15H15V16H16V15Z" fill="#FF7C3F"/>
<path d="M14.5 13.5V4.5C14.5 3.4 13.6 2.5 12.5 2.5H4.5C3.4 2.5 2.5 3.4 2.5 4.5V13.5" stroke="#FF7C3F" stroke-linecap="round" stroke-linejoin="round"/>
<path d="M6.5 6.5H10.5" stroke="#949494" stroke-linecap="square" stroke-linejoin="round"/>
<path d="M8.5 7.5V6.5" stroke="#949494" stroke-linecap="square" stroke-linejoin="round"/>
<path d="M6.5 10.5H10.5" stroke="#949494" stroke-linecap="square" stroke-linejoin="round"/>
<path d="M4.5 16.5V14.5H12.5V16.5" stroke="#949494" stroke-linecap="round" stroke-linejoin="round"/>
</svg>
