<svg width="18" height="18" viewBox="0 0 18 18" fill="none" xmlns="http://www.w3.org/2000/svg">
<g clip-path="url(#clip0_10670_21574)">
<mask id="mask0_10670_21574" style="mask-type:luminance" maskUnits="userSpaceOnUse" x="0" y="0" width="18" height="18">
<path d="M18 0H0V18H18V0Z" fill="white"/>
</mask>
<g mask="url(#mask0_10670_21574)">
<path d="M0.5 16.5H16.5" stroke="#FF7C3F" stroke-linecap="square" stroke-linejoin="round"/>
<path d="M8.5 2.5V3.5" stroke="#949494" stroke-linecap="round" stroke-linejoin="round"/>
<path d="M5.5 3.30469L6 4.17069" stroke="#949494" stroke-linecap="round" stroke-linejoin="round"/>
<path d="M3.30469 5.5L8.50069 8.5" stroke="#FF7C3F" stroke-linecap="square" stroke-linejoin="round"/>
<path d="M2.5 8.5H3.5" stroke="#949494" stroke-linecap="round" stroke-linejoin="round"/>
<path d="M13.5 8.5H14.5" stroke="#949494" stroke-linecap="round" stroke-linejoin="round"/>
<path d="M12.8301 11L13.6961 11.5" stroke="#949494" stroke-linecap="round" stroke-linejoin="round"/>
<path d="M3.30469 11.5L4.17069 11" stroke="#949494" stroke-linecap="round" stroke-linejoin="round"/>
<path d="M12.8301 6L13.6961 5.5" stroke="#949494" stroke-linecap="round" stroke-linejoin="round"/>
<path d="M11 4.17069L11.5 3.30469" stroke="#949494" stroke-linecap="round" stroke-linejoin="round"/>
<path d="M8.5 10C9.32843 10 10 9.32843 10 8.5C10 7.67157 9.32843 7 8.5 7C7.67157 7 7 7.67157 7 8.5C7 9.32843 7.67157 10 8.5 10Z" fill="#FF7C3F"/>
<path d="M13.779 14.4993C15.001 13.4261 15.8669 12.0059 16.2613 10.428C16.6556 8.85017 16.5597 7.18959 15.9863 5.66764C15.4128 4.1457 14.3891 2.83468 13.0516 1.90933C11.7142 0.98399 10.1264 0.488281 8.5 0.488281C6.87361 0.488281 5.28585 0.98399 3.94836 1.90933C2.61087 2.83468 1.58718 4.1457 1.01375 5.66764C0.440315 7.18959 0.344379 8.85017 0.738726 10.428C1.13307 12.0059 1.99897 13.4261 3.221 14.4993" stroke="#949494" stroke-linecap="round" stroke-linejoin="round"/>
<path opacity="0.5" d="M6.5 13.5H10.5" stroke="#949494" stroke-linecap="square" stroke-linejoin="round"/>
</g>
</g>
<defs>
<clipPath id="clip0_10670_21574">
<rect width="18" height="18" fill="white"/>
</clipPath>
</defs>
</svg>
