<svg width="18" height="18" viewBox="0 0 18 18" fill="none" xmlns="http://www.w3.org/2000/svg">
<path d="M16.5 13.5H14.5" stroke="#949494" stroke-linecap="square" stroke-linejoin="round"/>
<path d="M11.5 13.5H0.5" stroke="#949494" stroke-linecap="square" stroke-linejoin="round"/>
<path d="M12.5 16.5H13.5C14.0523 16.5 14.5 16.0523 14.5 15.5V11.5C14.5 10.9477 14.0523 10.5 13.5 10.5H12.5C11.9477 10.5 11.5 10.9477 11.5 11.5V15.5C11.5 16.0523 11.9477 16.5 12.5 16.5Z" stroke="#FF7C3F" stroke-linecap="round" stroke-linejoin="round"/>
<path d="M0.5 3.5H2.5" stroke="#949494" stroke-linecap="square" stroke-linejoin="round"/>
<path d="M5.5 3.5H16.5" stroke="#949494" stroke-linecap="square" stroke-linejoin="round"/>
<path d="M4.5 0.5H3.5C2.94772 0.5 2.5 0.947715 2.5 1.5V5.5C2.5 6.05228 2.94772 6.5 3.5 6.5H4.5C5.05228 6.5 5.5 6.05228 5.5 5.5V1.5C5.5 0.947715 5.05228 0.5 4.5 0.5Z" stroke="#FF7C3F" stroke-linecap="round" stroke-linejoin="round"/>
</svg>
