<svg width="24" height="24" viewBox="0 0 24 24" fill="none" xmlns="http://www.w3.org/2000/svg">
<path d="M1.69336 3.78906L20.3764 22.2489" stroke="#949494" stroke-width="0.655956"/>
<path d="M16.4426 22.4219L1.64258 7.62187M6.44258 22.4219L1.64258 17.6219M15.4426 1.42188L22.6426 8.62187M5.44258 1.42188L22.6426 18.6219" stroke="#FF7C3F" stroke-width="0.793701" stroke-linecap="round" stroke-linejoin="round"/>
<path d="M13.7586 22.3897L1.64258 10.2728M22.489 20.8746L3.18008 1.66473M12.8033 1.57812L15.8411 4.54002L22.6649 11.2397" stroke="#FF7C3F" stroke-width="0.793701" stroke-linecap="round" stroke-linejoin="round"/>
<path d="M8.74805 1.43359L22.6897 14.7955" stroke="#949494" stroke-width="0.655956"/>
<path d="M1.64258 8.76991L8.74803 1.43359M1.80914 19.8617L19.9981 1.52234M22.6343 10.7732L11.2093 22.4205" stroke="#FF7C3F" stroke-width="0.793701" stroke-linecap="round" stroke-linejoin="round"/>
<path d="M1.60938 11.5533L11.2481 1.67188M22.6633 13.5224L14.2133 22.3987M22.3376 2.16694L2.44495 21.9499" stroke="#FF7C3F" stroke-width="0.793701" stroke-linecap="round" stroke-linejoin="round"/>
<path d="M3.64258 1.42188H20.6426C21.7426 1.42188 22.6426 2.32186 22.6426 3.42188V20.4219C22.6426 21.5219 21.7426 22.4219 20.6426 22.4219H3.64258C2.54258 22.4219 1.64258 21.5219 1.64258 20.4219V3.42188C1.64258 2.32186 2.54258 1.42188 3.64258 1.42188Z" stroke="#949494" stroke-width="0.894614" stroke-linecap="round" stroke-linejoin="round"/>
<path d="M1.57422 14.0117L10.3019 22.6278" stroke="#949494" stroke-width="0.655956"/>
</svg>
