<svg width="18" height="18" viewBox="0 0 18 18" fill="none" xmlns="http://www.w3.org/2000/svg">
<path d="M8.5 8.5V9.5C8.5 9.76522 8.39464 10.0196 8.20711 10.2071C8.01957 10.3946 7.76522 10.5 7.5 10.5H3.5C3.23478 10.5 2.98043 10.6054 2.79289 10.7929C2.60536 10.9804 2.5 11.2348 2.5 11.5C2.5 11.7652 2.60536 12.0196 2.79289 12.2071C2.98043 12.3946 3.23478 12.5 3.5 12.5H13.5C13.7652 12.5 14.0196 12.6054 14.2071 12.7929C14.3946 12.9804 14.5 13.2348 14.5 13.5C14.5 13.7652 14.3946 14.0196 14.2071 14.2071C14.0196 14.3946 13.7652 14.5 13.5 14.5H1.5C1.23478 14.5 0.98043 14.6054 0.792893 14.7929C0.605357 14.9804 0.5 15.2348 0.5 15.5C0.5 15.7652 0.605357 16.0196 0.792893 16.2071C0.98043 16.3946 1.23478 16.5 1.5 16.5H16.5" stroke="#FF7C3F" stroke-linecap="round" stroke-linejoin="round"/>
<path d="M0.5 3.5H5.5" stroke="#949494" stroke-linecap="square" stroke-linejoin="round"/>
<path d="M11.5 3.5H16.5" stroke="#949494" stroke-linecap="square" stroke-linejoin="round"/>
<path d="M10.5 0.5H6.5C5.94772 0.5 5.5 0.947715 5.5 1.5V6.5C5.5 7.05228 5.94772 7.5 6.5 7.5H10.5C11.0523 7.5 11.5 7.05228 11.5 6.5V1.5C11.5 0.947715 11.0523 0.5 10.5 0.5Z" stroke="#949494" stroke-linecap="round" stroke-linejoin="round"/>
<path d="M8.5 5.5C9.05228 5.5 9.5 5.05228 9.5 4.5C9.5 3.94772 9.05228 3.5 8.5 3.5C7.94772 3.5 7.5 3.94772 7.5 4.5C7.5 5.05228 7.94772 5.5 8.5 5.5Z" stroke="#949494" stroke-linecap="round" stroke-linejoin="round"/>
<path d="M7.5 7.5L8.5 8.5L9.5 7.5" stroke="#949494" stroke-linecap="round" stroke-linejoin="round"/>
</svg>
