<svg width="18" height="18" viewBox="0 0 18 18" fill="none" xmlns="http://www.w3.org/2000/svg">
<path d="M11.0559 4.55023C11.3772 4.76107 11.6126 5.07976 11.7197 5.44886C11.8268 5.81796 11.7985 6.21317 11.6399 6.56323C11.566 6.7249 11.4644 6.87244 11.3399 6.99923H12.5399L12.5539 6.97423C12.8109 6.40763 12.8568 5.76779 12.6833 5.1703C12.5098 4.57281 12.1284 4.05706 11.6079 3.71623C11.5532 3.67661 11.4911 3.64847 11.4252 3.63352C11.3594 3.61856 11.2912 3.61709 11.2248 3.6292C11.1583 3.64131 11.0951 3.66675 11.0387 3.70398C10.9824 3.74121 10.9342 3.78946 10.897 3.84583C10.8599 3.90219 10.8345 3.9655 10.8225 4.03193C10.8104 4.09837 10.812 4.16655 10.827 4.23238C10.842 4.2982 10.8702 4.3603 10.9099 4.41493C10.9496 4.46956 10.9999 4.51558 11.0579 4.55023H11.0559Z" fill="#FF7C3F"/>
<path d="M6.99982 12.1208C6.69649 12.0092 6.43235 11.8114 6.23982 11.5518C5.69282 10.7928 5.92282 9.78382 6.85382 8.85182C6.90181 8.86613 6.95055 8.87781 6.99982 8.88682V7.99982C6.99982 7.73461 7.10517 7.48025 7.29271 7.29272C7.48025 7.10518 7.7346 6.99982 7.99982 6.99982H8.88682C8.87708 6.95119 8.86473 6.90312 8.84982 6.85582C10.3898 5.31582 10.2288 3.78482 9.56582 2.86482C9.20464 2.35786 8.67356 1.99729 8.06911 1.84865C7.46465 1.70002 6.82692 1.77317 6.27182 2.05482C6.15432 2.11484 6.06532 2.21887 6.02419 2.34424C5.98307 2.4696 5.99316 2.60614 6.05227 2.72409C6.11138 2.84205 6.21471 2.93186 6.33975 2.97396C6.4648 3.01605 6.60141 3.00702 6.71982 2.94882C7.0631 2.77591 7.45685 2.73127 7.83013 2.82294C8.20341 2.91461 8.53168 3.13656 8.75582 3.44882C9.30282 4.20782 9.07282 5.21682 8.14182 6.14882C7.97636 6.07116 7.79809 6.02439 7.61582 6.01082V5.99982C7.05282 3.89982 5.64482 3.26982 4.51982 3.38882C3.90066 3.44919 3.32351 3.72905 2.8927 4.17783C2.46189 4.62662 2.20584 5.21471 2.17082 5.83582C2.16289 5.96816 2.20784 6.09823 2.29579 6.19743C2.38374 6.29663 2.50748 6.35684 2.63982 6.36482C2.70563 6.37175 2.77216 6.36496 2.83522 6.34489C2.89828 6.32483 2.95649 6.29191 3.00619 6.24822C3.0559 6.20453 3.09601 6.15102 3.124 6.09105C3.15199 6.03109 3.16725 5.96598 3.16882 5.89982C3.18984 5.51541 3.34767 5.15119 3.61377 4.87298C3.87988 4.59477 4.23672 4.42091 4.61982 4.38282C5.54182 4.30282 6.30982 4.98982 6.64982 6.26382C6.49873 6.36792 6.36791 6.49873 6.26382 6.64982C4.16382 6.09082 2.91482 6.98982 2.44882 8.02482C2.19226 8.59198 2.14712 9.23222 2.32154 9.82977C2.49596 10.4273 2.87844 10.9427 3.39982 11.2828C3.48105 11.3375 3.57689 11.3664 3.67482 11.3658C3.78221 11.3656 3.88668 11.3309 3.97278 11.2667C4.05887 11.2025 4.12202 11.1123 4.15286 11.0094C4.18371 10.9066 4.18062 10.7965 4.14405 10.6956C4.10748 10.5946 4.03938 10.5081 3.94982 10.4488C3.6285 10.238 3.39307 9.91929 3.28599 9.55019C3.17891 9.1811 3.20722 8.78589 3.36582 8.43582C3.74482 7.58182 4.73382 7.27582 5.99982 7.61682H6.00782C6.02139 7.7991 6.06815 7.97736 6.14582 8.14282C4.60582 9.68282 4.76682 11.2138 5.42982 12.1338C5.80693 12.66 6.36676 13.0266 6.99982 13.1618V12.1208Z" fill="#FF7C3F"/>
<path d="M7 13.975C5.76008 13.8805 4.57328 13.4324 3.58039 12.6837C2.58751 11.935 1.83022 10.9173 1.39836 9.75116C0.966497 8.58505 0.878198 7.31953 1.14393 6.10474C1.40967 4.88995 2.01829 3.77689 2.89759 2.89759C3.77689 2.01829 4.88995 1.40967 6.10474 1.14393C7.31953 0.878198 8.58505 0.966497 9.75116 1.39836C10.9173 1.83022 11.935 2.58751 12.6837 3.58039C13.4324 4.57328 13.8805 5.76008 13.975 7H15V1.5C15 1.10218 14.842 0.720644 14.5607 0.43934C14.2794 0.158035 13.8978 0 13.5 0H1.5C1.10218 0 0.720644 0.158035 0.43934 0.43934C0.158035 0.720644 0 1.10218 0 1.5V13.5C0 13.8978 0.158035 14.2794 0.43934 14.5607C0.720644 14.842 1.10218 15 1.5 15H7V13.975ZM13.5 1C13.6326 1 13.7598 1.05268 13.8536 1.14645C13.9473 1.24021 14 1.36739 14 1.5V3.774C13.336 2.621 12.379 1.66401 11.226 1H13.5ZM1 1.5C1 1.36739 1.05268 1.24021 1.14645 1.14645C1.24021 1.05268 1.36739 1 1.5 1H3.774C2.621 1.66401 1.66401 2.621 1 3.774V1.5ZM1 13.5V11.226C1.66401 12.379 2.621 13.336 3.774 14H1.5C1.36739 14 1.24021 13.9473 1.14645 13.8536C1.05268 13.7598 1 13.6326 1 13.5Z" fill="#949494"/>
<path d="M10.5 8.5V12.5" stroke="#FF7C3F" stroke-linecap="round" stroke-linejoin="round"/>
<path d="M14.5 8.5V12.5" stroke="#FF7C3F" stroke-linecap="round" stroke-linejoin="round"/>
<path d="M8.5 12.5H16.5" stroke="#FF7C3F" stroke-linecap="round" stroke-linejoin="round"/>
<path d="M9.5 8.5H15.5C15.7652 8.5 16.0196 8.60536 16.2071 8.79289C16.3946 8.98043 16.5 9.23478 16.5 9.5V12.5L12.5 16.5L8.5 12.5V9.5C8.5 9.23478 8.60536 8.98043 8.79289 8.79289C8.98043 8.60536 9.23478 8.5 9.5 8.5Z" stroke="#FF7C3F" stroke-linecap="round" stroke-linejoin="round"/>
</svg>
