<svg width="18" height="18" viewBox="0 0 18 18" fill="none" xmlns="http://www.w3.org/2000/svg">
<g clip-path="url(#clip0_10670_21506)">
<mask id="mask0_10670_21506" style="mask-type:luminance" maskUnits="userSpaceOnUse" x="0" y="0" width="18" height="18">
<path d="M18 0H0V18H18V0Z" fill="white"/>
</mask>
<g mask="url(#mask0_10670_21506)">
<path d="M16.5 0.5H11.5C10.7044 0.5 9.94129 0.81607 9.37868 1.37868C8.81607 1.94129 8.5 2.70435 8.5 3.5" stroke="#949494" stroke-linecap="square" stroke-linejoin="round"/>
<path d="M10.5 4.5H6.5C5.94772 4.5 5.5 4.94772 5.5 5.5V10.5C5.5 11.0523 5.94772 11.5 6.5 11.5H10.5C11.0523 11.5 11.5 11.0523 11.5 10.5V5.5C11.5 4.94772 11.0523 4.5 10.5 4.5Z" stroke="#949494" stroke-linecap="square" stroke-linejoin="round"/>
<path d="M8.5 9.5C9.05228 9.5 9.5 9.05228 9.5 8.5C9.5 7.94772 9.05228 7.5 8.5 7.5C7.94772 7.5 7.5 7.94772 7.5 8.5C7.5 9.05228 7.94772 9.5 8.5 9.5Z" stroke="#949494" stroke-linecap="square" stroke-linejoin="round"/>
<path d="M7.5 11.5L8.5 12.5L9.5 11.5" stroke="#949494" stroke-linecap="square" stroke-linejoin="round"/>
<path d="M5.5 16.5L8.5 14.5" stroke="#FF7C3F" stroke-linecap="square" stroke-linejoin="round"/>
<path d="M11.5 16.5L8.5 14.5" stroke="#FF7C3F" stroke-linecap="square" stroke-linejoin="round"/>
<path d="M8.5 3.5C8.5 2.70435 8.18393 1.94129 7.62132 1.37868C7.05871 0.81607 6.29565 0.5 5.5 0.5H0.5" stroke="#FF7C3F" stroke-linecap="square" stroke-linejoin="round"/>
<path d="M2.5 11.5V13.5" stroke="#949494" stroke-linecap="square" stroke-linejoin="round"/>
<path d="M14.5 3.5V5.5" stroke="#949494" stroke-linecap="square" stroke-linejoin="round"/>
<path d="M14.6738 3.41016C15.8551 4.84299 16.5011 6.64215 16.5011 8.49916C16.5011 10.3562 15.8551 12.1553 14.6738 13.5882" stroke="#949494" stroke-linecap="round" stroke-linejoin="round"/>
<path d="M2.25479 13.5019C1.07803 12.032 0.457454 10.1942 0.502268 8.3118C0.547082 6.42942 1.25442 4.62317 2.49979 3.21094" stroke="#949494" stroke-linecap="round" stroke-linejoin="round"/>
</g>
</g>
<defs>
<clipPath id="clip0_10670_21506">
<rect width="18" height="18" fill="white"/>
</clipPath>
</defs>
</svg>
