<svg width="18" height="18" viewBox="0 0 18 18" fill="none" xmlns="http://www.w3.org/2000/svg">
<path d="M3.5 15.58C3.21 16.16 2.86 16.5 2.5 16.5C1.4 16.5 0.5 12.29 0.5 8.5C0.5 4.71 1.4 0.5 2.5 0.5C2.87 0.5 3.21 0.84 3.5 1.42" stroke="#949494" stroke-linecap="round" stroke-linejoin="round"/>
<path d="M4.5 16.5C3.4 16.5 2.5 12.29 2.5 8.5C2.5 4.71 3.4 0.5 4.5 0.5" stroke="#FF7C3F" stroke-linecap="round" stroke-linejoin="round"/>
<path d="M6.5 16.5C7.60457 16.5 8.5 12.9183 8.5 8.5C8.5 4.08172 7.60457 0.5 6.5 0.5C5.39543 0.5 4.5 4.08172 4.5 8.5C4.5 12.9183 5.39543 16.5 6.5 16.5Z" stroke="#949494" stroke-linecap="round" stroke-linejoin="round"/>
<path d="M13 12H12V13H13V12Z" fill="#FF7C3F"/>
<path d="M14.5 4.5H16.5" stroke="#FF7C3F" stroke-linecap="square" stroke-linejoin="round"/>
<path d="M14.5 6.5H16.5" stroke="#FF7C3F" stroke-linecap="square" stroke-linejoin="round"/>
<path d="M14.5 8.5H16.5" stroke="#FF7C3F" stroke-linecap="square" stroke-linejoin="round"/>
<path d="M14.5 10.5H16.5" stroke="#FF7C3F" stroke-linecap="square" stroke-linejoin="round"/>
<path d="M14.5 12.5H16.5" stroke="#FF7C3F" stroke-linecap="square" stroke-linejoin="round"/>
<path d="M9.5 0.5H15.5C16.05 0.5 16.5 0.95 16.5 1.5V2.5H10.5" stroke="#FF7C3F" stroke-linecap="square" stroke-linejoin="round"/>
<path d="M10.5 14.5H16.5V15.5C16.5 16.05 16.05 16.5 15.5 16.5H9.5" stroke="#FF7C3F" stroke-linecap="square" stroke-linejoin="round"/>
<path d="M12.5 4.5L10.5 6.5" stroke="#FF7C3F" stroke-linecap="round" stroke-linejoin="round"/>
<path d="M12.5 8.5L10.5 10.5" stroke="#FF7C3F" stroke-linecap="round" stroke-linejoin="round"/>
</svg>
