<svg width="24" height="24" viewBox="0 0 24 24" fill="none" xmlns="http://www.w3.org/2000/svg">
<path d="M3.5 1.5H20.5C21.0304 1.5 21.5391 1.71071 21.9142 2.08579C22.2893 2.46086 22.5 2.96957 22.5 3.5V20.5C22.5 21.0304 22.2893 21.5391 21.9142 21.9142C21.5391 22.2893 21.0304 22.5 20.5 22.5H3.5C2.96957 22.5 2.46086 22.2893 2.08579 21.9142C1.71071 21.5391 1.5 21.0304 1.5 20.5V3.5C1.5 2.96957 1.71071 2.46086 2.08579 2.08579C2.46086 1.71071 2.96957 1.5 3.5 1.5Z" stroke="#949494" stroke-linecap="round" stroke-linejoin="round"/>
<path d="M2.90924 22.8945C2.06132 22.6724 1.47095 22.12 1.13178 21.2316L1.04171 20.9957L1.03095 12.1412C1.02155 4.40234 1.02791 3.24945 1.08145 2.9906C1.2674 2.09147 1.9849 1.34645 2.91199 1.08983C3.14862 1.02433 3.76861 1.01953 11.9898 1.01953C19.2422 1.01953 20.8536 1.02931 21.0383 1.07447C21.4577 1.17701 21.9331 1.44212 22.223 1.7351C22.6838 2.20076 22.8977 2.66074 22.9636 3.32749C22.9867 3.56068 22.9969 7.14135 22.9892 12.2944C22.977 20.4144 22.9724 20.8861 22.9028 21.1154C22.6227 22.0393 21.8988 22.7306 21.0179 22.9155C20.7713 22.9673 19.5251 22.9754 11.9694 22.974C3.48067 22.9725 3.19752 22.97 2.90924 22.8945ZM21.0499 21.9216C21.3811 21.7879 21.7293 21.4557 21.8798 21.1298L21.9983 20.8731L22.009 12.092C22.0208 2.34545 22.0412 3.08742 21.75 2.64327C21.5994 2.41368 21.3755 2.22809 21.0792 2.0873L20.8953 1.99996H12.0102H3.12512L2.86849 2.11846C2.54255 2.26898 2.21034 2.61715 2.07666 2.94833L1.98129 3.18464L1.96951 11.7634C1.96177 17.4015 1.97195 20.4504 1.99921 20.6582C2.0928 21.3716 2.58855 21.8976 3.25561 21.9914C3.38605 22.0097 7.38997 22.023 12.1532 22.0209L20.8136 22.017L21.0499 21.9216Z" fill="#939393"/>
<path d="M1.99415 15.8833C2.50072 15.8905 3.01261 15.8977 3.51483 15.8883C4.52425 15.8694 5.49426 15.7921 6.32643 15.4694C6.70927 15.321 7.06446 15.1167 7.36202 14.834C7.59924 14.6086 7.79769 14.327 7.93721 14.0199C8.07674 13.7128 8.16535 13.3856 8.22988 13.0498C8.36849 12.3286 8.39841 11.5598 8.47296 10.871C8.52896 10.3536 8.61174 9.88442 8.74874 9.5396C8.83783 9.31535 8.94347 9.1491 9.07372 9.02565C9.20397 8.90221 9.38442 8.7975 9.61897 8.71255C9.85353 8.6276 10.1388 8.56447 10.4535 8.51735C11.1528 8.41265 11.9885 8.38983 12.7812 8.26799C13.196 8.20423 13.602 8.1132 13.9794 7.94975C14.2789 7.82003 14.5581 7.63582 14.7844 7.41265C15.0107 7.1895 15.1904 6.92951 15.3319 6.64904C15.6373 6.04364 15.7735 5.34519 15.8419 4.60429C15.9103 3.86338 15.9073 3.07627 15.8973 2.29339C15.8961 2.19024 15.8946 2.0872 15.8931 1.98438H14.8239L14.824 1.99189C14.8323 2.58215 14.8403 3.16516 14.8403 3.16516C14.7993 4.50956 14.7186 5.23218 14.7186 5.23218C14.4395 6.07081 14.3172 6.31046 14.3172 6.31046C14.0201 6.68928 13.8529 6.82792 13.8529 6.82792C13.3849 7.05086 13.0773 7.13443 13.0773 7.13443C12.0388 7.31034 11.1965 7.33397 11.1965 7.33397C9.99889 7.50074 9.61316 7.57687 9.61316 7.57687C8.88536 7.84183 8.53613 8.0366 8.53613 8.0366C8.05576 8.54329 7.90567 8.79288 7.90567 8.79288C7.62195 9.44925 7.5302 9.87434 7.5302 9.87434C7.35019 11.098 7.32659 11.927 7.32659 11.927C7.17334 12.917 7.11174 13.1891 7.11174 13.1891C6.94843 13.6396 6.85143 13.8094 6.85143 13.8094C6.53472 14.1741 6.27418 14.3442 6.27418 14.3442C5.31631 14.7122 4.44865 14.8017 4.44865 14.8017C3.01105 14.8283 2.50907 14.8213 2.00167 14.8142L1.99414 14.8141L1.99415 15.8833Z" fill="#FF7C3F" stroke="black" stroke-width="0.02"/>
<path d="M8.14227 22.0296C8.13514 21.523 8.12789 21.0112 8.13728 20.5089C8.15615 19.4995 8.23345 18.5295 8.55615 17.6973C8.70461 17.3145 8.90892 16.9593 9.19165 16.6617C9.41703 16.4245 9.69857 16.2261 10.0057 16.0866C10.3128 15.947 10.64 15.8584 10.9758 15.7939C11.697 15.6553 12.4658 15.6254 13.1546 15.5508C13.672 15.4948 14.1412 15.412 14.486 15.275C14.7102 15.1859 14.8765 15.0803 14.9999 14.95C15.1234 14.8198 15.2281 14.6394 15.313 14.4048C15.398 14.1702 15.4611 13.885 15.5082 13.5703C15.6129 12.871 15.6358 12.0352 15.7576 11.2425C15.8214 10.8277 15.9124 10.4218 16.0758 10.0444C16.2056 9.74483 16.3898 9.46566 16.6129 9.23934C16.8361 9.01302 17.0961 8.83335 17.3765 8.69186C17.9819 8.38645 18.6804 8.25022 19.4213 8.18182C20.1622 8.11342 20.9493 8.11649 21.7322 8.12645C21.8354 8.12771 21.9384 8.12922 22.0412 8.13066V9.19992L22.0337 9.19981C21.4434 9.1915 20.8604 9.1835 20.8604 9.1835C19.516 9.22451 18.7934 9.30518 18.7934 9.30518C17.9548 9.58426 17.7151 9.70657 17.7151 9.70657C17.3363 10.0037 17.1977 10.1708 17.1977 10.1708C16.9747 10.6389 16.8912 10.9464 16.8912 10.9464C16.7152 11.9849 16.6916 12.8272 16.6916 12.8272C16.5248 14.0249 16.4487 14.4106 16.4487 14.4106C16.1838 15.1384 15.989 15.4876 15.989 15.4876C15.4823 15.968 15.2327 16.1181 15.2327 16.1181C14.5764 16.4018 14.1512 16.4936 14.1512 16.4936C12.9276 16.6736 12.0986 16.6972 12.0986 16.6972C11.1086 16.8504 10.8365 16.912 10.8365 16.912C10.386 17.0753 10.2162 17.1723 10.2162 17.1723C9.85154 17.4891 9.6814 17.7496 9.6814 17.7496C9.31339 18.7075 9.22387 19.5751 9.22387 19.5751C9.1973 21.0127 9.20427 21.5147 9.21142 22.0221L9.21152 22.0296H8.14227Z" fill="#FF7C3F" stroke="black" stroke-width="0.02"/>
<path d="M17.3598 22.031C17.479 21.3468 17.5096 20.6268 17.5798 19.9779C17.6358 19.4605 17.7186 18.9913 17.8556 18.6465C17.9447 18.4223 18.0504 18.256 18.1806 18.1326C18.3109 18.0091 18.4913 17.9044 18.7259 17.8195C18.9604 17.7345 19.2456 17.6714 19.5603 17.6243C20.2597 17.5196 21.0954 17.4968 21.8881 17.3749C21.9391 17.3671 21.99 17.3588 22.0407 17.3501V16.2617C21.9734 16.2758 21.9039 16.2888 21.8327 16.3009C21.1457 16.4173 20.3034 16.4409 19.4981 16.553C19.1058 16.6077 18.7201 16.6838 18.3562 16.8163C17.9923 16.9488 17.643 17.1435 17.3665 17.4352C17.1627 17.6502 17.0126 17.8998 16.8992 18.162C16.7288 18.5562 16.6371 18.9813 16.5733 19.4152C16.4571 20.2049 16.4335 21.034 16.3267 21.7239C16.3102 21.8301 16.2919 21.9327 16.2715 22.031H17.3598Z" fill="#FF7C3F" stroke="black" stroke-width="0.02"/>
<path d="M1.99414 7.75364C3.23771 7.50549 4.54821 7.61893 5.75148 7.17177C6.37841 6.94909 6.89783 6.45821 7.14207 5.83824C7.5558 4.82082 7.53197 3.70242 7.66329 2.62864C7.68842 2.41273 7.71897 2.19724 7.76343 1.98438H6.67508C6.63001 2.24624 6.59774 2.51015 6.57071 2.77443C6.46774 3.6614 6.48425 4.58208 6.1558 5.42551C6.0137 5.81459 5.66811 6.08994 5.27842 6.20662C4.21562 6.5407 3.08167 6.46467 1.99414 6.66533V7.75364Z" fill="#FF7C3F" stroke="black" stroke-width="0.02"/>
</svg>
