<svg width="24" height="24" viewBox="0 0 24 24" fill="none" xmlns="http://www.w3.org/2000/svg">
<path d="M2 2.5V4L7 7M7 7V13M7 7L12 4M7 13L2 16V21.5H22V16L17 13M7 13L12 16M12 4V2M12 4L17 7M17 13L12 16M17 13V7M12 16V22M17 7L22 4V2.5" stroke="#FF7C3F" stroke-linecap="round" stroke-linejoin="round"/>
<path d="M20.5 1.5H3.5C2.39543 1.5 1.5 2.39543 1.5 3.5V20.5C1.5 21.6046 2.39543 22.5 3.5 22.5H20.5C21.6046 22.5 22.5 21.6046 22.5 20.5V3.5C22.5 2.39543 21.6046 1.5 20.5 1.5Z" stroke="#949494" stroke-linecap="round" stroke-linejoin="round"/>
</svg>
