<svg width="18" height="18" viewBox="0 0 18 18" fill="none" xmlns="http://www.w3.org/2000/svg">
<path d="M16.5 15.5V1.5C16.5 0.947715 16.0523 0.5 15.5 0.5H1.5C0.947715 0.5 0.5 0.947715 0.5 1.5V15.5C0.5 16.0523 0.947715 16.5 1.5 16.5H15.5C16.0523 16.5 16.5 16.0523 16.5 15.5Z" stroke="#949494" stroke-linecap="square" stroke-linejoin="round"/>
<path opacity="0.55" d="M10.5 2.5L6.5 5.5L2.5 2.5" stroke="#FF7C3F" stroke-linecap="square" stroke-linejoin="round"/>
<path opacity="0.7" d="M10.5 5.5L6.5 8.5L2.5 5.5" stroke="#FF7C3F" stroke-linecap="square" stroke-linejoin="round"/>
<path opacity="0.85" d="M10.5 8.5L6.5 11.5L2.5 8.5" stroke="#FF7C3F" stroke-linecap="square" stroke-linejoin="round"/>
<path d="M10.5 11.5L6.5 14.5L2.5 11.5" stroke="#FF7C3F" stroke-linecap="square" stroke-linejoin="round"/>
<path d="M12.5 2.5H14.5" stroke="#FF7C3F" stroke-linecap="square" stroke-linejoin="round"/>
<path d="M12.5 5.5H14.5" stroke="#FF7C3F" stroke-linecap="square" stroke-linejoin="round"/>
<path d="M12.5 8.5H14.5" stroke="#FF7C3F" stroke-linecap="square" stroke-linejoin="round"/>
<path d="M12.5 11.5H14.5" stroke="#FF7C3F" stroke-linecap="square" stroke-linejoin="round"/>
</svg>
