<svg width="18" height="18" viewBox="0 0 18 18" fill="none" xmlns="http://www.w3.org/2000/svg">
<path d="M15.5 0.5H1.5C0.947715 0.5 0.5 0.947715 0.5 1.5V15.5C0.5 16.0523 0.947715 16.5 1.5 16.5H15.5C16.0523 16.5 16.5 16.0523 16.5 15.5V1.5C16.5 0.947715 16.0523 0.5 15.5 0.5Z" stroke="#FF7C3F" stroke-linecap="round" stroke-linejoin="round"/>
<path d="M2.5 14.5H14.5" stroke="#949494" stroke-linecap="square" stroke-linejoin="round"/>
<path d="M13.5001 12.5L13.9001 12.005C14.0628 11.7869 14.1506 11.5221 14.1506 11.25C14.1506 10.9779 14.0628 10.7131 13.9001 10.495L13.1081 9.505C12.9455 9.2882 12.8569 9.02484 12.8555 8.75382C12.854 8.48281 12.9398 8.21852 13.1001 8L13.8921 7.01C14.0548 6.79189 14.1426 6.52708 14.1426 6.255C14.1426 5.98292 14.0548 5.71811 13.8921 5.5L13.1001 4.51C12.9375 4.29189 12.8496 4.02708 12.8496 3.755C12.8496 3.48292 12.9375 3.21811 13.1001 3L13.5001 2.5" stroke="#949494" stroke-linecap="round" stroke-linejoin="round"/>
<path d="M8.50021 12.5L8.90021 12.005C9.06285 11.7869 9.15072 11.5221 9.15072 11.25C9.15072 10.9779 9.06285 10.7131 8.90021 10.495L8.10021 9.505C7.93874 9.28734 7.85156 9.02351 7.85156 8.7525C7.85156 8.48149 7.93874 8.21766 8.10021 8L8.89221 7.01C9.05485 6.79189 9.14271 6.52708 9.14271 6.255C9.14271 5.98292 9.05485 5.71811 8.89221 5.5L8.10021 4.505C7.93874 4.28734 7.85156 4.02351 7.85156 3.7525C7.85156 3.48149 7.93874 3.21766 8.10021 3L8.50021 2.5" stroke="#949494" stroke-linecap="round" stroke-linejoin="round"/>
<path d="M3.50021 12.5L3.90021 12.005C4.06285 11.7869 4.15072 11.5221 4.15072 11.25C4.15072 10.9779 4.06285 10.7131 3.90021 10.495L3.10021 9.505C2.93874 9.28734 2.85156 9.02351 2.85156 8.7525C2.85156 8.48149 2.93874 8.21766 3.10021 8L3.89221 7.01C4.05485 6.79189 4.14272 6.52708 4.14272 6.255C4.14272 5.98292 4.05485 5.71811 3.89221 5.5L3.10021 4.505C2.93874 4.28734 2.85156 4.02351 2.85156 3.7525C2.85156 3.48149 2.93874 3.21766 3.10021 3L3.50021 2.5" stroke="#949494" stroke-linecap="round" stroke-linejoin="round"/>
</svg>
