<svg width="18" height="18" viewBox="0 0 18 18" fill="none" xmlns="http://www.w3.org/2000/svg">
<path d="M16.5 16.5H0.5" stroke="#949494" stroke-linecap="square" stroke-linejoin="round"/>
<path d="M4.5 14.5H0.5" stroke="#949494" stroke-linecap="square" stroke-linejoin="round"/>
<path d="M6.5 1.5H8.5" stroke="#FF7C3F" stroke-linecap="round" stroke-linejoin="round"/>
<path d="M7.5 0.5V2.5" stroke="#FF7C3F" stroke-linecap="round" stroke-linejoin="round"/>
<path d="M0.5 5.5H4.5" stroke="#FF7C3F" stroke-linecap="round" stroke-linejoin="round"/>
<path d="M2.5 3.5V7.5" stroke="#FF7C3F" stroke-linecap="round" stroke-linejoin="round"/>
<path d="M0.5 3C0.776142 3 1 2.77614 1 2.5C1 2.22386 0.776142 2 0.5 2C0.223858 2 0 2.22386 0 2.5C0 2.77614 0.223858 3 0.5 3Z" fill="#FF7C3F"/>
<path d="M5.5 4C5.77614 4 6 3.77614 6 3.5C6 3.22386 5.77614 3 5.5 3C5.22386 3 5 3.22386 5 3.5C5 3.77614 5.22386 4 5.5 4Z" fill="#FF7C3F"/>
<path d="M4.5 8C4.77614 8 5 7.77614 5 7.5C5 7.22386 4.77614 7 4.5 7C4.22386 7 4 7.22386 4 7.5C4 7.77614 4.22386 8 4.5 8Z" fill="#FF7C3F"/>
<path d="M3.5 11C3.77614 11 4 10.7761 4 10.5C4 10.2239 3.77614 10 3.5 10C3.22386 10 3 10.2239 3 10.5C3 10.7761 3.22386 11 3.5 11Z" fill="#FF7C3F"/>
<path d="M0.5 10C0.776142 10 1 9.77614 1 9.5C1 9.22386 0.776142 9 0.5 9C0.223858 9 0 9.22386 0 9.5C0 9.77614 0.223858 10 0.5 10Z" fill="#FF7C3F"/>
<path d="M3.5 2C3.77614 2 4 1.77614 4 1.5C4 1.22386 3.77614 1 3.5 1C3.22386 1 3 1.22386 3 1.5C3 1.77614 3.22386 2 3.5 2Z" fill="#FF7C3F"/>
<path d="M1.5 1C1.77614 1 2 0.776142 2 0.5C2 0.223858 1.77614 0 1.5 0C1.22386 0 1 0.223858 1 0.5C1 0.776142 1.22386 1 1.5 1Z" fill="#FF7C3F"/>
<path d="M16.5 11.668C16.5 13.501 15.5 14.501 14.5 14.501" stroke="#FF7C3F" stroke-linecap="round" stroke-linejoin="round"/>
<path d="M14.5 11.668C14.5 13.501 13.5 14.501 12.5 14.501" stroke="#FF7C3F" stroke-linecap="round" stroke-linejoin="round"/>
<path d="M12.5 11.668C12.5 13.501 11.5 14.501 10.5 14.501" stroke="#FF7C3F" stroke-linecap="round" stroke-linejoin="round"/>
<path d="M10.5 11.668C10.5 13.501 9.5 14.501 8.5 14.501" stroke="#FF7C3F" stroke-linecap="round" stroke-linejoin="round"/>
<path d="M8.5 11.668C8.5 13.501 7.5 14.501 6.5 14.501" stroke="#FF7C3F" stroke-linecap="round" stroke-linejoin="round"/>
<path d="M16.5 8.5H13.5L15.241 1.535C15.2719 1.41219 15.2744 1.28394 15.2482 1.16004C15.222 1.03614 15.1679 0.91984 15.09 0.820018C15.012 0.720195 14.9123 0.63948 14.7985 0.584021C14.6846 0.528563 14.5596 0.499826 14.433 0.500001H13.333C13.1121 0.500001 12.9002 0.587763 12.744 0.743981C12.5878 0.900199 12.5 1.11208 12.5 1.333V8.5H9.5L8.5 10.5H16.5V8.5Z" stroke="#949494" stroke-linecap="round" stroke-linejoin="round"/>
</svg>
