<svg width="18" height="18" viewBox="0 0 18 18" fill="none" xmlns="http://www.w3.org/2000/svg">
<path d="M15.5 8.5H11.5C10.9477 8.5 10.5 8.94772 10.5 9.5V14.5C10.5 15.0523 10.9477 15.5 11.5 15.5H15.5C16.0523 15.5 16.5 15.0523 16.5 14.5V9.5C16.5 8.94772 16.0523 8.5 15.5 8.5Z" stroke="#949494" stroke-linecap="round" stroke-linejoin="round"/>
<path d="M13.5 13.5C14.0523 13.5 14.5 13.0523 14.5 12.5C14.5 11.9477 14.0523 11.5 13.5 11.5C12.9477 11.5 12.5 11.9477 12.5 12.5C12.5 13.0523 12.9477 13.5 13.5 13.5Z" stroke="#949494" stroke-linecap="round" stroke-linejoin="round"/>
<path d="M12.5 15.5L13.5 16.5L14.5 15.5" stroke="#949494" stroke-linecap="round" stroke-linejoin="round"/>
<path d="M5.5 0.5H1.5C0.947715 0.5 0.5 0.947715 0.5 1.5V6.5C0.5 7.05228 0.947715 7.5 1.5 7.5H5.5C6.05228 7.5 6.5 7.05228 6.5 6.5V1.5C6.5 0.947715 6.05228 0.5 5.5 0.5Z" stroke="#FF7C3F" stroke-linecap="round" stroke-linejoin="round"/>
<path d="M3.5 5.5C4.05228 5.5 4.5 5.05228 4.5 4.5C4.5 3.94772 4.05228 3.5 3.5 3.5C2.94772 3.5 2.5 3.94772 2.5 4.5C2.5 5.05228 2.94772 5.5 3.5 5.5Z" stroke="#FF7C3F" stroke-linecap="round" stroke-linejoin="round"/>
<path d="M2.5 7.5L3.5 8.5L4.5 7.5" stroke="#FF7C3F" stroke-linecap="round" stroke-linejoin="round"/>
<path d="M10.5 5.5L8.5 3.5" stroke="#949494" stroke-linecap="round" stroke-linejoin="round"/>
<path d="M10.5 1.5L8.5 3.5" stroke="#949494" stroke-linecap="round" stroke-linejoin="round"/>
<path d="M6.5 11.5L8.5 13.5" stroke="#FF7C3F" stroke-linecap="round" stroke-linejoin="round"/>
<path d="M6.5 15.5L8.5 13.5" stroke="#FF7C3F" stroke-linecap="round" stroke-linejoin="round"/>
<path d="M13.5 6.5V4.5C13.5 4.23478 13.3946 3.98043 13.2071 3.79289C13.0196 3.60536 12.7652 3.5 12.5 3.5H8.5" stroke="#949494" stroke-linecap="round" stroke-linejoin="round"/>
<path d="M8.5 13.5H4.5C4.23478 13.5 3.98043 13.3946 3.79289 13.2071C3.60536 13.0196 3.5 12.7652 3.5 12.5V10.5" stroke="#FF7C3F" stroke-linecap="round" stroke-linejoin="round"/>
</svg>
