<svg width="18" height="18" viewBox="0 0 18 18" fill="none" xmlns="http://www.w3.org/2000/svg">
<g clip-path="url(#clip0_10663_17934)">
<path d="M6.5 15.5L10.5 12.5" stroke="#FF7C3F" stroke-linecap="square" stroke-linejoin="round"/>
<path d="M13.5 13.5L10.5 12.5" stroke="#FF7C3F" stroke-linecap="square" stroke-linejoin="round"/>
<path d="M10.5 12.5L14.5 10.5" stroke="#FF7C3F" stroke-linecap="square" stroke-linejoin="round"/>
<path d="M6.5 12.5L9.5 6.5" stroke="#FF7C3F" stroke-linecap="square" stroke-linejoin="round"/>
<path d="M8.5 8.5L12.5 7.5" stroke="#FF7C3F" stroke-linecap="square" stroke-linejoin="round"/>
<path d="M13.5 4.5L12.5 7.5" stroke="#FF7C3F" stroke-linecap="square" stroke-linejoin="round"/>
<path d="M9.5 6.5L8.5 4.5" stroke="#FF7C3F" stroke-linecap="square" stroke-linejoin="round"/>
<path d="M9.5 5.5L11.5 2.5" stroke="#FF7C3F" stroke-linecap="square" stroke-linejoin="round"/>
<path d="M9.5 0.5L11.5 2.5" stroke="#FF7C3F" stroke-linecap="square" stroke-linejoin="round"/>
<path d="M13.5 4.5L16.5 0.5" stroke="#FF7C3F" stroke-linecap="square" stroke-linejoin="round"/>
<path d="M13.5 0.5L15.5 2.5" stroke="#FF7C3F" stroke-linecap="square" stroke-linejoin="round"/>
<path d="M7.5 2.5L6.5 4.5" stroke="#FF7C3F" stroke-linecap="square" stroke-linejoin="round"/>
<path d="M11.5 12.5L10.5 10.5" stroke="#FF7C3F" stroke-linecap="square" stroke-linejoin="round"/>
<path d="M5.5 0.5H1.5C0.947715 0.5 0.5 0.947715 0.5 1.5V15.5C0.5 16.0523 0.947715 16.5 1.5 16.5H5.5C6.05228 16.5 6.5 16.0523 6.5 15.5V1.5C6.5 0.947715 6.05228 0.5 5.5 0.5Z" stroke="#949494" stroke-linecap="round" stroke-linejoin="round"/>
<path d="M12.5 7.5L15.5 6.5" stroke="#FF7C3F" stroke-linecap="square" stroke-linejoin="round"/>
</g>
<defs>
<clipPath id="clip0_10663_17934">
<rect width="18" height="18" fill="white"/>
</clipPath>
</defs>
</svg>
