<svg width="18" height="18" viewBox="0 0 18 18" fill="none" xmlns="http://www.w3.org/2000/svg">
<path d="M11.5 0.5H5.5C4.94772 0.5 4.5 0.947715 4.5 1.5V11.5C4.5 12.0523 4.94772 12.5 5.5 12.5H11.5C12.0523 12.5 12.5 12.0523 12.5 11.5V1.5C12.5 0.947715 12.0523 0.5 11.5 0.5Z" stroke="#949494" stroke-linecap="round" stroke-linejoin="round"/>
<path d="M13.5 10.5C13.7652 10.5 14.0196 10.6054 14.2071 10.7929C14.3946 10.9804 14.5 11.2348 14.5 11.5V13.5C14.5 13.7652 14.3946 14.0196 14.2071 14.2071C14.0196 14.3946 13.7652 14.5 13.5 14.5H3.5C3.23478 14.5 2.98043 14.3946 2.79289 14.2071C2.60536 14.0196 2.5 13.7652 2.5 13.5V11.5C2.5 11.2348 2.60536 10.9804 2.79289 10.7929C2.98043 10.6054 3.23478 10.5 3.5 10.5" stroke="#FF7C3F" stroke-linecap="square" stroke-linejoin="round"/>
<path d="M13.5 8.5C14.2956 8.5 15.0587 8.81607 15.6213 9.37868C16.1839 9.94129 16.5 10.7044 16.5 11.5V13.5C16.5 14.2956 16.1839 15.0587 15.6213 15.6213C15.0587 16.1839 14.2956 16.5 13.5 16.5H3.5C2.70435 16.5 1.94129 16.1839 1.37868 15.6213C0.81607 15.0587 0.5 14.2956 0.5 13.5V11.5C0.5 10.7044 0.81607 9.94129 1.37868 9.37868C1.94129 8.81607 2.70435 8.5 3.5 8.5" stroke="#FF7C3F" stroke-linecap="square" stroke-linejoin="round"/>
</svg>
