<svg width="18" height="18" viewBox="0 0 18 18" fill="none" xmlns="http://www.w3.org/2000/svg">
<path d="M0.5 3.5H5.5" stroke="#949494" stroke-linecap="square" stroke-linejoin="round"/>
<path d="M11.5 3.5H16.5" stroke="#949494" stroke-linecap="square" stroke-linejoin="round"/>
<path d="M10.5 0.5H6.5C5.94772 0.5 5.5 0.947715 5.5 1.5V6.5C5.5 7.05228 5.94772 7.5 6.5 7.5H10.5C11.0523 7.5 11.5 7.05228 11.5 6.5V1.5C11.5 0.947715 11.0523 0.5 10.5 0.5Z" stroke="#949494" stroke-linecap="round" stroke-linejoin="round"/>
<path d="M8.5 5.5C9.05228 5.5 9.5 5.05228 9.5 4.5C9.5 3.94772 9.05228 3.5 8.5 3.5C7.94772 3.5 7.5 3.94772 7.5 4.5C7.5 5.05228 7.94772 5.5 8.5 5.5Z" stroke="#949494" stroke-linecap="round" stroke-linejoin="round"/>
<path d="M7.5 7.5L8.5 8.5L9.5 7.5" stroke="#949494" stroke-linecap="round" stroke-linejoin="round"/>
<path d="M10.5 12.5L8.5 10.5L6.5 12.5" stroke="#FF7C3F" stroke-linecap="round" stroke-linejoin="round"/>
<path d="M8.5 10.5V15.5" stroke="#FF7C3F" stroke-linecap="round" stroke-linejoin="round"/>
<path d="M8.5 16.5C9.05228 16.5 9.5 16.0523 9.5 15.5C9.5 14.9477 9.05228 14.5 8.5 14.5C7.94772 14.5 7.5 14.9477 7.5 15.5C7.5 16.0523 7.94772 16.5 8.5 16.5Z" stroke="#FF7C3F" stroke-linecap="round" stroke-linejoin="round"/>
<path d="M4.5 10.5L2.5 8.5L0.5 10.5" stroke="#FF7C3F" stroke-linecap="round" stroke-linejoin="round"/>
<path d="M2.5 8.5V15.5" stroke="#FF7C3F" stroke-linecap="round" stroke-linejoin="round"/>
<path d="M2.5 16.5C3.05228 16.5 3.5 16.0523 3.5 15.5C3.5 14.9477 3.05228 14.5 2.5 14.5C1.94772 14.5 1.5 14.9477 1.5 15.5C1.5 16.0523 1.94772 16.5 2.5 16.5Z" stroke="#FF7C3F" stroke-linecap="round" stroke-linejoin="round"/>
<path d="M16.5 10.5L14.5 8.5L12.5 10.5" stroke="#FF7C3F" stroke-linecap="round" stroke-linejoin="round"/>
<path d="M14.5 8.5V15.5" stroke="#FF7C3F" stroke-linecap="round" stroke-linejoin="round"/>
<path d="M14.5 16.5C15.0523 16.5 15.5 16.0523 15.5 15.5C15.5 14.9477 15.0523 14.5 14.5 14.5C13.9477 14.5 13.5 14.9477 13.5 15.5C13.5 16.0523 13.9477 16.5 14.5 16.5Z" stroke="#FF7C3F" stroke-linecap="round" stroke-linejoin="round"/>
</svg>
