<svg width="18" height="18" viewBox="0 0 18 18" fill="none" xmlns="http://www.w3.org/2000/svg">
<path d="M10 10H7V11H10V10Z" fill="#FF7C3F"/>
<path d="M10 16H7V17H10V16Z" fill="#FF7C3F"/>
<path d="M9 11H8V16H9V11Z" fill="#FF7C3F"/>
<path d="M0.5 3.5H5.5" stroke="#949494" stroke-linecap="square" stroke-linejoin="round"/>
<path d="M11.5 3.5H16.5" stroke="#949494" stroke-linecap="square" stroke-linejoin="round"/>
<path d="M10.5 0.5H6.5C5.94772 0.5 5.5 0.947715 5.5 1.5V6.5C5.5 7.05228 5.94772 7.5 6.5 7.5H10.5C11.0523 7.5 11.5 7.05228 11.5 6.5V1.5C11.5 0.947715 11.0523 0.5 10.5 0.5Z" stroke="#949494" stroke-linecap="round" stroke-linejoin="round"/>
<path d="M8.5 5.5C9.05228 5.5 9.5 5.05228 9.5 4.5C9.5 3.94772 9.05228 3.5 8.5 3.5C7.94772 3.5 7.5 3.94772 7.5 4.5C7.5 5.05228 7.94772 5.5 8.5 5.5Z" stroke="#949494" stroke-linecap="round" stroke-linejoin="round"/>
<path d="M7.5 7.5L8.5 8.5L9.5 7.5" stroke="#949494" stroke-linecap="round" stroke-linejoin="round"/>
<path d="M0.5 16.5H5.5" stroke="#949494" stroke-linecap="square" stroke-linejoin="round"/>
<path d="M11.5 16.5H16.5" stroke="#949494" stroke-linecap="square" stroke-linejoin="round"/>
</svg>
