<svg width="24" height="24" viewBox="0 0 24 24" fill="none" xmlns="http://www.w3.org/2000/svg">
<path d="M8.5 9.5H6.5L9.5 12.5L6.5 15.5H9.5V18.5L12.5 15.5L15.5 18.5V15.5H18.5L15.5 12.5L18.5 9.5H15.583L15.5 6.5L12.5 9.5L7.5 4.5V6.5H1.5V8.5L5.5 12.5L1.5 16.5V18.5H6.5V22.5H9.929L12.5 19.5L15.071 22.5H18.5V18.5H22.5V15.071L19.5 12.5L22.5 9.929V6.5H18.5V1.5H15.929L12.5 5.5L8.5 1.5H4.5V3.5H1.5" stroke="#FF7C3F" stroke-linecap="round" stroke-linejoin="round"/>
<path d="M20.5 1.5H3.5C2.39543 1.5 1.5 2.39543 1.5 3.5V20.5C1.5 21.6046 2.39543 22.5 3.5 22.5H20.5C21.6046 22.5 22.5 21.6046 22.5 20.5V3.5C22.5 2.39543 21.6046 1.5 20.5 1.5Z" stroke="#949494" stroke-linecap="round" stroke-linejoin="round"/>
</svg>
