<svg width="18" height="18" viewBox="0 0 18 18" fill="none" xmlns="http://www.w3.org/2000/svg">
<path d="M16.5 10.5H0.5V14.5H16.5V10.5Z" stroke="#FF7C3F" stroke-linecap="round" stroke-linejoin="round"/>
<path d="M0.5 16.5H16.5" stroke="#949494" stroke-linecap="square" stroke-linejoin="round"/>
<path d="M2.5 10.5V14.5" stroke="#FF7C3F" stroke-linecap="round" stroke-linejoin="round"/>
<path d="M4.5 10.5V14.5" stroke="#FF7C3F" stroke-linecap="round" stroke-linejoin="round"/>
<path d="M6.5 10.5V14.5" stroke="#FF7C3F" stroke-linecap="round" stroke-linejoin="round"/>
<path d="M8.5 10.5V14.5" stroke="#FF7C3F" stroke-linecap="round" stroke-linejoin="round"/>
<path d="M10.5 10.5V14.5" stroke="#FF7C3F" stroke-linecap="round" stroke-linejoin="round"/>
<path d="M12.5 10.5V14.5" stroke="#FF7C3F" stroke-linecap="round" stroke-linejoin="round"/>
<path d="M14.5 10.5V14.5" stroke="#FF7C3F" stroke-linecap="round" stroke-linejoin="round"/>
<path d="M1.5 0.5H15.5C15.7652 0.5 16.0196 0.605357 16.2071 0.792893C16.3946 0.98043 16.5 1.23478 16.5 1.5V10.5H0.5V1.5C0.5 1.23478 0.605357 0.98043 0.792893 0.792893C0.98043 0.605357 1.23478 0.5 1.5 0.5Z" stroke="#949494" stroke-linecap="round" stroke-linejoin="round"/>
</svg>
