<svg width="18" height="18" viewBox="0 0 18 18" fill="none" xmlns="http://www.w3.org/2000/svg">
<g clip-path="url(#clip0_79_13)">
<path d="M15.9402 5.06055C15.1902 4.31055 13.9702 4.31055 13.2202 5.06055L11.1802 7.10055C10.4302 7.85055 10.4302 9.07055 11.1802 9.82055C11.9302 10.5705 13.1502 10.5705 13.9002 9.82055L15.9402 7.78055C16.6902 7.03055 16.6902 5.81055 15.9402 5.06055Z" stroke="#FF7C3F" stroke-linecap="round" stroke-linejoin="round"/>
<path d="M9.82006 11.1797C9.07006 10.4297 7.85006 10.4297 7.10006 11.1797L5.06006 13.2197C4.31006 13.9697 4.31006 15.1897 5.06006 15.9397C5.81006 16.6897 7.03006 16.6897 7.78006 15.9397L9.82006 13.8997C10.5701 13.1497 10.5701 11.9297 9.82006 11.1797Z" stroke="#FF7C3F" stroke-linecap="round" stroke-linejoin="round"/>
<path d="M8 13L13 8" stroke="#FF7C3F" stroke-linecap="round" stroke-linejoin="round"/>
<path d="M0.5 2.5H1.5" stroke="#949494" stroke-linecap="square" stroke-linejoin="round"/>
<path d="M3.5 2.5H8.5" stroke="#949494" stroke-linecap="square" stroke-linejoin="round"/>
<path d="M2.83 0.5H2.17C1.79997 0.5 1.5 0.799969 1.5 1.17V3.83C1.5 4.20003 1.79997 4.5 2.17 4.5H2.83C3.20003 4.5 3.5 4.20003 3.5 3.83V1.17C3.5 0.799969 3.20003 0.5 2.83 0.5Z" stroke="#949494" stroke-linecap="square" stroke-linejoin="round"/>
<path d="M8.5 6.5H7.5" stroke="#949494" stroke-linecap="square" stroke-linejoin="round"/>
<path d="M5.5 6.5H0.5" stroke="#949494" stroke-linecap="square" stroke-linejoin="round"/>
<path d="M6.17 8.5H6.83C7.20003 8.5 7.5 8.20003 7.5 7.83V5.17C7.5 4.79997 7.20003 4.5 6.83 4.5H6.17C5.79997 4.5 5.5 4.79997 5.5 5.17V7.83C5.5 8.20003 5.79997 8.5 6.17 8.5Z" stroke="#949494" stroke-linecap="square" stroke-linejoin="round"/>
</g>
<defs>
<clipPath id="clip0_79_13">
<rect width="18" height="18" fill="white"/>
</clipPath>
</defs>
</svg>
