<svg width="18" height="18" viewBox="0 0 18 18" fill="none" xmlns="http://www.w3.org/2000/svg">
<path d="M15 16.5C15.8284 16.5 16.5 13.8137 16.5 10.5C16.5 7.18629 15.8284 4.5 15 4.5C14.1716 4.5 13.5 7.18629 13.5 10.5C13.5 13.8137 14.1716 16.5 15 16.5Z" stroke="#949494" stroke-linecap="round" stroke-linejoin="round"/>
<path d="M13 16.5C12.172 16.5 11.5 13.34 11.5 10.5C11.5 7.66 12.172 4.5 13 4.5" stroke="#FF7C3F" stroke-linecap="round" stroke-linejoin="round"/>
<path d="M11 16.5C10.172 16.5 9.5 13.34 9.5 10.5C9.5 7.66 10.172 4.5 11 4.5" stroke="#FF7C3F" stroke-linecap="round" stroke-linejoin="round"/>
<path d="M9 16.5C8.172 16.5 7.5 13.34 7.5 10.5C7.5 7.66 8.172 4.5 9 4.5" stroke="#949494" stroke-linecap="round" stroke-linejoin="round"/>
<path d="M6.73242 3.5C7.00042 1.809 7.46742 0.5 8.00042 0.5C8.41442 0.5 8.78942 1.29 9.06142 2.435" stroke="#949494" stroke-linecap="round" stroke-linejoin="round"/>
<path d="M6 12.5C5.172 12.5 4.5 9.34 4.5 6.5C4.5 3.66 5.172 0.5 6 0.5" stroke="#FF7C3F" stroke-linecap="round" stroke-linejoin="round"/>
<path d="M4 12.5C3.172 12.5 2.5 9.34 2.5 6.5C2.5 3.66 3.172 0.5 4 0.5" stroke="#FF7C3F" stroke-linecap="round" stroke-linejoin="round"/>
<path d="M2 12.5C1.172 12.5 0.5 9.34 0.5 6.5C0.5 3.66 1.172 0.5 2 0.5" stroke="#949494" stroke-linecap="round" stroke-linejoin="round"/>
<path d="M3.5 13.5C3.45408 14.2807 3.12327 15.0173 2.5703 15.5703C2.01733 16.1233 1.28066 16.4541 0.5 16.5H6.5" stroke="#FF7C3F" stroke-linecap="round" stroke-linejoin="round"/>
</svg>
