<svg width="18" height="18" viewBox="0 0 18 18" fill="none" xmlns="http://www.w3.org/2000/svg">
<path d="M4.5 5.5C2.5 6.5 2.5 6.5 0.5 5.5" stroke="#949494" stroke-linecap="round" stroke-linejoin="round"/>
<path d="M16.5 5.5C14.5 6.5 14.5 6.5 12.5 5.5" stroke="#949494" stroke-linecap="round" stroke-linejoin="round"/>
<path d="M12.5 0.5V5.5C9.92708 6.49997 7.07292 6.49997 4.5 5.5V0.5" stroke="#949494" stroke-linecap="round" stroke-linejoin="round"/>
<path d="M1.5 0.5H15.5C15.7652 0.5 16.0196 0.605357 16.2071 0.792893C16.3946 0.98043 16.5 1.23478 16.5 1.5V5.5L8.5 13.5L0.5 5.5V1.5C0.5 1.23478 0.605357 0.98043 0.792893 0.792893C0.98043 0.605357 1.23478 0.5 1.5 0.5Z" stroke="#949494" stroke-linecap="round" stroke-linejoin="round"/>
<path d="M17 17V14H16V17H17Z" fill="#FF7C3F"/>
<path d="M1 17V14H0V17H1Z" fill="#FF7C3F"/>
<path d="M16 16V15H1V16H16Z" fill="#FF7C3F"/>
</svg>
