<svg width="24" height="24" viewBox="0 0 24 24" fill="none" xmlns="http://www.w3.org/2000/svg">
<g opacity="0.75">
<path d="M1.5 10.5L10.5 1.5" stroke="#949494" stroke-linecap="round" stroke-linejoin="round"/>
<path d="M22.5 10.5L13.5 1.5" stroke="#949494" stroke-linecap="round" stroke-linejoin="round"/>
<path d="M13.5 22.5L22.5 13.5" stroke="#949494" stroke-linecap="round" stroke-linejoin="round"/>
<path d="M10.5 22.5L1.5 13.5" stroke="#949494" stroke-linecap="round" stroke-linejoin="round"/>
<path d="M21.5 2.5L2.5 21.5" stroke="#949494" stroke-linecap="round" stroke-linejoin="round"/>
<path d="M2.5 2.5L21.5 21.5" stroke="#949494" stroke-linecap="round" stroke-linejoin="round"/>
</g>
<path d="M4.5 10.5L1.5 7.5" stroke="#FF7C3F" stroke-linecap="round" stroke-linejoin="round"/>
<path d="M10.5 4.5L7.5 1.5" stroke="#FF7C3F" stroke-linecap="round" stroke-linejoin="round"/>
<path d="M13.5 4.5L16.5 1.5" stroke="#FF7C3F" stroke-linecap="round" stroke-linejoin="round"/>
<path d="M19.5 10.5L22.5 7.5" stroke="#FF7C3F" stroke-linecap="round" stroke-linejoin="round"/>
<path d="M19.5 13.5L22.5 16.5" stroke="#FF7C3F" stroke-linecap="round" stroke-linejoin="round"/>
<path d="M13.5 19.5L16.5 22.5" stroke="#FF7C3F" stroke-linecap="round" stroke-linejoin="round"/>
<path d="M10.5 19.5L7.5 22.5" stroke="#FF7C3F" stroke-linecap="round" stroke-linejoin="round"/>
<path d="M4.5 13.5L1.5 16.5" stroke="#FF7C3F" stroke-linecap="round" stroke-linejoin="round"/>
<path d="M7.5 10.5H4.5V13.5H7.5V10.5Z" stroke="#FF7C3F" stroke-linecap="round" stroke-linejoin="round"/>
<path d="M13.5 4.5H10.5V7.5H13.5V4.5Z" stroke="#FF7C3F" stroke-linecap="round" stroke-linejoin="round"/>
<path d="M19.5 10.5H16.5V13.5H19.5V10.5Z" stroke="#FF7C3F" stroke-linecap="round" stroke-linejoin="round"/>
<path d="M13.5 16.5H10.5V19.5H13.5V16.5Z" stroke="#FF7C3F" stroke-linecap="round" stroke-linejoin="round"/>
<path d="M7.5 10.5L10.5 7.5" stroke="#FF7C3F" stroke-linecap="round" stroke-linejoin="round"/>
<path d="M16.5 10.5L13.5 7.5" stroke="#FF7C3F" stroke-linecap="round" stroke-linejoin="round"/>
<path d="M16.5 13.5L13.5 16.5" stroke="#FF7C3F" stroke-linecap="round" stroke-linejoin="round"/>
<path d="M10.5 16.5L7.5 13.5" stroke="#FF7C3F" stroke-linecap="round" stroke-linejoin="round"/>
<path d="M20.5 1.5H3.5C2.39543 1.5 1.5 2.39543 1.5 3.5V20.5C1.5 21.6046 2.39543 22.5 3.5 22.5H20.5C21.6046 22.5 22.5 21.6046 22.5 20.5V3.5C22.5 2.39543 21.6046 1.5 20.5 1.5Z" stroke="#949494" stroke-linecap="round" stroke-linejoin="round"/>
</svg>
