<svg width="24" height="24" viewBox="0 0 24 24" fill="none" xmlns="http://www.w3.org/2000/svg">
<path d="M21.247 1.647L1.5 13.167M1.5 10.833L21.247 22.353M22.5 19.583L17.5 22.5M15.5 22.5V1.5M17.5 1.5L22.5 4.417M22.5 10.25L2.259 22.057M1.5 20.167L5.5 22.5M7.5 22.5V1.5M2.259 1.943L22.5 13.75M1.5 3.833L5.5 1.5" stroke="#FF7C3F" stroke-linecap="round" stroke-linejoin="round"/>
<path d="M20.5 1.5H3.5C2.39543 1.5 1.5 2.39543 1.5 3.5V20.5C1.5 21.6046 2.39543 22.5 3.5 22.5H20.5C21.6046 22.5 22.5 21.6046 22.5 20.5V3.5C22.5 2.39543 21.6046 1.5 20.5 1.5Z" stroke="#949494" stroke-linecap="round" stroke-linejoin="round"/>
</svg>
