<svg width="18" height="18" viewBox="0 0 18 18" fill="none" xmlns="http://www.w3.org/2000/svg">
<path d="M15.5 0.5H1.5C0.947715 0.5 0.5 0.947715 0.5 1.5V15.5C0.5 16.0523 0.947715 16.5 1.5 16.5H15.5C16.0523 16.5 16.5 16.0523 16.5 15.5V1.5C16.5 0.947715 16.0523 0.5 15.5 0.5Z" stroke="#949494" stroke-linecap="round" stroke-linejoin="round"/>
<path d="M6.5 2.5H14.5M6.5 4.5H10.5M6.5 7.5H14.5M6.5 9.5H10.5M6.5 14.5H10.5M6.5 12.5H14.5" stroke="#FF7C3F" stroke-linecap="square" stroke-linejoin="round"/>
<path d="M3.5 4.5C3.23478 4.5 2.98043 4.39464 2.79289 4.20711C2.60536 4.01957 2.5 3.76522 2.5 3.5C2.5 3.23478 2.60536 2.98043 2.79289 2.79289C2.98043 2.60536 3.23478 2.5 3.5 2.5C3.76522 2.5 4.01957 2.60536 4.20711 2.79289C4.39464 2.98043 4.5 3.23478 4.5 3.5C4.5 3.76522 4.39464 4.01957 4.20711 4.20711C4.01957 4.39464 3.76522 4.5 3.5 4.5ZM4.5 8.5C4.5 8.23478 4.39464 7.98043 4.20711 7.79289C4.01957 7.60536 3.76522 7.5 3.5 7.5C3.23478 7.5 2.98043 7.60536 2.79289 7.79289C2.60536 7.98043 2.5 8.23478 2.5 8.5C2.5 8.76522 2.60536 9.01957 2.79289 9.20711C2.98043 9.39464 3.23478 9.5 3.5 9.5C3.76522 9.5 4.01957 9.39464 4.20711 9.20711C4.39464 9.01957 4.5 8.76522 4.5 8.5ZM4.5 13.5C4.5 13.2348 4.39464 12.9804 4.20711 12.7929C4.01957 12.6054 3.76522 12.5 3.5 12.5C3.23478 12.5 2.98043 12.6054 2.79289 12.7929C2.60536 12.9804 2.5 13.2348 2.5 13.5C2.5 13.7652 2.60536 14.0196 2.79289 14.2071C2.98043 14.3946 3.23478 14.5 3.5 14.5C3.76522 14.5 4.01957 14.3946 4.20711 14.2071C4.39464 14.0196 4.5 13.7652 4.5 13.5Z" stroke="#FF7C3F" stroke-miterlimit="10"/>
</svg>
