<svg width="24" height="24" viewBox="0 0 24 24" fill="none" xmlns="http://www.w3.org/2000/svg">
<path d="M1.5 5.38678C3.94237 3.42498 7.0069 2.40336 10.1379 2.5072C13.2689 2.61104 16.259 3.83346 18.566 5.95278C19.4907 6.80014 20.229 7.83055 20.7341 8.97855C21.2393 10.1266 21.5001 11.3671 21.5001 12.6213C21.5001 13.8755 21.2393 15.116 20.7341 16.264C20.229 17.412 19.4907 18.4424 18.566 19.2898C17.021 20.7112 14.9983 21.5001 12.899 21.5001C10.7997 21.5001 8.77696 20.7112 7.232 19.2898C6.64018 18.7475 6.16762 18.088 5.84433 17.3532C5.52104 16.6185 5.3541 15.8245 5.3541 15.0218C5.3541 14.2191 5.52104 13.4251 5.84433 12.6903C6.16762 11.9556 6.64018 11.2961 7.232 10.7538C8.22086 9.84457 9.51518 9.33997 10.8585 9.33997C12.2018 9.33997 13.4961 9.84457 14.485 10.7538C14.8644 11.1005 15.1675 11.5224 15.3748 11.9927C15.5821 12.463 15.6892 12.9713 15.6892 13.4853C15.6892 13.9992 15.5821 14.5076 15.3748 14.9779C15.1675 15.4482 14.8644 15.8701 14.485 16.2168C13.8522 16.7989 13.0238 17.1221 12.164 17.1221C11.3042 17.1221 10.4758 16.7989 9.843 16.2168C9.59984 15.9947 9.40563 15.7244 9.27275 15.4231C9.13988 15.1218 9.07125 14.7961 9.07125 14.4668C9.07125 14.1375 9.13988 13.8118 9.27275 13.5105C9.40563 13.2092 9.59984 12.9389 9.843 12.7168C10.2486 12.3455 10.7786 12.1395 11.3285 12.1395C11.8784 12.1395 12.4084 12.3455 12.814 12.7168C12.9693 12.8589 13.0933 13.0318 13.1781 13.2244C13.2629 13.4171 13.3067 13.6253 13.3067 13.8358C13.3067 14.0463 13.2629 14.2545 13.1781 14.4471C13.0933 14.6398 12.9693 14.8127 12.814 14.9548C12.5553 15.1937 12.2161 15.3264 11.864 15.3264C11.5119 15.3264 11.1727 15.1937 10.914 14.9548" stroke="#FF7C3F" stroke-linecap="round" stroke-linejoin="round"/>
<path d="M20.5 1.5H3.5C2.39543 1.5 1.5 2.39543 1.5 3.5V20.5C1.5 21.6046 2.39543 22.5 3.5 22.5H20.5C21.6046 22.5 22.5 21.6046 22.5 20.5V3.5C22.5 2.39543 21.6046 1.5 20.5 1.5Z" stroke="#949494" stroke-linecap="round" stroke-linejoin="round"/>
</svg>
