<svg width="18" height="18" viewBox="0 0 18 18" fill="none" xmlns="http://www.w3.org/2000/svg">
<path d="M9.5 14.5H0.5" stroke="#949494" stroke-linecap="square" stroke-linejoin="round"/>
<path d="M2.0003 12.5L1.6943 12.005C1.56684 11.7738 1.5 11.514 1.5 11.25C1.5 10.986 1.56684 10.7262 1.6943 10.495L2.3063 9.505C2.43376 9.27377 2.50061 9.01403 2.50061 8.75C2.50061 8.48597 2.43376 8.22623 2.3063 7.995L2.0003 7.5L1.6943 7C1.56684 6.76877 1.5 6.50903 1.5 6.245C1.5 5.98097 1.56684 5.72123 1.6943 5.49L2.3063 4.5C2.43376 4.26877 2.50061 4.00903 2.50061 3.745C2.50061 3.48097 2.43376 3.22123 2.3063 2.99L2.0003 2.5" stroke="#949494" stroke-linecap="round" stroke-linejoin="round"/>
<path d="M7.0003 12.5L6.6943 12.005C6.56684 11.7738 6.5 11.514 6.5 11.25C6.5 10.986 6.56684 10.7262 6.6943 10.495L7.3063 9.505C7.43376 9.27377 7.50061 9.01403 7.50061 8.75C7.50061 8.48597 7.43376 8.22623 7.3063 7.995L7.0003 7.5L6.6943 7C6.56684 6.76877 6.5 6.50903 6.5 6.245C6.5 5.98097 6.56684 5.72123 6.6943 5.49L7.3063 4.5C7.43376 4.26877 7.50061 4.00903 7.50061 3.745C7.50061 3.48097 7.43376 3.22123 7.3063 2.99L7.0003 2.5" stroke="#949494" stroke-linecap="round" stroke-linejoin="round"/>
<path d="M11.5 1.5C11.5 1.23478 11.3946 0.98043 11.2071 0.792893C11.0196 0.605357 10.7652 0.5 10.5 0.5H0.5" stroke="#949494" stroke-linecap="square" stroke-linejoin="round"/>
<path d="M0.5 16.5H10.5C10.7652 16.5 11.0196 16.3946 11.2071 16.2071C11.3946 16.0196 11.5 15.7652 11.5 15.5V12.5" stroke="#949494" stroke-linecap="square" stroke-linejoin="round"/>
<path d="M16.5 9.5L15.906 8.887C15.7889 8.76467 15.6483 8.66732 15.4926 8.6008C15.3369 8.53429 15.1693 8.5 15 8.5C14.8307 8.5 14.6631 8.53429 14.5074 8.6008C14.3517 8.66732 14.2111 8.76467 14.094 8.887L12.906 10.113C12.7889 10.2353 12.6483 10.3327 12.4926 10.3992C12.3369 10.4657 12.1693 10.5 12 10.5C11.8307 10.5 11.6631 10.4657 11.5074 10.3992C11.3517 10.3327 11.2111 10.2353 11.094 10.113L10.5 9.5" stroke="#FF7C3F" stroke-linecap="round" stroke-linejoin="round"/>
<path d="M16.5 6.50001L15.906 5.88701C15.7889 5.76467 15.6483 5.66732 15.4926 5.6008C15.3369 5.53429 15.1693 5.5 15 5.5C14.8307 5.5 14.6631 5.53429 14.5074 5.6008C14.3517 5.66732 14.2111 5.76467 14.094 5.88701L12.906 7.11301C12.7889 7.23534 12.6483 7.33269 12.4926 7.39921C12.3369 7.46572 12.1693 7.50001 12 7.50001C11.8307 7.50001 11.6631 7.46572 11.5074 7.39921C11.3517 7.33269 11.2111 7.23534 11.094 7.11301L10.5 6.50001" stroke="#FF7C3F" stroke-linecap="round" stroke-linejoin="round"/>
<path d="M16.5 3.50001L15.906 2.88701C15.7889 2.76467 15.6483 2.66732 15.4926 2.6008C15.3369 2.53429 15.1693 2.5 15 2.5C14.8307 2.5 14.6631 2.53429 14.5074 2.6008C14.3517 2.66732 14.2111 2.76467 14.094 2.88701L12.906 4.11301C12.7889 4.23534 12.6483 4.33269 12.4926 4.39921C12.3369 4.46572 12.1693 4.50001 12 4.50001C11.8307 4.50001 11.6631 4.46572 11.5074 4.39921C11.3517 4.33269 11.2111 4.23534 11.094 4.11301L10.5 3.50001" stroke="#FF7C3F" stroke-linecap="round" stroke-linejoin="round"/>
</svg>
