<svg width="18" height="18" viewBox="0 0 18 18" fill="none" xmlns="http://www.w3.org/2000/svg">
<path d="M15.5 0.5H1.5C0.947715 0.5 0.5 0.947715 0.5 1.5V15.5C0.5 16.0523 0.947715 16.5 1.5 16.5H15.5C16.0523 16.5 16.5 16.0523 16.5 15.5V1.5C16.5 0.947715 16.0523 0.5 15.5 0.5Z" stroke="#949494" stroke-linecap="round" stroke-linejoin="round"/>
<path d="M7 5H5V4H7V5ZM7 6H5V7H7V6ZM7 8H5V9H7V8ZM7 10H5V11H7V10ZM7 2H5V3H7V2ZM7 12H5V13H7V12ZM7 14H5V15H7V14Z" fill="#FF7C3F"/>
<path d="M9 1H7V2H9V1Z" fill="#FF7C3F"/>
<path d="M9 5H7V6H9V5Z" fill="#FF7C3F"/>
<path d="M9 7H7V8H9V7Z" fill="#FF7C3F"/>
<path d="M9 9H7V10H9V9Z" fill="#FF7C3F"/>
<path d="M9 11H7V12H9V11Z" fill="#FF7C3F"/>
<path d="M9 3H7V4H9V3Z" fill="#FF7C3F"/>
<path d="M9 13H7V14H9V13Z" fill="#FF7C3F"/>
<path d="M9 15H7V16H9V15Z" fill="#FF7C3F"/>
</svg>
