<svg width="18" height="18" viewBox="0 0 18 18" fill="none" xmlns="http://www.w3.org/2000/svg">
<path d="M11.5 4.5H16.5" stroke="#FF7C3F" stroke-linecap="square" stroke-linejoin="round"/>
<path d="M0.5 6.5H16.5" stroke="#FF7C3F" stroke-linecap="square" stroke-linejoin="round"/>
<path d="M0.5 8.5H16.5" stroke="#FF7C3F" stroke-linecap="square" stroke-linejoin="round"/>
<path d="M0.5 10.5H16.5" stroke="#FF7C3F" stroke-linecap="square" stroke-linejoin="round"/>
<path d="M0.5 12.5H16.5" stroke="#FF7C3F" stroke-linecap="square" stroke-linejoin="round"/>
<path d="M15.5 16.5H1.5C1.23478 16.5 0.980429 16.3946 0.792892 16.2071C0.605356 16.0196 0.5 15.7652 0.5 15.5V14.5H16.5V15.5C16.5 15.7652 16.3946 16.0196 16.2071 16.2071C16.0196 16.3946 15.7652 16.5 15.5 16.5Z" stroke="#949494" stroke-linecap="round" stroke-linejoin="round"/>
<path d="M0.5 12.5V10.5" stroke="#FF7C3F" stroke-linecap="square" stroke-linejoin="round"/>
<path d="M16.5 10.5V8.5" stroke="#FF7C3F" stroke-linecap="square" stroke-linejoin="round"/>
<path d="M0.5 8.5V6.5" stroke="#FF7C3F" stroke-linecap="square" stroke-linejoin="round"/>
<path d="M16.5 6.5V4.5" stroke="#FF7C3F" stroke-linecap="square" stroke-linejoin="round"/>
<path opacity="0.25" d="M8 1H9V0H8V1Z" fill="#FF7C3F"/>
<path opacity="0.2" d="M6 1H7V0H6V1Z" fill="#FF7C3F"/>
<path opacity="0.15" d="M4 1H5V0H4V1Z" fill="#FF7C3F"/>
<path opacity="0.1" d="M2 1H3V0H2V1Z" fill="#FF7C3F"/>
<path opacity="0.05" d="M0 1H1V0H0V1Z" fill="#FF7C3F"/>
<path opacity="0.3" d="M10 1H11V0H10V1Z" fill="#FF7C3F"/>
<path opacity="0.35" d="M12 1H13V0H12V1Z" fill="#FF7C3F"/>
<path opacity="0.4" d="M14 1H15V0H14V1Z" fill="#FF7C3F"/>
<path opacity="0.45" d="M16 1H17V0H16V1Z" fill="#FF7C3F"/>
<path opacity="0.5" d="M16 3H17V2H16V3Z" fill="#FF7C3F"/>
<path opacity="0.55" d="M14 3H15V2H14V3Z" fill="#FF7C3F"/>
<path opacity="0.6" d="M12 3H13V2H12V3Z" fill="#FF7C3F"/>
<path opacity="0.65" d="M10 3H11V2H10V3Z" fill="#FF7C3F"/>
<path opacity="0.7" d="M8 3H9V2H8V3Z" fill="#FF7C3F"/>
<path opacity="0.75" d="M6 3H7V2H6V3Z" fill="#FF7C3F"/>
<path opacity="0.8" d="M4 3H5V2H4V3Z" fill="#FF7C3F"/>
<path opacity="0.85" d="M2 3H3V2H2V3Z" fill="#FF7C3F"/>
<path opacity="0.95" d="M0 5H1V4H0V5Z" fill="#FF7C3F"/>
<path opacity="0.9" d="M0 3H1V2H0V3Z" fill="#FF7C3F"/>
<path d="M2 5H3V4H2V5Z" fill="#FF7C3F"/>
<path d="M4 5H6V4H4V5Z" fill="#FF7C3F"/>
<path d="M7 5H10V4H7V5Z" fill="#FF7C3F"/>
</svg>
