<svg width="18" height="18" viewBox="0 0 18 18" fill="none" xmlns="http://www.w3.org/2000/svg">
<path d="M9.5 3.5L7.5 13.5" stroke="#FF7C3F" stroke-linecap="round" stroke-linejoin="round"/>
<path d="M12.5 12.5L16.5 8.5L12.5 4.5" stroke="#FF7C3F" stroke-linecap="round" stroke-linejoin="round"/>
<path d="M4.5 4.5L0.5 8.5L4.5 12.5" stroke="#FF7C3F" stroke-linecap="round" stroke-linejoin="round"/>
<path d="M0.5 13.5V15.5C0.5 15.7652 0.605357 16.0196 0.792893 16.2071C0.98043 16.3946 1.23478 16.5 1.5 16.5H15.5C15.7652 16.5 16.0196 16.3946 16.2071 16.2071C16.3946 16.0196 16.5 15.7652 16.5 15.5V13.5" stroke="#949494" stroke-linecap="round" stroke-linejoin="round"/>
<path d="M16.5 3.5V1.5C16.5 1.23478 16.3946 0.98043 16.2071 0.792893C16.0196 0.605357 15.7652 0.5 15.5 0.5H1.5C1.23478 0.5 0.98043 0.605357 0.792893 0.792893C0.605357 0.98043 0.5 1.23478 0.5 1.5V3.5" stroke="#949494" stroke-linecap="round" stroke-linejoin="round"/>
</svg>
