<svg width="24" height="24" viewBox="0 0 24 24" fill="none" xmlns="http://www.w3.org/2000/svg">
<path d="M7.5 22.5V19.5M7.5 19.5L11.5 17.5M7.5 19.5L3.5 17.5M11.5 17.5V12.5M11.5 17.5L15.384 19.442M3.5 17.5V12.5M3.5 17.5L1.5 18.5M11.5 12.5L7.5 10.5M11.5 12.5L15.5 10.5M7.5 10.5V5.5M7.5 10.5L3.5 12.5M15.5 10.5V5.5M15.5 10.5L19.5 12.5M7.5 5.5L11.5 3.5M7.5 5.5L3.5 3.5M3.5 12.5L1.5 11.5M11.5 3.5V1.5M11.5 3.5L15.5 5.5M3.5 3.5V1.5M3.5 3.5L1.5 4.5M15.5 5.5L19.5 3.5M19.5 1.5V3.5M19.5 3.5L22.5 5M19.5 12.5V17.5M19.5 12.5L22.5 11M19.5 17.5L15.5 19.5V22.5M19.5 17.5L22.5 19" stroke="#FF7C3F" stroke-linecap="round" stroke-linejoin="round"/>
<path d="M20.5 1.5H3.5C2.39543 1.5 1.5 2.39543 1.5 3.5V20.5C1.5 21.6046 2.39543 22.5 3.5 22.5H20.5C21.6046 22.5 22.5 21.6046 22.5 20.5V3.5C22.5 2.39543 21.6046 1.5 20.5 1.5Z" stroke="#949494" stroke-linecap="round" stroke-linejoin="round"/>
</svg>
