<svg width="18" height="18" viewBox="0 0 18 18" fill="none" xmlns="http://www.w3.org/2000/svg">
<path d="M9.5 6.5H7.5C6.94772 6.5 6.5 6.94772 6.5 7.5V9.5C6.5 10.0523 6.94772 10.5 7.5 10.5H9.5C10.0523 10.5 10.5 10.0523 10.5 9.5V7.5C10.5 6.94772 10.0523 6.5 9.5 6.5Z" stroke="#949494" stroke-linecap="round" stroke-linejoin="round"/>
<path d="M2.5 5.5V3.5C2.5 3.23478 2.60536 2.98043 2.79289 2.79289C2.98043 2.60536 3.23478 2.5 3.5 2.5H5.5" stroke="#FF7C3F" stroke-linecap="round" stroke-linejoin="round"/>
<path d="M4.5 6.5V5.5C4.5 5.23478 4.60536 4.98043 4.79289 4.79289C4.98043 4.60536 5.23478 4.5 5.5 4.5H7.5" stroke="#FF7C3F" stroke-linecap="round" stroke-linejoin="round"/>
<path d="M0.5 3.5V1.5C0.5 1.23478 0.605357 0.98043 0.792893 0.792893C0.98043 0.605357 1.23478 0.5 1.5 0.5H3.5" stroke="#FF7C3F" stroke-linecap="round" stroke-linejoin="round"/>
<path d="M16.5 13.5V15.5C16.5 15.7652 16.3946 16.0196 16.2071 16.2071C16.0196 16.3946 15.7652 16.5 15.5 16.5H13.5" stroke="#FF7C3F" stroke-linecap="round" stroke-linejoin="round"/>
<path d="M14.5 11.5V13.5C14.5 13.7652 14.3946 14.0196 14.2071 14.2071C14.0196 14.3946 13.7652 14.5 13.5 14.5H11.5" stroke="#FF7C3F" stroke-linecap="round" stroke-linejoin="round"/>
<path d="M12.5 10.5V11.5C12.5 11.7652 12.3946 12.0196 12.2071 12.2071C12.0196 12.3946 11.7652 12.5 11.5 12.5H9.5" stroke="#FF7C3F" stroke-linecap="round" stroke-linejoin="round"/>
<path d="M6.5 8.5H0.5" stroke="#949494" stroke-linecap="square" stroke-linejoin="round"/>
<path d="M10.5 8.5H16.5" stroke="#949494" stroke-linecap="square" stroke-linejoin="round"/>
<path d="M0.5 12.5V14.5C0.5 15.0304 0.710714 15.5391 1.08579 15.9142C1.46086 16.2893 1.96957 16.5 2.5 16.5H9.5" stroke="#949494" stroke-linecap="round" stroke-linejoin="round"/>
<path d="M16.5 4.5V2.5C16.5 1.96957 16.2893 1.46086 15.9142 1.08579C15.5391 0.710714 15.0304 0.5 14.5 0.5H7.5" stroke="#949494" stroke-linecap="round" stroke-linejoin="round"/>
</svg>
