<svg width="18" height="18" viewBox="0 0 18 18" fill="none" xmlns="http://www.w3.org/2000/svg">
<path d="M8.5 2.5V3.5" stroke="#949494" stroke-linecap="round" stroke-linejoin="round"/>
<path d="M5.5 3.30469L6 4.17069" stroke="#949494" stroke-linecap="round" stroke-linejoin="round"/>
<path d="M3.30469 5.5L4.17069 6" stroke="#949494" stroke-linecap="round" stroke-linejoin="round"/>
<path d="M8.5 8.5L13.696 11.5" stroke="#FF7C3F" stroke-linecap="square" stroke-linejoin="round"/>
<path d="M2.5 8.5H3.5" stroke="#949494" stroke-linecap="round" stroke-linejoin="round"/>
<path d="M13.5 8.5H14.5" stroke="#949494" stroke-linecap="round" stroke-linejoin="round"/>
<path d="M3.30469 11.5L4.17069 11" stroke="#949494" stroke-linecap="round" stroke-linejoin="round"/>
<path d="M12.8301 6L13.6961 5.5" stroke="#949494" stroke-linecap="round" stroke-linejoin="round"/>
<path d="M11 4.17069L11.5 3.30469" stroke="#949494" stroke-linecap="round" stroke-linejoin="round"/>
<path d="M8.5 10C9.32843 10 10 9.32843 10 8.5C10 7.67157 9.32843 7 8.5 7C7.67157 7 7 7.67157 7 8.5C7 9.32843 7.67157 10 8.5 10Z" fill="#FF7C3F"/>
<path d="M8.5 16.5C12.9183 16.5 16.5 12.9183 16.5 8.5C16.5 4.08172 12.9183 0.5 8.5 0.5C4.08172 0.5 0.5 4.08172 0.5 8.5C0.5 12.9183 4.08172 16.5 8.5 16.5Z" stroke="#949494" stroke-linecap="round" stroke-linejoin="round"/>
<path opacity="0.5" d="M6.5 13.5H10.5" stroke="#949494" stroke-linecap="square" stroke-linejoin="round"/>
</svg>
