<svg width="18" height="18" viewBox="0 0 18 18" fill="none" xmlns="http://www.w3.org/2000/svg">
<path d="M0.5 4.5H4.5" stroke="#949494" stroke-linecap="square" stroke-linejoin="round"/>
<path d="M12.5 4.5H16.5" stroke="#949494" stroke-linecap="square" stroke-linejoin="round"/>
<path d="M11.5 0.5H5.5C4.94772 0.5 4.5 0.947715 4.5 1.5V12.5C4.5 13.0523 4.94772 13.5 5.5 13.5H11.5C12.0523 13.5 12.5 13.0523 12.5 12.5V1.5C12.5 0.947715 12.0523 0.5 11.5 0.5Z" stroke="#949494" stroke-linecap="round" stroke-linejoin="round"/>
<path d="M8.5 9.5C9.60457 9.5 10.5 8.60457 10.5 7.5C10.5 6.39543 9.60457 5.5 8.5 5.5C7.39543 5.5 6.5 6.39543 6.5 7.5C6.5 8.60457 7.39543 9.5 8.5 9.5Z" stroke="#949494" stroke-linecap="round" stroke-linejoin="round"/>
<path d="M6.5 13.5L8.5 16.5L10.5 13.5" stroke="#949494" stroke-linecap="round" stroke-linejoin="round"/>
<path d="M2.5 6.5V13.5" stroke="#FF7C3F" stroke-linecap="round" stroke-linejoin="round"/>
<path d="M14.5 6.5V13.5" stroke="#FF7C3F" stroke-linecap="round" stroke-linejoin="round"/>
<path d="M2.5 2.5V0.5" stroke="#FF7C3F" stroke-linecap="round" stroke-linejoin="round"/>
<path d="M14.5 0.5V2.5" stroke="#FF7C3F" stroke-linecap="round" stroke-linejoin="round"/>
<path d="M2.5 13.5L5.5 16.5" stroke="#FF7C3F" stroke-linecap="round" stroke-linejoin="round"/>
<path d="M14.5 13.5L11.5 16.5" stroke="#FF7C3F" stroke-linecap="round" stroke-linejoin="round"/>
<path d="M1 2H0V3H1V2Z" fill="#FF7C3F"/>
<path d="M17 2H16V3H17V2Z" fill="#FF7C3F"/>
<path d="M1 6H0V7H1V6Z" fill="#FF7C3F"/>
<path d="M1 8H0V9H1V8Z" fill="#FF7C3F"/>
<path d="M1 10H0V11H1V10Z" fill="#FF7C3F"/>
<path d="M1 12H0V13H1V12Z" fill="#FF7C3F"/>
<path d="M1 14H0V15H1V14Z" fill="#FF7C3F"/>
<path d="M3 16H2V17H3V16Z" fill="#FF7C3F"/>
<path d="M2 15H1V16H2V15Z" fill="#FF7C3F"/>
<path d="M17 6H16V7H17V6Z" fill="#FF7C3F"/>
<path d="M17 8H16V9H17V8Z" fill="#FF7C3F"/>
<path d="M17 10H16V11H17V10Z" fill="#FF7C3F"/>
<path d="M17 12H16V13H17V12Z" fill="#FF7C3F"/>
<path d="M17 14H16V15H17V14Z" fill="#FF7C3F"/>
<path d="M15 16H14V17H15V16Z" fill="#FF7C3F"/>
<path d="M16 15H15V16H16V15Z" fill="#FF7C3F"/>
</svg>
