<svg width="18" height="18" viewBox="0 0 18 18" fill="none" xmlns="http://www.w3.org/2000/svg">
<path d="M0.5 7.50001L1.094 8.11301C1.21107 8.23534 1.35169 8.33269 1.5074 8.39921C1.66311 8.46572 1.83068 8.50001 2 8.50001C2.16932 8.50001 2.33689 8.46572 2.4926 8.39921C2.64831 8.33269 2.78893 8.23534 2.906 8.11301L4.094 6.88701C4.21107 6.76467 4.35169 6.66732 4.5074 6.6008C4.66311 6.53429 4.83068 6.5 5 6.5C5.16932 6.5 5.33689 6.53429 5.4926 6.6008C5.64831 6.66732 5.78893 6.76467 5.906 6.88701L6.5 7.50001" stroke="#FF7C3F" stroke-linecap="round" stroke-linejoin="round"/>
<path d="M0.5 10.5L1.094 11.113C1.21107 11.2353 1.35169 11.3327 1.5074 11.3992C1.66311 11.4657 1.83068 11.5 2 11.5C2.16932 11.5 2.33689 11.4657 2.4926 11.3992C2.64831 11.3327 2.78893 11.2353 2.906 11.113L4.094 9.887C4.21107 9.76467 4.35169 9.66732 4.5074 9.6008C4.66311 9.53429 4.83068 9.5 5 9.5C5.16932 9.5 5.33689 9.53429 5.4926 9.6008C5.64831 9.66732 5.78893 9.76467 5.906 9.887L6.5 10.5" stroke="#FF7C3F" stroke-linecap="round" stroke-linejoin="round"/>
<path d="M0.5 13.5L1.094 14.113C1.21107 14.2353 1.35169 14.3327 1.5074 14.3992C1.66311 14.4657 1.83068 14.5 2 14.5C2.16932 14.5 2.33689 14.4657 2.4926 14.3992C2.64831 14.3327 2.78893 14.2353 2.906 14.113L4.094 12.887C4.21107 12.7647 4.35169 12.6673 4.5074 12.6008C4.66311 12.5343 4.83068 12.5 5 12.5C5.16932 12.5 5.33689 12.5343 5.4926 12.6008C5.64831 12.6673 5.78893 12.7647 5.906 12.887L6.5 13.5" stroke="#FF7C3F" stroke-linecap="round" stroke-linejoin="round"/>
<path d="M8 14.5H17" stroke="#949494" stroke-linejoin="round"/>
<path d="M8 12.5H17" stroke="#949494" stroke-linejoin="round"/>
<path d="M8 10.5H17" stroke="#949494" stroke-linejoin="round"/>
<path d="M8 16.5H17" stroke="#949494" stroke-linejoin="round"/>
<path d="M0.5 3.5H9.5" stroke="#949494" stroke-linecap="square" stroke-linejoin="round"/>
<path d="M15.5 3.5H16.5" stroke="#949494" stroke-linecap="square" stroke-linejoin="round"/>
<path d="M14.5 0.5H10.5C9.94772 0.5 9.5 0.947715 9.5 1.5V6.5C9.5 7.05228 9.94772 7.5 10.5 7.5H14.5C15.0523 7.5 15.5 7.05228 15.5 6.5V1.5C15.5 0.947715 15.0523 0.5 14.5 0.5Z" stroke="#949494" stroke-linecap="round" stroke-linejoin="round"/>
<path d="M12.5 5.5C13.0523 5.5 13.5 5.05228 13.5 4.5C13.5 3.94772 13.0523 3.5 12.5 3.5C11.9477 3.5 11.5 3.94772 11.5 4.5C11.5 5.05228 11.9477 5.5 12.5 5.5Z" stroke="#949494" stroke-linecap="round" stroke-linejoin="round"/>
<path d="M11.5 7.5L12.5 8.5L13.5 7.5" stroke="#949494" stroke-linecap="round" stroke-linejoin="round"/>
</svg>
