<svg width="18" height="18" viewBox="0 0 18 18" fill="none" xmlns="http://www.w3.org/2000/svg">
<path d="M0.5 5.50001L1.094 6.11301C1.21107 6.23534 1.35169 6.33269 1.5074 6.39921C1.66311 6.46572 1.83068 6.50001 2 6.50001C2.16932 6.50001 2.33689 6.46572 2.4926 6.39921C2.64831 6.33269 2.78893 6.23534 2.906 6.11301L4.094 4.88701C4.21107 4.76467 4.35169 4.66732 4.5074 4.6008C4.66311 4.53429 4.83068 4.5 5 4.5C5.16932 4.5 5.33689 4.53429 5.4926 4.6008C5.64831 4.66732 5.78893 4.76467 5.906 4.88701L6.5 5.50001" stroke="#FF7C3F" stroke-linecap="round" stroke-linejoin="round"/>
<path d="M0.5 8.50001L1.094 9.11301C1.21107 9.23534 1.35169 9.33269 1.5074 9.39921C1.66311 9.46572 1.83068 9.50001 2 9.50001C2.16932 9.50001 2.33689 9.46572 2.4926 9.39921C2.64831 9.33269 2.78893 9.23534 2.906 9.11301L4.094 7.88701C4.21107 7.76467 4.35169 7.66732 4.5074 7.6008C4.66311 7.53429 4.83068 7.5 5 7.5C5.16932 7.5 5.33689 7.53429 5.4926 7.6008C5.64831 7.66732 5.78893 7.76467 5.906 7.88701L6.5 8.50001" stroke="#FF7C3F" stroke-linecap="round" stroke-linejoin="round"/>
<path d="M0.5 11.5L1.094 12.113C1.21107 12.2353 1.35169 12.3327 1.5074 12.3992C1.66311 12.4657 1.83068 12.5 2 12.5C2.16932 12.5 2.33689 12.4657 2.4926 12.3992C2.64831 12.3327 2.78893 12.2353 2.906 12.113L4.094 10.887C4.21107 10.7647 4.35169 10.6673 4.5074 10.6008C4.66311 10.5343 4.83068 10.5 5 10.5C5.16932 10.5 5.33689 10.5343 5.4926 10.6008C5.64831 10.6673 5.78893 10.7647 5.906 10.887L6.5 11.5" stroke="#FF7C3F" stroke-linecap="round" stroke-linejoin="round"/>
<path d="M14 4.5H17" stroke="#FF7C3F" stroke-linejoin="round"/>
<path d="M8 4.5H11" stroke="#FF7C3F" stroke-linejoin="round"/>
<path d="M12.5 0V3" stroke="#FF7C3F" stroke-linejoin="round"/>
<path d="M12.5 6V9" stroke="#FF7C3F" stroke-linejoin="round"/>
<path d="M8 14.5H17" stroke="#949494" stroke-linejoin="round"/>
<path d="M8 12.5H17" stroke="#949494" stroke-linejoin="round"/>
<path d="M8 10.5H17" stroke="#FF7C3F" stroke-linejoin="round"/>
<path d="M8 16.5H17" stroke="#949494" stroke-linejoin="round"/>
<path d="M12.5 7.5C14.1569 7.5 15.5 6.15685 15.5 4.5C15.5 2.84315 14.1569 1.5 12.5 1.5C10.8431 1.5 9.5 2.84315 9.5 4.5C9.5 6.15685 10.8431 7.5 12.5 7.5Z" stroke="#FF7C3F" stroke-linejoin="round"/>
<path d="M12.5 5C12.7761 5 13 4.77614 13 4.5C13 4.22386 12.7761 4 12.5 4C12.2239 4 12 4.22386 12 4.5C12 4.77614 12.2239 5 12.5 5Z" fill="#FF7C3F"/>
</svg>
