<svg width="18" height="18" viewBox="0 0 18 18" fill="none" xmlns="http://www.w3.org/2000/svg">
<path d="M1.00026 16.5L1.30626 15.708C1.56528 14.9235 1.56528 14.0765 1.30626 13.292L0.694265 11.708C0.435245 10.9235 0.435245 10.0765 0.694265 9.292L1.30626 7.708C1.56528 6.92349 1.56528 6.07651 1.30626 5.292L0.694265 3.708C0.435245 2.92349 0.435245 2.07651 0.694265 1.292L1.00026 0.5" stroke="#949494" stroke-linecap="round" stroke-linejoin="round"/>
<path d="M6.00079 16.501L6.30679 15.952C6.43493 15.6912 6.50157 15.4046 6.50157 15.114C6.50157 14.8234 6.43493 14.5368 6.30679 14.276L5.69479 13.176C5.56664 12.9152 5.5 12.6286 5.5 12.338C5.5 12.0474 5.56664 11.7608 5.69479 11.5" stroke="#949494" stroke-linecap="round" stroke-linejoin="round"/>
<path d="M11.0008 16.501L11.3068 15.952C11.4349 15.6912 11.5016 15.4046 11.5016 15.114C11.5016 14.8234 11.4349 14.5368 11.3068 14.276L10.6948 13.176C10.5666 12.9152 10.5 12.6286 10.5 12.338C10.5 12.0474 10.5666 11.7608 10.6948 11.5" stroke="#949494" stroke-linecap="round" stroke-linejoin="round"/>
<path d="M16.0003 16.5L16.3063 15.708C16.5653 14.9235 16.5653 14.0765 16.3063 13.292L15.6943 11.708C15.4352 10.9235 15.4352 10.0765 15.6943 9.292L16.3063 7.708C16.5653 6.92349 16.5653 6.07651 16.3063 5.292L15.6943 3.708C15.4352 2.92349 15.4352 2.07651 15.6943 1.292L16.0003 0.5" stroke="#949494" stroke-linecap="round" stroke-linejoin="round"/>
<path d="M5.5 4.5C4.5 5.5 4.5 5.5 3.5 4.5" stroke="#FF7C3F" stroke-linecap="round" stroke-linejoin="round"/>
<path d="M13.5 4.5C12.5 5.5 12.5 5.5 11.5 4.5" stroke="#FF7C3F" stroke-linecap="round" stroke-linejoin="round"/>
<path d="M11.5 0.5V4.5C10.5767 4.99242 9.5464 5.25 8.5 5.25C7.4536 5.25 6.42329 4.99242 5.5 4.5V0.5" stroke="#FF7C3F" stroke-linecap="round" stroke-linejoin="round"/>
<path d="M3.5 0.5H13.5V4.5L8.5 9.5L3.5 4.5V0.5Z" stroke="#FF7C3F" stroke-linecap="round" stroke-linejoin="round"/>
</svg>
