<svg width="16" height="16" viewBox="0 0 16 16" fill="none" xmlns="http://www.w3.org/2000/svg">
<path d="M13.3101 8.1599C14.1401 8.9899 14.7501 10.2299 14.3601 10.6199C13.9701 11.0099 12.7301 10.3999 11.9001 9.5699C11.0701 8.7399 10.4601 7.4999 10.8501 7.1099C11.2401 6.7199 12.4801 7.3299 13.3101 8.1599Z" stroke="#FF7C3F" stroke-linecap="round" stroke-linejoin="round"/>
<path d="M10.9099 7.05005L6.6099 11.35C6.2199 11.74 6.8299 12.98 7.6599 13.81C8.4899 14.64 9.7299 15.25 10.1199 14.86L10.1499 14.89L14.4199 10.56" stroke="#FF7C3F" stroke-linecap="round" stroke-linejoin="round"/>
<path d="M1.65993 1.55007C2.40993 0.800066 3.51993 0.260066 3.86993 0.610066C4.21993 0.960066 3.67993 2.07007 2.92993 2.82007C2.17993 3.57007 1.06993 4.11007 0.719929 3.76007C0.369929 3.41007 0.909929 2.30007 1.65993 1.55007Z" stroke="#FF7C3F" stroke-linecap="round" stroke-linejoin="round"/>
<path d="M0.669922 3.70006L4.52992 7.56006C4.87992 7.91006 5.98992 7.37006 6.73992 6.62006C7.48992 5.87006 8.02992 4.76006 7.67992 4.41006L7.70992 4.38006L3.80992 0.560059" stroke="#FF7C3F" stroke-linecap="round" stroke-linejoin="round"/>
<path d="M8.5 0.5L9.5 1.5" stroke="#949494" stroke-linecap="round" stroke-linejoin="round"/>
<path d="M10.5 4.5L11.5 3.5" stroke="#949494" stroke-linecap="round" stroke-linejoin="round"/>
<path d="M13.5 1.5L14.5 2.5" stroke="#949494" stroke-linecap="round" stroke-linejoin="round"/>
<path d="M1.5 8.5L0.5 9.5" stroke="#949494" stroke-linecap="round" stroke-linejoin="round"/>
<path d="M3.5 10.5L4.5 11.5" stroke="#949494" stroke-linecap="round" stroke-linejoin="round"/>
<path d="M4.5 14.5H5.5" stroke="#949494" stroke-linecap="round" stroke-linejoin="round"/>
<path d="M0.5 13.5L1.5 14.5" stroke="#949494" stroke-linecap="round" stroke-linejoin="round"/>
<path d="M14.5 4.5V5.5" stroke="#949494" stroke-linecap="round" stroke-linejoin="round"/>
<path d="M1.5 12C1.77614 12 2 11.7761 2 11.5C2 11.2239 1.77614 11 1.5 11C1.22386 11 1 11.2239 1 11.5C1 11.7761 1.22386 12 1.5 12Z" fill="#949494"/>
<path d="M0.5 7C0.776142 7 1 6.77614 1 6.5C1 6.22386 0.776142 6 0.5 6C0.223858 6 0 6.22386 0 6.5C0 6.77614 0.223858 7 0.5 7Z" fill="#949494"/>
<path d="M11.5 1C11.7761 1 12 0.776142 12 0.5C12 0.223858 11.7761 0 11.5 0C11.2239 0 11 0.223858 11 0.5C11 0.776142 11.2239 1 11.5 1Z" fill="#949494"/>
<path d="M14.5 15C14.7761 15 15 14.7761 15 14.5C15 14.2239 14.7761 14 14.5 14C14.2239 14 14 14.2239 14 14.5C14 14.7761 14.2239 15 14.5 15Z" fill="#949494"/>
</svg>
