<svg width="20" height="20" viewBox="0 0 20 20" fill="#FF9797" xmlns="http://www.w3.org/2000/svg">
<path d="M18 2V10.1297V18H2V10.1297V2H18Z" stroke="white" stroke-linejoin="round"/>
<path d="M16 4V10.0973V16H4V10.0973V4H16Z" stroke="white" stroke-linejoin="round"/>
<path d="M6.2 14C6.2 14 7 13.613 7 12.8333C7 12.0536 6 11.7797 6 11C6 10.2203 7 9.95252 7 9.16667C7 8.38082 6.2 8 6.2 8" stroke="#FF7C3F" stroke-miterlimit="10" stroke-linecap="round"/>
<path d="M9.7 14C9.7 14 10.5 13.613 10.5 12.8333C10.5 12.0536 9.5 11.7797 9.5 11C9.5 10.2203 10.5 9.95252 10.5 9.16667C10.5 8.38082 9.7 8 9.7 8" stroke="#FF7C3F" stroke-miterlimit="10" stroke-linecap="round"/>
<path d="M13.2 14C13.2 14 14 13.613 14 12.8333C14 12.0536 13 11.7797 13 11C13 10.2203 14 9.95252 14 9.16667C14 8.38082 13.2 8 13.2 8" stroke="#FF7C3F" stroke-miterlimit="10" stroke-linecap="round"/>
</svg>
