<svg width="1024" height="1024" viewBox="0 0 1024 1024" fill="none" xmlns="http://www.w3.org/2000/svg">
<g clip-path="url(#clip0_10705_16231)">
<path d="M1024 0H0V1024H1024V0Z" fill="url(#paint0_linear_10705_16231)"/>
<path d="M883.809 351.865C883.809 337.9 872.531 326.495 858.461 326.495H747.416C772.881 296.121 833.112 224.2 854.042 199.179C863.112 187.774 855.089 170.667 840.322 170.667H477.187C453.234 170.667 417.653 190.334 397.537 214.308C184.4 468.824 170.563 485.233 170.563 485.233C162.656 495.707 169.168 512 183.353 512C204.981 512 269.515 512 269.515 512L144.982 660.148C133.238 676.208 144.4 698.785 164.168 699.483H276.957L184.051 810.39C169.749 826.218 169.284 828.661 168.819 829.825C164.4 840.765 172.074 852.868 183.818 853.333H548.232C572.186 853.333 607.883 834.364 627.999 810.39C627.999 810.39 852.414 542.607 855.321 538.65C861.949 529.922 857.763 516.306 846.601 512.698C842.066 511.302 844.624 512.233 757.183 511.884C759.741 508.741 873.344 373.512 876.716 369.438C881.368 364.551 883.809 358.266 883.809 351.749V351.865ZM206.958 488.492C203.469 488.026 202.19 483.72 204.516 481.393L415.443 229.437C432.652 208.838 462.303 194.175 477.071 194.175H822.066C824.275 194.175 825.089 196.619 824.275 197.899C824.159 198.015 716.602 326.495 716.602 326.495H477.071C462.768 326.495 445.21 331.499 427.885 340.81C410.909 349.887 395.56 361.99 384.514 375.141L289.166 488.492C201.26 488.492 207.074 488.492 206.725 488.492H206.958ZM475.326 488.492C492.07 471.268 519.744 455.906 537.419 455.906H608.232C590.092 476.04 562.069 488.492 548.232 488.492H475.326ZM693.579 535.508C691.486 537.952 657.998 581.361 621.138 581.361H406.723L445.094 535.508H693.579ZM537.419 422.273C506.838 422.273 467.071 445.782 445.094 471.966C431.49 488.957 431.955 488.492 431.955 488.492H333.235L410.327 396.787C429.048 374.443 460.559 360.128 477.071 360.128H688.463L636.371 422.273H537.302H537.419ZM189.4 665.85C187.191 665.734 186.028 663.057 187.656 661.428L196.842 650.488L313.235 512H412.071L338.119 600.214L283.12 665.85H189.4ZM822.182 535.508C823.694 535.508 825.903 537.37 823.81 539.93C835.438 526.198 609.976 795.261 609.976 795.261C592.418 816.209 562.651 829.825 548.232 829.825H203.586C201.725 829.592 200.795 827.498 201.725 825.985C201.725 825.985 362.421 634.196 378.467 614.994H621.022C655.208 614.994 693.579 587.645 712.184 565.533L737.3 535.508H822.066H822.182ZM836.601 365.132C749.044 469.522 752.416 465.449 713.347 512H601.836C617.069 503.155 630.906 491.867 641.022 479.88L741.253 360.128H835.438C836.136 360.128 839.856 361.059 836.601 365.132Z" fill="white"/>
</g>
<defs>
<linearGradient id="paint0_linear_10705_16231" x1="1350.1" y1="1414.1" x2="-82.2857" y2="-210.286" gradientUnits="userSpaceOnUse">
<stop/>
<stop offset="1" stop-color="#3B3B3B"/>
</linearGradient>
<clipPath id="clip0_10705_16231">
<rect width="1024" height="1024" rx="100" fill="white"/>
</clipPath>
</defs>
</svg>
