<svg width="768" height="722" viewBox="0 0 768 722" fill="none" xmlns="http://www.w3.org/2000/svg">
<g clip-path="url(#clip0_10670_21882)">
<path d="M768 0H0V722H768V0Z" fill="url(#paint0_linear_10670_21882)"/>
<path d="M755.809 200.865C755.809 186.9 744.531 175.495 730.461 175.495H619.416C644.881 145.121 705.112 73.1998 726.042 48.1788C735.112 36.7739 727.089 19.6665 712.322 19.6665H349.187C325.234 19.6665 289.653 39.3341 269.537 63.3078C56.3999 317.824 42.5628 334.233 42.5628 334.233C34.656 344.707 41.1675 361 55.3534 361C76.981 361 141.515 361 141.515 361L16.9818 509.148C5.23774 525.208 16.4004 547.785 36.1676 548.483H148.957L56.051 659.39C41.7489 675.218 41.2838 677.661 40.8187 678.825C36.4001 689.765 44.0745 701.868 55.8185 702.333H420.232C444.186 702.333 479.883 683.364 499.999 659.39C499.999 659.39 724.414 391.607 727.321 387.65C733.949 378.922 729.763 365.306 718.601 361.698C714.066 360.302 716.624 361.233 629.183 360.884C631.741 357.741 745.344 222.512 748.716 218.438C753.368 213.551 755.809 207.266 755.809 200.749V200.865ZM78.9577 337.492C75.4694 337.026 74.1903 332.72 76.5159 330.393L287.443 78.4368C304.652 57.8381 334.303 43.1746 349.071 43.1746H694.066C696.275 43.1746 697.089 45.6185 696.275 46.8986C696.159 47.015 588.602 175.495 588.602 175.495H349.071C334.768 175.495 317.21 180.499 299.885 189.81C282.909 198.887 267.56 210.99 256.514 224.141L161.166 337.492C73.2601 337.492 79.074 337.492 78.7252 337.492H78.9577ZM347.326 337.492C364.07 320.268 391.744 304.906 409.419 304.906H480.232C462.092 325.04 434.069 337.492 420.232 337.492H347.326ZM565.579 384.508C563.486 386.952 529.998 430.361 493.138 430.361H278.723L317.094 384.508H565.579ZM409.419 271.273C378.838 271.273 339.071 294.782 317.094 320.966C303.49 337.957 303.955 337.492 303.955 337.492H205.235L282.327 245.787C301.048 223.443 332.559 209.128 349.071 209.128H560.463L508.371 271.273H409.302H409.419ZM61.3998 514.85C59.1905 514.734 58.0278 512.057 59.6556 510.428L68.8416 499.488L185.235 361H284.071L210.119 449.214L155.12 514.85H61.3998ZM694.182 384.508C695.694 384.508 697.903 386.37 695.81 388.93C707.438 375.198 481.976 644.261 481.976 644.261C464.418 665.209 434.651 678.825 420.232 678.825H75.5857C73.7252 678.592 72.795 676.498 73.7252 674.985C73.7252 674.985 234.421 483.196 250.467 463.994H493.022C527.208 463.994 565.579 436.645 584.184 414.533L609.3 384.508H694.066H694.182ZM708.601 214.132C621.044 318.522 624.416 314.449 585.347 361H473.836C489.069 352.155 502.906 340.867 513.022 328.88L613.253 209.128H707.438C708.136 209.128 711.856 210.059 708.601 214.132Z" fill="white"/>
</g>
<defs>
<linearGradient id="paint0_linear_10670_21882" x1="1012.57" y1="997.048" x2="12.2753" y2="-209.604" gradientUnits="userSpaceOnUse">
<stop/>
<stop offset="1" stop-color="#3B3B3B"/>
</linearGradient>
<clipPath id="clip0_10670_21882">
<rect width="768" height="722" fill="white"/>
</clipPath>
</defs>
</svg>
