<svg width="72" height="36" viewBox="0 0 72 36" fill="none" xmlns="http://www.w3.org/2000/svg">
<rect width="72" height="36" rx="4" fill="#424851"/>
<path d="M23.5156 11.5859V23H21.6328V13.8203L18.8438 14.7656V13.2109L23.2891 11.5859H23.5156ZM29.4609 16.2656V23H27.5781V14.5469H29.3516L29.4609 16.2656ZM29.1562 18.4609L28.5156 18.4531C28.5156 17.8698 28.5885 17.3307 28.7344 16.8359C28.8802 16.3411 29.0938 15.9115 29.375 15.5469C29.6562 15.1771 30.0052 14.8932 30.4219 14.6953C30.8438 14.4922 31.3307 14.3906 31.8828 14.3906C32.2682 14.3906 32.6198 14.4479 32.9375 14.5625C33.2604 14.6719 33.5391 14.8464 33.7734 15.0859C34.013 15.3255 34.1953 15.6328 34.3203 16.0078C34.4505 16.3828 34.5156 16.8359 34.5156 17.3672V23H32.6328V17.5312C32.6328 17.1198 32.5703 16.7969 32.4453 16.5625C32.3255 16.3281 32.151 16.1615 31.9219 16.0625C31.6979 15.9583 31.4297 15.9062 31.1172 15.9062C30.763 15.9062 30.4609 15.974 30.2109 16.1094C29.9661 16.2448 29.7656 16.4297 29.6094 16.6641C29.4531 16.8984 29.3385 17.1693 29.2656 17.4766C29.1927 17.7839 29.1562 18.112 29.1562 18.4609ZM34.3984 17.9609L33.5156 18.1562C33.5156 17.6458 33.5859 17.1641 33.7266 16.7109C33.8724 16.2526 34.0833 15.8516 34.3594 15.5078C34.6406 15.1589 34.987 14.8854 35.3984 14.6875C35.8099 14.4896 36.2812 14.3906 36.8125 14.3906C37.2448 14.3906 37.6302 14.4505 37.9688 14.5703C38.3125 14.6849 38.6042 14.8672 38.8438 15.1172C39.0833 15.3672 39.2656 15.6927 39.3906 16.0938C39.5156 16.4896 39.5781 16.9688 39.5781 17.5312V23H37.6875V17.5234C37.6875 17.0964 37.625 16.7656 37.5 16.5312C37.3802 16.2969 37.2083 16.1354 36.9844 16.0469C36.7604 15.9531 36.4922 15.9062 36.1797 15.9062C35.888 15.9062 35.6302 15.9609 35.4062 16.0703C35.1875 16.1745 35.0026 16.3229 34.8516 16.5156C34.7005 16.7031 34.5859 16.9193 34.5078 17.1641C34.4349 17.4089 34.3984 17.6745 34.3984 17.9609ZM43.3984 16.2656V23H41.5156V14.5469H43.2891L43.3984 16.2656ZM43.0938 18.4609L42.4531 18.4531C42.4531 17.8698 42.526 17.3307 42.6719 16.8359C42.8177 16.3411 43.0312 15.9115 43.3125 15.5469C43.5938 15.1771 43.9427 14.8932 44.3594 14.6953C44.7812 14.4922 45.2682 14.3906 45.8203 14.3906C46.2057 14.3906 46.5573 14.4479 46.875 14.5625C47.1979 14.6719 47.4766 14.8464 47.7109 15.0859C47.9505 15.3255 48.1328 15.6328 48.2578 16.0078C48.388 16.3828 48.4531 16.8359 48.4531 17.3672V23H46.5703V17.5312C46.5703 17.1198 46.5078 16.7969 46.3828 16.5625C46.263 16.3281 46.0885 16.1615 45.8594 16.0625C45.6354 15.9583 45.3672 15.9062 45.0547 15.9062C44.7005 15.9062 44.3984 15.974 44.1484 16.1094C43.9036 16.2448 43.7031 16.4297 43.5469 16.6641C43.3906 16.8984 43.276 17.1693 43.2031 17.4766C43.1302 17.7839 43.0938 18.112 43.0938 18.4609ZM48.3359 17.9609L47.4531 18.1562C47.4531 17.6458 47.5234 17.1641 47.6641 16.7109C47.8099 16.2526 48.0208 15.8516 48.2969 15.5078C48.5781 15.1589 48.9245 14.8854 49.3359 14.6875C49.7474 14.4896 50.2188 14.3906 50.75 14.3906C51.1823 14.3906 51.5677 14.4505 51.9062 14.5703C52.25 14.6849 52.5417 14.8672 52.7812 15.1172C53.0208 15.3672 53.2031 15.6927 53.3281 16.0938C53.4531 16.4896 53.5156 16.9688 53.5156 17.5312V23H51.625V17.5234C51.625 17.0964 51.5625 16.7656 51.4375 16.5312C51.3177 16.2969 51.1458 16.1354 50.9219 16.0469C50.6979 15.9531 50.4297 15.9062 50.1172 15.9062C49.8255 15.9062 49.5677 15.9609 49.3438 16.0703C49.125 16.1745 48.9401 16.3229 48.7891 16.5156C48.638 16.7031 48.5234 16.9193 48.4453 17.1641C48.3724 17.4089 48.3359 17.6745 48.3359 17.9609Z" fill="white"/>
</svg>
