<svg width="72" height="36" viewBox="0 0 72 36" fill="none" xmlns="http://www.w3.org/2000/svg">
<rect width="72" height="36" rx="4" fill="#17181a"/>
<path d="M18.9688 11.5859V23H17.0859V13.8203L14.2969 14.7656V13.2109L18.7422 11.5859H18.9688ZM30.3359 16.3594V18.2188C30.3359 19.1094 30.2474 19.8698 30.0703 20.5C29.8984 21.125 29.6484 21.6328 29.3203 22.0234C28.9922 22.4141 28.599 22.7005 28.1406 22.8828C27.6875 23.0651 27.1797 23.1562 26.6172 23.1562C26.1693 23.1562 25.7526 23.099 25.3672 22.9844C24.987 22.8698 24.6432 22.6901 24.3359 22.4453C24.0286 22.2005 23.7656 21.8854 23.5469 21.5C23.3333 21.1094 23.1667 20.6432 23.0469 20.1016C22.9323 19.5599 22.875 18.9323 22.875 18.2188V16.3594C22.875 15.4635 22.9635 14.7083 23.1406 14.0938C23.3177 13.474 23.5703 12.9714 23.8984 12.5859C24.2266 12.1953 24.6172 11.9115 25.0703 11.7344C25.5286 11.5573 26.0391 11.4688 26.6016 11.4688C27.0547 11.4688 27.4714 11.526 27.8516 11.6406C28.237 11.75 28.5807 11.9245 28.8828 12.1641C29.1901 12.4036 29.4505 12.7161 29.6641 13.1016C29.8828 13.4818 30.0495 13.9427 30.1641 14.4844C30.2786 15.0208 30.3359 15.6458 30.3359 16.3594ZM28.4531 18.4844V16.0781C28.4531 15.625 28.4271 15.2266 28.375 14.8828C28.3229 14.5339 28.2448 14.2396 28.1406 14C28.0417 13.7552 27.9167 13.5573 27.7656 13.4062C27.6146 13.25 27.4427 13.138 27.25 13.0703C27.0573 12.9974 26.8411 12.9609 26.6016 12.9609C26.3099 12.9609 26.0495 13.0182 25.8203 13.1328C25.5911 13.2422 25.3984 13.4193 25.2422 13.6641C25.0859 13.9089 24.9661 14.2318 24.8828 14.6328C24.8047 15.0286 24.7656 15.5104 24.7656 16.0781V18.4844C24.7656 18.9427 24.7917 19.3464 24.8438 19.6953C24.8958 20.0443 24.974 20.3438 25.0781 20.5938C25.1823 20.8385 25.3073 21.0417 25.4531 21.2031C25.6042 21.3594 25.776 21.474 25.9688 21.5469C26.1667 21.6198 26.3828 21.6562 26.6172 21.6562C26.9141 21.6562 27.1771 21.599 27.4062 21.4844C27.6354 21.3698 27.8281 21.1875 27.9844 20.9375C28.1406 20.6823 28.2578 20.3516 28.3359 19.9453C28.4141 19.5391 28.4531 19.0521 28.4531 18.4844ZM34.0078 16.2656V23H32.125V14.5469H33.8984L34.0078 16.2656ZM33.7031 18.4609L33.0625 18.4531C33.0625 17.8698 33.1354 17.3307 33.2812 16.8359C33.4271 16.3411 33.6406 15.9115 33.9219 15.5469C34.2031 15.1771 34.5521 14.8932 34.9688 14.6953C35.3906 14.4922 35.8776 14.3906 36.4297 14.3906C36.8151 14.3906 37.1667 14.4479 37.4844 14.5625C37.8073 14.6719 38.0859 14.8464 38.3203 15.0859C38.5599 15.3255 38.7422 15.6328 38.8672 16.0078C38.9974 16.3828 39.0625 16.8359 39.0625 17.3672V23H37.1797V17.5312C37.1797 17.1198 37.1172 16.7969 36.9922 16.5625C36.8724 16.3281 36.6979 16.1615 36.4688 16.0625C36.2448 15.9583 35.9766 15.9062 35.6641 15.9062C35.3099 15.9062 35.0078 15.974 34.7578 16.1094C34.513 16.2448 34.3125 16.4297 34.1562 16.6641C34 16.8984 33.8854 17.1693 33.8125 17.4766C33.7396 17.7839 33.7031 18.112 33.7031 18.4609ZM38.9453 17.9609L38.0625 18.1562C38.0625 17.6458 38.1328 17.1641 38.2734 16.7109C38.4193 16.2526 38.6302 15.8516 38.9062 15.5078C39.1875 15.1589 39.5339 14.8854 39.9453 14.6875C40.3568 14.4896 40.8281 14.3906 41.3594 14.3906C41.7917 14.3906 42.1771 14.4505 42.5156 14.5703C42.8594 14.6849 43.151 14.8672 43.3906 15.1172C43.6302 15.3672 43.8125 15.6927 43.9375 16.0938C44.0625 16.4896 44.125 16.9688 44.125 17.5312V23H42.2344V17.5234C42.2344 17.0964 42.1719 16.7656 42.0469 16.5312C41.9271 16.2969 41.7552 16.1354 41.5312 16.0469C41.3073 15.9531 41.0391 15.9062 40.7266 15.9062C40.4349 15.9062 40.1771 15.9609 39.9531 16.0703C39.7344 16.1745 39.5495 16.3229 39.3984 16.5156C39.2474 16.7031 39.1328 16.9193 39.0547 17.1641C38.9818 17.4089 38.9453 17.6745 38.9453 17.9609ZM47.9453 16.2656V23H46.0625V14.5469H47.8359L47.9453 16.2656ZM47.6406 18.4609L47 18.4531C47 17.8698 47.0729 17.3307 47.2188 16.8359C47.3646 16.3411 47.5781 15.9115 47.8594 15.5469C48.1406 15.1771 48.4896 14.8932 48.9062 14.6953C49.3281 14.4922 49.8151 14.3906 50.3672 14.3906C50.7526 14.3906 51.1042 14.4479 51.4219 14.5625C51.7448 14.6719 52.0234 14.8464 52.2578 15.0859C52.4974 15.3255 52.6797 15.6328 52.8047 16.0078C52.9349 16.3828 53 16.8359 53 17.3672V23H51.1172V17.5312C51.1172 17.1198 51.0547 16.7969 50.9297 16.5625C50.8099 16.3281 50.6354 16.1615 50.4062 16.0625C50.1823 15.9583 49.9141 15.9062 49.6016 15.9062C49.2474 15.9062 48.9453 15.974 48.6953 16.1094C48.4505 16.2448 48.25 16.4297 48.0938 16.6641C47.9375 16.8984 47.8229 17.1693 47.75 17.4766C47.6771 17.7839 47.6406 18.112 47.6406 18.4609ZM52.8828 17.9609L52 18.1562C52 17.6458 52.0703 17.1641 52.2109 16.7109C52.3568 16.2526 52.5677 15.8516 52.8438 15.5078C53.125 15.1589 53.4714 14.8854 53.8828 14.6875C54.2943 14.4896 54.7656 14.3906 55.2969 14.3906C55.7292 14.3906 56.1146 14.4505 56.4531 14.5703C56.7969 14.6849 57.0885 14.8672 57.3281 15.1172C57.5677 15.3672 57.75 15.6927 57.875 16.0938C58 16.4896 58.0625 16.9688 58.0625 17.5312V23H56.1719V17.5234C56.1719 17.0964 56.1094 16.7656 55.9844 16.5312C55.8646 16.2969 55.6927 16.1354 55.4688 16.0469C55.2448 15.9531 54.9766 15.9062 54.6641 15.9062C54.3724 15.9062 54.1146 15.9609 53.8906 16.0703C53.6719 16.1745 53.487 16.3229 53.3359 16.5156C53.1849 16.7031 53.0703 16.9193 52.9922 17.1641C52.9193 17.4089 52.8828 17.6745 52.8828 17.9609Z" fill="white"/>
</svg>
