<svg width="64" height="64" viewBox="0 0 64 64" fill="none" xmlns="http://www.w3.org/2000/svg">
<g clip-path="url(#clip0_10670_21816)">
<path d="M52.0004 0.285645H12.0004C5.5308 0.285645 0.286133 5.53032 0.286133 11.9999V51.9999C0.286133 58.4696 5.5308 63.7142 12.0004 63.7142H52.0004C58.4701 63.7142 63.7147 58.4696 63.7147 51.9999V11.9999C63.7147 5.53032 58.4701 0.285645 52.0004 0.285645Z" fill="url(#paint0_linear_10670_21816)"/>
<path d="M52.0004 0.285645H12.0004C5.5308 0.285645 0.286133 5.53032 0.286133 11.9999V51.9999C0.286133 58.4696 5.5308 63.7142 12.0004 63.7142H52.0004C58.4701 63.7142 63.7147 58.4696 63.7147 51.9999V11.9999C63.7147 5.53032 58.4701 0.285645 52.0004 0.285645Z" stroke="url(#paint1_linear_10670_21816)" stroke-width="0.571429"/>
<path d="M55.2379 21.9916C55.2379 21.1188 54.533 20.406 53.6536 20.406H46.7133C48.3048 18.5076 52.0693 14.0125 53.3774 12.4487C53.9443 11.7359 53.4429 10.6667 52.5199 10.6667H29.824C28.3269 10.6667 26.1031 11.8959 24.8458 13.3942C11.5248 29.3015 10.66 30.3271 10.66 30.3271C10.1658 30.9817 10.5728 32 11.4594 32C12.8111 32 16.8445 32 16.8445 32L9.06118 41.2592C8.32718 42.263 9.02484 43.6742 10.2603 43.7178H17.3096L11.503 50.6494C10.6091 51.6386 10.58 51.7914 10.551 51.8642C10.2748 52.5479 10.7545 53.3043 11.4885 53.3334H34.2643C35.7614 53.3334 37.9925 52.1477 39.2497 50.6494C39.2497 50.6494 53.2757 33.9129 53.4574 33.6656C53.8716 33.1201 53.61 32.2691 52.9123 32.0436C52.6289 31.9564 52.7888 32.0145 47.3237 31.9927C47.4836 31.7963 54.5838 23.3445 54.7946 23.0899C55.0853 22.7844 55.2379 22.3916 55.2379 21.9843V21.9916ZM12.9347 30.5307C12.7166 30.5016 12.6367 30.2325 12.782 30.0871L25.965 14.3398C27.0406 13.0524 28.8938 12.1359 29.8167 12.1359H51.3789C51.517 12.1359 51.5679 12.2887 51.517 12.3687C51.5097 12.376 44.7874 20.406 44.7874 20.406H29.8167C28.9228 20.406 27.8255 20.7187 26.7426 21.3006C25.6816 21.8679 24.7223 22.6244 24.0319 23.4463L18.0727 30.5307C12.5786 30.5307 12.9419 30.5307 12.9201 30.5307H12.9347ZM29.7077 30.5307C30.7542 29.4543 32.4838 28.4941 33.5885 28.4941H38.0143C36.8806 29.7525 35.1291 30.5307 34.2643 30.5307H29.7077ZM43.3485 33.4693C43.2177 33.622 41.1247 36.335 38.8209 36.335H25.42L27.8182 33.4693H43.3485ZM33.5885 26.3921C31.6771 26.3921 29.1917 27.8613 27.8182 29.4979C26.9679 30.5598 26.997 30.5307 26.997 30.5307H20.827L25.6452 24.7992C26.8153 23.4027 28.7847 22.508 29.8167 22.508H43.0287L39.773 26.3921H33.5812H33.5885ZM11.8373 41.6156C11.6992 41.6084 11.6265 41.4411 11.7283 41.3392L12.3024 40.6555L19.577 32H25.7543L21.1322 37.5134L17.6948 41.6156H11.8373ZM51.3862 33.4693C51.4807 33.4693 51.6187 33.5856 51.4879 33.7457C52.2147 32.8874 38.1233 49.7038 38.1233 49.7038C37.0259 51.0131 35.1655 51.8642 34.2643 51.8642H12.7239C12.6076 51.8496 12.5495 51.7186 12.6076 51.624C12.6076 51.624 22.6511 39.6372 23.654 38.4371H38.8137C40.9503 38.4371 43.3485 36.7278 44.5113 35.3458L46.081 33.4693H51.3789H51.3862ZM52.2873 22.8208C46.815 29.3452 47.0258 29.0906 44.584 32H37.6146C38.5666 31.4472 39.4314 30.7417 40.0637 29.9925L46.3281 22.508H52.2147C52.2583 22.508 52.4908 22.5662 52.2873 22.8208Z" fill="white"/>
</g>
<defs>
<linearGradient id="paint0_linear_10670_21816" x1="84.3813" y1="88.3809" x2="-5.14244" y2="-13.143" gradientUnits="userSpaceOnUse">
<stop/>
<stop offset="1" stop-color="#3B3B3B"/>
</linearGradient>
<linearGradient id="paint1_linear_10670_21816" x1="20.5718" y1="71.6189" x2="20.5718" y2="-27.6191" gradientUnits="userSpaceOnUse">
<stop/>
<stop offset="1" stop-color="#666666"/>
</linearGradient>
<clipPath id="clip0_10670_21816">
<rect width="64" height="64" fill="white"/>
</clipPath>
</defs>
</svg>
