<svg width="20" height="20" viewBox="0 0 20 20" fill="#FF9797" xmlns="http://www.w3.org/2000/svg">
<path d="M15.2 18C15.2 18 16 17.613 16 16.8333C16 16.0536 15 15.7797 15 15C15 14.2203 16 13.9525 16 13.1667C16 12.3808 15.2 12 15.2 12" stroke="#FF7C3F" stroke-miterlimit="10" stroke-linecap="round"/>
<path d="M9.53325 18C9.53325 18 10.3333 17.656 10.3333 16.963C10.3333 16.2699 9.33325 16.0264 9.33325 15.3333" stroke="#FF7C3F" stroke-miterlimit="10" stroke-linecap="round"/>
<path d="M4.2 18C4.2 18 5 17.613 5 16.8333C5 16.0536 4 15.7797 4 15C4 14.2203 5 13.9525 5 13.1667C5 12.3808 4.2 12 4.2 12" stroke="#FF7C3F" stroke-miterlimit="10" stroke-linecap="round"/>
<path d="M16 2V7.58919L12.25 13H7.75L4 7.58919V2H16Z" stroke="white" stroke-linejoin="round"/>
</svg>
