<svg width="20" height="20" viewBox="0 0 20 20" fill="none" xmlns="http://www.w3.org/2000/svg">
<path d="M18 17V18C18 18.5523 17.5523 19 17 19H13H7.33333H3C2.44772 19 2 18.5523 2 18V17C2 16.4477 2.44772 16 3 16H17C17.5523 16 18 16.4477 18 17Z" stroke="white" stroke-linejoin="round"/>
<path d="M6 2.5C5 3 4 2.99872 4 3.99744C4 4.99616 6 4.99616 6 5.99488C6 6.9936 4 6.9936 4 7.99232C4 8.99104 6 8.99104 6 9.98976C6 10.9885 4 10.9936 4 12C4 13.0064 5 13 6 13.5" stroke="#FF7C3F" stroke-miterlimit="10" stroke-linecap="round"/>
<path d="M11 2.5C10 3 9 2.99872 9 3.99744C9 4.99616 11 4.99616 11 5.99488C11 6.9936 9 6.9936 9 7.99232C9 8.99104 11 8.99104 11 9.98976C11 10.9885 9 10.9936 9 12C9 13.0064 10 13 11 13.5" stroke="#FF7C3F" stroke-miterlimit="10" stroke-linecap="round"/>
<path d="M16 2.5C15 3 14 2.99872 14 3.99744C14 4.99616 16 4.99616 16 5.99488C16 6.9936 14 6.9936 14 7.99232C14 8.99104 16 8.99104 16 9.98976C16 10.9885 14 10.9936 14 12C14 13.0064 15 13 16 13.5" stroke="#FF7C3F" stroke-miterlimit="10" stroke-linecap="round"/>
</svg>
