<svg width="168" height="168" viewBox="0 0 168 168" fill="none" xmlns="http://www.w3.org/2000/svg">
<path opacity="0.8" d="M108 121H60C57.8783 121 55.8434 120.157 54.3431 118.657C52.8429 117.157 52 115.122 52 113V55C52 52.8783 52.8429 50.8434 54.3431 49.3431C55.8434 47.8429 57.8783 47 60 47H98L116 65V113C116 115.122 115.157 117.157 113.657 118.657C112.157 120.157 110.122 121 108 121Z" fill="url(#paint0_linear_10670_21914)"/>
<path opacity="0.2" d="M116 65H106C103.878 65 101.843 64.1571 100.343 62.6569C98.8429 61.1566 98 59.1217 98 57V47L116 65Z" fill="black"/>
<path d="M105 67H63C61.8954 67 61 67.8954 61 69V71C61 72.1046 61.8954 73 63 73H105C106.105 73 107 72.1046 107 71V69C107 67.8954 106.105 67 105 67Z" fill="url(#paint1_linear_10670_21914)"/>
<path d="M105 75H63C61.8954 75 61 75.8954 61 77V79C61 80.1046 61.8954 81 63 81H105C106.105 81 107 80.1046 107 79V77C107 75.8954 106.105 75 105 75Z" fill="url(#paint2_linear_10670_21914)"/>
<path d="M105 83H63C61.8954 83 61 83.8954 61 85V87C61 88.1046 61.8954 89 63 89H105C106.105 89 107 88.1046 107 87V85C107 83.8954 106.105 83 105 83Z" fill="url(#paint3_linear_10670_21914)"/>
<path d="M105 91H63C61.8954 91 61 91.8954 61 93V95C61 96.1046 61.8954 97 63 97H105C106.105 97 107 96.1046 107 95V93C107 91.8954 106.105 91 105 91Z" fill="url(#paint4_linear_10670_21914)"/>
<path d="M93 99H63C61.8954 99 61 99.8954 61 101V103C61 104.105 61.8954 105 63 105H93C94.1046 105 95 104.105 95 103V101C95 99.8954 94.1046 99 93 99Z" fill="url(#paint5_linear_10670_21914)"/>
<defs>
<linearGradient id="paint0_linear_10670_21914" x1="170.99" y1="258.434" x2="60.656" y2="44.768" gradientUnits="userSpaceOnUse">
<stop stop-color="#005CAF"/>
<stop offset="1" stop-color="#4BB6F1"/>
</linearGradient>
<linearGradient id="paint1_linear_10670_21914" x1="120.791" y1="108.452" x2="69.768" y2="55.126" gradientUnits="userSpaceOnUse">
<stop stop-color="#C6C5C5"/>
<stop offset="1" stop-color="#F9FAFB"/>
</linearGradient>
<linearGradient id="paint2_linear_10670_21914" x1="120.791" y1="116.452" x2="69.768" y2="63.126" gradientUnits="userSpaceOnUse">
<stop stop-color="#C6C5C5"/>
<stop offset="1" stop-color="#F9FAFB"/>
</linearGradient>
<linearGradient id="paint3_linear_10670_21914" x1="120.791" y1="124.452" x2="69.768" y2="71.126" gradientUnits="userSpaceOnUse">
<stop stop-color="#C6C5C5"/>
<stop offset="1" stop-color="#F9FAFB"/>
</linearGradient>
<linearGradient id="paint4_linear_10670_21914" x1="120.791" y1="132.452" x2="69.768" y2="79.126" gradientUnits="userSpaceOnUse">
<stop stop-color="#C6C5C5"/>
<stop offset="1" stop-color="#F9FAFB"/>
</linearGradient>
<linearGradient id="paint5_linear_10670_21914" x1="105.939" y1="131.2" x2="67.192" y2="90.704" gradientUnits="userSpaceOnUse">
<stop stop-color="#C6C5C5"/>
<stop offset="1" stop-color="#F9FAFB"/>
</linearGradient>
</defs>
</svg>
