<svg width="43" height="43" viewBox="0 0 43 43" fill="none" xmlns="http://www.w3.org/2000/svg">
<path d="M35.89 4H13.11C11.3924 4 10 5.39239 10 7.11V29.89C10 31.6076 11.3924 33 13.11 33H35.89C37.6076 33 39 31.6076 39 29.89V7.11C39 5.39239 37.6076 4 35.89 4Z" fill="#E9E9E9"/>
<path d="M33.67 5.32988C34.77 4.22988 36.57 4.22988 37.67 5.32988C38.77 6.42988 38.77 8.22988 37.67 9.32988L19.5 27.4999H15.5V23.4999L33.67 5.32988Z" stroke="#545454" stroke-linecap="round" stroke-linejoin="round"/>
<path d="M25.5 4.5H12.5C11.4 4.5 10.5 5.4 10.5 6.5V30.5C10.5 31.6 11.4 32.5 12.5 32.5H36.5C37.6 32.5 38.5 31.6 38.5 30.5V17.5" stroke="#545454" stroke-linecap="round" stroke-linejoin="round"/>
</svg>
