<svg width="43" height="43" viewBox="0 0 43 43" fill="none" xmlns="http://www.w3.org/2000/svg">
<path d="M38 1.5H5C3.067 1.5 1.5 3.067 1.5 5V38C1.5 39.933 3.067 41.5 5 41.5H38C39.933 41.5 41.5 39.933 41.5 38V5C41.5 3.067 39.933 1.5 38 1.5Z" fill="#54545A"/>
<path d="M38 2C38.7957 2 39.5587 2.31607 40.1213 2.87868C40.6839 3.44129 41 4.20435 41 5V38C41 38.7957 40.6839 39.5587 40.1213 40.1213C39.5587 40.6839 38.7957 41 38 41H5C4.20435 41 3.44129 40.6839 2.87868 40.1213C2.31607 39.5587 2 38.7957 2 38V5C2 4.20435 2.31607 3.44129 2.87868 2.87868C3.44129 2.31607 4.20435 2 5 2H38ZM38 1H5C3.93913 1 2.92172 1.42143 2.17157 2.17157C1.42143 2.92172 1 3.93913 1 5V38C1 39.0609 1.42143 40.0783 2.17157 40.8284C2.92172 41.5786 3.93913 42 5 42H38C39.0609 42 40.0783 41.5786 40.8284 40.8284C41.5786 40.0783 42 39.0609 42 38V5C42 3.93913 41.5786 2.92172 40.8284 2.17157C40.0783 1.42143 39.0609 1 38 1Z" fill="#FF7C3F"/>
<path d="M31.5 22.5H11.5C10.9477 22.5 10.5 22.9477 10.5 23.5V35.5C10.5 36.0523 10.9477 36.5 11.5 36.5H31.5C32.0523 36.5 32.5 36.0523 32.5 35.5V23.5C32.5 22.9477 32.0523 22.5 31.5 22.5Z" stroke="#FF7C3F" stroke-linecap="round" stroke-linejoin="round"/>
<path d="M30.5 22.5V15.5C30.5 13.1131 29.5518 10.8239 27.864 9.13604C26.1761 7.44821 23.8869 6.5 21.5 6.5C19.1131 6.5 16.8239 7.44821 15.136 9.13604C13.4482 10.8239 12.5 13.1131 12.5 15.5" stroke="#FF7C3F" stroke-linecap="round" stroke-linejoin="round"/>
</svg>
