<svg width="43" height="43" viewBox="0 0 43 43" fill="none" xmlns="http://www.w3.org/2000/svg">
<path d="M38 1.5H5C3.067 1.5 1.5 3.067 1.5 5V38C1.5 39.933 3.067 41.5 5 41.5H38C39.933 41.5 41.5 39.933 41.5 38V5C41.5 3.067 39.933 1.5 38 1.5Z" fill="#E9E9E9"/>
<path d="M38 2C38.7957 2 39.5587 2.31607 40.1213 2.87868C40.6839 3.44129 41 4.20435 41 5V38C41 38.7957 40.6839 39.5587 40.1213 40.1213C39.5587 40.6839 38.7957 41 38 41H5C4.20435 41 3.44129 40.6839 2.87868 40.1213C2.31607 39.5587 2 38.7957 2 38V5C2 4.20435 2.31607 3.44129 2.87868 2.87868C3.44129 2.31607 4.20435 2 5 2H38ZM38 1H5C3.93913 1 2.92172 1.42143 2.17157 2.17157C1.42143 2.92172 1 3.93913 1 5V38C1 39.0609 1.42143 40.0783 2.17157 40.8284C2.92172 41.5786 3.93913 42 5 42H38C39.0609 42 40.0783 41.5786 40.8284 40.8284C41.5786 40.0783 42 39.0609 42 38V5C42 3.93913 41.5786 2.92172 40.8284 2.17157C40.0783 1.42143 39.0609 1 38 1Z" fill="#545454"/>
<path d="M6.5 28.5L8.5 33.5L13.5 31.5" stroke="#545454" stroke-linecap="round" stroke-linejoin="round"/>
<path d="M8.5 33.5C8.888 30.611 10.5 28 12.5 25.5" stroke="#545454" stroke-linecap="round" stroke-linejoin="round"/>
<path d="M27.5 19.5H19.5M27.5 23.5V17.5L25.5 14.5H21.5L19.5 17.5V23.5" stroke="#545454" stroke-linecap="round" stroke-linejoin="round"/>
<path d="M36.5 36.5H6.5" stroke="#545454" stroke-linecap="square" stroke-linejoin="round"/>
<path d="M23.5 6.5L36.5 19.5L23.5 32.5" stroke="#545454" stroke-linecap="round" stroke-linejoin="round"/>
<path d="M10.5 19.5L23.5 6.5" stroke="#545454" stroke-linecap="round" stroke-linejoin="round"/>
<path d="M23.5 32.5L10.5 19.5" stroke="#545454" stroke-linecap="round" stroke-linejoin="round"/>
</svg>
