<svg width="43" height="43" viewBox="0 0 43 43" fill="none" xmlns="http://www.w3.org/2000/svg">
<path d="M38 1.5H5C3.067 1.5 1.5 3.067 1.5 5V38C1.5 39.933 3.067 41.5 5 41.5H38C39.933 41.5 41.5 39.933 41.5 38V5C41.5 3.067 39.933 1.5 38 1.5Z" fill="#54545A"/>
<path d="M38 2C38.7957 2 39.5587 2.31607 40.1213 2.87868C40.6839 3.44129 41 4.20435 41 5V38C41 38.7957 40.6839 39.5587 40.1213 40.1213C39.5587 40.6839 38.7957 41 38 41H5C4.20435 41 3.44129 40.6839 2.87868 40.1213C2.31607 39.5587 2 38.7957 2 38V5C2 4.20435 2.31607 3.44129 2.87868 2.87868C3.44129 2.31607 4.20435 2 5 2H38ZM38 1H5C3.93913 1 2.92172 1.42143 2.17157 2.17157C1.42143 2.92172 1 3.93913 1 5V38C1 39.0609 1.42143 40.0783 2.17157 40.8284C2.92172 41.5786 3.93913 42 5 42H38C39.0609 42 40.0783 41.5786 40.8284 40.8284C41.5786 40.0783 42 39.0609 42 38V5C42 3.93913 41.5786 2.92172 40.8284 2.17157C40.0783 1.42143 39.0609 1 38 1Z" fill="#B3B3B3"/>
<path d="M7.5 36.5H35.5C36.0523 36.5 36.5 36.0523 36.5 35.5V27.5C36.5 26.9477 36.0523 26.5 35.5 26.5L7.5 26.5C6.94772 26.5 6.5 26.9477 6.5 27.5V35.5C6.5 36.0523 6.94772 36.5 7.5 36.5Z" stroke="#C4C4C4" stroke-linecap="round" stroke-linejoin="round"/>
<path d="M27.5 23.5H35.5C36.0523 23.5 36.5 23.0523 36.5 22.5V7.5C36.5 6.94772 36.0523 6.5 35.5 6.5H27.5C26.9477 6.5 26.5 6.94772 26.5 7.5V22.5C26.5 23.0523 26.9477 23.5 27.5 23.5Z" stroke="#C4C4C4" stroke-linecap="round" stroke-linejoin="round"/>
<path d="M10 13.5L20 13.5C21.933 13.5 23.5 11.933 23.5 10C23.5 8.067 21.933 6.5 20 6.5L10 6.5C8.067 6.5 6.5 8.067 6.5 10C6.5 11.933 8.067 13.5 10 13.5Z" stroke="#C4C4C4" stroke-linecap="round" stroke-linejoin="round"/>
<path d="M10 23.5C11.933 23.5 13.5 21.933 13.5 20C13.5 18.067 11.933 16.5 10 16.5C8.067 16.5 6.5 18.067 6.5 20C6.5 21.933 8.067 23.5 10 23.5Z" stroke="#C4C4C4" stroke-linecap="round" stroke-linejoin="round"/>
<path d="M20 23.5C21.933 23.5 23.5 21.933 23.5 20C23.5 18.067 21.933 16.5 20 16.5C18.067 16.5 16.5 18.067 16.5 20C16.5 21.933 18.067 23.5 20 23.5Z" stroke="#C4C4C4" stroke-linecap="round" stroke-linejoin="round"/>
</svg>
