<svg width="43" height="43" viewBox="0 0 43 43" fill="none" xmlns="http://www.w3.org/2000/svg">
<path d="M38 1.5H5C3.067 1.5 1.5 3.067 1.5 5V38C1.5 39.933 3.067 41.5 5 41.5H38C39.933 41.5 41.5 39.933 41.5 38V5C41.5 3.067 39.933 1.5 38 1.5Z" fill="#54545A"/>
<path d="M38 2C39.65 2 41 3.35 41 5V38C41 39.65 39.65 41 38 41H5C3.35 41 2 39.65 2 38V5C2 3.35 3.35 2 5 2H38ZM38 1H5C2.79 1 1 2.79 1 5V38C1 40.21 2.79 42 5 42H38C40.21 42 42 40.21 42 38V5C42 2.79 40.21 1 38 1Z" fill="#B3B3B3"/>
<path d="M10.5 6.5H32.5" stroke="#545454" stroke-linecap="square" stroke-linejoin="round"/>
<path d="M10.52 19.47L21.53 8.5L32.49 19.51" stroke="#545454" stroke-linecap="round" stroke-linejoin="round"/>
<path d="M21.5 8.5V36.5" stroke="#545454" stroke-linecap="round" stroke-linejoin="round"/>
<path d="M10.5 6.5H32.5" stroke="#C4C4C4" stroke-linecap="square" stroke-linejoin="round"/>
<path d="M10.52 19.47L21.53 8.5L32.49 19.51" stroke="#C4C4C4" stroke-linecap="square" stroke-linejoin="round"/>
<path d="M21.5 8.5V36.5" stroke="#C4C4C4" stroke-linecap="square" stroke-linejoin="round"/>
</svg>
