<svg width="43" height="43" viewBox="0 0 43 43" fill="none" xmlns="http://www.w3.org/2000/svg">
<path d="M38 1.5H5C3.067 1.5 1.5 3.067 1.5 5V38C1.5 39.933 3.067 41.5 5 41.5H38C39.933 41.5 41.5 39.933 41.5 38V5C41.5 3.067 39.933 1.5 38 1.5Z" fill="#F97C55"/>
<path d="M38 2C39.65 2 41 3.35 41 5V38C41 39.65 39.65 41 38 41H5C3.35 41 2 39.65 2 38V5C2 3.35 3.35 2 5 2H38ZM38 1H5C2.79 1 1 2.79 1 5V38C1 40.21 2.79 42 5 42H38C40.21 42 42 40.21 42 38V5C42 2.79 40.21 1 38 1Z" fill="#545454"/>
<path d="M6.5 12.5H10.5" stroke="#545454" stroke-linecap="square" stroke-linejoin="round"/>
<path d="M17.5 12.5H36.5" stroke="#545454" stroke-linecap="square" stroke-linejoin="round"/>
<path d="M15.5 6.5H12.5C11.3954 6.5 10.5 7.39543 10.5 8.5V16.5C10.5 17.6046 11.3954 18.5 12.5 18.5H15.5C16.6046 18.5 17.5 17.6046 17.5 16.5V8.5C17.5 7.39543 16.6046 6.5 15.5 6.5Z" stroke="#545454" stroke-linecap="square" stroke-linejoin="round"/>
<path d="M36.5 30.5H32.5" stroke="#545454" stroke-linecap="square" stroke-linejoin="round"/>
<path d="M25.5 30.5H6.5" stroke="#545454" stroke-linecap="square" stroke-linejoin="round"/>
<path d="M27.5 36.5H30.5C31.6046 36.5 32.5 35.6046 32.5 34.5V26.5C32.5 25.3954 31.6046 24.5 30.5 24.5H27.5C26.3954 24.5 25.5 25.3954 25.5 26.5V34.5C25.5 35.6046 26.3954 36.5 27.5 36.5Z" stroke="#545454" stroke-linecap="square" stroke-linejoin="round"/>
</svg>
