<svg width="15" height="15" viewBox="0 0 15 15" fill="none" xmlns="http://www.w3.org/2000/svg">
<path d="M12.3202 13.5H2.6802C2.53504 13.4999 2.39164 13.4683 2.25995 13.4072C2.12826 13.3461 2.01145 13.2571 1.91763 13.1464C1.8238 13.0356 1.75522 12.9057 1.71663 12.7658C1.67805 12.6259 1.6704 12.4792 1.6942 12.336L2.3612 8.336C2.40002 8.1025 2.52041 7.89034 2.70096 7.73726C2.8815 7.58418 3.1105 7.50011 3.3472 7.5H11.6532C11.8899 7.50011 12.1189 7.58418 12.2994 7.73726C12.48 7.89034 12.6004 8.1025 12.6392 8.336L13.3062 12.336C13.33 12.4792 13.3224 12.6259 13.2838 12.7658C13.2452 12.9057 13.1766 13.0356 13.0828 13.1464C12.989 13.2571 12.8721 13.3461 12.7405 13.4072C12.6088 13.4683 12.4654 13.4999 12.3202 13.5Z" stroke="#949494" stroke-linecap="round" stroke-linejoin="round"/>
<path d="M7.5 13.5C9.15685 13.5 10.5 12.1569 10.5 10.5C10.5 8.84315 9.15685 7.5 7.5 7.5C5.84315 7.5 4.5 8.84315 4.5 10.5C4.5 12.1569 5.84315 13.5 7.5 13.5Z" stroke="#949494" stroke-linecap="round" stroke-linejoin="round"/>
<path d="M6.5 5.5V7.5" stroke="#949494" stroke-linecap="round" stroke-linejoin="round"/>
<path d="M8.5 5.5V7.5" stroke="#949494" stroke-linecap="round" stroke-linejoin="round"/>
<path d="M7.5 10.5L8.5 9.5" stroke="#949494" stroke-linecap="round" stroke-linejoin="round"/>
<path d="M13.5 3.5V4.5C13.5 4.76522 13.3946 5.01957 13.2071 5.20711C13.0196 5.39464 12.7652 5.5 12.5 5.5H2.5C2.23478 5.5 1.98043 5.39464 1.79289 5.20711C1.60536 5.01957 1.5 4.76522 1.5 4.5V3.5" stroke="#949494" stroke-linecap="round" stroke-linejoin="round"/>
<path d="M11.562 3C10.5 2.25 10.5 1.5 7.438 1.5C6.43188 1.66132 5.49652 2.11838 4.751 2.813L3.5 1.5V4.5L4.751 3.187C5.49652 3.88162 6.43188 4.33868 7.438 4.5C10.5 4.5 10.5 3.75 11.562 3Z" stroke="#FF7C3F" stroke-linecap="round" stroke-linejoin="round"/>
<path d="M9.5 3.5L8.5 4.5" stroke="#FF7C3F" stroke-linecap="round" stroke-linejoin="round"/>
<path d="M9.5 3C9.77614 3 10 2.77614 10 2.5C10 2.22386 9.77614 2 9.5 2C9.22386 2 9 2.22386 9 2.5C9 2.77614 9.22386 3 9.5 3Z" fill="#FF7C3F"/>
<circle cx="11.5" cy="3.5" r="0.5" fill="#FF7C3F"/>
</svg>
