<svg width="696" height="449" viewBox="0 0 696 449" fill="none" xmlns="http://www.w3.org/2000/svg">
<g clip-path="url(#clip0_10670_22215)">
<path d="M696 0H0V449H696V0Z" fill="#2C2C2C"/>
<path d="M315.792 215.232C314.744 214.18 313.498 213.295 312.085 212.676C310.655 212.058 309.125 211.708 307.512 211.708H293.248V217.905H295.526V251.067H301.694V235.948H307.512C309.125 235.948 310.655 235.347 312.085 234.712C313.498 234.094 314.761 233.091 315.808 232.039C316.856 230.986 317.704 229.65 318.318 228.23C318.933 226.793 319.249 225.223 319.249 223.602C319.249 221.982 318.933 220.428 318.318 218.991C317.704 217.555 316.856 216.285 315.808 215.232H315.792ZM312.999 225.891C312.683 226.609 312.25 227.244 311.719 227.795C311.169 228.347 310.521 228.865 309.807 229.182C309.092 229.483 308.31 229.733 307.496 229.733H301.677V217.889H307.496C308.31 217.889 309.092 217.889 309.807 218.189C310.521 218.507 311.169 218.858 311.719 219.409C312.267 219.96 312.699 220.562 312.999 221.28C313.297 221.998 313.447 222.767 313.447 223.585C313.447 224.404 313.297 225.173 312.999 225.891Z" fill="white"/>
<path d="M357.07 212.627C355.608 213.245 354.311 214.097 353.23 215.199C352.134 216.302 351.119 217.588 350.503 219.059C349.872 220.529 349.424 222.116 349.424 223.786V235.715H355.841V223.786C355.841 222.934 355.907 222.132 356.224 221.397C356.539 220.662 356.954 219.994 357.52 219.426C358.085 218.858 358.716 218.407 359.448 218.09C360.18 217.772 360.944 217.605 361.809 217.605H362.175V211.725H361.809C360.13 211.725 358.551 211.992 357.087 212.627H357.07Z" fill="white"/>
<path d="M385.7 214.832C384.569 213.696 383.24 212.777 381.744 212.125C380.246 211.474 378.617 211.123 376.905 211.123C375.194 211.123 373.497 211.457 371.984 212.109C370.472 212.76 369.141 213.679 368.028 214.815C366.913 215.951 366.016 217.288 365.367 218.808C364.702 220.328 364.37 221.982 364.37 223.703C364.37 225.424 364.702 227.061 365.351 228.581C365.999 230.101 366.897 231.438 368.011 232.59C369.124 233.726 370.455 234.645 371.968 235.297C373.48 235.965 375.143 236.299 376.889 236.299C378.634 236.299 380.231 235.965 381.727 235.314C383.206 234.662 384.553 233.743 385.683 232.607C386.813 231.471 387.728 230.118 388.377 228.598C389.024 227.077 389.374 225.424 389.374 223.72C389.374 221.999 389.041 220.362 388.393 218.825C387.728 217.304 386.83 215.951 385.7 214.815V214.832ZM382.774 226.225C382.442 227.011 381.992 227.696 381.41 228.247C380.828 228.815 380.13 229.283 379.366 229.633C378.617 229.984 377.786 230.151 376.922 230.151C376.057 230.151 375.209 229.968 374.428 229.633C373.647 229.283 372.949 228.815 372.367 228.247C371.785 227.679 371.335 226.994 371.003 226.209C370.671 225.424 370.521 224.588 370.521 223.703C370.521 222.817 370.688 221.999 371.02 221.23C371.352 220.462 371.802 219.777 372.384 219.192C372.966 218.607 373.664 218.14 374.445 217.822C375.226 217.488 376.057 217.338 376.939 217.338C377.82 217.338 378.634 217.505 379.4 217.822C380.164 218.156 380.845 218.624 381.427 219.192C382.009 219.777 382.474 220.462 382.791 221.23C383.107 221.999 383.289 222.817 383.289 223.703C383.289 224.588 383.123 225.424 382.791 226.209L382.774 226.225Z" fill="white"/>
<path d="M391.285 217.622H405.983L391.269 229.434V235.732H415.707V229.383H401.144L415.724 217.472V211.742H391.285V217.622Z" fill="white"/>
<path d="M468.458 215.266C467.377 214.164 466.08 213.295 464.618 212.677C463.154 212.042 461.576 211.725 459.896 211.725C458.65 211.725 457.518 211.908 456.388 212.259C455.491 212.543 454.444 212.927 453.877 213.412V211.775H445.2V217.655H447.46V235.765H453.877V223.887C453.877 223.035 453.978 222.216 454.294 221.464C454.609 220.712 455.025 220.061 455.59 219.51C456.156 218.958 456.803 218.507 457.535 218.19C458.267 217.872 459.048 217.705 459.913 217.705C460.761 217.705 461.576 217.872 462.306 218.19C463.055 218.507 463.719 218.958 464.269 219.51C464.817 220.061 465.299 220.729 465.632 221.481C465.947 222.233 466.148 223.035 466.148 223.903V235.781H472V223.903C472 222.216 471.683 220.629 471.069 219.159C470.453 217.689 469.571 216.386 468.475 215.3L468.458 215.266Z" fill="white"/>
<path d="M438.933 213.679C436.339 211.624 433.03 211.19 430.787 211.19C418.833 211.19 418.201 221.247 418.201 223.268C418.201 231.922 422.557 236.316 431.219 236.316C433.364 236.316 440.496 235.848 442.74 228.765L442.79 228.665H435.491H435.458C434.909 230.369 432.931 231.438 431.219 231.438C425.999 231.438 425.5 227.445 425.284 226.242H443.305V224.321C443.305 219.476 441.759 215.884 438.949 213.662L438.933 213.679ZM425.466 221.832C425.898 218.123 427.677 217.154 430.603 217.154C431.667 217.154 435.175 217.522 435.708 221.832H425.466Z" fill="white"/>
<path d="M342.358 215.4C341.31 214.347 340.064 213.395 338.668 212.777C337.254 212.158 335.725 211.724 334.145 211.724H328.392V195.419H320.28V200.631H322.64V235.714H328.392V218.173H334.162C334.959 218.173 335.725 218.106 336.455 218.423C337.17 218.741 337.803 219.058 338.334 219.576C338.85 220.111 339.315 220.679 339.614 221.38C339.914 222.082 340.113 222.784 340.113 223.602V235.714H345.948V223.602C345.948 222.015 345.567 220.495 344.951 219.092C344.353 217.688 343.422 216.452 342.375 215.4H342.358Z" fill="white"/>
<path d="M282.807 213.613C282.807 212.493 281.91 211.591 280.796 211.591H272.001C274.013 209.169 278.801 203.455 280.447 201.467C281.178 200.565 280.53 199.195 279.366 199.195H250.588C248.693 199.195 245.867 200.766 244.271 202.67C227.396 222.901 226.299 224.221 226.299 224.221C225.667 225.056 226.183 226.36 227.313 226.36C229.026 226.36 234.146 226.36 234.146 226.36L224.271 238.154C223.34 239.424 224.221 241.228 225.8 241.278H234.745L227.38 250.099C226.249 251.368 226.216 251.552 226.166 251.636C225.817 252.504 226.432 253.457 227.363 253.507H256.241C258.136 253.507 260.962 252.003 262.558 250.099C262.558 250.099 280.33 228.799 280.563 228.481C281.095 227.779 280.763 226.71 279.865 226.426C279.516 226.309 279.699 226.393 272.783 226.36C272.982 226.109 281.976 215.35 282.259 215.033C282.625 214.648 282.824 214.147 282.824 213.629L282.807 213.613ZM229.175 224.472C228.893 224.438 228.793 224.087 228.976 223.904L245.701 203.873C247.064 202.236 249.425 201.066 250.588 201.066H277.936C278.103 201.066 278.186 201.267 278.103 201.367L269.574 211.591H250.588C249.458 211.591 248.061 211.992 246.698 212.727C245.351 213.446 244.138 214.415 243.273 215.45L235.726 224.472C228.76 224.472 229.225 224.472 229.192 224.472H229.175ZM250.439 224.472C251.769 223.102 253.963 221.882 255.36 221.882H260.962C259.532 223.486 257.305 224.472 256.207 224.472H250.422H250.439ZM267.729 228.214C267.562 228.414 264.919 231.856 261.993 231.856H245.002L248.045 228.214H267.729ZM255.36 219.209C252.932 219.209 249.79 221.08 248.045 223.169C246.964 224.522 246.997 224.488 246.997 224.488H239.183L245.302 217.188C246.781 215.417 249.291 214.281 250.588 214.281H267.346L263.223 219.226H255.376L255.36 219.209ZM227.795 238.588C227.613 238.588 227.529 238.371 227.662 238.238L228.394 237.369L237.621 226.343H245.451L239.599 233.359L235.243 238.588H227.795ZM277.92 228.214C278.036 228.214 278.219 228.364 278.053 228.565C278.967 227.462 261.112 248.879 261.112 248.879C259.715 250.55 257.355 251.619 256.224 251.619H228.909C228.76 251.619 228.693 251.435 228.76 251.318C228.76 251.318 241.494 236.066 242.775 234.529H261.993C264.703 234.529 267.745 232.357 269.208 230.603L271.203 228.214H277.92ZM279.067 214.665C272.134 222.968 272.4 222.651 269.291 226.343H260.447C261.66 225.641 262.741 224.739 263.556 223.787L271.502 214.264H278.967C278.967 214.264 279.316 214.331 279.067 214.665Z" fill="white"/>
</g>
<defs>
<clipPath id="clip0_10670_22215">
<rect width="696" height="449" fill="white"/>
</clipPath>
</defs>
</svg>
