<svg width="32" height="32" viewBox="0 0 32 32" fill="none" xmlns="http://www.w3.org/2000/svg">
<path d="M23.5272 29.084C24.4514 29.6797 25.5276 29.9965 26.6272 29.9965C27.7267 29.9965 28.803 29.6797 29.7272 29.084L30.4272 28.615C30.2433 27.5388 29.7603 26.536 29.0333 25.7215C28.3063 24.9069 27.3647 24.3135 26.3162 24.009C25.495 22.8794 24.3491 22.0269 23.0312 21.565L22.8152 21.5H22.6462C22.4346 21.4995 22.227 21.557 22.046 21.6664C21.8649 21.7757 21.7172 21.9326 21.6192 22.12C21.5216 22.3042 21.4766 22.5117 21.4889 22.7198C21.5013 22.9279 21.5705 23.1286 21.6892 23.3C21.8722 23.5628 21.9933 23.8637 22.0432 24.18C22.0432 24.206 22.0512 24.233 22.0552 24.26C20.8666 24.7698 19.8756 25.6516 19.2312 26.773C18.9971 27.1927 18.8189 27.6411 18.7012 28.107C20.3756 27.8007 22.1037 28.1505 23.5272 29.084Z" fill="#D9D9D9"/>
<path d="M19.7739 28.0002C21.106 27.9742 22.4146 28.3529 23.5269 29.0862C24.4115 29.6533 25.4351 29.9659 26.4856 29.9895C27.5361 30.0132 28.5728 29.747 29.4819 29.2202C29.4739 29.0932 29.4719 28.9662 29.4539 28.8402C29.2975 27.8773 28.8537 26.9841 28.1807 26.2778C27.5078 25.5715 26.6372 25.0851 25.6829 24.8822C24.9842 23.7781 23.9331 22.9423 22.6999 22.5102C22.6699 22.4978 22.6367 22.4952 22.6051 22.5029C22.5736 22.5105 22.5453 22.5281 22.5243 22.5529C22.5034 22.5778 22.4909 22.6086 22.4887 22.641C22.4864 22.6735 22.4946 22.7057 22.5119 22.7332C22.7781 23.1195 22.955 23.5601 23.0299 24.0232C23.0785 24.336 23.0785 24.6544 23.0299 24.9672C21.793 25.329 20.7426 26.1525 20.0959 27.2672C19.9675 27.5017 19.8598 27.747 19.7739 28.0002Z" fill="black"/>
<path d="M26.3609 28.4412C26.9069 28.5712 27.4129 28.4802 27.4899 28.2412C27.5669 28.0022 27.1899 27.6952 26.6389 27.5642C26.0879 27.4332 25.5869 27.5252 25.5099 27.7642C25.4329 28.0032 25.8139 28.3102 26.3609 28.4412Z" fill="#D9D9D9" stroke="#D9D9D9" stroke-miterlimit="10"/>
<path d="M1.5 30.5L3 29.5C4.00486 28.8479 5.17711 28.5009 6.375 28.5009C7.57289 28.5009 8.74514 28.8479 9.75 29.5C10.7549 30.1521 11.9271 30.4991 13.125 30.4991C14.3229 30.4991 15.4951 30.1521 16.5 29.5C17.5049 28.8479 18.6771 28.5009 19.875 28.5009C21.0729 28.5009 22.2451 28.8479 23.25 29.5C24.2549 30.1521 25.4271 30.4991 26.625 30.4991C27.8229 30.4991 28.9951 30.1521 30 29.5L31.5 28.5" stroke="#FF7C3F" stroke-linecap="round" stroke-linejoin="round"/>
<path d="M12.5 25C14.9723 25 17.389 24.2669 19.4446 22.8934C21.5002 21.5199 23.1024 19.5676 24.0485 17.2835C24.9946 14.9995 25.2421 12.4861 24.7598 10.0614C24.2775 7.63661 23.087 5.40933 21.3388 3.66117C19.5907 1.91301 17.3634 0.722505 14.9386 0.24019C12.5139 -0.242126 10.0005 0.00541604 7.71646 0.951511C5.43238 1.89761 3.48015 3.49976 2.10663 5.55538C0.733112 7.61099 0 10.0277 0 12.5C0 15.8152 1.31696 18.9946 3.66117 21.3388C6.00537 23.683 9.18479 25 12.5 25ZM12.5 20C12.2033 20 11.9133 19.912 11.6666 19.7472C11.42 19.5824 11.2277 19.3481 11.1142 19.074C11.0006 18.7999 10.9709 18.4983 11.0288 18.2074C11.0867 17.9164 11.2296 17.6491 11.4393 17.4393C11.6491 17.2296 11.9164 17.0867 12.2074 17.0288C12.4983 16.9709 12.7999 17.0007 13.074 17.1142C13.3481 17.2277 13.5824 17.42 13.7472 17.6667C13.912 17.9133 14 18.2033 14 18.5C14 18.8978 13.842 19.2794 13.5607 19.5607C13.2794 19.842 12.8978 20 12.5 20ZM12.5 15.75C12.1685 15.75 11.8505 15.6183 11.6161 15.3839C11.3817 15.1495 11.25 14.8315 11.25 14.5C11.2862 13.9124 11.4623 13.3419 11.7638 12.8362C12.0653 12.3305 12.4833 11.9043 12.983 11.593C13.815 10.913 14.25 10.512 14.25 9.50001C14.25 9.03588 14.0656 8.59076 13.7374 8.26257C13.4092 7.93438 12.9641 7.75001 12.5 7.75001C12.0359 7.75001 11.5908 7.93438 11.2626 8.26257C10.9344 8.59076 10.75 9.03588 10.75 9.50001C10.75 9.83153 10.6183 10.1495 10.3839 10.3839C10.1495 10.6183 9.83152 10.75 9.5 10.75C9.16848 10.75 8.85054 10.6183 8.61612 10.3839C8.3817 10.1495 8.25 9.83153 8.25 9.50001C8.25 8.37284 8.69777 7.29183 9.4948 6.4948C10.2918 5.69777 11.3728 5.25001 12.5 5.25001C13.6272 5.25001 14.7082 5.69777 15.5052 6.4948C16.3022 7.29183 16.75 8.37284 16.75 9.50001C16.745 10.2995 16.5429 11.0855 16.1616 11.7883C15.7803 12.4911 15.2316 13.089 14.564 13.529C13.934 14.044 13.75 14.234 13.75 14.5C13.75 14.8315 13.6183 15.1495 13.3839 15.3839C13.1495 15.6183 12.8315 15.75 12.5 15.75Z" fill="#FF6F00"/>
</svg>
