<svg width="32" height="32" viewBox="0 0 32 32" fill="none" xmlns="http://www.w3.org/2000/svg">
<path d="M12.5 25C14.9723 25 17.389 24.2669 19.4446 22.8934C21.5002 21.5199 23.1024 19.5676 24.0485 17.2835C24.9946 14.9995 25.2421 12.4861 24.7598 10.0614C24.2775 7.63661 23.087 5.40933 21.3388 3.66117C19.5907 1.91301 17.3634 0.722505 14.9386 0.24019C12.5139 -0.242126 10.0005 0.00541604 7.71646 0.951511C5.43238 1.89761 3.48015 3.49976 2.10663 5.55538C0.733112 7.61099 0 10.0277 0 12.5C0 15.8152 1.31696 18.9946 3.66117 21.3388C6.00537 23.683 9.18479 25 12.5 25ZM12.5 20C12.2033 20 11.9133 19.912 11.6666 19.7472C11.42 19.5824 11.2277 19.3481 11.1142 19.074C11.0006 18.7999 10.9709 18.4983 11.0288 18.2074C11.0867 17.9164 11.2296 17.6491 11.4393 17.4393C11.6491 17.2296 11.9164 17.0867 12.2074 17.0288C12.4983 16.9709 12.7999 17.0007 13.074 17.1142C13.3481 17.2277 13.5824 17.42 13.7472 17.6667C13.912 17.9133 14 18.2033 14 18.5C14 18.8978 13.842 19.2794 13.5607 19.5607C13.2794 19.842 12.8978 20 12.5 20ZM12.5 15.75C12.1685 15.75 11.8505 15.6183 11.6161 15.3839C11.3817 15.1495 11.25 14.8315 11.25 14.5C11.2862 13.9124 11.4623 13.3419 11.7638 12.8362C12.0653 12.3305 12.4833 11.9043 12.983 11.593C13.815 10.913 14.25 10.512 14.25 9.50001C14.25 9.03588 14.0656 8.59076 13.7374 8.26257C13.4092 7.93438 12.9641 7.75001 12.5 7.75001C12.0359 7.75001 11.5908 7.93438 11.2626 8.26257C10.9344 8.59076 10.75 9.03588 10.75 9.50001C10.75 9.83153 10.6183 10.1495 10.3839 10.3839C10.1495 10.6183 9.83152 10.75 9.5 10.75C9.16848 10.75 8.85054 10.6183 8.61612 10.3839C8.3817 10.1495 8.25 9.83153 8.25 9.50001C8.25 8.37284 8.69777 7.29183 9.4948 6.4948C10.2918 5.69777 11.3728 5.25001 12.5 5.25001C13.6272 5.25001 14.7082 5.69777 15.5052 6.4948C16.3022 7.29183 16.75 8.37284 16.75 9.50001C16.745 10.2995 16.5429 11.0855 16.1616 11.7883C15.7803 12.4911 15.2316 13.089 14.564 13.529C13.934 14.044 13.75 14.234 13.75 14.5C13.75 14.8315 13.6183 15.1495 13.3839 15.3839C13.1495 15.6183 12.8315 15.75 12.5 15.75Z" fill="#FF6F00"/>
</svg>
