<svg width="200" height="200" viewBox="0 0 200 200" fill="none" xmlns="http://www.w3.org/2000/svg">
<path d="M93.75 12.5C41.975 12.5 0 54.475 0 106.25C0 158.025 41.975 200 93.75 200C145.525 200 187.5 158.025 187.5 106.25C187.5 54.475 145.525 12.5 93.75 12.5ZM146.794 137.5C148.469 129.6 149.525 121.213 149.869 112.5H174.762C174.118 121.101 172.094 129.542 168.769 137.5H146.794ZM40.7062 75C38.9779 83.2317 37.9492 91.5948 37.6312 100H12.7375C13.3875 91.3688 15.4 82.9875 18.7313 75H40.7062ZM133.994 75C135.869 83 137 91.375 137.369 100H100V75H133.994ZM100 62.5V25.9125C102.85 26.7437 105.675 28.1313 108.444 30.0875C113.637 33.75 118.6 39.3875 122.806 46.3937C125.713 51.2375 128.225 56.6313 130.325 62.5063H100V62.5ZM64.6937 46.3875C68.9 39.3812 73.8625 33.7438 79.0563 30.0813C81.6196 28.2306 84.4732 26.8196 87.5 25.9062V62.4937H57.175C59.275 56.6187 61.7875 51.225 64.6937 46.3812V46.3875ZM87.5 75V100H50.1312C50.5 91.375 51.6312 83 53.5062 75H87.5ZM18.7313 137.5C15.4084 129.541 13.3848 121.1 12.7375 112.5H37.6312C37.975 121.213 39.0312 129.6 40.7062 137.5H18.7313ZM50.1312 112.5H87.5V137.5H53.5062C51.6312 129.5 50.5 121.125 50.1312 112.5ZM87.5 150V186.587C84.4732 185.674 81.6196 184.263 79.0563 182.413C73.8625 178.75 68.9 173.113 64.6937 166.106C61.6646 160.995 59.1462 155.598 57.175 149.994H87.5V150ZM122.806 166.112C118.6 173.119 113.637 178.756 108.444 182.419C105.879 184.267 103.026 185.678 100 186.594V150.006H130.325C128.353 155.61 125.834 161.007 122.806 166.119V166.112ZM100 137.5V112.5H137.369C137 121.125 135.869 129.5 133.994 137.5H100ZM149.875 100C149.557 91.5948 148.528 83.2317 146.8 75H168.775C172.106 82.9875 174.119 91.3688 174.769 100H149.875ZM162.238 62.5H143.506C139.869 51.025 134.838 40.9563 128.794 32.925C137.111 36.9044 144.688 42.273 151.2 48.8C155.362 52.956 159.062 57.5493 162.238 62.5ZM36.3 48.8C42.8119 42.273 50.3893 36.9044 58.7062 32.925C52.6625 40.9563 47.6375 51.025 43.9938 62.5H25.2625C28.4337 57.5464 32.1347 52.9527 36.3 48.8ZM25.2625 150H43.9938C47.6375 161.475 52.6625 171.544 58.7062 179.575C50.3893 175.596 42.8119 170.227 36.3 163.7C32.1384 159.544 28.4377 154.951 25.2625 150ZM151.2 163.7C144.688 170.227 137.111 175.596 128.794 179.575C134.838 171.544 139.863 161.475 143.506 150H162.238C159.066 154.954 155.365 159.547 151.2 163.7Z" fill="#B9C8CB"/>
</svg>
