<svg width="14" height="14" viewBox="0 0 14 14" fill="none" xmlns="http://www.w3.org/2000/svg">
<g clip-path="url(#clip0_10670_22337)">
<path d="M8.14355 5.89721L12.9999 1" stroke="#262E30" stroke-width="0.5" stroke-miterlimit="10" stroke-linecap="round"/>
<path d="M5.73865 5.83622L1.09082 1.14844" stroke="#262E30" stroke-width="0.5" stroke-miterlimit="10" stroke-linecap="round"/>
<path d="M8.25195 8.26758L12.9007 12.9554" stroke="#262E30" stroke-width="0.5" stroke-miterlimit="10" stroke-linecap="round"/>
<path d="M5.72763 8.23242L1 13.0007" stroke="#262E30" stroke-width="0.5" stroke-miterlimit="10" stroke-linecap="round"/>
<path d="M12.2415 5.77258C12.3666 5.89881 12.2772 6.11341 12.0994 6.11341H8.13066C8.0202 6.11341 7.93066 6.02386 7.93066 5.91341V1.91133C7.93066 1.73275 8.14692 1.6437 8.27267 1.77051L12.2415 5.77258Z" fill="#ACACAC" stroke="#262E30" stroke-width="0.5" stroke-miterlimit="10"/>
<path d="M1.7029 5.77253C1.57774 5.89877 1.66716 6.11335 1.84493 6.11335H5.81283C5.92329 6.11335 6.01283 6.0238 6.01283 5.91335V1.91134C6.01283 1.73275 5.79655 1.6437 5.67081 1.77053L1.7029 5.77253Z" fill="#ACACAC" stroke="#262E30" stroke-width="0.5" stroke-miterlimit="10"/>
<path d="M8.27267 12.2863C8.14692 12.4131 7.93066 12.324 7.93066 12.1454V8.14336C7.93066 8.0329 8.0202 7.94336 8.13066 7.94336H12.0994C12.2772 7.94336 12.3666 8.15796 12.2415 8.28419L8.27267 12.2863Z" fill="#ACACAC" stroke="#262E30" stroke-width="0.5" stroke-miterlimit="10"/>
<path d="M1.7029 8.28417C1.57774 8.15794 1.66716 7.94336 1.84493 7.94336H5.81283C5.92329 7.94336 6.01283 8.0329 6.01283 8.14336V12.1454C6.01283 12.324 5.79655 12.413 5.67081 12.2862L1.7029 8.28417Z" fill="#ACACAC" stroke="#262E30" stroke-width="0.5" stroke-miterlimit="10"/>
</g>
<defs>
<clipPath id="clip0_10670_22337">
<rect width="14" height="14" fill="white"/>
</clipPath>
</defs>
</svg>
