<svg width="16" height="16" viewBox="0 0 16 16" fill="none" xmlns="http://www.w3.org/2000/svg">
<path d="M13.914 6.45C13.6995 5.14869 13.0942 3.94342 12.1785 2.99425C11.2628 2.04508 10.08 1.39692 8.78724 1.13584C7.49446 0.874771 6.15285 1.01314 4.94057 1.53257C3.72829 2.052 2.7027 2.92792 2 4.044V1.5C2 1.36739 1.94732 1.24021 1.85355 1.14645C1.75979 1.05268 1.63261 1 1.5 1C1.36739 1 1.24021 1.05268 1.14645 1.14645C1.05268 1.24021 1 1.36739 1 1.5V5.5C1 5.63261 1.05268 5.75979 1.14645 5.85355C1.24021 5.94732 1.36739 6 1.5 6H5.5C5.63261 6 5.75979 5.94732 5.85355 5.85355C5.94732 5.75979 6 5.63261 6 5.5C6 5.36739 5.94732 5.24021 5.85355 5.14645C5.75979 5.05268 5.63261 5 5.5 5H2.612C3.20933 3.84309 4.19928 2.93681 5.4043 2.4437C6.60933 1.95059 7.95062 1.90289 9.18763 2.30917C10.4246 2.71545 11.4765 3.54912 12.1544 4.66068C12.8324 5.77225 13.0923 7.08899 12.8873 8.37478C12.6824 9.66057 12.0261 10.8313 11.0361 11.677C10.0462 12.5227 8.78732 12.9881 7.4853 12.9897C6.18328 12.9913 4.92328 12.529 3.93126 11.6857C2.93924 10.8424 2.28008 9.67328 2.072 8.388C2.05052 8.25712 1.97792 8.14013 1.87018 8.06277C1.76244 7.98541 1.62838 7.95402 1.4975 7.9755C1.36662 7.99698 1.24963 8.06958 1.17227 8.17732C1.09491 8.28506 1.06352 8.41912 1.085 8.55C1.29271 9.81869 1.87197 10.9973 2.74952 11.9368C3.62707 12.8762 4.76349 13.5344 6.01509 13.828C7.26669 14.1216 8.57725 14.0375 9.78104 13.5863C10.9848 13.135 12.0278 12.337 12.778 11.293C13.2781 10.6009 13.6359 9.81653 13.8309 8.98525C14.0259 8.15396 14.0542 7.29227 13.914 6.45Z" fill="#FF6F00"/>
</svg>
