<svg width="16" height="16" viewBox="0 0 16 16" fill="none" xmlns="http://www.w3.org/2000/svg">
<path d="M4.5 1.5V2.5C4.5 2.76522 4.60536 3.01957 4.79289 3.20711C4.98043 3.39464 5.23478 3.5 5.5 3.5H9.5C9.76522 3.5 10.0196 3.39464 10.2071 3.20711C10.3946 3.01957 10.5 2.76522 10.5 2.5V1.5M11.5 13.5V10.5C11.5 10.2348 11.3946 9.98043 11.2071 9.79289C11.0196 9.60536 10.7652 9.5 10.5 9.5H4.5C4.23478 9.5 3.98043 9.60536 3.79289 9.79289C3.60536 9.98043 3.5 10.2348 3.5 10.5V13.5M0.5 13.5V1.5C0.5 1.23478 0.605357 0.98043 0.792893 0.792893C0.98043 0.605357 1.23478 0.5 1.5 0.5H11.5L14.5 3.5V13.5C14.5 13.7652 14.3946 14.0196 14.2071 14.2071C14.0196 14.3946 13.7652 14.5 13.5 14.5H1.5C1.23478 14.5 0.98043 14.3946 0.792893 14.2071C0.605357 14.0196 0.5 13.7652 0.5 13.5Z" stroke="#949494" stroke-linecap="square" stroke-linejoin="round"/>
</svg>
