<svg width="28" height="27" viewBox="0 0 28 27" fill="none" xmlns="http://www.w3.org/2000/svg">
<g clip-path="url(#clip0_10670_22352)">
<path d="M11.989 2.01601C12.8986 0.494663 15.1026 0.494663 16.0122 2.01601L18.8679 6.79237C19.196 7.34113 19.7341 7.73201 20.3574 7.87447L25.7823 9.11446C27.5103 9.50943 28.1915 11.6056 27.0256 12.9408L23.3655 17.1328C22.9451 17.6143 22.7396 18.2469 22.7966 18.8836L23.2938 24.4263C23.4521 26.1918 21.669 27.4873 20.0388 26.7911L14.9211 24.6056C14.3331 24.3545 13.6681 24.3545 13.0801 24.6056L7.96233 26.7911C6.3322 27.4873 4.54912 26.1918 4.70746 24.4263L5.20458 18.8836C5.26169 18.2469 5.05619 17.6143 4.63569 17.1328L0.975578 12.9408C-0.190232 11.6056 0.490847 9.50943 2.21883 9.11446L7.64388 7.87447C8.26715 7.73201 8.80518 7.34113 9.13327 6.79237L11.989 2.01601Z" fill="#FEC90D"/>
</g>
<defs>
<clipPath id="clip0_10670_22352">
<rect width="28" height="27" fill="white"/>
</clipPath>
</defs>
</svg>
