<svg width="38" height="22" viewBox="0 0 38 22" fill="none" xmlns="http://www.w3.org/2000/svg">
<path d="M18.5 18.5H10.5C10.2348 18.5 9.98043 18.3946 9.79289 18.2071C9.60536 18.0196 9.5 17.7652 9.5 17.5V5.5L12.5 2.5H28.5C28.7652 2.5 29.0196 2.60536 29.2071 2.79289C29.3946 2.98043 29.5 3.23478 29.5 3.5V7.5" stroke="#949494" stroke-linecap="round" stroke-linejoin="round"/>
<path d="M11.5 16.5H13.5" stroke="#949494" stroke-linecap="round" stroke-linejoin="round"/>
<path d="M11.5 14.5H13.5" stroke="#949494" stroke-linecap="round" stroke-linejoin="round"/>
<path d="M11.5 12.5H13.5" stroke="#949494" stroke-linecap="round" stroke-linejoin="round"/>
<path d="M11.5 10.5H13.5" stroke="#949494" stroke-linecap="round" stroke-linejoin="round"/>
<path d="M11.5 8.5H13.5" stroke="#949494" stroke-linecap="round" stroke-linejoin="round"/>
<path d="M11.5 6.5H13.5" stroke="#949494" stroke-linecap="round" stroke-linejoin="round"/>
<path d="M12.5 4.5H14.5" stroke="#949494" stroke-linecap="round" stroke-linejoin="round"/>
<path d="M17.5 16.5C17.2348 16.5 16.9804 16.3946 16.7929 16.2071C16.6054 16.0196 16.5 15.7652 16.5 15.5V5.5C16.5 5.23478 16.6054 4.98043 16.7929 4.79289C16.9804 4.60536 17.2348 4.5 17.5 4.5H26.5C26.7652 4.5 27.0196 4.60536 27.2071 4.79289C27.3946 4.98043 27.5 5.23478 27.5 5.5V6.5" stroke="#949494" stroke-linecap="round" stroke-linejoin="round"/>
<path d="M24.5 18.5C27.2614 18.5 29.5 16.2614 29.5 13.5C29.5 10.7386 27.2614 8.5 24.5 8.5C21.7386 8.5 19.5 10.7386 19.5 13.5C19.5 16.2614 21.7386 18.5 24.5 18.5Z" stroke="#FF6F00" stroke-linecap="round" stroke-linejoin="round"/>
<path d="M22.5 13.5H26.5" stroke="#FF6F00" stroke-linecap="square" stroke-linejoin="round"/>
</svg>
