<svg width="16" height="16" viewBox="0 0 16 16" fill="none" xmlns="http://www.w3.org/2000/svg">
<g clip-path="url(#clip0_10670_22428)">
<path d="M14.4529 14.5158L10.7559 10.7598" stroke="#949494" stroke-width="1.2" stroke-linecap="round" stroke-linejoin="round"/>
<path d="M6.5 1.2C7.54824 1.2 8.57294 1.51084 9.44452 2.09321C10.3161 2.67558 10.9954 3.50333 11.3966 4.47178C11.7977 5.44023 11.9027 6.50588 11.6982 7.53398C11.4937 8.56208 10.9889 9.50645 10.2477 10.2477C9.50645 10.9889 8.56208 11.4937 7.53398 11.6982C6.50588 11.9027 5.44023 11.7977 4.47178 11.3966C3.50333 10.9954 2.67559 10.3161 2.09321 9.44452C1.51084 8.57294 1.2 7.54824 1.2 6.5C1.20186 5.09492 1.76084 3.74792 2.75438 2.75438C3.74792 1.76084 5.09492 1.20185 6.5 1.2ZM6.5 0C5.21442 0 3.95772 0.381218 2.8888 1.09545C1.81988 1.80968 0.986756 2.82484 0.494786 4.01256C0.00281635 5.20028 -0.125905 6.50721 0.124899 7.76809C0.375703 9.02896 0.994768 10.1872 1.90381 11.0962C2.81285 12.0052 3.97104 12.6243 5.23192 12.8751C6.49279 13.1259 7.79973 12.9972 8.98744 12.5052C10.1752 12.0132 11.1903 11.1801 11.9046 10.1112C12.6188 9.04229 13 7.78558 13 6.5C13 4.77609 12.3152 3.12279 11.0962 1.90381C9.87721 0.684819 8.22391 0 6.5 0Z" fill="#949494"/>
<path d="M2.5 6.5C2.5 5.43913 2.92143 4.42172 3.67157 3.67157C4.42172 2.92143 5.43913 2.5 6.5 2.5" stroke="#949494" stroke-width="1.2" stroke-linecap="round" stroke-linejoin="round"/>
</g>
<defs>
<clipPath id="clip0_10670_22428">
<rect width="16" height="16" fill="white"/>
</clipPath>
</defs>
</svg>
