<svg width="16" height="16" viewBox="0 0 16 16" fill="none" xmlns="http://www.w3.org/2000/svg">
<path d="M14.5 11.5H12.5" stroke="#949494" stroke-linecap="square" stroke-linejoin="round"/>
<path d="M9.5 11.5H0.5" stroke="#949494" stroke-linecap="square" stroke-linejoin="round"/>
<path d="M10.5 14.5H11.5C12.0523 14.5 12.5 14.0523 12.5 13.5V9.5C12.5 8.94772 12.0523 8.5 11.5 8.5H10.5C9.94772 8.5 9.5 8.94772 9.5 9.5V13.5C9.5 14.0523 9.94772 14.5 10.5 14.5Z" stroke="#949494" stroke-linecap="round" stroke-linejoin="round"/>
<path d="M0.5 3.5H2.5" stroke="#949494" stroke-linecap="square" stroke-linejoin="round"/>
<path d="M5.5 3.5H14.5" stroke="#949494" stroke-linecap="square" stroke-linejoin="round"/>
<path d="M4.5 0.5H3.5C2.94772 0.5 2.5 0.947715 2.5 1.5V5.5C2.5 6.05228 2.94772 6.5 3.5 6.5H4.5C5.05228 6.5 5.5 6.05228 5.5 5.5V1.5C5.5 0.947715 5.05228 0.5 4.5 0.5Z" stroke="#949494" stroke-linecap="round" stroke-linejoin="round"/>
</svg>
