<svg width="40" height="40" viewBox="0 0 40 40" fill="none" xmlns="http://www.w3.org/2000/svg">
<path d="M24 19H29V20H24V19ZM31 19V20H35V19H31ZM10 20H15V19H10V20ZM4 20H8V19H4V20ZM19 29H20V24H19V29ZM19 35H20V31H19V35ZM20 17H19V19H17V20H19V22H20V20H22V19H20V17ZM20 10H19V15H20V10ZM20 4H19V8H20V4Z" fill="#FF7C3F"/>
<path d="M28.5 17C27.2144 17 25.9577 16.6188 24.8888 15.9046C23.8199 15.1903 22.9868 14.1752 22.4948 12.9874C22.0028 11.7997 21.8741 10.4928 22.1249 9.23192C22.3757 7.97104 22.9948 6.81285 23.9038 5.90381C24.8129 4.99477 25.971 4.3757 27.2319 4.1249C28.4928 3.87409 29.7997 4.00282 30.9874 4.49479C32.1752 4.98676 33.1903 5.81988 33.9046 6.8888C34.6188 7.95772 35 9.21442 35 10.5C34.9979 12.2233 34.3124 13.8753 33.0939 15.0939C31.8753 16.3124 30.2233 16.9979 28.5 17ZM28.5 5C27.4122 5 26.3488 5.32257 25.4444 5.92692C24.5399 6.53127 23.8349 7.39025 23.4187 8.39524C23.0024 9.40024 22.8935 10.5061 23.1057 11.573C23.3179 12.6399 23.8417 13.6199 24.6109 14.3891C25.3801 15.1583 26.3601 15.6821 27.427 15.8943C28.4939 16.1065 29.5998 15.9976 30.6048 15.5813C31.6098 15.1651 32.4687 14.4601 33.0731 13.5556C33.6774 12.6512 34 11.5878 34 10.5C33.9984 9.0418 33.4184 7.64378 32.3873 6.61267C31.3562 5.58156 29.9582 5.00159 28.5 5ZM10.5 17C9.21442 17 7.95772 16.6188 6.8888 15.9046C5.81988 15.1903 4.98676 14.1752 4.49479 12.9874C4.00282 11.7997 3.87409 10.4928 4.1249 9.23192C4.3757 7.97104 4.99477 6.81285 5.90381 5.90381C6.81285 4.99477 7.97104 4.3757 9.23192 4.1249C10.4928 3.87409 11.7997 4.00282 12.9874 4.49479C14.1752 4.98676 15.1903 5.81988 15.9046 6.8888C16.6188 7.95772 17 9.21442 17 10.5C16.9979 12.2233 16.3124 13.8753 15.0939 15.0939C13.8753 16.3124 12.2233 16.9979 10.5 17ZM10.5 5C9.41221 5 8.34884 5.32257 7.44437 5.92692C6.5399 6.53127 5.83495 7.39025 5.41867 8.39524C5.00238 9.40024 4.89347 10.5061 5.10568 11.573C5.3179 12.6399 5.84173 13.6199 6.61092 14.3891C7.3801 15.1583 8.36011 15.6821 9.42701 15.8943C10.4939 16.1065 11.5998 15.9976 12.6048 15.5813C13.6098 15.1651 14.4687 14.4601 15.0731 13.5556C15.6774 12.6512 16 11.5878 16 10.5C15.9984 9.0418 15.4184 7.64378 14.3873 6.61267C13.3562 5.58156 11.9582 5.00159 10.5 5ZM10.5 35C9.21442 35 7.95772 34.6188 6.8888 33.9046C5.81988 33.1903 4.98676 32.1752 4.49479 30.9874C4.00282 29.7997 3.87409 28.4928 4.1249 27.2319C4.3757 25.971 4.99477 24.8129 5.90381 23.9038C6.81285 22.9948 7.97104 22.3757 9.23192 22.1249C10.4928 21.8741 11.7997 22.0028 12.9874 22.4948C14.1752 22.9868 15.1903 23.8199 15.9046 24.8888C16.6188 25.9577 17 27.2144 17 28.5C16.9979 30.2233 16.3124 31.8753 15.0939 33.0939C13.8753 34.3124 12.2233 34.9979 10.5 35ZM10.5 23C9.41221 23 8.34884 23.3226 7.44437 23.9269C6.5399 24.5313 5.83495 25.3903 5.41867 26.3952C5.00238 27.4002 4.89347 28.5061 5.10568 29.573C5.3179 30.6399 5.84173 31.6199 6.61092 32.3891C7.3801 33.1583 8.36011 33.6821 9.42701 33.8943C10.4939 34.1065 11.5998 33.9976 12.6048 33.5813C13.6098 33.1651 14.4687 32.4601 15.0731 31.5556C15.6774 30.6512 16 29.5878 16 28.5C15.9982 27.0419 15.4181 25.644 14.387 24.613C13.356 23.5819 11.9581 23.0019 10.5 23ZM28.5 35C27.2144 35 25.9577 34.6188 24.8888 33.9046C23.8199 33.1903 22.9868 32.1752 22.4948 30.9874C22.0028 29.7997 21.8741 28.4928 22.1249 27.2319C22.3757 25.971 22.9948 24.8129 23.9038 23.9038C24.8129 22.9948 25.971 22.3757 27.2319 22.1249C28.4928 21.8741 29.7997 22.0028 30.9874 22.4948C32.1752 22.9868 33.1903 23.8199 33.9046 24.8888C34.6188 25.9577 35 27.2144 35 28.5C34.9979 30.2233 34.3124 31.8753 33.0939 33.0939C31.8753 34.3124 30.2233 34.9979 28.5 35ZM28.5 23C27.4122 23 26.3488 23.3226 25.4444 23.9269C24.5399 24.5313 23.8349 25.3903 23.4187 26.3952C23.0024 27.4002 22.8935 28.5061 23.1057 29.573C23.3179 30.6399 23.8417 31.6199 24.6109 32.3891C25.3801 33.1583 26.3601 33.6821 27.427 33.8943C28.4939 34.1065 29.5998 33.9976 30.6048 33.5813C31.6098 33.1651 32.4687 32.4601 33.0731 31.5556C33.6774 30.6512 34 29.5878 34 28.5C33.9982 27.0419 33.4181 25.644 32.387 24.613C31.356 23.5819 29.9581 23.0019 28.5 23Z" fill="#2B3436"/>
</svg>
