<svg width="16" height="16" viewBox="0 0 16 16" fill="none" xmlns="http://www.w3.org/2000/svg">
<path d="M4.5 13.7C4.206 14.211 3.864 14.5 3.5 14.5C2.4 14.5 1.5 10.814 1.5 7.5C1.5 4.186 2.4 0.5 3.5 0.5C3.865 0.5 4.207 0.793 4.5 1.305" stroke="#949494" stroke-linecap="round" stroke-linejoin="round"/>
<path d="M6.5 14.5C5.395 14.5 4.5 10.814 4.5 7.5C4.5 4.186 5.395 0.5 6.5 0.5" stroke="#FF7C3F" stroke-linecap="round" stroke-linejoin="round"/>
<path d="M9.5 14.5C8.395 14.5 7.5 10.814 7.5 7.5C7.5 4.186 8.395 0.5 9.5 0.5" stroke="#FF7C3F" stroke-linecap="round" stroke-linejoin="round"/>
<path d="M12.5 14.5C13.6046 14.5 14.5 11.366 14.5 7.5C14.5 3.63401 13.6046 0.5 12.5 0.5C11.3954 0.5 10.5 3.63401 10.5 7.5C10.5 11.366 11.3954 14.5 12.5 14.5Z" stroke="#949494" stroke-linecap="square" stroke-linejoin="round"/>
</svg>
