<svg width="20" height="20" viewBox="0 0 20 20" fill="none" xmlns="http://www.w3.org/2000/svg">
<path d="M9.5 19C14.7467 19 19 14.7467 19 9.5C19 4.25329 14.7467 0 9.5 0C4.25329 0 0 4.25329 0 9.5C0 14.7467 4.25329 19 9.5 19Z" fill="#949494"/>
<path d="M6.5 7.5C6.5 6.70435 6.81607 5.94129 7.37868 5.37868C7.94129 4.81607 8.70435 4.5 9.5 4.5C10.2956 4.5 11.0587 4.81607 11.6213 5.37868C12.1839 5.94129 12.5 6.70435 12.5 7.5C12.5 10.5 6.5 9.5 6.5 13.5V14.5H12.5" stroke="white" stroke-linecap="round" stroke-linejoin="round"/>
</svg>
