<svg width="47" height="47" viewBox="0 0 47 47" fill="none" xmlns="http://www.w3.org/2000/svg">
<g clip-path="url(#clip0_10670_20659)">
<g filter="url(#filter0_d_10670_20659)">
<path d="M23.3301 40.6602C32.9012 40.6602 40.6602 32.9012 40.6602 23.3301C40.6602 13.7589 32.9012 6 23.3301 6C13.7589 6 6 13.7589 6 23.3301C6 32.9012 13.7589 40.6602 23.3301 40.6602Z" fill="#747671"/>
<path d="M23.3301 40.1602C32.6251 40.1602 40.1602 32.6251 40.1602 23.3301C40.1602 14.0351 32.6251 6.5 23.3301 6.5C14.0351 6.5 6.5 14.0351 6.5 23.3301C6.5 32.6251 14.0351 40.1602 23.3301 40.1602Z" stroke="#828280"/>
</g>
<path d="M17.1943 17.1445H29.9759" stroke="#AEAEAE" stroke-width="2" stroke-linecap="round"/>
<path d="M17.1943 23.0508H29.9759" stroke="#AEAEAE" stroke-width="2" stroke-linecap="round"/>
<path d="M17.1943 28.9551H29.9759" stroke="#AEAEAE" stroke-width="2" stroke-linecap="round"/>
<path d="M17.1943 16.7227H29.9759" stroke="#3B3B3A" stroke-width="2" stroke-linecap="round"/>
<path d="M17.1943 22.6289H29.9759" stroke="#3B3B3A" stroke-width="2" stroke-linecap="round"/>
<path d="M17.1943 28.5332H29.9759" stroke="#3B3B3A" stroke-width="2" stroke-linecap="round"/>
</g>
<defs>
<filter id="filter0_d_10670_20659" x="0" y="0" width="46.6602" height="46.6602" filterUnits="userSpaceOnUse" color-interpolation-filters="sRGB">
<feFlood flood-opacity="0" result="BackgroundImageFix"/>
<feColorMatrix in="SourceAlpha" type="matrix" values="0 0 0 0 0 0 0 0 0 0 0 0 0 0 0 0 0 0 127 0" result="hardAlpha"/>
<feOffset/>
<feGaussianBlur stdDeviation="3"/>
<feComposite in2="hardAlpha" operator="out"/>
<feColorMatrix type="matrix" values="0 0 0 0 0 0 0 0 0 0 0 0 0 0 0 0 0 0 0.15 0"/>
<feBlend mode="normal" in2="BackgroundImageFix" result="effect1_dropShadow_10670_20659"/>
<feBlend mode="normal" in="SourceGraphic" in2="effect1_dropShadow_10670_20659" result="shape"/>
</filter>
<clipPath id="clip0_10670_20659">
<rect width="47" height="47" fill="white"/>
</clipPath>
</defs>
</svg>
