<svg width="407" height="141" viewBox="0 0 407 141" fill="none" xmlns="http://www.w3.org/2000/svg">
<path d="M377.365 14.6718L336.592 1.42383L295.819 14.6718L270.62 49.3554V92.2266L295.819 126.91L336.592 140.158L377.365 126.91L402.564 92.2266V49.3554L377.365 14.6718Z" stroke="#262E30"/>
<path d="M97.0747 6.68967L70.5237 1.4082L43.9717 6.68967L21.4617 21.7301L6.42163 44.2396L1.14062 70.7913L6.42163 97.343L21.4617 119.852L43.9717 134.893L70.5237 140.174L97.0747 134.893L119.585 119.852L134.625 97.343L139.907 70.7913L134.625 44.2395L119.585 21.7301L97.0747 6.68967Z" stroke="#262E30"/>
<path d="M149.063 80.4959C148.672 80.1054 148.672 79.4722 149.063 79.0817L155.427 72.7177C155.817 72.3272 156.451 72.3272 156.841 72.7177C157.232 73.1082 157.232 73.7414 156.841 74.1319L151.184 79.7888L156.841 85.4456C157.232 85.8361 157.232 86.4693 156.841 86.8598C156.451 87.2504 155.817 87.2504 155.427 86.8598L149.063 80.4959ZM255 80.7888H149.77V78.7888H255V80.7888Z" fill="#262E30"/>
</svg>
