<svg width="815" height="1024" viewBox="0 0 815 1024" fill="none" xmlns="http://www.w3.org/2000/svg">
<path d="M791 346.861C791 332.46 779.367 320.699 764.854 320.699H650.318C676.583 289.375 738.708 215.206 760.296 189.403C769.652 177.642 761.377 160 746.145 160H371.593C346.886 160 310.186 180.282 289.437 205.004C69.5996 467.475 55.3278 484.397 55.3278 484.397C47.1719 495.198 53.8887 512 68.5203 512C90.8275 512 157.391 512 157.391 512L28.942 664.777C16.8287 681.34 28.3423 704.623 48.7315 705.342H165.067L69.2398 819.715C54.4877 836.037 54.0075 838.557 53.5289 839.758C48.9708 851.039 56.8873 863.52 69.0005 864H444.871C469.578 864 506.398 844.438 527.146 819.715C527.146 819.715 758.618 543.563 761.616 539.482C768.452 530.482 764.135 516.44 752.62 512.719C747.943 511.281 750.582 512.239 660.391 511.88C663.03 508.639 780.205 369.184 783.684 364.983C788.482 359.942 791 353.461 791 346.741V346.861ZM92.8673 487.757C89.268 487.276 87.9494 482.836 90.3473 480.437L307.907 220.606C325.658 199.364 356.241 184.242 371.472 184.242H727.315C729.594 184.242 730.434 186.763 729.594 188.083C729.473 188.203 618.535 320.699 618.535 320.699H371.472C356.72 320.699 338.611 325.858 320.74 335.46C303.23 344.82 287.399 357.302 276.005 370.864L177.66 487.757C86.9906 487.757 92.9861 487.757 92.6263 487.757H92.8673ZM369.673 487.757C386.944 469.996 415.487 454.153 433.718 454.153H506.758C488.048 474.916 459.143 487.757 444.871 487.757H369.673ZM594.788 536.243C592.63 538.763 558.089 583.528 520.069 583.528H298.913L338.491 536.243H594.788ZM433.718 419.469C402.174 419.469 361.158 443.711 338.491 470.715C324.458 488.237 324.938 487.757 324.938 487.757H223.114L302.63 393.187C321.94 370.144 354.441 355.382 371.472 355.382H589.511L535.782 419.469H433.598H433.718ZM74.7568 670.658C72.4777 670.539 71.278 667.778 72.958 666.097L82.4324 654.816L202.486 512H304.43L228.151 602.971L171.424 670.658H74.7568ZM727.435 536.243C728.995 536.243 731.272 538.162 729.113 540.804C741.108 526.642 508.557 804.113 508.557 804.113C490.446 825.717 459.744 839.758 444.871 839.758H89.3884C87.4691 839.517 86.5103 837.357 87.4691 835.796C87.4691 835.796 253.218 638.014 269.769 618.212H519.95C555.211 618.212 594.788 590.009 613.978 567.206L639.883 536.243H727.315H727.435ZM742.306 360.543C651.996 468.196 655.475 463.995 615.178 512H500.161C515.872 502.879 530.144 491.238 540.579 478.876L643.961 355.382H741.108C741.827 355.382 745.664 356.342 742.306 360.543Z" fill="#292826"/>
</svg>
