<svg width="16" height="16" viewBox="0 0 16 16" fill="none" xmlns="http://www.w3.org/2000/svg">
<path d="M15 11.5C15 12.1922 14.7947 12.8689 14.4101 13.4445C14.0256 14.0201 13.4789 14.4687 12.8394 14.7336C12.1999 14.9985 11.4961 15.0678 10.8172 14.9327C10.1383 14.7977 9.51461 14.4644 9.02513 13.9749C8.53564 13.4854 8.2023 12.8618 8.06725 12.1828C7.9322 11.5039 8.00152 10.8001 8.26642 10.1606C8.53133 9.52107 8.97993 8.97444 9.55551 8.58986C10.1311 8.20527 10.8078 8 11.5 8C12.4283 8 13.3185 8.36875 13.9749 9.02513C14.6313 9.6815 15 10.5717 15 11.5ZM14 11H12V9H11V11H9V12H11V14H12V12H14V11Z" fill="#FF7C3F"/>
<path opacity="0.5" d="M2.5 1.5H12.5" stroke="#949494" stroke-linecap="round" stroke-linejoin="round"/>
<path d="M1.54102 12.5C1.7773 9.67258 3.00778 7.02032 5.01405 5.01405C7.02032 3.00778 9.67258 1.7773 12.5 1.54102" stroke="#FF7C3F" stroke-linecap="round" stroke-linejoin="round"/>
<path d="M14.5 0.5H12.5V2.5H14.5V0.5Z" stroke="#949494" stroke-linecap="round" stroke-linejoin="round"/>
<path d="M2.5 12.5H0.5V14.5H2.5V12.5Z" stroke="#949494" stroke-linecap="round" stroke-linejoin="round"/>
<path d="M1.5 3C2.32843 3 3 2.32843 3 1.5C3 0.671573 2.32843 0 1.5 0C0.671573 0 0 0.671573 0 1.5C0 2.32843 0.671573 3 1.5 3Z" fill="#949494"/>
</svg>
