<svg width="20" height="20" viewBox="0 0 20 20" fill="none" xmlns="http://www.w3.org/2000/svg">
<path d="M1.5 7.5L9.5 2.5L17.5 7.5V16.5C17.5 16.7652 17.3946 17.0196 17.2071 17.2071C17.0196 17.3946 16.7652 17.5 16.5 17.5H11.5V11.5C11.5 11.2348 11.3946 10.9804 11.2071 10.7929C11.0196 10.6054 10.7652 10.5 10.5 10.5H8.5C8.23478 10.5 7.98043 10.6054 7.79289 10.7929C7.60536 10.9804 7.5 11.2348 7.5 11.5V17.5H2.5C2.23478 17.5 1.98043 17.3946 1.79289 17.2071C1.60536 17.0196 1.5 16.7652 1.5 16.5V7.5Z" stroke="white" stroke-linecap="round" stroke-linejoin="round"/>
</svg>
