<svg width="20" height="20" viewBox="0 0 20 20" fill="none" xmlns="http://www.w3.org/2000/svg">
<path d="M4.5 14.5H14.5" stroke="white" stroke-miterlimit="10" stroke-linecap="square"/>
<path d="M8.5 9.5L9.5 11.5" stroke="white" stroke-linecap="round" stroke-linejoin="round"/>
<path d="M10.5 9.5L9.5 11.5" stroke="white" stroke-linecap="round" stroke-linejoin="round"/>
<path d="M4.5 6.5H7" stroke="white" stroke-miterlimit="10" stroke-linecap="square"/>
<path d="M12 6.5H14.5" stroke="white" stroke-miterlimit="10" stroke-linecap="square"/>
<path d="M11 4.5H8C7.72386 4.5 7.5 4.72386 7.5 5V9C7.5 9.27614 7.72386 9.5 8 9.5H11C11.2761 9.5 11.5 9.27614 11.5 9V5C11.5 4.72386 11.2761 4.5 11 4.5Z" stroke="white" stroke-miterlimit="10"/>
<path d="M16.5 2.5H2.5C1.94772 2.5 1.5 2.94772 1.5 3.5V16.5C1.5 17.0523 1.94772 17.5 2.5 17.5H16.5C17.0523 17.5 17.5 17.0523 17.5 16.5V3.5C17.5 2.94772 17.0523 2.5 16.5 2.5Z" stroke="white" stroke-miterlimit="10"/>
<path d="M10 7H9V8H10V7Z" fill="white"/>
</svg>
