<svg width="20" height="20" viewBox="0 0 20 20" fill="none" xmlns="http://www.w3.org/2000/svg">
<path opacity="0.5" d="M14.5 11.5H12.5C11.9477 11.5 11.5 11.9477 11.5 12.5V16.5C11.5 17.0523 11.9477 17.5 12.5 17.5H14.5C15.0523 17.5 15.5 17.0523 15.5 16.5V12.5C15.5 11.9477 15.0523 11.5 14.5 11.5Z" stroke="white" stroke-miterlimit="10"/>
<path opacity="0.5" d="M1.5 14.5H10.5" stroke="white" stroke-miterlimit="10" stroke-linecap="square"/>
<path opacity="0.5" d="M16.5 14.5H17.5" stroke="white" stroke-miterlimit="10" stroke-linecap="square"/>
<path opacity="0.5" d="M6.5 2.5H4.5C3.94772 2.5 3.5 2.94772 3.5 3.5V7.5C3.5 8.05228 3.94772 8.5 4.5 8.5H6.5C7.05228 8.5 7.5 8.05228 7.5 7.5V3.5C7.5 2.94772 7.05228 2.5 6.5 2.5Z" stroke="white" stroke-miterlimit="10"/>
<path opacity="0.5" d="M1.5 5.5H2.5" stroke="white" stroke-miterlimit="10" stroke-linecap="square"/>
<path opacity="0.5" d="M8.5 5.5H17.5" stroke="white" stroke-miterlimit="10" stroke-linecap="square"/>
</svg>
