<svg width="20" height="20" viewBox="0 0 20 20" fill="none" xmlns="http://www.w3.org/2000/svg">
<path d="M16.5 2.5H2.5C1.94772 2.5 1.5 2.94772 1.5 3.5V16.5C1.5 17.0523 1.94772 17.5 2.5 17.5H16.5C17.0523 17.5 17.5 17.0523 17.5 16.5V3.5C17.5 2.94772 17.0523 2.5 16.5 2.5Z" stroke="white" stroke-miterlimit="10"/>
<path d="M4.5 14.5H5.5" stroke="white" stroke-linecap="square" stroke-linejoin="round"/>
<path d="M8.5 14.5H14.5" stroke="white" stroke-miterlimit="10" stroke-linecap="square"/>
<path d="M4.5 11.5H5.5" stroke="white" stroke-linecap="square" stroke-linejoin="round"/>
<path d="M8.5 11.5H14.5" stroke="white" stroke-miterlimit="10" stroke-linecap="square"/>
<path d="M4.5 11.5H5.5" stroke="white" stroke-linecap="square" stroke-linejoin="round"/>
<path d="M8.5 11.5H14.5" stroke="white" stroke-miterlimit="10" stroke-linecap="square"/>
<path d="M4.5 8.5H5.5" stroke="white" stroke-linecap="square" stroke-linejoin="round"/>
<path d="M8.5 8.5H14.5" stroke="white" stroke-miterlimit="10" stroke-linecap="square"/>
<path d="M4.5 8.5H5.5" stroke="white" stroke-linecap="square" stroke-linejoin="round"/>
<path d="M8.5 8.5H14.5" stroke="white" stroke-miterlimit="10" stroke-linecap="square"/>
<path d="M4.5 5.5H5.5" stroke="white" stroke-linecap="square" stroke-linejoin="round"/>
<path d="M8.5 5.5H14.5" stroke="white" stroke-miterlimit="10" stroke-linecap="square"/>
</svg>
