<svg width="256" height="256" viewBox="0 0 256 256" fill="none" xmlns="http://www.w3.org/2000/svg">
<g clip-path="url(#clip0_10670_20785)">
<path d="M0 0H256V256H0V0Z" fill="#2D2D31"/>
<path fill-rule="evenodd" clip-rule="evenodd" d="M14.22 0H7.11V7.11H0V14.22H7.11V21.33H0V28.44H7.11V35.56H0V42.67H7.11V35.56H14.22V42.67H21.33V35.56H28.44V42.67H35.56V35.56H42.67V42.67H49.78V35.56H56.89V42.67H64V35.56H71.11V42.67H78.22V35.56H85.33V28.44H78.22V21.33H85.33V14.22H78.22V7.11H85.33V0H78.22V7.11H71.11V0H64V7.11H56.89V0H49.78V7.11H42.67V0H35.56V7.11H28.44V0H21.33V7.11H14.22V0ZM14.22 14.22V7.11H7.11V14.22H14.22ZM21.33 14.22H14.22V21.33H7.11V28.44H14.22V35.56H21.33V28.44H28.44V35.56H35.56V28.44H42.67V35.56H49.78V28.44H56.89V35.56H64V28.44H71.11V35.56H78.22V28.44H71.11V21.33H78.22V14.22H71.11V7.11H64V14.22H56.89V7.11H49.78V14.22H42.67V7.11H35.56V14.22H28.44V7.11H21.33V14.22ZM21.33 21.33V14.22H28.44V21.33H21.33ZM35.56 21.33V28.44H28.44V21.33H35.56ZM42.67 21.33V14.22H35.56V21.33H42.67ZM49.78 21.33V14.22H56.89V21.33H49.78ZM64 21.33H71.11V14.22H64V21.33ZM64 21.33H56.89V28.44H64V21.33ZM49.78 21.33H42.67V28.44H49.78V21.33ZM21.33 21.33V28.44H14.22V21.33H21.33Z" fill="#2D2D31"/>
<path fill-rule="evenodd" clip-rule="evenodd" d="M85.33 42.6699H7.11V49.7799H0V56.8899H7.11V63.9999H0V71.1099H7.11V78.2199H0V85.3299H7.11V78.2199H14.22V85.3299H21.33V78.2199H28.44V85.3299H35.56V78.2199H42.67V85.3299H49.78V78.2199H56.89V85.3299H64V78.2199H71.11V85.3299H78.22V78.2199H85.33V71.1099H78.22V63.9999H85.33V56.8899H78.22V49.7799H85.33V42.6699ZM71.11 49.7799H78.22V42.6699H71.11V49.7799ZM71.11 56.8899V49.7799H64V42.6699H56.89V49.7799H49.78V42.6699H42.67V49.7799H35.56V42.6699H28.44V49.7799H21.33V42.6699H14.22V49.7799H7.11V56.8899H14.22V63.9999H7.11V71.1099H14.22V78.2199H21.33V71.1099H28.44V78.2199H35.56V71.1099H42.67V78.2199H49.78V71.1099H56.89V78.2199H64V71.1099H71.11V78.2199H78.22V71.1099H71.11V63.9999H78.22V56.8899H71.11ZM64 56.8899V49.7799H56.89V56.8899H49.78V49.7799H42.67V56.8899H35.56V49.7799H28.44V56.8899H21.33V49.7799H14.22V56.8899H21.33V63.9999H14.22V71.1099H21.33V63.9999H28.44V71.1099H35.56V63.9999H42.67V71.1099H49.78V63.9999H56.89V71.1099H64V63.9999H71.11V56.8899H64ZM64 56.8899H56.89V63.9999H64V56.8899ZM49.78 63.9999H42.67V56.8899H49.78V63.9999ZM35.56 63.9999H28.44V56.8899H35.56V63.9999Z" fill="#2D2D31"/>
<path fill-rule="evenodd" clip-rule="evenodd" d="M14.22 85.3301H0H7.11V92.4401H14.22V99.5601H7.11V92.4401H0V99.5601H7.11V106.67H0V113.78H7.11V120.89H0V128H7.11V120.89H14.22V128H21.33V120.89H28.44V128H35.56V120.89H42.67V128H49.78V120.89H56.89V128H64V120.89H71.11V128H78.22V120.89H85.33V113.78H78.22V106.67H85.33V99.5601H78.22V92.4401H85.33V85.3301H78.22V92.4401H71.11V85.3301H64V92.4401H56.89V85.3301H49.78V92.4401H42.67V85.3301H35.56V92.4401H28.44V85.3301H21.33V92.4401H14.22V85.3301ZM21.33 99.5601V92.4401H28.44V99.5601H21.33ZM21.33 106.67V99.5601H14.22V106.67H7.11V113.78H14.22V120.89H21.33V113.78H28.44V120.89H35.56V113.78H42.67V120.89H49.78V113.78H56.89V120.89H64V113.78H71.11V120.89H78.22V113.78H71.11V106.67H78.22V99.5601H71.11V92.4401H64V99.5601H56.89V92.4401H49.78V99.5601H42.67V92.4401H35.56V99.5601H28.44V106.67H21.33ZM35.56 106.67V113.78H28.44V106.67H35.56ZM42.67 106.67V99.5601H35.56V106.67H42.67ZM49.78 106.67V113.78H42.67V106.67H49.78ZM56.89 106.67V99.5601H49.78V106.67H56.89ZM64 106.67H71.11V99.5601H64V106.67ZM64 106.67H56.89V113.78H64V106.67ZM21.33 106.67V113.78H14.22V106.67H21.33Z" fill="#2D2D31"/>
<path fill-rule="evenodd" clip-rule="evenodd" d="M14.22 128H7.11V135.11H0V142.22H7.11V149.33H0V156.44H7.11V163.56H0V170.67H7.11V163.56H14.22V170.67H21.33V163.56H28.44V170.67H35.56V163.56H42.67V170.67H49.78V163.56H56.89V170.67H64V163.56H71.11V170.67H78.22V163.56H85.33V156.44H78.22V149.33H85.33V142.22H78.22V135.11H85.33V128H78.22V135.11H71.11V128H64V135.11H56.89V128H49.78V135.11H42.67V128H35.56V135.11H28.44V128H21.33V135.11H14.22V128ZM14.22 142.22V135.11H7.11V142.22H14.22ZM21.33 142.22H14.22V149.33H7.11V156.44H14.22V163.56H21.33V156.44H28.44V163.56H35.56V156.44H42.67V163.56H49.78V156.44H56.89V163.56H64V156.44H71.11V163.56H78.22V156.44H71.11V149.33H78.22V142.22H71.11V135.11H64V142.22H56.89V135.11H49.78V142.22H42.67V135.11H35.56V142.22H28.44V135.11H21.33V142.22ZM21.33 149.33V142.22H28.44V149.33H21.33ZM35.56 149.33V156.44H28.44V149.33H35.56ZM42.67 149.33V142.22H35.56V149.33H42.67ZM49.78 149.33V142.22H56.89V149.33H49.78ZM64 149.33H71.11V142.22H64V149.33ZM64 149.33H56.89V156.44H64V149.33ZM49.78 149.33H42.67V156.44H49.78V149.33ZM21.33 149.33V156.44H14.22V149.33H21.33Z" fill="#2D2D31"/>
<path fill-rule="evenodd" clip-rule="evenodd" d="M85.33 170.67H7.11V177.78H0V184.89H7.11V192H0V199.11H7.11V206.22H0V213.33H7.11V206.22H14.22V213.33H21.33V206.22H28.44V213.33H35.56V206.22H42.67V213.33H49.78V206.22H56.89V213.33H64V206.22H71.11V213.33H78.22V206.22H85.33V199.11H78.22V192H85.33V184.89H78.22V177.78H85.33V170.67ZM71.11 177.78H78.22V170.67H71.11V177.78ZM71.11 184.89V177.78H64V170.67H56.89V177.78H49.78V170.67H42.67V177.78H35.56V170.67H28.44V177.78H21.33V170.67H14.22V177.78H7.11V184.89H14.22V192H7.11V199.11H14.22V206.22H21.33V199.11H28.44V206.22H35.56V199.11H42.67V206.22H49.78V199.11H56.89V206.22H64V199.11H71.11V206.22H78.22V199.11H71.11V192H78.22V184.89H71.11ZM64 184.89V177.78H56.89V184.89H49.78V177.78H42.67V184.89H35.56V177.78H28.44V184.89H21.33V177.78H14.22V184.89H21.33V192H14.22V199.11H21.33V192H28.44V199.11H35.56V192H42.67V199.11H49.78V192H56.89V199.11H64V192H71.11V184.89H64ZM64 184.89H56.89V192H64V184.89ZM49.78 192H42.67V184.89H49.78V192ZM35.56 192H28.44V184.89H35.56V192Z" fill="#2D2D31"/>
<path fill-rule="evenodd" clip-rule="evenodd" d="M14.22 213.33H0H7.11V220.44H14.22V227.56H7.11V220.44H0V227.56H7.11V234.67H0V241.78H7.11V248.89H0V256H7.11V248.89H14.22V256H21.33V248.89H28.44V256H35.56V248.89H42.67V256H49.78V248.89H56.89V256H64V248.89H71.11V256H78.22V248.89H85.33V241.78H78.22V234.67H85.33V227.56H78.22V220.44H85.33V213.33H78.22V220.44H71.11V213.33H64V220.44H56.89V213.33H49.78V220.44H42.67V213.33H35.56V220.44H28.44V213.33H21.33V220.44H14.22V213.33ZM21.33 227.56V220.44H28.44V227.56H21.33ZM21.33 234.67V227.56H14.22V234.67H7.11V241.78H14.22V248.89H21.33V241.78H28.44V248.89H35.56V241.78H42.67V248.89H49.78V241.78H56.89V248.89H64V241.78H71.11V248.89H78.22V241.78H71.11V234.67H78.22V227.56H71.11V220.44H64V227.56H56.89V220.44H49.78V227.56H42.67V220.44H35.56V227.56H28.44V234.67H21.33ZM35.56 234.67V241.78H28.44V234.67H35.56ZM42.67 234.67V227.56H35.56V234.67H42.67ZM49.78 234.67V241.78H42.67V234.67H49.78ZM56.89 234.67V227.56H49.78V234.67H56.89ZM64 234.67H71.11V227.56H64V234.67ZM64 234.67H56.89V241.78H64V234.67ZM21.33 234.67V241.78H14.22V234.67H21.33Z" fill="#2D2D31"/>
<path fill-rule="evenodd" clip-rule="evenodd" d="M85.3398 0V42.67H92.4498V35.56H99.5598V42.67H106.67V35.56H113.78V42.67H120.89V35.56H128V42.67H135.12V35.56H142.23V42.67H149.34V35.56H156.45V42.67H163.56V35.56H170.67V28.44H163.56V21.33H170.67V14.22H163.56V7.11H170.67V0H163.56V7.11H156.45V0H149.34V7.11H142.23V0H135.12V7.11H128V0H120.89V7.11H113.78V0H106.67V7.11H99.5598V0H92.4498V7.11H85.3398V0ZM92.4498 14.22V7.11H99.5598V14.22H92.4498ZM92.4498 21.33H85.3398V14.22H92.4498V21.33ZM99.5598 21.33V14.22H106.67V21.33H99.5598ZM99.5598 28.44V21.33H92.4498V28.44H85.3398V35.56H92.4498V28.44H99.5598ZM106.67 28.44V35.56H99.5598V28.44H106.67ZM113.78 28.44H106.67V21.33H113.78V28.44ZM120.89 28.44V35.56H113.78V28.44H120.89ZM120.89 21.33V28.44H128V35.56H135.12V28.44H142.23V35.56H149.34V28.44H156.45V35.56H163.56V28.44H156.45V21.33H163.56V14.22H156.45V7.11H149.34V14.22H142.23V7.11H135.12V14.22H128V7.11H120.89V14.22H113.78V7.11H106.67V14.22H113.78V21.33H120.89ZM128 21.33V14.22H120.89V21.33H128ZM135.12 21.33V14.22H142.23V21.33H135.12ZM149.34 21.33H156.45V14.22H149.34V21.33ZM149.34 21.33H142.23V28.44H149.34V21.33ZM135.12 21.33H128V28.44H135.12V21.33Z" fill="#2D2D31"/>
<path fill-rule="evenodd" clip-rule="evenodd" d="M170.67 42.6699H85.3398V85.3299H92.4498V78.2199H99.5598V85.3299H106.67V78.2199H113.78V85.3299H120.89V78.2199H128V85.3299H135.12V78.2199H142.23V85.3299H149.34V78.2199H156.45V85.3299H163.56V78.2199H170.67V71.1099H163.56V63.9999H170.67V56.8899H163.56V49.7799H170.67V42.6699ZM156.45 49.7799H163.56V42.6699H156.45V49.7799ZM156.45 56.8899V49.7799H149.34V42.6699H142.23V49.7799H135.12V42.6699H128V49.7799H120.89V42.6699H113.78V49.7799H106.67V42.6699H99.5598V49.7799H92.4498V42.6699H85.3398V49.7799H92.4498V56.8899H85.3398V63.9999H92.4498V71.1099H85.3398V78.2199H92.4498V71.1099H99.5598V78.2199H106.67V71.1099H113.78V78.2199H120.89V71.1099H128V78.2199H135.12V71.1099H142.23V78.2199H149.34V71.1099H156.45V78.2199H163.56V71.1099H156.45V63.9999H163.56V56.8899H156.45ZM149.34 56.8899V49.7799H142.23V56.8899H135.12V49.7799H128V56.8899H120.89V49.7799H113.78V56.8899H106.67V49.7799H99.5598V56.8899H92.4498V63.9999H99.5598V71.1099H106.67V63.9999H113.78V71.1099H120.89V63.9999H128V71.1099H135.12V63.9999H142.23V71.1099H149.34V63.9999H156.45V56.8899H149.34ZM149.34 56.8899V63.9999H142.23V56.8899H149.34ZM135.12 63.9999V56.8899H128V63.9999H135.12ZM120.89 63.9999H113.78V56.8899H120.89V63.9999ZM106.67 63.9999V56.8899H99.5598V63.9999H106.67Z" fill="#2D2D31"/>
<path fill-rule="evenodd" clip-rule="evenodd" d="M85.3398 85.3301V128H170.67H163.56V120.89H170.67V113.78H163.56V106.67H170.67V99.5601H163.56V92.4401H170.67V85.3301H163.56V92.4401H156.45V85.3301H149.34V92.4401H142.23V85.3301H135.12V92.4401H128V85.3301H120.89V92.4401H113.78V85.3301H106.67V92.4401H99.5598V85.3301H92.4498V92.4401H85.3398V85.3301ZM92.4498 99.5601V92.4401H99.5598V99.5601H92.4498ZM92.4498 106.67H85.3398V99.5601H92.4498V106.67ZM99.5598 106.67V99.5601H106.67V106.67H99.5598ZM99.5598 113.78V106.67H92.4498V113.78H85.3398V120.89H92.4498V128H99.5598V120.89H106.67V128H113.78V120.89H120.89V128H128V120.89H135.12V128H142.23V120.89H149.34V128H156.45V120.89H163.56V113.78H156.45V106.67H163.56V99.5601H156.45V92.4401H149.34V99.5601H142.23V92.4401H135.12V99.5601H128V92.4401H120.89V99.5601H113.78V92.4401H106.67V99.5601H113.78V106.67H106.67V113.78H99.5598ZM113.78 113.78V106.67H120.89V113.78H113.78ZM128 113.78H120.89V120.89H128V113.78ZM128 106.67H120.89V99.5601H128V106.67ZM135.12 106.67V99.5601H142.23V106.67H135.12ZM135.12 113.78H128V106.67H135.12V113.78ZM142.23 113.78V120.89H135.12V113.78H142.23ZM149.34 113.78V120.89H156.45V113.78H149.34ZM149.34 106.67V99.5601H156.45V106.67H149.34ZM149.34 106.67V113.78H142.23V106.67H149.34ZM113.78 113.78V120.89H106.67V113.78H113.78ZM99.5598 113.78V120.89H92.4498V113.78H99.5598Z" fill="#2D2D31"/>
<path fill-rule="evenodd" clip-rule="evenodd" d="M85.3398 128V170.67H92.4498V163.56H99.5598V170.67H106.67V163.56H113.78V170.67H120.89V163.56H128V170.67H135.12V163.56H142.23V170.67H149.34V163.56H156.45V170.67H163.56V163.56H170.67V156.44H163.56V149.33H170.67V142.22H163.56V135.11H170.67V128H163.56V135.11H156.45V128H149.34V135.11H142.23V128H135.12V135.11H128V128H120.89V135.11H113.78V128H106.67V135.11H99.5598V128H92.4498V135.11H85.3398V128ZM92.4498 142.22V135.11H99.5598V142.22H92.4498ZM92.4498 149.33H85.3398V142.22H92.4498V149.33ZM99.5598 149.33V142.22H106.67V149.33H99.5598ZM99.5598 156.44V149.33H92.4498V156.44H85.3398V163.56H92.4498V156.44H99.5598ZM106.67 156.44V163.56H99.5598V156.44H106.67ZM113.78 156.44H106.67V149.33H113.78V156.44ZM120.89 156.44V163.56H113.78V156.44H120.89ZM120.89 149.33V156.44H128V163.56H135.12V156.44H142.23V163.56H149.34V156.44H156.45V163.56H163.56V156.44H156.45V149.33H163.56V142.22H156.45V135.11H149.34V142.22H142.23V135.11H135.12V142.22H128V135.11H120.89V142.22H113.78V135.11H106.67V142.22H113.78V149.33H120.89ZM128 149.33V142.22H120.89V149.33H128ZM135.12 149.33V142.22H142.23V149.33H135.12ZM149.34 149.33H156.45V142.22H149.34V149.33ZM149.34 149.33H142.23V156.44H149.34V149.33ZM135.12 149.33H128V156.44H135.12V149.33Z" fill="#2D2D31"/>
<path fill-rule="evenodd" clip-rule="evenodd" d="M170.67 170.67H85.3398V213.33H92.4498V206.22H99.5598V213.33H106.67V206.22H113.78V213.33H120.89V206.22H128V213.33H135.12V206.22H142.23V213.33H149.34V206.22H156.45V213.33H163.56V206.22H170.67V199.11H163.56V192H170.67V184.89H163.56V177.78H170.67V170.67ZM156.45 177.78H163.56V170.67H156.45V177.78ZM156.45 184.89V177.78H149.34V170.67H142.23V177.78H135.12V170.67H128V177.78H120.89V170.67H113.78V177.78H106.67V170.67H99.5598V177.78H92.4498V170.67H85.3398V177.78H92.4498V184.89H85.3398V192H92.4498V199.11H85.3398V206.22H92.4498V199.11H99.5598V206.22H106.67V199.11H113.78V206.22H120.89V199.11H128V206.22H135.12V199.11H142.23V206.22H149.34V199.11H156.45V206.22H163.56V199.11H156.45V192H163.56V184.89H156.45ZM149.34 184.89V177.78H142.23V184.89H135.12V177.78H128V184.89H120.89V177.78H113.78V184.89H106.67V177.78H99.5598V184.89H92.4498V192H99.5598V199.11H106.67V192H113.78V199.11H120.89V192H128V199.11H135.12V192H142.23V199.11H149.34V192H156.45V184.89H149.34ZM149.34 184.89V192H142.23V184.89H149.34ZM135.12 192V184.89H128V192H135.12ZM120.89 192H113.78V184.89H120.89V192ZM106.67 192V184.89H99.5598V192H106.67Z" fill="#2D2D31"/>
<path fill-rule="evenodd" clip-rule="evenodd" d="M85.3398 213.33V256H170.67H163.56V248.89H170.67V241.78H163.56V234.67H170.67V227.56H163.56V220.44H170.67V213.33H163.56V220.44H156.45V213.33H149.34V220.44H142.23V213.33H135.12V220.44H128V213.33H120.89V220.44H113.78V213.33H106.67V220.44H99.5598V213.33H92.4498V220.44H85.3398V213.33ZM92.4498 227.56V220.44H99.5598V227.56H92.4498ZM92.4498 234.67H85.3398V227.56H92.4498V234.67ZM99.5598 234.67V227.56H106.67V234.67H99.5598ZM99.5598 241.78V234.67H92.4498V241.78H85.3398V248.89H92.4498V256H99.5598V248.89H106.67V256H113.78V248.89H120.89V256H128V248.89H135.12V256H142.23V248.89H149.34V256H156.45V248.89H163.56V241.78H156.45V234.67H163.56V227.56H156.45V220.44H149.34V227.56H142.23V220.44H135.12V227.56H128V220.44H120.89V227.56H113.78V220.44H106.67V227.56H113.78V234.67H106.67V241.78H99.5598ZM113.78 241.78V234.67H120.89V241.78H113.78ZM128 241.78H120.89V248.89H128V241.78ZM128 234.67H120.89V227.56H128V234.67ZM135.12 234.67V227.56H142.23V234.67H135.12ZM135.12 241.78H128V234.67H135.12V241.78ZM142.23 241.78V248.89H135.12V241.78H142.23ZM149.34 241.78V248.89H156.45V241.78H149.34ZM149.34 234.67V227.56H156.45V234.67H149.34ZM149.34 234.67V241.78H142.23V234.67H149.34ZM113.78 241.78V248.89H106.67V241.78H113.78ZM99.5598 241.78V248.89H92.4498V241.78H99.5598Z" fill="#2D2D31"/>
<path fill-rule="evenodd" clip-rule="evenodd" d="M170.66 7.11V14.22H177.77V21.33H170.66V28.44H177.77V35.56H170.66V42.67H177.77V35.56H184.88V42.67H192V35.56H199.11V42.67H206.22V35.56H213.33V42.67H220.44V35.56H227.55V42.67H234.66V35.56H241.77V42.67H248.88V35.56H256V42.67V0H248.88V7.11H241.77V0H234.66V7.11H227.55V0H220.44V7.11H213.33V0H206.22V7.11H199.11V0H192V7.11H184.88V0H177.77V7.11H170.66ZM184.88 14.22V7.11H177.77V14.22H184.88ZM192 14.22H184.88V21.33H177.77V28.44H184.88V35.56H192V28.44H199.11V35.56H206.22V28.44H213.33V35.56H220.44V28.44H227.55V35.56H234.66V28.44H241.77V35.56H248.88V28.44H256V21.33H248.88V14.22H256V7.11H248.88V14.22H241.77V7.11H234.66V14.22H227.55V7.11H220.44V14.22H213.33V7.11H206.22V14.22H199.11V7.11H192V14.22ZM192 21.33V14.22H199.11V21.33H192ZM206.22 21.33V28.44H199.11V21.33H206.22ZM213.33 21.33V14.22H206.22V21.33H213.33ZM220.44 21.33V14.22H227.55V21.33H220.44ZM234.66 21.33H227.55V28.44H234.66V21.33ZM241.77 21.33V28.44H248.88V21.33H241.77ZM241.77 21.33H234.66V14.22H241.77V21.33ZM220.44 21.33H213.33V28.44H220.44V21.33ZM192 21.33V28.44H184.88V21.33H192Z" fill="#2D2D31"/>
<path fill-rule="evenodd" clip-rule="evenodd" d="M256 42.6699H170.66H177.77V49.7799H170.66V56.8899H177.77V63.9999H170.66V71.1099H177.77V78.2199H170.66V85.3299H177.77V78.2199H184.88V85.3299H192V78.2199H199.11V85.3299H206.22V78.2199H213.33V85.3299H220.44V78.2199H227.55V85.3299H234.66V78.2199H241.77V85.3299H248.88V78.2199H256V85.3299V42.6699ZM248.88 71.1099V78.2199H241.77V71.1099H248.88ZM248.88 63.9999V71.1099H256V63.9999H248.88ZM241.77 63.9999H248.88V56.8899H256V49.7799H248.88V42.6699H241.77V49.7799H234.66V42.6699H227.55V49.7799H220.44V42.6699H213.33V49.7799H206.22V42.6699H199.11V49.7799H192V42.6699H184.88V49.7799H177.77V56.8899H184.88V63.9999H177.77V71.1099H184.88V78.2199H192V71.1099H199.11V78.2199H206.22V71.1099H213.33V78.2199H220.44V71.1099H227.55V78.2199H234.66V71.1099H241.77V63.9999ZM234.66 63.9999V71.1099H227.55V63.9999H234.66ZM234.66 56.8899V63.9999H241.77V56.8899H248.88V49.7799H241.77V56.8899H234.66ZM227.55 56.8899V49.7799H234.66V56.8899H227.55ZM220.44 56.8899V49.7799H213.33V56.8899H206.22V49.7799H199.11V56.8899H192V49.7799H184.88V56.8899H192V63.9999H184.88V71.1099H192V63.9999H199.11V71.1099H206.22V63.9999H213.33V71.1099H220.44V63.9999H227.55V56.8899H220.44ZM220.44 56.8899V63.9999H213.33V56.8899H220.44ZM206.22 63.9999H199.11V56.8899H206.22V63.9999Z" fill="#2D2D31"/>
<path fill-rule="evenodd" clip-rule="evenodd" d="M170.66 92.4401V99.5601H177.77V106.67H170.66V113.78H177.77V120.89H170.66V128H256V85.3301H248.88V92.4401H241.77V85.3301H234.66V92.4401H227.55V85.3301H220.44V92.4401H213.33V85.3301H206.22V92.4401H199.11V85.3301H192V92.4401H184.88V85.3301H177.77V92.4401H170.66ZM184.88 99.5601V92.4401H177.77V99.5601H184.88ZM192 99.5601H184.88V106.67H177.77V113.78H184.88V120.89H177.77V128H184.88V120.89H192V128H199.11V120.89H206.22V128H213.33V120.89H220.44V128H227.55V120.89H234.66V128H241.77V120.89H248.88V128H256V120.89H248.88V113.78H256V106.67H248.88V99.5601H256V92.4401H248.88V99.5601H241.77V92.4401H234.66V99.5601H227.55V92.4401H220.44V99.5601H213.33V92.4401H206.22V99.5601H199.11V92.4401H192V99.5601ZM192 106.67V99.5601H199.11V106.67H192ZM192 113.78H184.88V106.67H192V113.78ZM199.11 113.78V106.67H206.22V113.78H199.11ZM213.33 113.78H206.22V120.89H213.33V113.78ZM213.33 106.67H206.22V99.5601H213.33V106.67ZM220.44 106.67V99.5601H227.55V106.67H220.44ZM220.44 113.78H213.33V106.67H220.44V113.78ZM227.55 113.78V120.89H220.44V113.78H227.55ZM234.66 113.78V120.89H241.77V113.78H248.88V106.67H241.77V99.5601H234.66V106.67H227.55V113.78H234.66ZM234.66 113.78V106.67H241.77V113.78H234.66ZM199.11 113.78V120.89H192V113.78H199.11Z" fill="#2D2D31"/>
<path fill-rule="evenodd" clip-rule="evenodd" d="M170.66 135.11V142.22H177.77V149.33H170.66V156.44H177.77V163.56H170.66V170.67H177.77V163.56H184.88V170.67H192V163.56H199.11V170.67H206.22V163.56H213.33V170.67H220.44V163.56H227.55V170.67H234.66V163.56H241.77V170.67H248.88V163.56H256V170.67V128H248.88V135.11H241.77V128H234.66V135.11H227.55V128H220.44V135.11H213.33V128H206.22V135.11H199.11V128H192V135.11H184.88V128H177.77V135.11H170.66ZM184.88 142.22V135.11H177.77V142.22H184.88ZM192 142.22H184.88V149.33H177.77V156.44H184.88V163.56H192V156.44H199.11V163.56H206.22V156.44H213.33V163.56H220.44V156.44H227.55V163.56H234.66V156.44H241.77V163.56H248.88V156.44H256V149.33H248.88V142.22H256V135.11H248.88V142.22H241.77V135.11H234.66V142.22H227.55V135.11H220.44V142.22H213.33V135.11H206.22V142.22H199.11V135.11H192V142.22ZM192 149.33V142.22H199.11V149.33H192ZM206.22 149.33V156.44H199.11V149.33H206.22ZM213.33 149.33V142.22H206.22V149.33H213.33ZM220.44 149.33V142.22H227.55V149.33H220.44ZM234.66 149.33H227.55V156.44H234.66V149.33ZM241.77 149.33V156.44H248.88V149.33H241.77ZM241.77 149.33H234.66V142.22H241.77V149.33ZM220.44 149.33H213.33V156.44H220.44V149.33ZM192 149.33V156.44H184.88V149.33H192Z" fill="#2D2D31"/>
<path fill-rule="evenodd" clip-rule="evenodd" d="M256 170.67H170.66H177.77V177.78H170.66V184.89H177.77V192H170.66V199.11H177.77V206.22H170.66V213.33H177.77V206.22H184.88V213.33H192V206.22H199.11V213.33H206.22V206.22H213.33V213.33H220.44V206.22H227.55V213.33H234.66V206.22H241.77V213.33H248.88V206.22H256V213.33V170.67ZM248.88 199.11V206.22H241.77V199.11H248.88ZM248.88 192V199.11H256V192H248.88ZM241.77 192H248.88V184.89H256V177.78H248.88V170.67H241.77V177.78H234.66V170.67H227.55V177.78H220.44V170.67H213.33V177.78H206.22V170.67H199.11V177.78H192V170.67H184.88V177.78H177.77V184.89H184.88V192H177.77V199.11H184.88V206.22H192V199.11H199.11V206.22H206.22V199.11H213.33V206.22H220.44V199.11H227.55V206.22H234.66V199.11H241.77V192ZM234.66 192V199.11H227.55V192H234.66ZM234.66 184.89V192H241.77V184.89H248.88V177.78H241.77V184.89H234.66ZM227.55 184.89V177.78H234.66V184.89H227.55ZM220.44 184.89V177.78H213.33V184.89H206.22V177.78H199.11V184.89H192V177.78H184.88V184.89H192V192H184.88V199.11H192V192H199.11V199.11H206.22V192H213.33V199.11H220.44V192H227.55V184.89H220.44ZM220.44 184.89V192H213.33V184.89H220.44ZM206.22 192H199.11V184.89H206.22V192Z" fill="#2D2D31"/>
<path fill-rule="evenodd" clip-rule="evenodd" d="M170.66 220.44V227.56H177.77V234.67H170.66V241.78H177.77V248.89H170.66V256H256V213.33H248.88V220.44H241.77V213.33H234.66V220.44H227.55V213.33H220.44V220.44H213.33V213.33H206.22V220.44H199.11V213.33H192V220.44H184.88V213.33H177.77V220.44H170.66ZM184.88 227.56V220.44H177.77V227.56H184.88ZM192 227.56H184.88V234.67H177.77V241.78H184.88V248.89H177.77V256H184.88V248.89H192V256H199.11V248.89H206.22V256H213.33V248.89H220.44V256H227.55V248.89H234.66V256H241.77V248.89H248.88V256H256V248.89H248.88V241.78H256V234.67H248.88V227.56H256V220.44H248.88V227.56H241.77V220.44H234.66V227.56H227.55V220.44H220.44V227.56H213.33V220.44H206.22V227.56H199.11V220.44H192V227.56ZM192 234.67V227.56H199.11V234.67H192ZM192 241.78H184.88V234.67H192V241.78ZM199.11 241.78V234.67H206.22V241.78H199.11ZM213.33 241.78H206.22V248.89H213.33V241.78ZM213.33 234.67H206.22V227.56H213.33V234.67ZM220.44 234.67V227.56H227.55V234.67H220.44ZM220.44 241.78H213.33V234.67H220.44V241.78ZM227.55 241.78V248.89H220.44V241.78H227.55ZM234.66 241.78V248.89H241.77V241.78H248.88V234.67H241.77V227.56H234.66V234.67H227.55V241.78H234.66ZM234.66 241.78V234.67H241.77V241.78H234.66ZM199.11 241.78V248.89H192V241.78H199.11Z" fill="#2D2D31"/>
</g>
<defs>
<clipPath id="clip0_10670_20785">
<rect width="256" height="256" fill="white"/>
</clipPath>
</defs>
</svg>
