<svg width="40" height="40" viewBox="0 0 40 40" fill="none" xmlns="http://www.w3.org/2000/svg">
<path d="M33.5 35H5.5C5.10218 35 4.72064 34.842 4.43934 34.5607C4.15804 34.2794 4 33.8978 4 33.5V5.5C4 5.10218 4.15804 4.72064 4.43934 4.43934C4.72064 4.15804 5.10218 4 5.5 4H33.5C33.8978 4 34.2794 4.15804 34.5607 4.43934C34.842 4.72064 35 5.10218 35 5.5V33.5C35 33.8978 34.842 34.2794 34.5607 34.5607C34.2794 34.842 33.8978 35 33.5 35ZM5.5 5C5.36739 5 5.24021 5.05268 5.14645 5.14645C5.05268 5.24021 5 5.36739 5 5.5V33.5C5 33.6326 5.05268 33.7598 5.14645 33.8536C5.24021 33.9473 5.36739 34 5.5 34H33.5C33.6326 34 33.7598 33.9473 33.8536 33.8536C33.9473 33.7598 34 33.6326 34 33.5V5.5C34 5.36739 33.9473 5.24021 33.8536 5.14645C33.7598 5.05268 33.6326 5 33.5 5H5.5Z" fill="#2B3436"/>
<path d="M30.5 32H8.5C8.10218 32 7.72065 31.842 7.43934 31.5607C7.15804 31.2794 7 30.8978 7 30.5V24.5C7 24.1022 7.15804 23.7206 7.43934 23.4393C7.72065 23.158 8.10218 23 8.5 23H30.5C30.8978 23 31.2794 23.158 31.5607 23.4393C31.842 23.7206 32 24.1022 32 24.5V30.5C32 30.8978 31.842 31.2794 31.5607 31.5607C31.2794 31.842 30.8978 32 30.5 32ZM8.5 24C8.36739 24 8.24022 24.0527 8.14645 24.1464C8.05268 24.2402 8 24.3674 8 24.5V30.5C8 30.6326 8.05268 30.7598 8.14645 30.8536C8.24022 30.9473 8.36739 31 8.5 31H30.5C30.6326 31 30.7598 30.9473 30.8536 30.8536C30.9473 30.7598 31 30.6326 31 30.5V24.5C31 24.3674 30.9473 24.2402 30.8536 24.1464C30.7598 24.0527 30.6326 24 30.5 24H8.5ZM30.5 22H24.5C24.1022 22 23.7206 21.842 23.4393 21.5607C23.158 21.2794 23 20.8978 23 20.5V8.5C23 8.10218 23.158 7.72064 23.4393 7.43934C23.7206 7.15804 24.1022 7 24.5 7H30.5C30.8978 7 31.2794 7.15804 31.5607 7.43934C31.842 7.72064 32 8.10218 32 8.5V20.5C32 20.8978 31.842 21.2794 31.5607 21.5607C31.2794 21.842 30.8978 22 30.5 22ZM24.5 8C24.3674 8 24.2402 8.05268 24.1464 8.14645C24.0527 8.24021 24 8.36739 24 8.5V20.5C24 20.6326 24.0527 20.7598 24.1464 20.8536C24.2402 20.9473 24.3674 21 24.5 21H30.5C30.6326 21 30.7598 20.9473 30.8536 20.8536C30.9473 20.7598 31 20.6326 31 20.5V8.5C31 8.36739 30.9473 8.24021 30.8536 8.14645C30.7598 8.05268 30.6326 8 30.5 8H24.5ZM18.5 14H10.5C9.57174 14 8.68151 13.6313 8.02513 12.9749C7.36875 12.3185 7 11.4283 7 10.5C7 9.57174 7.36875 8.6815 8.02513 8.02513C8.68151 7.36875 9.57174 7 10.5 7H18.5C19.4283 7 20.3185 7.36875 20.9749 8.02513C21.6313 8.6815 22 9.57174 22 10.5C22 11.4283 21.6313 12.3185 20.9749 12.9749C20.3185 13.6313 19.4283 14 18.5 14ZM10.5 8C9.83696 8 9.20108 8.26339 8.73223 8.73223C8.26339 9.20107 8 9.83696 8 10.5C8 11.163 8.26339 11.7989 8.73223 12.2678C9.20108 12.7366 9.83696 13 10.5 13H18.5C19.163 13 19.7989 12.7366 20.2678 12.2678C20.7366 11.7989 21 11.163 21 10.5C21 9.83696 20.7366 9.20107 20.2678 8.73223C19.7989 8.26339 19.163 8 18.5 8H10.5ZM18.5 22C17.8078 22 17.1311 21.7947 16.5555 21.4101C15.9799 21.0256 15.5313 20.4789 15.2664 19.8394C15.0015 19.1999 14.9322 18.4961 15.0673 17.8172C15.2023 17.1383 15.5356 16.5146 16.0251 16.0251C16.5146 15.5356 17.1383 15.2023 17.8172 15.0673C18.4961 14.9322 19.1999 15.0015 19.8394 15.2664C20.4789 15.5313 21.0256 15.9799 21.4101 16.5555C21.7947 17.1311 22 17.8078 22 18.5C22 19.4283 21.6313 20.3185 20.9749 20.9749C20.3185 21.6313 19.4283 22 18.5 22ZM18.5 16C18.0055 16 17.5222 16.1466 17.1111 16.4213C16.7 16.696 16.3795 17.0865 16.1903 17.5433C16.0011 18.0001 15.9516 18.5028 16.048 18.9877C16.1445 19.4727 16.3826 19.9181 16.7322 20.2678C17.0819 20.6174 17.5273 20.8555 18.0123 20.952C18.4972 21.0484 18.9999 20.9989 19.4567 20.8097C19.9135 20.6205 20.304 20.3 20.5787 19.8889C20.8534 19.4778 21 18.9945 21 18.5C21 17.837 20.7366 17.2011 20.2678 16.7322C19.7989 16.2634 19.163 16 18.5 16ZM10.5 22C9.80777 22 9.13108 21.7947 8.55551 21.4101C7.97993 21.0256 7.53133 20.4789 7.26642 19.8394C7.00152 19.1999 6.9322 18.4961 7.06725 17.8172C7.2023 17.1383 7.53564 16.5146 8.02513 16.0251C8.51461 15.5356 9.13825 15.2023 9.81718 15.0673C10.4961 14.9322 11.1999 15.0015 11.8394 15.2664C12.4789 15.5313 13.0256 15.9799 13.4101 16.5555C13.7947 17.1311 14 17.8078 14 18.5C14 19.4283 13.6313 20.3185 12.9749 20.9749C12.3185 21.6313 11.4283 22 10.5 22ZM10.5 16C10.0055 16 9.5222 16.1466 9.11108 16.4213C8.69995 16.696 8.37952 17.0865 8.1903 17.5433C8.00108 18.0001 7.95157 18.5028 8.04804 18.9877C8.1445 19.4727 8.3826 19.9181 8.73223 20.2678C9.08187 20.6174 9.52732 20.8555 10.0123 20.952C10.4972 21.0484 10.9999 20.9989 11.4567 20.8097C11.9135 20.6205 12.304 20.3 12.5787 19.8889C12.8534 19.4778 13 18.9945 13 18.5C13 17.837 12.7366 17.2011 12.2678 16.7322C11.7989 16.2634 11.163 16 10.5 16Z" fill="#FF7C3F"/>
</svg>
