<svg width="40" height="40" viewBox="0 0 40 40" fill="none" xmlns="http://www.w3.org/2000/svg">
<path d="M25.5 22C25.3674 22 25.2402 21.9473 25.1464 21.8536C25.0527 21.7598 25 21.6326 25 21.5V18H18V21.5C18 21.6326 17.9473 21.7598 17.8536 21.8536C17.7598 21.9473 17.6326 22 17.5 22C17.3674 22 17.2402 21.9473 17.1464 21.8536C17.0527 21.7598 17 21.6326 17 21.5V15.5C17.0001 15.4014 17.0293 15.305 17.084 15.223L19.084 12.223C19.1296 12.1544 19.1915 12.0982 19.264 12.0593C19.3366 12.0204 19.4177 12 19.5 12H23.5C23.5823 12 23.6634 12.0204 23.736 12.0593C23.8085 12.0982 23.8704 12.1544 23.916 12.223L25.916 15.223C25.9707 15.305 25.9999 15.4014 26 15.5V21.5C26 21.6326 25.9473 21.7598 25.8536 21.8536C25.7598 21.9473 25.6326 22 25.5 22ZM18 17H25V15.651L23.232 13H19.768L18 15.651V17Z" fill="#FF7C3F"/>
<path d="M11.964 29.314C11.9146 29.1909 11.8184 29.0925 11.6965 29.0404C11.5746 28.9883 11.437 28.9867 11.314 29.036L7.15196 30.7C7.85566 28.1485 9.13473 25.7922 10.891 23.812C10.9319 23.7606 10.9624 23.7017 10.9806 23.6386C10.9988 23.5755 11.0044 23.5094 10.9971 23.4441C10.9897 23.3788 10.9696 23.3156 10.9378 23.2581C10.9061 23.2006 10.8633 23.15 10.812 23.109C10.7606 23.068 10.7017 23.0376 10.6386 23.0193C10.5755 23.0011 10.5094 22.9955 10.4441 23.0029C10.3788 23.0102 10.3156 23.0303 10.2581 23.0621C10.2006 23.0939 10.1499 23.1366 10.109 23.188C8.43326 25.1218 7.15858 27.3693 6.35896 29.8L4.96396 26.314C4.94049 26.2517 4.90484 26.1948 4.85908 26.1465C4.81332 26.0982 4.75838 26.0595 4.69748 26.0327C4.63658 26.0059 4.57094 25.9915 4.50442 25.9904C4.43789 25.9893 4.37181 26.0015 4.31005 26.0262C4.2483 26.051 4.1921 26.0878 4.14476 26.1346C4.09742 26.1813 4.05988 26.2371 4.03436 26.2985C4.00883 26.36 3.99582 26.4259 3.9961 26.4924C3.99637 26.5589 4.00993 26.6248 4.03596 26.686L6.03596 31.686C6.03596 31.696 6.05196 31.701 6.05696 31.711C6.09044 31.7844 6.14206 31.8481 6.20696 31.896C6.21596 31.903 6.22296 31.913 6.23196 31.919C6.29236 31.9584 6.36059 31.9844 6.43196 31.995C6.45442 31.9988 6.47719 32.0004 6.49996 32C6.56207 31.9999 6.62356 31.9877 6.68096 31.964L11.681 29.964C11.7423 29.94 11.7984 29.9042 11.8458 29.8585C11.8933 29.8128 11.9313 29.7582 11.9576 29.6978C11.9839 29.6374 11.998 29.5724 11.9991 29.5065C12.0002 29.4407 11.9882 29.3752 11.964 29.314Z" fill="#FF7C3F"/>
<path d="M35 34H4V35H35V34Z" fill="#FF7C3F"/>
<path d="M34.8541 17.1459L21.8541 4.14592C21.8077 4.09935 21.7525 4.06241 21.6918 4.0372C21.631 4.012 21.5659 3.99902 21.5001 3.99902C21.4344 3.99902 21.3693 4.012 21.3085 4.0372C21.2478 4.06241 21.1926 4.09935 21.1461 4.14592L8.14614 17.1459C8.05226 17.2398 7.99951 17.3671 7.99951 17.4999C7.99951 17.6327 8.05226 17.76 8.14614 17.8539C8.24003 17.9478 8.36737 18.0005 8.50014 18.0005C8.63292 18.0005 8.76026 17.9478 8.85414 17.8539L21.5001 5.20692L33.7931 17.4999L21.1461 30.1459C21.0523 30.2398 20.9995 30.3671 20.9995 30.4999C20.9995 30.6327 21.0523 30.76 21.1461 30.8539C21.24 30.9478 21.3674 31.0005 21.5001 31.0005C21.6329 31.0005 21.7603 30.9478 21.8541 30.8539L34.8541 17.8539C34.9007 17.8075 34.9376 17.7523 34.9629 17.6916C34.9881 17.6308 35.001 17.5657 35.001 17.4999C35.001 17.4341 34.9881 17.369 34.9629 17.3083C34.9376 17.2475 34.9007 17.1924 34.8541 17.1459Z" fill="#B6B6B6"/>
<path d="M21.5001 30.9999C21.4344 31 21.3694 30.9872 21.3086 30.9621C21.2479 30.9371 21.1927 30.9003 21.1461 30.8539L8.14614 17.8539C8.05226 17.76 7.99951 17.6327 7.99951 17.4999C7.99951 17.3671 8.05226 17.2398 8.14614 17.1459C8.24003 17.052 8.36737 16.9993 8.50014 16.9993C8.63292 16.9993 8.76026 17.052 8.85414 17.1459L21.8541 30.1459C21.9242 30.2158 21.972 30.305 21.9914 30.4021C22.0107 30.4992 22.0008 30.5999 21.9629 30.6914C21.925 30.7828 21.8608 30.861 21.7784 30.9159C21.696 30.9708 21.5992 31.0001 21.5001 30.9999Z" fill="#FF7C3F"/>
</svg>
