<svg width="40" height="40" viewBox="0 0 40 40" fill="none" xmlns="http://www.w3.org/2000/svg">
<path d="M22.5 35H18.5C18.1022 35 17.7206 34.842 17.4393 34.5607C17.158 34.2794 17 33.8978 17 33.5C17 33.3674 17.0527 33.2402 17.1464 33.1464C17.2402 33.0527 17.3674 33 17.5 33C17.6326 33 17.7598 33.0527 17.8536 33.1464C17.9473 33.2402 18 33.3674 18 33.5C18 33.6326 18.0527 33.7598 18.1464 33.8536C18.2402 33.9473 18.3674 34 18.5 34H22.5C22.6326 34 22.7598 33.9473 22.8536 33.8536C22.9473 33.7598 23 33.6326 23 33.5V13.5C23 13.1022 23.158 12.7206 23.4393 12.4393C23.7206 12.158 24.1022 12 24.5 12H33.5C33.6326 12 33.7598 11.9473 33.8536 11.8536C33.9473 11.7598 34 11.6326 34 11.5V7.5C34 7.36739 33.9473 7.24021 33.8536 7.14645C33.7598 7.05268 33.6326 7 33.5 7C33.3674 7 33.2402 6.94732 33.1464 6.85355C33.0527 6.75979 33 6.63261 33 6.5C33 6.36739 33.0527 6.24021 33.1464 6.14645C33.2402 6.05268 33.3674 6 33.5 6C33.8978 6 34.2794 6.15804 34.5607 6.43934C34.842 6.72064 35 7.10218 35 7.5V11.5C35 11.8978 34.842 12.2794 34.5607 12.5607C34.2794 12.842 33.8978 13 33.5 13H24.5C24.3674 13 24.2402 13.0527 24.1464 13.1464C24.0527 13.2402 24 13.3674 24 13.5V33.5C24 33.8978 23.842 34.2794 23.5607 34.5607C23.2794 34.842 22.8978 35 22.5 35ZM16 12.5C16 12.3674 15.9473 12.2402 15.8536 12.1464C15.7598 12.0527 15.6326 12 15.5 12H7.5C7.36739 12 7.24021 11.9473 7.14645 11.8536C7.05268 11.7598 7 11.6326 7 11.5V10.5C7 10.3674 6.94732 10.2402 6.85355 10.1464C6.75979 10.0527 6.63261 10 6.5 10C6.36739 10 6.24021 10.0527 6.14645 10.1464C6.05268 10.2402 6 10.3674 6 10.5V11.5C6 11.8978 6.15804 12.2794 6.43934 12.5607C6.72064 12.842 7.10218 13 7.5 13H15.5C15.6326 13 15.7598 12.9473 15.8536 12.8536C15.9473 12.7598 16 12.6326 16 12.5Z" fill="#B6B6B6"/>
<path d="M20.5 33H16.5C16.1022 33 15.7206 32.842 15.4393 32.5607C15.158 32.2794 15 31.8978 15 31.5V11.5C15 11.3674 14.9473 11.2402 14.8536 11.1464C14.7598 11.0527 14.6326 11 14.5 11H5.5C5.10218 11 4.72064 10.842 4.43934 10.5607C4.15804 10.2794 4 9.89782 4 9.5V5.5C4 5.10218 4.15804 4.72064 4.43934 4.43934C4.72064 4.15804 5.10218 4 5.5 4H31.5C31.8978 4 32.2794 4.15804 32.5607 4.43934C32.842 4.72064 33 5.10218 33 5.5V9.5C33 9.89782 32.842 10.2794 32.5607 10.5607C32.2794 10.842 31.8978 11 31.5 11H22.5C22.3674 11 22.2402 11.0527 22.1464 11.1464C22.0527 11.2402 22 11.3674 22 11.5V31.5C22 31.8978 21.842 32.2794 21.5607 32.5607C21.2794 32.842 20.8978 33 20.5 33ZM5.5 5C5.36739 5 5.24021 5.05268 5.14645 5.14645C5.05268 5.24021 5 5.36739 5 5.5V9.5C5 9.63261 5.05268 9.75979 5.14645 9.85355C5.24021 9.94732 5.36739 10 5.5 10H14.5C14.8978 10 15.2794 10.158 15.5607 10.4393C15.842 10.7206 16 11.1022 16 11.5V31.5C16 31.6326 16.0527 31.7598 16.1464 31.8536C16.2402 31.9473 16.3674 32 16.5 32H20.5C20.6326 32 20.7598 31.9473 20.8536 31.8536C20.9473 31.7598 21 31.6326 21 31.5V11.5C21 11.1022 21.158 10.7206 21.4393 10.4393C21.7206 10.158 22.1022 10 22.5 10H31.5C31.6326 10 31.7598 9.94732 31.8536 9.85355C31.9473 9.75979 32 9.63261 32 9.5V5.5C32 5.36739 31.9473 5.24021 31.8536 5.14645C31.7598 5.05268 31.6326 5 31.5 5H5.5Z" fill="#FF7C3F"/>
</svg>
