<svg width="40" height="40" viewBox="0 0 40 40" fill="none" xmlns="http://www.w3.org/2000/svg">
<path d="M21.5 13H19.5C19.3674 13 19.2402 12.9473 19.1464 12.8536C19.0527 12.7598 19 12.6326 19 12.5C19 12.3674 19.0527 12.2402 19.1464 12.1464C19.2402 12.0527 19.3674 12 19.5 12H21.5C21.6326 12 21.7598 12.0527 21.8536 12.1464C21.9473 12.2402 22 12.3674 22 12.5C22 12.6326 21.9473 12.7598 21.8536 12.8536C21.7598 12.9473 21.6326 13 21.5 13ZM22 14.5C22 14.3674 21.9473 14.2402 21.8536 14.1464C21.7598 14.0527 21.6326 14 21.5 14H19.5C19.3674 14 19.2402 14.0527 19.1464 14.1464C19.0527 14.2402 19 14.3674 19 14.5C19 14.6326 19.0527 14.7598 19.1464 14.8536C19.2402 14.9473 19.3674 15 19.5 15H21.5C21.6326 15 21.7598 14.9473 21.8536 14.8536C21.9473 14.7598 22 14.6326 22 14.5ZM22 16.5C22 16.3674 21.9473 16.2402 21.8536 16.1464C21.7598 16.0527 21.6326 16 21.5 16H19.5C19.3674 16 19.2402 16.0527 19.1464 16.1464C19.0527 16.2402 19 16.3674 19 16.5C19 16.6326 19.0527 16.7598 19.1464 16.8536C19.2402 16.9473 19.3674 17 19.5 17H21.5C21.6326 17 21.7598 16.9473 21.8536 16.8536C21.9473 16.7598 22 16.6326 22 16.5ZM22 18.5C22 18.3674 21.9473 18.2402 21.8536 18.1464C21.7598 18.0527 21.6326 18 21.5 18H19.5C19.3674 18 19.2402 18.0527 19.1464 18.1464C19.0527 18.2402 19 18.3674 19 18.5C19 18.6326 19.0527 18.7598 19.1464 18.8536C19.2402 18.9473 19.3674 19 19.5 19H21.5C21.6326 19 21.7598 18.9473 21.8536 18.8536C21.9473 18.7598 22 18.6326 22 18.5ZM22 28.5C22 28.3674 21.9473 28.2402 21.8536 28.1464C21.7598 28.0527 21.6326 28 21.5 28H19.5C19.3674 28 19.2402 28.0527 19.1464 28.1464C19.0527 28.2402 19 28.3674 19 28.5C19 28.6326 19.0527 28.7598 19.1464 28.8536C19.2402 28.9473 19.3674 29 19.5 29H21.5C21.6326 29 21.7598 28.9473 21.8536 28.8536C21.9473 28.7598 22 28.6326 22 28.5ZM22 30.5C22 30.3674 21.9473 30.2402 21.8536 30.1464C21.7598 30.0527 21.6326 30 21.5 30H19.5C19.3674 30 19.2402 30.0527 19.1464 30.1464C19.0527 30.2402 19 30.3674 19 30.5C19 30.6326 19.0527 30.7598 19.1464 30.8536C19.2402 30.9473 19.3674 31 19.5 31H21.5C21.6326 31 21.7598 30.9473 21.8536 30.8536C21.9473 30.7598 22 30.6326 22 30.5ZM22 32.5C22 32.3674 21.9473 32.2402 21.8536 32.1464C21.7598 32.0527 21.6326 32 21.5 32H19.5C19.3674 32 19.2402 32.0527 19.1464 32.1464C19.0527 32.2402 19 32.3674 19 32.5C19 32.6326 19.0527 32.7598 19.1464 32.8536C19.2402 32.9473 19.3674 33 19.5 33H21.5C21.6326 33 21.7598 32.9473 21.8536 32.8536C21.9473 32.7598 22 32.6326 22 32.5ZM22 34.5C22 34.3674 21.9473 34.2402 21.8536 34.1464C21.7598 34.0527 21.6326 34 21.5 34H19.5C19.3674 34 19.2402 34.0527 19.1464 34.1464C19.0527 34.2402 19 34.3674 19 34.5C19 34.6326 19.0527 34.7598 19.1464 34.8536C19.2402 34.9473 19.3674 35 19.5 35H21.5C21.6326 35 21.7598 34.9473 21.8536 34.8536C21.9473 34.7598 22 34.6326 22 34.5ZM14 15.5C14 14.61 13.7361 13.74 13.2416 12.9999C12.7471 12.2599 12.0443 11.6831 11.2221 11.3425C10.3998 11.0019 9.49501 10.9128 8.6221 11.0865C7.74918 11.2601 6.94736 11.6887 6.31802 12.318C5.68868 12.9474 5.2601 13.7492 5.08647 14.6221C4.91283 15.495 5.00195 16.3998 5.34254 17.2221C5.68314 18.0443 6.25991 18.7471 6.99994 19.2416C7.73996 19.7361 8.60999 20 9.5 20C10.6931 19.9987 11.8369 19.5241 12.6805 18.6805C13.5241 17.8369 13.9987 16.6931 14 15.5ZM13 15.5C13 16.1922 12.7947 16.8689 12.4101 17.4445C12.0256 18.0201 11.4789 18.4687 10.8394 18.7336C10.1999 18.9985 9.49612 19.0678 8.81719 18.9328C8.13825 18.7977 7.51461 18.4644 7.02513 17.9749C6.53564 17.4854 6.2023 16.8618 6.06725 16.1828C5.93221 15.5039 6.00152 14.8002 6.26642 14.1606C6.53133 13.5211 6.97993 12.9744 7.55551 12.5899C8.13108 12.2053 8.80777 12 9.5 12C10.4283 12 11.3185 12.3688 11.9749 13.0251C12.6313 13.6815 13 14.5717 13 15.5Z" fill="#FF7C3F"/>
<path d="M28.5 11C28.5536 10.9998 28.6069 10.9913 28.658 10.975L34.658 8.975C34.7577 8.9418 34.8444 8.87804 34.9058 8.79277C34.9672 8.70751 35.0001 8.60507 35 8.5V7.5C35 7.36739 34.9473 7.24021 34.8536 7.14645C34.7598 7.05268 34.6326 7 34.5 7H29V4.5C29 4.36739 28.9473 4.24021 28.8536 4.14645C28.7598 4.05268 28.6326 4 28.5 4H16.5C16.4464 4.00024 16.3931 4.00868 16.342 4.025L4.342 8.025C4.24232 8.0582 4.15562 8.12196 4.09423 8.20723C4.03284 8.29249 3.99987 8.39493 4 8.5V10.5C4 10.6326 4.05268 10.7598 4.14645 10.8536C4.24022 10.9473 4.36739 11 4.5 11H18V20H4.5C4.36739 20 4.24022 20.0527 4.14645 20.1464C4.05268 20.2402 4 20.3674 4 20.5V22.5C3.99987 22.6051 4.03284 22.7075 4.09423 22.7928C4.15562 22.878 4.24232 22.9418 4.342 22.975L16.342 26.975C16.3931 26.9913 16.4464 26.9998 16.5 27H18V34.5C18 34.6326 18.0527 34.7598 18.1464 34.8536C18.2402 34.9473 18.3674 35 18.5 35C18.6326 35 18.7598 34.9473 18.8536 34.8536C18.9473 34.7598 19 34.6326 19 34.5V27H26V34H24.5C24.3674 34 24.2402 34.0527 24.1464 34.1464C24.0527 34.2402 24 34.3674 24 34.5C24 34.6326 24.0527 34.7598 24.1464 34.8536C24.2402 34.9473 24.3674 35 24.5 35H26.5C26.6326 35 26.7598 34.9473 26.8536 34.8536C26.9473 34.7598 27 34.6326 27 34.5V27H28.5C28.6326 27 28.7598 26.9473 28.8536 26.8536C28.9473 26.7598 29 26.6326 29 26.5V24H34.5C34.6326 24 34.7598 23.9473 34.8536 23.8536C34.9473 23.7598 35 23.6326 35 23.5V22.5C35.0001 22.3949 34.9672 22.2925 34.9058 22.2072C34.8444 22.122 34.7577 22.0582 34.658 22.025L28.658 20.025C28.6069 20.0087 28.5536 20.0002 28.5 20H27V11H28.5ZM5 8.86L16.581 5H28V7.5C28 7.63261 28.0527 7.75979 28.1464 7.85355C28.2402 7.94732 28.3674 8 28.5 8H34V8.14L28.419 10H5V8.86ZM34 22.86V23H28.5C28.3674 23 28.2402 23.0527 28.1464 23.1464C28.0527 23.2402 28 23.3674 28 23.5V26H16.581L5 22.14V21H28.419L34 22.86ZM26 20H19V11H26V20Z" fill="#2B3436"/>
</svg>
