<svg width="40" height="40" viewBox="0 0 40 40" fill="none" xmlns="http://www.w3.org/2000/svg">
<path d="M25.5 5H23.5C23.3674 5 23.2402 4.94732 23.1464 4.85355C23.0527 4.75979 23 4.63261 23 4.5C23 4.36739 23.0527 4.24021 23.1464 4.14645C23.2402 4.05268 23.3674 4 23.5 4H25.5C25.6326 4 25.7598 4.05268 25.8536 4.14645C25.9473 4.24021 26 4.36739 26 4.5C26 4.63261 25.9473 4.75979 25.8536 4.85355C25.7598 4.94732 25.6326 5 25.5 5ZM21 4.5C21 4.36739 20.9473 4.24021 20.8536 4.14645C20.7598 4.05268 20.6326 4 20.5 4H18.5C18.3674 4 18.2402 4.05268 18.1464 4.14645C18.0527 4.24021 18 4.36739 18 4.5C18 4.63261 18.0527 4.75979 18.1464 4.85355C18.2402 4.94732 18.3674 5 18.5 5H20.5C20.6326 5 20.7598 4.94732 20.8536 4.85355C20.9473 4.75979 21 4.63261 21 4.5ZM16 4.5C16 4.36739 15.9473 4.24021 15.8536 4.14645C15.7598 4.05268 15.6326 4 15.5 4H13.5C13.3674 4 13.2402 4.05268 13.1464 4.14645C13.0527 4.24021 13 4.36739 13 4.5C13 4.63261 13.0527 4.75979 13.1464 4.85355C13.2402 4.94732 13.3674 5 13.5 5H15.5C15.6326 5 15.7598 4.94732 15.8536 4.85355C15.9473 4.75979 16 4.63261 16 4.5ZM26 34.5C26 34.3674 25.9473 34.2402 25.8536 34.1464C25.7598 34.0527 25.6326 34 25.5 34H23.5C23.3674 34 23.2402 34.0527 23.1464 34.1464C23.0527 34.2402 23 34.3674 23 34.5C23 34.6326 23.0527 34.7598 23.1464 34.8536C23.2402 34.9473 23.3674 35 23.5 35H25.5C25.6326 35 25.7598 34.9473 25.8536 34.8536C25.9473 34.7598 26 34.6326 26 34.5ZM21 34.5C21 34.3674 20.9473 34.2402 20.8536 34.1464C20.7598 34.0527 20.6326 34 20.5 34H18.5C18.3674 34 18.2402 34.0527 18.1464 34.1464C18.0527 34.2402 18 34.3674 18 34.5C18 34.6326 18.0527 34.7598 18.1464 34.8536C18.2402 34.9473 18.3674 35 18.5 35H20.5C20.6326 35 20.7598 34.9473 20.8536 34.8536C20.9473 34.7598 21 34.6326 21 34.5ZM16 34.5C16 34.3674 15.9473 34.2402 15.8536 34.1464C15.7598 34.0527 15.6326 34 15.5 34H13.5C13.3674 34 13.2402 34.0527 13.1464 34.1464C13.0527 34.2402 13 34.3674 13 34.5C13 34.6326 13.0527 34.7598 13.1464 34.8536C13.2402 34.9473 13.3674 35 13.5 35H15.5C15.6326 35 15.7598 34.9473 15.8536 34.8536C15.9473 34.7598 16 34.6326 16 34.5ZM5 15.5V13.5C5 13.3674 4.94732 13.2402 4.85355 13.1464C4.75979 13.0527 4.63261 13 4.5 13C4.36739 13 4.24021 13.0527 4.14645 13.1464C4.05268 13.2402 4 13.3674 4 13.5V15.5C4 15.6326 4.05268 15.7598 4.14645 15.8536C4.24021 15.9473 4.36739 16 4.5 16C4.63261 16 4.75979 15.9473 4.85355 15.8536C4.94732 15.7598 5 15.6326 5 15.5ZM5 20.5V18.5C5 18.3674 4.94732 18.2402 4.85355 18.1464C4.75979 18.0527 4.63261 18 4.5 18C4.36739 18 4.24021 18.0527 4.14645 18.1464C4.05268 18.2402 4 18.3674 4 18.5V20.5C4 20.6326 4.05268 20.7598 4.14645 20.8536C4.24021 20.9473 4.36739 21 4.5 21C4.63261 21 4.75979 20.9473 4.85355 20.8536C4.94732 20.7598 5 20.6326 5 20.5ZM5 25.5V23.5C5 23.3674 4.94732 23.2402 4.85355 23.1464C4.75979 23.0527 4.63261 23 4.5 23C4.36739 23 4.24021 23.0527 4.14645 23.1464C4.05268 23.2402 4 23.3674 4 23.5V25.5C4 25.6326 4.05268 25.7598 4.14645 25.8536C4.24021 25.9473 4.36739 26 4.5 26C4.63261 26 4.75979 25.9473 4.85355 25.8536C4.94732 25.7598 5 25.6326 5 25.5ZM35 15.5V13.5C35 13.3674 34.9473 13.2402 34.8536 13.1464C34.7598 13.0527 34.6326 13 34.5 13C34.3674 13 34.2402 13.0527 34.1464 13.1464C34.0527 13.2402 34 13.3674 34 13.5V15.5C34 15.6326 34.0527 15.7598 34.1464 15.8536C34.2402 15.9473 34.3674 16 34.5 16C34.6326 16 34.7598 15.9473 34.8536 15.8536C34.9473 15.7598 35 15.6326 35 15.5ZM35 20.5V18.5C35 18.3674 34.9473 18.2402 34.8536 18.1464C34.7598 18.0527 34.6326 18 34.5 18C34.3674 18 34.2402 18.0527 34.1464 18.1464C34.0527 18.2402 34 18.3674 34 18.5V20.5C34 20.6326 34.0527 20.7598 34.1464 20.8536C34.2402 20.9473 34.3674 21 34.5 21C34.6326 21 34.7598 20.9473 34.8536 20.8536C34.9473 20.7598 35 20.6326 35 20.5ZM35 25.5V23.5C35 23.3674 34.9473 23.2402 34.8536 23.1464C34.7598 23.0527 34.6326 23 34.5 23C34.3674 23 34.2402 23.0527 34.1464 23.1464C34.0527 23.2402 34 23.3674 34 23.5V25.5C34 25.6326 34.0527 25.7598 34.1464 25.8536C34.2402 25.9473 34.3674 26 34.5 26C34.6326 26 34.7598 25.9473 34.8536 25.8536C34.9473 25.7598 35 25.6326 35 25.5ZM26 24.5V14.5C26 14.1022 25.842 13.7206 25.5607 13.4393C25.2794 13.158 24.8978 13 24.5 13H14.5C14.1022 13 13.7206 13.158 13.4393 13.4393C13.158 13.7206 13 14.1022 13 14.5V24.5C13 24.8978 13.158 25.2794 13.4393 25.5607C13.7206 25.842 14.1022 26 14.5 26H24.5C24.8978 26 25.2794 25.842 25.5607 25.5607C25.842 25.2794 26 24.8978 26 24.5ZM24.5 14C24.6326 14 24.7598 14.0527 24.8536 14.1464C24.9473 14.2402 25 14.3674 25 14.5V24.5C25 24.6326 24.9473 24.7598 24.8536 24.8536C24.7598 24.9473 24.6326 25 24.5 25H14.5C14.3674 25 14.2402 24.9473 14.1464 24.8536C14.0527 24.7598 14 24.6326 14 24.5V14.5C14 14.3674 14.0527 14.2402 14.1464 14.1464C14.2402 14.0527 14.3674 14 14.5 14H24.5Z" fill="#2B3436"/>
<path d="M34.9621 4.309C34.9243 4.21756 34.8603 4.1394 34.778 4.08439C34.6958 4.02939 34.5991 4.00002 34.5001 4H29.5001C29.3675 4 29.2404 4.05268 29.1466 4.14645C29.0528 4.24021 29.0001 4.36739 29.0001 4.5C29.0001 4.63261 29.0528 4.75979 29.1466 4.85355C29.2404 4.94732 29.3675 5 29.5001 5H33.2931L27.1461 11.146C27.0523 11.2399 26.9995 11.3672 26.9995 11.5C26.9995 11.6328 27.0523 11.7601 27.1461 11.854C27.24 11.9479 27.3674 12.0006 27.5001 12.0006C27.6329 12.0006 27.7603 11.9479 27.8541 11.854L34.0001 5.707V9.5C34.0001 9.63261 34.0528 9.75979 34.1466 9.85355C34.2404 9.94732 34.3675 10 34.5001 10C34.6328 10 34.7599 9.94732 34.8537 9.85355C34.9475 9.75979 35.0001 9.63261 35.0001 9.5V4.5C35.0001 4.43446 34.9872 4.36956 34.9621 4.309Z" fill="#FF7C3F"/>
<path d="M5.707 5H9.5C9.63261 5 9.75979 4.94732 9.85355 4.85355C9.94732 4.75979 10 4.63261 10 4.5C10 4.36739 9.94732 4.24021 9.85355 4.14645C9.75979 4.05268 9.63261 4 9.5 4H4.5C4.36739 4 4.24021 4.05268 4.14645 4.14645C4.05268 4.24021 4 4.36739 4 4.5V9.5C4 9.63261 4.05268 9.75979 4.14645 9.85355C4.24021 9.94732 4.36739 10 4.5 10C4.63261 10 4.75979 9.94732 4.85355 9.85355C4.94732 9.75979 5 9.63261 5 9.5V5.707L11.146 11.854C11.2399 11.9479 11.3672 12.0006 11.5 12.0006C11.6328 12.0006 11.7601 11.9479 11.854 11.854C11.9479 11.7601 12.0006 11.6328 12.0006 11.5C12.0006 11.3672 11.9479 11.2399 11.854 11.146L5.707 5Z" fill="#FF7C3F"/>
<path d="M34.5001 28.9999C34.3675 28.9999 34.2404 29.0526 34.1466 29.1463C34.0528 29.2401 34.0001 29.3673 34.0001 29.4999V33.2929L27.8541 27.1459C27.7603 27.052 27.6329 26.9993 27.5001 26.9993C27.3674 26.9993 27.24 27.052 27.1461 27.1459C27.0523 27.2398 26.9995 27.3671 26.9995 27.4999C26.9995 27.6327 27.0523 27.76 27.1461 27.8539L33.2931 33.9999H29.5001C29.3675 33.9999 29.2404 34.0526 29.1466 34.1463C29.0528 34.2401 29.0001 34.3673 29.0001 34.4999C29.0001 34.6325 29.0528 34.7597 29.1466 34.8535C29.2404 34.9472 29.3675 34.9999 29.5001 34.9999H34.5001C34.6328 34.9999 34.7599 34.9472 34.8537 34.8535C34.9475 34.7597 35.0001 34.6325 35.0001 34.4999V29.4999C35.0001 29.3673 34.9475 29.2401 34.8537 29.1463C34.7599 29.0526 34.6328 28.9999 34.5001 28.9999Z" fill="#FF7C3F"/>
<path d="M11.146 27.1459L5 33.2929V29.4999C5 29.3673 4.94732 29.2401 4.85355 29.1463C4.75979 29.0526 4.63261 28.9999 4.5 28.9999C4.36739 28.9999 4.24021 29.0526 4.14645 29.1463C4.05268 29.2401 4 29.3673 4 29.4999V34.4999C4 34.6325 4.05268 34.7597 4.14645 34.8535C4.24021 34.9472 4.36739 34.9999 4.5 34.9999H9.5C9.63261 34.9999 9.75979 34.9472 9.85355 34.8535C9.94732 34.7597 10 34.6325 10 34.4999C10 34.3673 9.94732 34.2401 9.85355 34.1463C9.75979 34.0526 9.63261 33.9999 9.5 33.9999H5.707L11.854 27.8539C11.9479 27.76 12.0006 27.6327 12.0006 27.4999C12.0006 27.3671 11.9479 27.2398 11.854 27.1459C11.8075 27.0994 11.7523 27.0625 11.6916 27.0374C11.6308 27.0122 11.5657 26.9993 11.5 26.9993C11.3672 26.9993 11.2399 27.052 11.146 27.1459Z" fill="#FF7C3F"/>
</svg>
