<svg width="35" height="35" viewBox="0 0 35 35" fill="none" xmlns="http://www.w3.org/2000/svg">
<path fill-rule="evenodd" clip-rule="evenodd" d="M18.2319 2.92265C18.4019 2.9249 18.5591 3.01341 18.6493 3.15761L33.8522 27.4823C33.9874 27.6986 33.9381 27.982 33.7378 28.1399C33.5947 28.2528 33.4443 28.3758 33.2841 28.5066C32.3626 29.2596 31.1207 30.2744 29.1189 31.1328C26.7685 32.1408 23.3924 32.9289 18.2253 32.9289C13.0577 32.9289 9.41503 32.1407 6.82329 31.1397C4.22658 30.1369 2.70661 28.9286 1.78223 28.1246C1.59289 27.9599 1.55495 27.6804 1.69354 27.4712L17.8084 3.14646C17.9023 3.00471 18.0619 2.9204 18.2319 2.92265ZM2.77192 27.6541C3.65977 28.3925 5.02043 29.3715 7.18356 30.2069C9.64262 31.1566 13.1603 31.9289 18.2253 31.9289C23.2906 31.9289 26.5266 31.1565 28.7248 30.2138C30.5887 29.4145 31.7223 28.4897 32.6409 27.7402C32.684 27.7051 32.7267 27.6703 32.7689 27.6359L18.213 4.34642L2.77192 27.6541Z" fill="#262E30"/>
<path fill-rule="evenodd" clip-rule="evenodd" d="M2.66143 26.9101C2.82185 27.1348 3.13411 27.187 3.35887 27.0266C3.47263 26.9454 3.59732 26.864 3.73274 26.7826C3.96946 26.6404 4.0461 26.3333 3.90391 26.0965C3.76172 25.8598 3.45455 25.7832 3.21783 25.9254C3.06246 26.0187 2.91547 26.1144 2.77792 26.2126C2.55316 26.373 2.501 26.6853 2.66143 26.9101ZM32.6097 26.9205C32.7759 26.7 32.7318 26.3865 32.5113 26.2203C32.3667 26.1113 32.2175 26.0061 32.064 25.9045C31.8338 25.7521 31.5235 25.8152 31.3711 26.0455C31.2187 26.2757 31.2818 26.586 31.5121 26.7384C31.6493 26.8292 31.7818 26.9227 31.9095 27.0189C32.13 27.1851 32.4435 27.141 32.6097 26.9205ZM4.77141 25.7002C4.87031 25.958 5.15949 26.0869 5.41731 25.988C5.70038 25.8794 5.99948 25.7737 6.3129 25.6714C6.57541 25.5857 6.71875 25.3034 6.63306 25.0409C6.54737 24.7784 6.26509 24.6351 6.00258 24.7208C5.67463 24.8278 5.35947 24.9391 5.05916 25.0543C4.80134 25.1532 4.67251 25.4424 4.77141 25.7002ZM30.4186 25.5524C30.5253 25.2977 30.4053 25.0047 30.1506 24.898C29.8274 24.7625 29.4936 24.6366 29.1506 24.5197C28.8893 24.4305 28.6051 24.5701 28.516 24.8315C28.4268 25.0928 28.5664 25.377 28.8278 25.4661C29.151 25.5764 29.4635 25.6943 29.7642 25.8203C30.0189 25.927 30.3118 25.807 30.4186 25.5524ZM7.5504 24.783C7.61646 25.0512 7.88738 25.215 8.1555 25.1489C8.46056 25.0737 8.77313 25.0017 9.09205 24.933C9.362 24.8749 9.5337 24.6089 9.47556 24.3389C9.41741 24.069 9.15144 23.8973 8.88149 23.9554C8.55337 24.0261 8.23123 24.1003 7.91627 24.1779C7.64814 24.244 7.48434 24.5149 7.5504 24.783ZM27.4829 24.5441C27.5447 24.275 27.3766 24.0067 27.1075 23.9449C26.7685 23.867 26.4238 23.7954 26.0744 23.7296C25.803 23.6785 25.5416 23.8571 25.4905 24.1285C25.4394 24.3999 25.618 24.6613 25.8894 24.7124C26.2266 24.7759 26.5584 24.8448 26.8836 24.9195C27.1528 24.9813 27.4211 24.8133 27.4829 24.5441ZM10.4106 24.1637C10.4548 24.4363 10.7116 24.6215 10.9842 24.5773C11.2988 24.5263 11.6168 24.4786 11.9373 24.4343C12.2109 24.3966 12.4021 24.1443 12.3643 23.8707C12.3266 23.5972 12.0743 23.406 11.8007 23.4437C11.4724 23.489 11.1466 23.5379 10.8241 23.5902C10.5516 23.6344 10.3664 23.8912 10.4106 24.1637ZM24.4316 23.9669C24.4654 23.6928 24.2706 23.4433 23.9965 23.4095C23.6514 23.367 23.3037 23.3289 22.9543 23.295C22.6794 23.2684 22.435 23.4695 22.4083 23.7444C22.3816 24.0192 22.5828 24.2637 22.8577 24.2904C23.199 24.3235 23.5382 24.3606 23.8742 24.402C24.1483 24.4358 24.3978 24.241 24.4316 23.9669ZM13.3099 23.7626C13.335 24.0376 13.5782 24.2402 13.8532 24.2152C14.1733 24.1861 14.4939 24.1607 14.8142 24.1392C15.0897 24.1206 15.2981 23.8823 15.2796 23.6067C15.261 23.3312 15.0227 23.1229 14.7472 23.1414C14.4189 23.1635 14.0904 23.1895 13.7626 23.2193C13.4876 23.2443 13.2849 23.4876 13.3099 23.7626ZM21.34 23.6657C21.3547 23.39 21.1432 23.1544 20.8674 23.1396C20.5194 23.121 20.1713 23.1057 19.8238 23.0934C19.5479 23.0836 19.3162 23.2994 19.3065 23.5754C19.2967 23.8514 19.5125 24.083 19.7885 24.0928C20.1302 24.1049 20.4723 24.1199 20.8139 24.1382C21.0897 24.153 21.3252 23.9414 21.34 23.6657ZM16.2302 23.566C16.2348 23.8421 16.4623 24.0622 16.7384 24.0577C16.8993 24.055 17.0596 24.0534 17.2192 24.053C17.3901 24.0525 17.5615 24.0526 17.7335 24.0533C18.0097 24.0545 18.2345 23.8315 18.2356 23.5554C18.2367 23.2792 18.0138 23.0545 17.7377 23.0533C17.5633 23.0526 17.3895 23.0525 17.2165 23.053C17.0522 23.0535 16.8873 23.0551 16.7219 23.0578C16.4457 23.0624 16.2256 23.2899 16.2302 23.566Z" fill="#262E30"/>
</svg>
