<svg width="40" height="40" viewBox="0 0 40 40" fill="none" xmlns="http://www.w3.org/2000/svg">
<path d="M33.5 4H5.5C5.10218 4 4.72064 4.15804 4.43934 4.43934C4.15804 4.72064 4 5.10218 4 5.5V33.5C4 33.8978 4.15804 34.2794 4.43934 34.5607C4.72064 34.842 5.10218 35 5.5 35H21.5C21.6326 35 21.7598 34.9473 21.8536 34.8536C21.9473 34.7598 22 34.6326 22 34.5C22 34.3674 21.9473 34.2402 21.8536 34.1464C21.7598 34.0527 21.6326 34 21.5 34H5.5C5.36739 34 5.24021 33.9473 5.14645 33.8536C5.05268 33.7598 5 33.6326 5 33.5V5.5C5 5.36739 5.05268 5.24021 5.14645 5.14645C5.24021 5.05268 5.36739 5 5.5 5H33.5C33.6326 5 33.7598 5.05268 33.8536 5.14645C33.9473 5.24021 34 5.36739 34 5.5V21.5C34 21.6326 34.0527 21.7598 34.1464 21.8536C34.2402 21.9473 34.3674 22 34.5 22C34.6326 22 34.7598 21.9473 34.8536 21.8536C34.9473 21.7598 35 21.6326 35 21.5V5.5C35 5.10218 34.842 4.72064 34.5607 4.43934C34.2794 4.15804 33.8978 4 33.5 4Z" fill="#2B3436"/>
<path d="M32.5 13C32.6326 13 32.7598 12.9473 32.8536 12.8536C32.9473 12.7598 33 12.6326 33 12.5C33 12.3674 32.9473 12.2402 32.8536 12.1464C32.7598 12.0527 32.6326 12 32.5 12H27V6.5C27 6.36739 26.9473 6.24021 26.8536 6.14645C26.7598 6.05268 26.6326 6 26.5 6C26.3674 6 26.2402 6.05268 26.1464 6.14645C26.0527 6.24021 26 6.36739 26 6.5V12H20V6.5C20 6.36739 19.9473 6.24021 19.8536 6.14645C19.7598 6.05268 19.6326 6 19.5 6C19.3674 6 19.2402 6.05268 19.1464 6.14645C19.0527 6.24021 19 6.36739 19 6.5V12H13V6.5C13 6.36739 12.9473 6.24021 12.8536 6.14645C12.7598 6.05268 12.6326 6 12.5 6C12.3674 6 12.2402 6.05268 12.1464 6.14645C12.0527 6.24021 12 6.36739 12 6.5V12H6.5C6.36739 12 6.24021 12.0527 6.14645 12.1464C6.05268 12.2402 6 12.3674 6 12.5C6 12.6326 6.05268 12.7598 6.14645 12.8536C6.24021 12.9473 6.36739 13 6.5 13H12V19H6.5C6.36739 19 6.24021 19.0527 6.14645 19.1464C6.05268 19.2402 6 19.3674 6 19.5C6 19.6326 6.05268 19.7598 6.14645 19.8536C6.24021 19.9473 6.36739 20 6.5 20H12V26H6.5C6.36739 26 6.24021 26.0527 6.14645 26.1464C6.05268 26.2402 6 26.3674 6 26.5C6 26.6326 6.05268 26.7598 6.14645 26.8536C6.24021 26.9473 6.36739 27 6.5 27H12V32.5C12 32.6326 12.0527 32.7598 12.1464 32.8536C12.2402 32.9473 12.3674 33 12.5 33C12.6326 33 12.7598 32.9473 12.8536 32.8536C12.9473 32.7598 13 32.6326 13 32.5V27H19V32.5C19 32.6326 19.0527 32.7598 19.1464 32.8536C19.2402 32.9473 19.3674 33 19.5 33C19.6326 33 19.7598 32.9473 19.8536 32.8536C19.9473 32.7598 20 32.6326 20 32.5V27H21.5C21.6326 27 21.7598 26.9473 21.8536 26.8536C21.9473 26.7598 22 26.6326 22 26.5C22 26.3674 21.9473 26.2402 21.8536 26.1464C21.7598 26.0527 21.6326 26 21.5 26H20V20H26V21.5C26 21.6326 26.0527 21.7598 26.1464 21.8536C26.2402 21.9473 26.3674 22 26.5 22C26.6326 22 26.7598 21.9473 26.8536 21.8536C26.9473 21.7598 27 21.6326 27 21.5V20H32.5C32.6326 20 32.7598 19.9473 32.8536 19.8536C32.9473 19.7598 33 19.6326 33 19.5C33 19.3674 32.9473 19.2402 32.8536 19.1464C32.7598 19.0527 32.6326 19 32.5 19H27V13H32.5ZM13 13H19V19H13V13ZM19 26H13V20H19V26ZM26 19H20V13H26V19Z" fill="#2B3436"/>
<path d="M33.5 24H25.5C25.1022 24 24.7206 24.158 24.4393 24.4393C24.158 24.7206 24 25.1022 24 25.5V33.5C24 33.8978 24.158 34.2794 24.4393 34.5607C24.7206 34.842 25.1022 35 25.5 35H33.5C33.8978 35 34.2794 34.842 34.5607 34.5607C34.842 34.2794 35 33.8978 35 33.5V25.5C35 25.1022 34.842 24.7206 34.5607 24.4393C34.2794 24.158 33.8978 24 33.5 24ZM34 33.5C34 33.6326 33.9473 33.7598 33.8536 33.8536C33.7598 33.9473 33.6326 34 33.5 34H25.5C25.3674 34 25.2402 33.9473 25.1464 33.8536C25.0527 33.7598 25 33.6326 25 33.5V25.5C25 25.3674 25.0527 25.2402 25.1464 25.1464C25.2402 25.0527 25.3674 25 25.5 25H33.5C33.6326 25 33.7598 25.0527 33.8536 25.1464C33.9473 25.2402 34 25.3674 34 25.5V33.5Z" fill="#FF7C3F"/>
<path d="M32.5 29H30V26.5C30 26.3674 29.9473 26.2402 29.8536 26.1464C29.7598 26.0527 29.6326 26 29.5 26C29.3674 26 29.2402 26.0527 29.1464 26.1464C29.0527 26.2402 29 26.3674 29 26.5V29H26.5C26.3674 29 26.2402 29.0527 26.1464 29.1464C26.0527 29.2402 26 29.3674 26 29.5C26 29.6326 26.0527 29.7598 26.1464 29.8536C26.2402 29.9473 26.3674 30 26.5 30H29V32.5C29 32.6326 29.0527 32.7598 29.1464 32.8536C29.2402 32.9473 29.3674 33 29.5 33C29.6326 33 29.7598 32.9473 29.8536 32.8536C29.9473 32.7598 30 32.6326 30 32.5V30H32.5C32.6326 30 32.7598 29.9473 32.8536 29.8536C32.9473 29.7598 33 29.6326 33 29.5C33 29.3674 32.9473 29.2402 32.8536 29.1464C32.7598 29.0527 32.6326 29 32.5 29Z" fill="#FF7C3F"/>
</svg>
