<svg width="35" height="35" viewBox="0 0 35 35" fill="none" xmlns="http://www.w3.org/2000/svg">
<path fill-rule="evenodd" clip-rule="evenodd" d="M17.0007 3.15607C17.0007 3.15609 17.0008 3.15605 17.0007 3.15607L5.26748 9.97446C5.0759 10.0857 4.8723 10.2988 4.71546 10.5713C4.55862 10.8438 4.47656 11.127 4.47656 11.349V24.4715C4.47656 24.6929 4.55879 24.9752 4.71606 25.2472C4.87328 25.5192 5.07737 25.7322 5.26956 25.8438L17.1143 32.6992C17.3061 32.8102 17.5904 32.8795 17.902 32.8782C18.2136 32.8768 18.4968 32.8049 18.6868 32.6927L30.2729 25.8523C30.4645 25.739 30.6677 25.524 30.8242 25.2501C30.9806 24.9761 31.0625 24.6919 31.0625 24.4693V11.2435C31.0625 11.0216 30.9805 10.7392 30.8238 10.4679C30.667 10.1966 30.4635 9.98491 30.2715 9.87455L18.582 3.15275C18.3912 3.04273 18.1054 2.97271 17.7915 2.97339C17.4777 2.97408 17.192 3.045 17.0007 3.15607ZM19.0809 2.28613C18.7002 2.0665 18.2304 1.97243 17.7893 1.9734C17.3481 1.97436 16.8787 2.07053 16.4985 2.29133L4.76515 9.10978C4.76511 9.1098 4.76519 9.10976 4.76515 9.10978C4.38527 9.33044 4.06884 9.69007 3.84874 10.0725C3.6286 10.455 3.47656 10.9093 3.47656 11.349V24.4715C3.47656 24.9118 3.62953 25.3658 3.85033 25.7477C4.07118 26.1297 4.38804 26.4882 4.76735 26.7085L16.6135 33.5647C16.9954 33.7857 17.4651 33.8801 17.9064 33.8782C18.3475 33.8762 18.8161 33.7778 19.1954 33.5537L30.7814 26.7133C31.1591 26.4902 31.4737 26.1292 31.6925 25.746C31.9114 25.3627 32.0625 24.9084 32.0625 24.4693V11.2435C32.0625 10.8037 31.9104 10.3497 31.6896 9.96764C31.4689 9.58563 31.1515 9.22695 30.7698 9.00759C30.7698 9.00757 30.7699 9.00761 30.7698 9.00759L19.0809 2.28613C19.081 2.28616 19.0809 2.2861 19.0809 2.28613Z" fill="#262E30"/>
<path fill-rule="evenodd" clip-rule="evenodd" d="M6.39619 11.3641C6.53333 11.1244 6.8388 11.0413 7.07848 11.1784L16.9738 16.8404C17.3558 17.0586 17.6743 17.417 17.8958 17.7984C18.1174 18.18 18.2708 18.6337 18.2722 19.0732L18.2898 30.4074C18.2902 30.6836 18.0667 30.9078 17.7906 30.9082C17.5144 30.9086 17.2902 30.6851 17.2898 30.409L17.2722 19.0766C17.2722 19.0763 17.2722 19.0768 17.2722 19.0766C17.2713 18.8546 17.1884 18.5716 17.031 18.3006C16.8734 18.0293 16.6696 17.8182 16.4781 17.7089L6.58185 12.0464C6.34217 11.9092 6.25904 11.6038 6.39619 11.3641Z" fill="#262E30"/>
<path fill-rule="evenodd" clip-rule="evenodd" d="M29.6625 11.8014C29.786 12.0484 29.6859 12.3488 29.4389 12.4722L20.3956 16.9939C20.1486 17.1174 19.8483 17.0173 19.7248 16.7703C19.6013 16.5233 19.7014 16.223 19.9484 16.0995L28.9917 11.5778C29.2387 11.4543 29.539 11.5544 29.6625 11.8014Z" fill="#262E30"/>
</svg>
