<svg width="40" height="40" viewBox="0 0 40 40" fill="none" xmlns="http://www.w3.org/2000/svg">
<path d="M33.5 28H5.5C5.10218 28 4.72064 27.842 4.43934 27.5607C4.15804 27.2794 4 26.8978 4 26.5V23.5C4 23.1022 4.15804 22.7206 4.43934 22.4393C4.72064 22.158 5.10218 22 5.5 22H33.5C33.8978 22 34.2794 22.158 34.5607 22.4393C34.842 22.7206 35 23.1022 35 23.5V26.5C35 26.8978 34.842 27.2794 34.5607 27.5607C34.2794 27.842 33.8978 28 33.5 28ZM5.5 23C5.36739 23 5.24021 23.0527 5.14645 23.1464C5.05268 23.2402 5 23.3674 5 23.5V26.5C5 26.6326 5.05268 26.7598 5.14645 26.8536C5.24021 26.9473 5.36739 27 5.5 27H33.5C33.6326 27 33.7598 26.9473 33.8536 26.8536C33.9473 26.7598 34 26.6326 34 26.5V23.5C34 23.3674 33.9473 23.2402 33.8536 23.1464C33.7598 23.0527 33.6326 23 33.5 23H5.5ZM33.5 20H5.5C5.10218 20 4.72064 19.842 4.43934 19.5607C4.15804 19.2794 4 18.8978 4 18.5V16.5C4 16.1022 4.15804 15.7206 4.43934 15.4393C4.72064 15.158 5.10218 15 5.5 15H33.5C33.8978 15 34.2794 15.158 34.5607 15.4393C34.842 15.7206 35 16.1022 35 16.5V18.5C35 18.8978 34.842 19.2794 34.5607 19.5607C34.2794 19.842 33.8978 20 33.5 20ZM5.5 16C5.36739 16 5.24021 16.0527 5.14645 16.1464C5.05268 16.2402 5 16.3674 5 16.5V18.5C5 18.6326 5.05268 18.7598 5.14645 18.8536C5.24021 18.9473 5.36739 19 5.5 19H33.5C33.6326 19 33.7598 18.9473 33.8536 18.8536C33.9473 18.7598 34 18.6326 34 18.5V16.5C34 16.3674 33.9473 16.2402 33.8536 16.1464C33.7598 16.0527 33.6326 16 33.5 16H5.5ZM33.5 13H5.5C5.10218 13 4.72064 12.842 4.43934 12.5607C4.15804 12.2794 4 11.8978 4 11.5V10.5C4 10.1022 4.15804 9.72064 4.43934 9.43934C4.72064 9.15804 5.10218 9 5.5 9H33.5C33.8978 9 34.2794 9.15804 34.5607 9.43934C34.842 9.72064 35 10.1022 35 10.5V11.5C35 11.8978 34.842 12.2794 34.5607 12.5607C34.2794 12.842 33.8978 13 33.5 13ZM5.5 10C5.36739 10 5.24021 10.0527 5.14645 10.1464C5.05268 10.2402 5 10.3674 5 10.5V11.5C5 11.6326 5.05268 11.7598 5.14645 11.8536C5.24021 11.9473 5.36739 12 5.5 12H33.5C33.6326 12 33.7598 11.9473 33.8536 11.8536C33.9473 11.7598 34 11.6326 34 11.5V10.5C34 10.3674 33.9473 10.2402 33.8536 10.1464C33.7598 10.0527 33.6326 10 33.5 10H5.5Z" fill="#FF7C3F"/>
<path d="M33.5 7H5.5C5.10218 7 4.72064 6.84196 4.43934 6.56066C4.15804 6.27936 4 5.89782 4 5.5C4 5.10218 4.15804 4.72064 4.43934 4.43934C4.72064 4.15804 5.10218 4 5.5 4H33.5C33.8978 4 34.2794 4.15804 34.5607 4.43934C34.842 4.72064 35 5.10218 35 5.5C35 5.89782 34.842 6.27936 34.5607 6.56066C34.2794 6.84196 33.8978 7 33.5 7ZM5.5 5C5.36739 5 5.24021 5.05268 5.14645 5.14645C5.05268 5.24021 5 5.36739 5 5.5C5 5.63261 5.05268 5.75979 5.14645 5.85355C5.24021 5.94732 5.36739 6 5.5 6H33.5C33.6326 6 33.7598 5.94732 33.8536 5.85355C33.9473 5.75979 34 5.63261 34 5.5C34 5.36739 33.9473 5.24021 33.8536 5.14645C33.7598 5.05268 33.6326 5 33.5 5H5.5Z" fill="#2B3436"/>
<path d="M33.5 35H5.5C5.10218 35 4.72064 34.842 4.43934 34.5607C4.15804 34.2794 4 33.8978 4 33.5V31.5C4 31.1022 4.15804 30.7206 4.43934 30.4393C4.72064 30.158 5.10218 30 5.5 30H33.5C33.8978 30 34.2794 30.158 34.5607 30.4393C34.842 30.7206 35 31.1022 35 31.5V33.5C35 33.8978 34.842 34.2794 34.5607 34.5607C34.2794 34.842 33.8978 35 33.5 35ZM5.5 31C5.36739 31 5.24021 31.0527 5.14645 31.1464C5.05268 31.2402 5 31.3674 5 31.5V33.5C5 33.6326 5.05268 33.7598 5.14645 33.8536C5.24021 33.9473 5.36739 34 5.5 34H33.5C33.6326 34 33.7598 33.9473 33.8536 33.8536C33.9473 33.7598 34 33.6326 34 33.5V31.5C34 31.3674 33.9473 31.2402 33.8536 31.1464C33.7598 31.0527 33.6326 31 33.5 31H5.5Z" fill="#2B3436"/>
</svg>
