<svg width="40" height="40" viewBox="0 0 40 40" fill="none" xmlns="http://www.w3.org/2000/svg">
<path d="M33.5 4H13.5C13.1022 4 12.7206 4.15804 12.4393 4.43934C12.158 4.72064 12 5.10218 12 5.5V12H5.5C5.10218 12 4.72064 12.158 4.43934 12.4393C4.15804 12.7206 4 13.1022 4 13.5V33.5C4 33.8978 4.15804 34.2794 4.43934 34.5607C4.72064 34.842 5.10218 35 5.5 35H25.5C25.8978 35 26.2794 34.842 26.5607 34.5607C26.842 34.2794 27 33.8978 27 33.5V27H33.5C33.8978 27 34.2794 26.842 34.5607 26.5607C34.842 26.2794 35 25.8978 35 25.5V5.5C35 5.10218 34.842 4.72064 34.5607 4.43934C34.2794 4.15804 33.8978 4 33.5 4ZM26 33.5C26 33.6326 25.9473 33.7598 25.8536 33.8536C25.7598 33.9473 25.6326 34 25.5 34H5.5C5.36739 34 5.24021 33.9473 5.14645 33.8536C5.05268 33.7598 5 33.6326 5 33.5V13.5C5 13.3674 5.05268 13.2402 5.14645 13.1464C5.24021 13.0527 5.36739 13 5.5 13H12V25.5C12 25.8978 12.158 26.2794 12.4393 26.5607C12.7206 26.842 13.1022 27 13.5 27H26V33.5ZM26 26H13.5C13.3674 26 13.2402 25.9473 13.1464 25.8536C13.0527 25.7598 13 25.6326 13 25.5V13H25.5C25.6326 13 25.7598 13.0527 25.8536 13.1464C25.9473 13.2402 26 13.3674 26 13.5V26ZM34 25.5C34 25.6326 33.9473 25.7598 33.8536 25.8536C33.7598 25.9473 33.6326 26 33.5 26H27V13.5C27 13.1022 26.842 12.7206 26.5607 12.4393C26.2794 12.158 25.8978 12 25.5 12H13V5.5C13 5.36739 13.0527 5.24021 13.1464 5.14645C13.2402 5.05268 13.3674 5 13.5 5H33.5C33.6326 5 33.7598 5.05268 33.8536 5.14645C33.9473 5.24021 34 5.36739 34 5.5V25.5Z" fill="#B6B6B6"/>
<path d="M25.5 12H13.5C13.1022 12 12.7206 12.158 12.4393 12.4393C12.158 12.7206 12 13.1022 12 13.5V25.5C12 25.8978 12.158 26.2794 12.4393 26.5607C12.7206 26.842 13.1022 27 13.5 27H25.5C25.8978 27 26.2794 26.842 26.5607 26.5607C26.842 26.2794 27 25.8978 27 25.5V13.5C27 13.1022 26.842 12.7206 26.5607 12.4393C26.2794 12.158 25.8978 12 25.5 12ZM13 13.5C13 13.3674 13.0527 13.2402 13.1464 13.1464C13.2402 13.0527 13.3674 13 13.5 13H15.293L13 15.293V13.5ZM13 16.707L16.707 13H19.293L13 19.293V16.707ZM13 20.707L20.707 13H23.293L13 23.293V20.707ZM26 25.5C26 25.6326 25.9473 25.7598 25.8536 25.8536C25.7598 25.9473 25.6326 26 25.5 26H23.707L26 23.707V25.5ZM26 22.293L22.293 26H19.707L26 19.707V22.293ZM26 18.293L18.293 26H15.707L26 15.707V18.293ZM26 14.293L14.293 26H13.5C13.3674 26 13.2402 25.9473 13.1464 25.8536C13.0527 25.7598 13 25.6326 13 25.5V24.707L24.707 13H25.5C25.6326 13 25.7598 13.0527 25.8536 13.1464C25.9473 13.2402 26 13.3674 26 13.5V14.293Z" fill="#FF7C3F"/>
</svg>
