<svg width="40" height="40" viewBox="0 0 40 40" fill="none" xmlns="http://www.w3.org/2000/svg">
<path d="M27.8779 34.9261H23.4779C22.9689 34.9261 22.6329 34.9261 22.5229 34.5321C22.4949 34.396 22.5156 34.2543 22.5814 34.1318C22.6472 34.0093 22.7539 33.9139 22.8829 33.8621C23.2725 33.6515 23.5929 33.3329 23.8058 32.9446C24.0186 32.5563 24.1149 32.1148 24.0829 31.6731C24.0828 31.0531 24.2599 30.4459 24.5933 29.9232C24.9267 29.4004 25.4026 28.9839 25.9648 28.7225C26.5271 28.4612 27.1523 28.366 27.7669 28.4481C28.3814 28.5302 28.9597 28.7863 29.4336 29.1861C29.9075 29.5859 30.2573 30.1129 30.4417 30.7048C30.6261 31.2968 30.6375 31.9291 30.4746 32.5273C30.3116 33.1256 29.9811 33.6648 29.522 34.0814C29.0628 34.4981 28.4941 34.7749 27.8829 34.8791L27.8779 34.9261ZM24.3399 33.9261H27.3279C27.7735 33.9261 28.2091 33.794 28.5796 33.5464C28.9501 33.2989 29.2389 32.947 29.4094 32.5353C29.58 32.1236 29.6246 31.6706 29.5376 31.2336C29.4507 30.7965 29.2361 30.3951 28.921 30.08C28.606 29.7649 28.2045 29.5503 27.7675 29.4634C27.3304 29.3765 26.8774 29.4211 26.4658 29.5916C26.0541 29.7621 25.7022 30.0509 25.4546 30.4214C25.2071 30.7919 25.0749 31.2275 25.0749 31.6731C25.1041 32.4874 24.8437 33.2857 24.3399 33.9261Z" fill="#FF7C3F"/>
<path d="M30.5004 30.2889L29.6544 29.754L34.0184 22.854C34.0479 22.8061 34.0581 22.7489 34.047 22.6938C34.0359 22.6387 34.0043 22.5899 33.9587 22.5572C33.913 22.5244 33.8566 22.5103 33.8009 22.5175C33.7452 22.5246 33.6943 22.5527 33.6584 22.596L28.2584 29.24L27.4824 28.609L32.8824 21.965C33.0786 21.7225 33.3601 21.5643 33.6692 21.5227C33.9783 21.481 34.2916 21.5592 34.545 21.7411C34.7983 21.923 34.9726 22.1949 35.0319 22.501C35.0913 22.8072 35.0314 23.1245 34.8644 23.388L30.5004 30.2889Z" fill="#FF7C3F"/>
<path d="M33.5 35H32.5C32.3674 35 32.2402 34.9473 32.1464 34.8536C32.0527 34.7598 32 34.6326 32 34.5C32 34.3674 32.0527 34.2402 32.1464 34.1464C32.2402 34.0527 32.3674 34 32.5 34H33.5C33.6326 34 33.7598 33.9473 33.8536 33.8536C33.9473 33.7598 34 33.6326 34 33.5V28.5C34 28.3674 34.0527 28.2402 34.1464 28.1464C34.2402 28.0527 34.3674 28 34.5 28C34.6326 28 34.7598 28.0527 34.8536 28.1464C34.9473 28.2402 35 28.3674 35 28.5V33.5C35 33.8978 34.842 34.2794 34.5607 34.5607C34.2794 34.842 33.8978 35 33.5 35Z" fill="#B6B6B6"/>
<path d="M7.5 35C7.36739 35 7.24021 34.9473 7.14645 34.8536C7.05268 34.7598 7 34.6326 7 34.5V14.5C7 14.3674 7.05268 14.2402 7.14645 14.1464C7.24021 14.0527 7.36739 14 7.5 14C7.63261 14 7.75979 14.0527 7.85355 14.1464C7.94732 14.2402 8 14.3674 8 14.5V34.5C8 34.6326 7.94732 34.7598 7.85355 34.8536C7.75979 34.9473 7.63261 35 7.5 35Z" fill="#FF7C3F"/>
<path d="M10.5 35C10.3674 35 10.2402 34.9473 10.1464 34.8536C10.0527 34.7598 10 34.6326 10 34.5V14.5C10 14.3674 10.0527 14.2402 10.1464 14.1464C10.2402 14.0527 10.3674 14 10.5 14C10.6326 14 10.7598 14.0527 10.8536 14.1464C10.9473 14.2402 11 14.3674 11 14.5V34.5C11 34.6326 10.9473 34.7598 10.8536 34.8536C10.7598 34.9473 10.6326 35 10.5 35Z" fill="#FF7C3F"/>
<path d="M13.5 35H4.5C4.36739 35 4.24021 34.9473 4.14645 34.8536C4.05268 34.7598 4 34.6326 4 34.5V14.5C4 14.3674 4.05268 14.2402 4.14645 14.1464C4.24021 14.0527 4.36739 14 4.5 14H13.5C13.6326 14 13.7598 14.0527 13.8536 14.1464C13.9473 14.2402 14 14.3674 14 14.5V34.5C14 34.6326 13.9473 34.7598 13.8536 34.8536C13.7598 34.9473 13.6326 35 13.5 35ZM5 34H13V15H5V34Z" fill="#FF7C3F"/>
<path d="M22.5 29C22.3674 29 22.2402 28.9473 22.1464 28.8536C22.0527 28.7598 22 28.6326 22 28.5V15H4.5C4.36739 15 4.24021 14.9473 4.14645 14.8536C4.05268 14.7598 4 14.6326 4 14.5V5.5C4 5.10218 4.15804 4.72064 4.43934 4.43934C4.72064 4.15804 5.10218 4 5.5 4H33.5C33.8978 4 34.2794 4.15804 34.5607 4.43934C34.842 4.72064 35 5.10218 35 5.5V18.5C35 18.6326 34.9473 18.7598 34.8536 18.8536C34.7598 18.9473 34.6326 19 34.5 19C34.3674 19 34.2402 18.9473 34.1464 18.8536C34.0527 18.7598 34 18.6326 34 18.5V5.5C34 5.36739 33.9473 5.24021 33.8536 5.14645C33.7598 5.05268 33.6326 5 33.5 5H5.5C5.36739 5 5.24021 5.05268 5.14645 5.14645C5.05268 5.24021 5 5.36739 5 5.5V14H22.5C22.6326 14 22.7598 14.0527 22.8536 14.1464C22.9473 14.2402 23 14.3674 23 14.5V28.5C23 28.6326 22.9473 28.7598 22.8536 28.8536C22.7598 28.9473 22.6326 29 22.5 29Z" fill="#B6B6B6"/>
</svg>
