<svg width="40" height="40" viewBox="0 0 40 40" fill="none" xmlns="http://www.w3.org/2000/svg">
<path d="M33.5 35H5.5C4.67 35 4 34.33 4 33.5V26.5C4 25.67 4.67 25 5.5 25H33.5C34.33 25 35 25.67 35 26.5V33.5C35 34.33 34.33 35 33.5 35ZM5.5 26C5.22 26 5 26.22 5 26.5V33.5C5 33.78 5.22 34 5.5 34H33.5C33.78 34 34 33.78 34 33.5V26.5C34 26.22 33.78 26 33.5 26H5.5Z" fill="#FF7C3F"/>
<path d="M14 18H13V19H14V18Z" fill="#2B3436"/>
<path d="M16 18H15V19H16V18Z" fill="#2B3436"/>
<path d="M18 18H17V19H18V18Z" fill="#2B3436"/>
<path d="M20 18H19V19H20V18Z" fill="#2B3436"/>
<path d="M22 18H21V19H22V18Z" fill="#2B3436"/>
<path d="M24 18H23V19H24V18Z" fill="#2B3436"/>
<path d="M26 18H25V19H26V18Z" fill="#2B3436"/>
<path d="M28 18H27V19H28V18Z" fill="#2B3436"/>
<path d="M30 18H29V19H30V18Z" fill="#2B3436"/>
<path d="M16 24H15V25H16V24Z" fill="#2B3436"/>
<path d="M18 24H17V25H18V24Z" fill="#2B3436"/>
<path d="M20 24H19V25H20V24Z" fill="#2B3436"/>
<path d="M22 24H21V25H22V24Z" fill="#2B3436"/>
<path d="M24 24H23V25H24V24Z" fill="#2B3436"/>
<path d="M26 24H25V25H26V24Z" fill="#2B3436"/>
<path d="M28 24H27V25H28V24Z" fill="#2B3436"/>
<path d="M30 24H29V25H30V24Z" fill="#2B3436"/>
<path d="M14 20H13V21H14V20Z" fill="#2B3436"/>
<path d="M30 20H29V21H30V20Z" fill="#2B3436"/>
<path d="M14 22H13V23H14V22Z" fill="#2B3436"/>
<path d="M30 22H29V23H30V22Z" fill="#2B3436"/>
<path d="M14 24H13V25H14V24Z" fill="#2B3436"/>
<path d="M6.49998 23.1599C6.29998 23.1599 6.10998 23.0399 6.03998 22.8499L4.03998 17.8499C3.93998 17.5899 4.05998 17.2999 4.31998 17.1999C4.56998 17.0999 4.86998 17.2199 4.96998 17.4799L6.77998 22.0199L11.32 20.2099C11.58 20.1099 11.87 20.2299 11.97 20.4899C12.07 20.7499 11.95 21.0399 11.69 21.1399L6.68998 23.1399C6.62998 23.1599 6.56998 23.1799 6.49998 23.1799V23.1599Z" fill="#FF7C3F"/>
<path d="M6.50013 23.1601C6.50013 23.1601 6.42013 23.1601 6.38013 23.1501C6.11013 23.0901 5.95013 22.8201 6.01013 22.5501C7.04013 18.2901 9.07013 15.2001 12.2201 13.0901C12.4501 12.9401 12.7601 13.0001 12.9101 13.2301C13.0601 13.4601 13.0001 13.7701 12.7701 13.9201C9.84013 15.8801 7.94013 18.7701 6.98013 22.7801C6.92013 23.0101 6.72013 23.1601 6.49013 23.1601H6.50013Z" fill="#FF7C3F"/>
<path d="M16.0602 5.15991C16.1302 5.15991 16.2102 5.17991 16.2802 5.20991L28.8902 11.2899C29.1402 11.4099 29.2402 11.7099 29.1202 11.9599L27.3802 15.5599C27.2802 15.7699 27.0802 15.8399 26.9302 15.8399C26.8602 15.8399 26.7802 15.8199 26.7102 15.7899L14.1002 9.70991C13.8502 9.58991 13.7502 9.28991 13.8702 9.03991L15.6102 5.43991C15.7102 5.22991 15.9102 5.15991 16.0602 5.15991ZM16.0602 4.15991C15.5002 4.15991 14.9702 4.46991 14.7102 5.00991L12.9702 8.60991C12.6102 9.35991 12.9202 10.2499 13.6702 10.6099L26.2802 16.6899C26.4902 16.7899 26.7102 16.8399 26.9302 16.8399C27.4902 16.8399 28.0202 16.5299 28.2802 15.9899L30.0202 12.3899C30.3802 11.6399 30.0702 10.7499 29.3202 10.3899L16.7102 4.30991C16.5002 4.20991 16.2802 4.15991 16.0602 4.15991Z" fill="#FF7C3F"/>
</svg>
