<svg width="40" height="40" viewBox="0 0 40 40" fill="none" xmlns="http://www.w3.org/2000/svg">
<path d="M24.5 26H14.5C14.1022 26 13.7206 25.842 13.4393 25.5607C13.158 25.2794 13 24.8978 13 24.5V14.5C13 14.1022 13.158 13.7206 13.4393 13.4393C13.7206 13.158 14.1022 13 14.5 13H24.5C24.8978 13 25.2794 13.158 25.5607 13.4393C25.842 13.7206 26 14.1022 26 14.5V24.5C26 24.8978 25.842 25.2794 25.5607 25.5607C25.2794 25.842 24.8978 26 24.5 26ZM14.5 14C14.3674 14 14.2402 14.0527 14.1464 14.1464C14.0527 14.2402 14 14.3674 14 14.5V24.5C14 24.6326 14.0527 24.7598 14.1464 24.8536C14.2402 24.9473 14.3674 25 14.5 25H24.5C24.6326 25 24.7598 24.9473 24.8536 24.8536C24.9473 24.7598 25 24.6326 25 24.5V14.5C25 14.3674 24.9473 14.2402 24.8536 14.1464C24.7598 14.0527 24.6326 14 24.5 14H14.5Z" fill="#2B3436"/>
<path d="M35 19.5001C34.9955 23.6095 33.361 27.5494 30.4552 30.4553C27.5493 33.3611 23.6095 34.9956 19.5 35.0001C18.8101 34.9999 18.121 34.9545 17.437 34.8641C17.3055 34.8466 17.1862 34.7775 17.1056 34.6721C17.025 34.5667 16.9895 34.4336 17.007 34.3021C17.0245 34.1705 17.0935 34.0513 17.1989 33.9707C17.3043 33.89 17.4375 33.8546 17.569 33.8721C19.5364 34.1352 21.5369 33.9916 23.4466 33.4502C25.3563 32.9087 27.1345 31.981 28.671 30.7243C30.2075 29.4677 31.4697 27.909 32.3793 26.1447C33.2889 24.3805 33.8266 22.4482 33.9591 20.4677C34.0915 18.4872 33.8159 16.5005 33.1494 14.6308C32.4828 12.7611 31.4395 11.0482 30.084 9.59818C28.7284 8.14813 27.0897 6.99182 25.2691 6.20089C23.4485 5.40996 21.485 5.00125 19.5 5.00007C17.2057 4.99412 14.943 5.53533 12.8997 6.57881C10.8564 7.62229 9.09134 9.13796 7.751 11.0001H11.5C11.6326 11.0001 11.7598 11.0527 11.8536 11.1465C11.9473 11.2403 12 11.3675 12 11.5001C12 11.6327 11.9473 11.7599 11.8536 11.8536C11.7598 11.9474 11.6326 12.0001 11.5 12.0001H6.5C6.36739 12.0001 6.24021 11.9474 6.14645 11.8536C6.05268 11.7599 6 11.6327 6 11.5001V6.50007C6 6.36746 6.05268 6.24028 6.14645 6.14652C6.24021 6.05275 6.36739 6.00007 6.5 6.00007C6.63261 6.00007 6.75979 6.05275 6.85355 6.14652C6.94732 6.24028 7 6.36746 7 6.50007V10.3361C8.93202 7.70106 11.6473 5.74398 14.7581 4.74438C17.8689 3.74478 21.2159 3.75379 24.3213 4.77012C27.4266 5.78645 30.1313 7.75812 32.0492 10.4035C33.967 13.0489 34.9998 16.2327 35 19.5001ZM5.943 24.6601C5.92218 24.5955 5.88842 24.5358 5.84378 24.4846C5.79914 24.4335 5.74455 24.392 5.68335 24.3626C5.62214 24.3333 5.55561 24.3167 5.48778 24.3139C5.41996 24.3111 5.35228 24.3221 5.28886 24.3463C5.22544 24.3705 5.16762 24.4074 5.1189 24.4546C5.07019 24.5019 5.03161 24.5586 5.00552 24.6213C4.97943 24.6839 4.96637 24.7513 4.96714 24.8191C4.96791 24.887 4.98249 24.954 5.01 25.0161C5.57496 26.4999 6.36561 27.8875 7.354 29.1301C7.43805 29.2286 7.55706 29.2907 7.68598 29.3033C7.81489 29.3158 7.94364 29.2778 8.04513 29.1974C8.14661 29.1169 8.21289 29.0001 8.23003 28.8718C8.24717 28.7434 8.21382 28.6134 8.137 28.5091C7.21325 27.3457 6.47332 26.0477 5.943 24.6601ZM14.343 33.0601C12.955 32.53 11.6565 31.79 10.493 30.8661C10.4415 30.8253 10.3825 30.7951 10.3194 30.7771C10.2562 30.7591 10.1901 30.7538 10.1249 30.7613C10.0596 30.7689 9.99653 30.7892 9.93916 30.8212C9.88179 30.8531 9.83127 30.8961 9.7905 30.9476C9.74972 30.999 9.71949 31.0581 9.70152 31.1212C9.68354 31.1844 9.67819 31.2505 9.68576 31.3157C9.69333 31.3809 9.71367 31.444 9.74562 31.5014C9.77758 31.5588 9.82052 31.6093 9.872 31.6501C11.1152 32.6378 12.5031 33.4281 13.987 33.9931C14.0437 34.0151 14.1041 34.0263 14.165 34.0261C14.2813 34.0253 14.3938 33.984 14.4829 33.9093C14.5721 33.8346 14.6324 33.7311 14.6535 33.6167C14.6746 33.5023 14.6551 33.3841 14.5984 33.2825C14.5418 33.1809 14.4514 33.1022 14.343 33.0601ZM5.128 21.4311C5.04274 20.7909 4.99998 20.1459 5 19.5001C5 19.3675 4.94732 19.2403 4.85355 19.1465C4.75979 19.0527 4.63261 19.0001 4.5 19.0001C4.36739 19.0001 4.24021 19.0527 4.14645 19.1465C4.05268 19.2403 4 19.3675 4 19.5001C4.00015 20.19 4.04558 20.8791 4.136 21.5631C4.14467 21.6282 4.16608 21.691 4.19901 21.7479C4.23195 21.8047 4.27576 21.8545 4.32794 21.8945C4.38013 21.9344 4.43967 21.9637 4.50317 21.9806C4.56666 21.9975 4.63286 22.0017 4.698 21.9931C4.76314 21.9844 4.82593 21.963 4.88279 21.9301C4.93965 21.8971 4.98946 21.8533 5.02939 21.8011C5.06932 21.7489 5.09858 21.6894 5.1155 21.6259C5.13242 21.5624 5.13667 21.4962 5.128 21.4311Z" fill="#FF7C3F"/>
</svg>
