<svg width="40" height="40" viewBox="0 0 40 40" fill="none" xmlns="http://www.w3.org/2000/svg">
<path d="M27.8779 34.9261H23.4779C22.9689 34.9261 22.6329 34.9261 22.5229 34.5321C22.4949 34.396 22.5156 34.2543 22.5814 34.1318C22.6472 34.0093 22.7539 33.9139 22.8829 33.8621C23.2725 33.6515 23.5929 33.3329 23.8058 32.9446C24.0186 32.5563 24.1149 32.1148 24.0829 31.6731C24.0828 31.0531 24.2599 30.4459 24.5933 29.9232C24.9267 29.4004 25.4026 28.9839 25.9648 28.7225C26.5271 28.4612 27.1523 28.366 27.7669 28.4481C28.3814 28.5302 28.9597 28.7863 29.4336 29.1861C29.9075 29.5859 30.2573 30.1129 30.4417 30.7048C30.6261 31.2968 30.6375 31.9291 30.4746 32.5273C30.3116 33.1256 29.9811 33.6648 29.522 34.0814C29.0628 34.4981 28.4941 34.7749 27.8829 34.8791L27.8779 34.9261ZM24.3399 33.9261H27.3279C27.7735 33.9261 28.2091 33.794 28.5796 33.5464C28.9501 33.2989 29.2389 32.947 29.4094 32.5353C29.58 32.1236 29.6246 31.6706 29.5376 31.2336C29.4507 30.7965 29.2361 30.3951 28.921 30.08C28.606 29.7649 28.2045 29.5503 27.7675 29.4634C27.3304 29.3765 26.8774 29.4211 26.4658 29.5916C26.0541 29.7621 25.7022 30.0509 25.4546 30.4214C25.2071 30.7919 25.0749 31.2275 25.0749 31.6731C25.1041 32.4874 24.8437 33.2857 24.3399 33.9261Z" fill="#FF7C3F"/>
<path d="M30.5004 30.2889L29.6544 29.754L34.0184 22.854C34.0479 22.8061 34.0581 22.7489 34.047 22.6938C34.0359 22.6387 34.0043 22.5899 33.9587 22.5572C33.913 22.5244 33.8566 22.5103 33.8009 22.5175C33.7452 22.5246 33.6943 22.5527 33.6584 22.596L28.2584 29.24L27.4824 28.609L32.8824 21.965C33.0786 21.7225 33.3601 21.5643 33.6692 21.5227C33.9783 21.481 34.2916 21.5592 34.545 21.7411C34.7983 21.923 34.9726 22.1949 35.0319 22.501C35.0913 22.8072 35.0314 23.1245 34.8644 23.388L30.5004 30.2889Z" fill="#FF7C3F"/>
<path d="M33.5 35H32.5C32.3674 35 32.2402 34.9473 32.1464 34.8536C32.0527 34.7598 32 34.6326 32 34.5C32 34.3674 32.0527 34.2402 32.1464 34.1464C32.2402 34.0527 32.3674 34 32.5 34H33.5C33.6326 34 33.7598 33.9473 33.8536 33.8536C33.9473 33.7598 34 33.6326 34 33.5V28.5C34 28.3674 34.0527 28.2402 34.1464 28.1464C34.2402 28.0527 34.3674 28 34.5 28C34.6326 28 34.7598 28.0527 34.8536 28.1464C34.9473 28.2402 35 28.3674 35 28.5V33.5C35 33.8978 34.842 34.2794 34.5607 34.5607C34.2794 34.842 33.8978 35 33.5 35Z" fill="#B6B6B6"/>
<path d="M19.5 35H5.5C5.10218 35 4.72064 34.842 4.43934 34.5607C4.15804 34.2794 4 33.8978 4 33.5V5.5C4 5.10218 4.15804 4.72064 4.43934 4.43934C4.72064 4.15804 5.10218 4 5.5 4H33.5C33.8978 4 34.2794 4.15804 34.5607 4.43934C34.842 4.72064 35 5.10218 35 5.5V18.5C35 18.6326 34.9473 18.7598 34.8536 18.8536C34.7598 18.9473 34.6326 19 34.5 19C34.3674 19 34.2402 18.9473 34.1464 18.8536C34.0527 18.7598 34 18.6326 34 18.5V5.5C34 5.36739 33.9473 5.24021 33.8536 5.14645C33.7598 5.05268 33.6326 5 33.5 5H5.5C5.36739 5 5.24021 5.05268 5.14645 5.14645C5.05268 5.24021 5 5.36739 5 5.5V33.5C5 33.6326 5.05268 33.7598 5.14645 33.8536C5.24021 33.9473 5.36739 34 5.5 34H19.5C19.6326 34 19.7598 34.0527 19.8536 34.1464C19.9473 34.2402 20 34.3674 20 34.5C20 34.6326 19.9473 34.7598 19.8536 34.8536C19.7598 34.9473 19.6326 35 19.5 35Z" fill="#B6B6B6"/>
<path d="M16 6H14V7H16V6Z" fill="#FF7C3F"/>
<path d="M14 8H12V9H14V8Z" fill="#FF7C3F"/>
<path d="M16 12H14V13H16V12Z" fill="#FF7C3F"/>
<path d="M14 14H12V15H14V14Z" fill="#FF7C3F"/>
<path d="M15 10H13V11H15V10Z" fill="#FF7C3F"/>
<path d="M16 18H14V19H16V18Z" fill="#FF7C3F"/>
<path d="M14 20H12V21H14V20Z" fill="#FF7C3F"/>
<path d="M15 16H13V17H15V16Z" fill="#FF7C3F"/>
<path d="M16 24H14V25H16V24Z" fill="#FF7C3F"/>
<path d="M14 26H12V27H14V26Z" fill="#FF7C3F"/>
<path d="M15 22H13V23H15V22Z" fill="#FF7C3F"/>
<path d="M16 30H14V31H16V30Z" fill="#FF7C3F"/>
<path d="M14 32H12V33H14V32Z" fill="#FF7C3F"/>
<path d="M15 28H13V29H15V28Z" fill="#FF7C3F"/>
</svg>
