<svg width="40" height="40" viewBox="0 0 40 40" fill="none" xmlns="http://www.w3.org/2000/svg">
<path d="M34.854 19.1459L30.854 15.1459C30.7601 15.052 30.6328 14.9993 30.5 14.9993C30.3672 14.9993 30.2399 15.052 30.146 15.1459C30.0521 15.2398 29.9994 15.3671 29.9994 15.4999C29.9994 15.6327 30.0521 15.76 30.146 15.8539L33.293 18.9999H28.5C28.3674 18.9999 28.2402 19.0526 28.1464 19.1463C28.0527 19.2401 28 19.3673 28 19.4999C28 19.6325 28.0527 19.7597 28.1464 19.8535C28.2402 19.9472 28.3674 19.9999 28.5 19.9999H33.293L30.146 23.1459C30.0521 23.2398 29.9994 23.3671 29.9994 23.4999C29.9994 23.6327 30.0521 23.76 30.146 23.8539C30.2399 23.9478 30.3672 24.0005 30.5 24.0005C30.6328 24.0005 30.7601 23.9478 30.854 23.8539L34.854 19.8539C34.9006 19.8075 34.9375 19.7523 34.9627 19.6915C34.9879 19.6308 35.0009 19.5657 35.0009 19.4999C35.0009 19.4341 34.9879 19.369 34.9627 19.3083C34.9375 19.2475 34.9006 19.1923 34.854 19.1459Z" fill="#FF7C3F"/>
<path d="M19.8537 4.14592C19.8072 4.09935 19.752 4.06241 19.6913 4.0372C19.6305 4.012 19.5654 3.99902 19.4997 3.99902C19.4339 3.99902 19.3688 4.012 19.308 4.0372C19.2473 4.06241 19.1921 4.09935 19.1457 4.14592L15.1457 8.14592C15.0518 8.2398 14.999 8.36714 14.999 8.49992C14.999 8.63269 15.0518 8.76003 15.1457 8.85392C15.2395 8.9478 15.3669 9.00055 15.4997 9.00055C15.6324 9.00055 15.7598 8.9478 15.8537 8.85392L18.9997 5.70692V10.4999C18.9997 10.6325 19.0523 10.7597 19.1461 10.8535C19.2399 10.9472 19.367 10.9999 19.4997 10.9999C19.6323 10.9999 19.7594 10.9472 19.8532 10.8535C19.947 10.7597 19.9997 10.6325 19.9997 10.4999V5.70692L23.1457 8.85392C23.2395 8.9478 23.3669 9.00055 23.4997 9.00055C23.6324 9.00055 23.7598 8.9478 23.8537 8.85392C23.9475 8.76003 24.0003 8.63269 24.0003 8.49992C24.0003 8.36714 23.9475 8.2398 23.8537 8.14592L19.8537 4.14592Z" fill="#FF7C3F"/>
<path d="M23.1457 30.146L19.9997 33.293V28.5C19.9997 28.3674 19.947 28.2402 19.8532 28.1464C19.7594 28.0527 19.6323 28 19.4997 28C19.367 28 19.2399 28.0527 19.1461 28.1464C19.0523 28.2402 18.9997 28.3674 18.9997 28.5V33.293L15.8537 30.146C15.7598 30.0521 15.6324 29.9994 15.4997 29.9994C15.3669 29.9994 15.2395 30.0521 15.1457 30.146C15.0518 30.2399 14.999 30.3672 14.999 30.5C14.999 30.6328 15.0518 30.7601 15.1457 30.854L19.1457 34.854C19.1921 34.9006 19.2473 34.9375 19.308 34.9627C19.3688 34.9879 19.4339 35.0009 19.4997 35.0009C19.5654 35.0009 19.6305 34.9879 19.6913 34.9627C19.752 34.9375 19.8072 34.9006 19.8537 34.854L23.8537 30.854C23.9475 30.7601 24.0003 30.6328 24.0003 30.5C24.0003 30.3672 23.9475 30.2399 23.8537 30.146C23.7598 30.0521 23.6324 29.9994 23.4997 29.9994C23.3669 29.9994 23.2395 30.0521 23.1457 30.146Z" fill="#FF7C3F"/>
<path d="M10.4999 18.9999H5.70692L8.85392 15.8539C8.9478 15.76 9.00055 15.6327 9.00055 15.4999C9.00055 15.3671 8.9478 15.2398 8.85392 15.1459C8.76003 15.052 8.63269 14.9993 8.49992 14.9993C8.36714 14.9993 8.2398 15.052 8.14592 15.1459L4.14592 19.1459C4.09935 19.1923 4.06241 19.2475 4.0372 19.3083C4.012 19.369 3.99902 19.4341 3.99902 19.4999C3.99902 19.5657 4.012 19.6308 4.0372 19.6915C4.06241 19.7523 4.09935 19.8075 4.14592 19.8539L8.14592 23.8539C8.2398 23.9478 8.36714 24.0005 8.49992 24.0005C8.63269 24.0005 8.76003 23.9478 8.85392 23.8539C8.9478 23.76 9.00055 23.6327 9.00055 23.4999C9.00055 23.3671 8.9478 23.2398 8.85392 23.1459L5.70692 19.9999H10.4999C10.6325 19.9999 10.7597 19.9472 10.8535 19.8535C10.9472 19.7597 10.9999 19.6325 10.9999 19.4999C10.9999 19.3673 10.9472 19.2401 10.8535 19.1463C10.7597 19.0526 10.6325 18.9999 10.4999 18.9999Z" fill="#FF7C3F"/>
<path d="M24.5 26H14.5C14.1022 26 13.7206 25.842 13.4393 25.5607C13.158 25.2794 13 24.8978 13 24.5V14.5C13 14.1022 13.158 13.7206 13.4393 13.4393C13.7206 13.158 14.1022 13 14.5 13H24.5C24.8978 13 25.2794 13.158 25.5607 13.4393C25.842 13.7206 26 14.1022 26 14.5V24.5C26 24.8978 25.842 25.2794 25.5607 25.5607C25.2794 25.842 24.8978 26 24.5 26ZM14.5 14C14.3674 14 14.2402 14.0527 14.1464 14.1464C14.0527 14.2402 14 14.3674 14 14.5V24.5C14 24.6326 14.0527 24.7598 14.1464 24.8536C14.2402 24.9473 14.3674 25 14.5 25H24.5C24.6326 25 24.7598 24.9473 24.8536 24.8536C24.9473 24.7598 25 24.6326 25 24.5V14.5C25 14.3674 24.9473 14.2402 24.8536 14.1464C24.7598 14.0527 24.6326 14 24.5 14H14.5Z" fill="#B6B6B6"/>
</svg>
