<svg width="40" height="40" viewBox="0 0 40 40" fill="none" xmlns="http://www.w3.org/2000/svg">
<path d="M33.5 4H5.5C5.10218 4 4.72064 4.15804 4.43934 4.43934C4.15804 4.72064 4 5.10218 4 5.5V19H5V5.5C5 5.36739 5.05268 5.24021 5.14645 5.14645C5.24021 5.05268 5.36739 5 5.5 5H19V10.5C19 10.6326 19.0527 10.7598 19.1464 10.8536C19.2402 10.9473 19.3674 11 19.5 11H20.012C20.0896 11 20.1662 10.9819 20.2356 10.9472C20.305 10.9125 20.3654 10.8621 20.412 10.8C20.5959 10.552 20.8354 10.3505 21.1111 10.2116C21.3868 10.0727 21.6912 10.0002 22 10C22.5304 10 23.0391 10.2107 23.4142 10.5858C23.7893 10.9609 24 11.4696 24 12C24 12.5304 23.7893 13.0391 23.4142 13.4142C23.0391 13.7893 22.5304 14 22 14C21.6911 13.9999 21.3865 13.9275 21.1105 13.7886C20.8346 13.6497 20.595 13.4481 20.411 13.2C20.3644 13.1379 20.304 13.0875 20.2346 13.0528C20.1652 13.0181 20.0886 13 20.011 13H19.5C19.3674 13 19.2402 13.0527 19.1464 13.1464C19.0527 13.2402 19 13.3674 19 13.5V20H24.773C24.2743 20.5465 23.9985 21.2601 24 22C24 22.7956 24.3161 23.5587 24.8787 24.1213C25.4413 24.6839 26.2044 25 27 25C27.7956 25 28.5587 24.6839 29.1213 24.1213C29.6839 23.5587 30 22.7956 30 22C30.0015 21.2601 29.7257 20.5465 29.227 20H34V33.5C34 33.6326 33.9473 33.7598 33.8536 33.8536C33.7598 33.9473 33.6326 34 33.5 34H20V35H33.5C33.8978 35 34.2794 34.842 34.5607 34.5607C34.842 34.2794 35 33.8978 35 33.5V5.5C35 5.10218 34.842 4.72064 34.5607 4.43934C34.2794 4.15804 33.8978 4 33.5 4ZM34 19H28.5C28.3674 19 28.2402 19.0527 28.1464 19.1464C28.0527 19.2402 28 19.3674 28 19.5V20.011C28 20.0886 28.0181 20.1652 28.0528 20.2346C28.0875 20.304 28.1379 20.3644 28.2 20.411C28.4479 20.5952 28.6494 20.8348 28.7883 21.1107C28.9272 21.3866 28.9997 21.6911 29 22C29 22.5304 28.7893 23.0391 28.4142 23.4142C28.0391 23.7893 27.5304 24 27 24C26.4696 24 25.9609 23.7893 25.5858 23.4142C25.2107 23.0391 25 22.5304 25 22C25.0002 21.691 25.0726 21.3862 25.2115 21.1101C25.3504 20.8341 25.5519 20.5943 25.8 20.41C25.8621 20.3634 25.9125 20.303 25.9472 20.2336C25.9819 20.1642 26 20.0876 26 20.01V19.5C26 19.3674 25.9473 19.2402 25.8536 19.1464C25.7598 19.0527 25.6326 19 25.5 19H20V14.227C20.5466 14.7256 21.2601 15.0014 22 15C22.7956 15 23.5587 14.6839 24.1213 14.1213C24.6839 13.5587 25 12.7956 25 12C25 11.2044 24.6839 10.4413 24.1213 9.87868C23.5587 9.31607 22.7956 9 22 9C21.2601 8.99857 20.5466 9.27436 20 9.773V5H33.5C33.6326 5 33.7598 5.05268 33.8536 5.14645C33.9473 5.24021 34 5.36739 34 5.5V19Z" fill="#2B3436"/>
<path d="M20 34.9999H5.5C5.10218 34.9999 4.72064 34.8419 4.43934 34.5606C4.15804 34.2793 4 33.8978 4 33.4999V18.9999H9.773C9.42122 18.6111 9.17748 18.137 9.06606 17.6246C8.95465 17.1123 8.97945 16.5797 9.138 16.0799C9.27954 15.6224 9.53057 15.2062 9.86934 14.8676C10.2081 14.529 10.6244 14.2782 11.082 14.1369C11.5325 13.9942 12.0102 13.9595 12.4766 14.0358C12.9429 14.112 13.3848 14.2971 13.7663 14.5759C14.1478 14.8547 14.4583 15.2194 14.6727 15.6405C14.887 16.0617 14.9992 16.5274 15 16.9999C15.0015 17.7398 14.7257 18.4534 14.227 18.9999H20V25.4999C20 25.6325 19.9473 25.7597 19.8536 25.8535C19.7598 25.9472 19.6326 25.9999 19.5 25.9999H18.988C18.9104 25.9999 18.8338 25.9819 18.7644 25.9471C18.695 25.9124 18.6346 25.862 18.588 25.7999C18.3361 25.4641 17.985 25.2161 17.5843 25.0909C17.1837 24.9657 16.7538 24.9698 16.3555 25.1026C15.9573 25.2353 15.611 25.49 15.3655 25.8305C15.1201 26.171 14.988 26.5802 14.988 26.9999C14.988 27.4197 15.1201 27.8288 15.3655 28.1693C15.611 28.5099 15.9573 28.7646 16.3555 28.8973C16.7538 29.03 17.1837 29.0341 17.5843 28.909C17.985 28.7838 18.3361 28.5357 18.588 28.1999C18.6346 28.1378 18.695 28.0874 18.7644 28.0527C18.8338 28.018 18.9104 27.9999 18.988 27.9999H19.5C19.6326 27.9999 19.7598 28.0526 19.8536 28.1464C19.9473 28.2401 20 28.3673 20 28.4999V34.9999ZM5 19.9999V33.4999C5 33.6325 5.05268 33.7597 5.14645 33.8535C5.24021 33.9472 5.36739 33.9999 5.5 33.9999H19V29.2269C18.6112 29.5787 18.137 29.8224 17.6247 29.9339C17.1124 30.0453 16.5798 30.0205 16.08 29.8619C15.6224 29.7204 15.2063 29.4694 14.8677 29.1306C14.5291 28.7918 14.2783 28.3756 14.137 27.9179C13.9945 27.4675 13.96 26.9898 14.0363 26.5235C14.1127 26.0572 14.2977 25.6155 14.5765 25.234C14.8552 24.8526 15.2199 24.5421 15.6409 24.3277C16.0619 24.1133 16.5275 24.001 17 23.9999C17.7399 23.9984 18.4535 24.2742 19 24.7729V19.9999H13.5C13.3674 19.9999 13.2402 19.9472 13.1464 19.8535C13.0527 19.7597 13 19.6325 13 19.4999V18.9889C13 18.9113 13.0181 18.8347 13.0528 18.7653C13.0875 18.6959 13.1379 18.6355 13.2 18.5889C13.4479 18.4047 13.6494 18.1651 13.7883 17.8892C13.9272 17.6133 13.9997 17.3088 14 16.9999C14 16.4695 13.7893 15.9608 13.4142 15.5857C13.0391 15.2106 12.5304 14.9999 12 14.9999C11.4696 14.9999 10.9609 15.2106 10.5858 15.5857C10.2107 15.9608 10 16.4695 10 16.9999C10.0002 17.309 10.0726 17.6137 10.2115 17.8898C10.3504 18.1659 10.5519 18.4056 10.8 18.5899C10.8621 18.6365 10.9125 18.6969 10.9472 18.7663C10.9819 18.8357 11 18.9123 11 18.9899V19.4999C11 19.6325 10.9473 19.7597 10.8536 19.8535C10.7598 19.9472 10.6326 19.9999 10.5 19.9999H5Z" fill="#FF7C3F"/>
</svg>
