<svg width="40" height="40" viewBox="0 0 40 40" fill="none" xmlns="http://www.w3.org/2000/svg">
<path d="M11.964 29.314C11.9146 29.1909 11.8184 29.0925 11.6965 29.0404C11.5746 28.9883 11.437 28.9867 11.314 29.036L7.15196 30.7C7.85566 28.1485 9.13473 25.7922 10.891 23.812C10.9319 23.7606 10.9624 23.7017 10.9806 23.6386C10.9988 23.5755 11.0044 23.5094 10.9971 23.4441C10.9897 23.3788 10.9696 23.3156 10.9378 23.2581C10.9061 23.2006 10.8633 23.15 10.812 23.109C10.7606 23.068 10.7017 23.0376 10.6386 23.0193C10.5755 23.0011 10.5094 22.9955 10.4441 23.0029C10.3788 23.0102 10.3156 23.0303 10.2581 23.0621C10.2006 23.0939 10.1499 23.1366 10.109 23.188C8.43326 25.1218 7.15858 27.3693 6.35896 29.8L4.96396 26.314C4.94049 26.2517 4.90484 26.1948 4.85908 26.1465C4.81332 26.0982 4.75838 26.0595 4.69748 26.0327C4.63658 26.0059 4.57094 25.9915 4.50442 25.9904C4.43789 25.9893 4.37181 26.0015 4.31005 26.0262C4.2483 26.051 4.1921 26.0878 4.14476 26.1346C4.09742 26.1813 4.05988 26.2371 4.03436 26.2985C4.00883 26.36 3.99582 26.4259 3.9961 26.4924C3.99637 26.5589 4.00993 26.6248 4.03596 26.686L6.03596 31.686C6.03596 31.696 6.05196 31.701 6.05696 31.711C6.09044 31.7844 6.14206 31.8481 6.20696 31.896C6.21596 31.903 6.22296 31.913 6.23196 31.919C6.29236 31.9584 6.36059 31.9844 6.43196 31.995C6.45442 31.9988 6.47719 32.0004 6.49996 32C6.56207 31.9999 6.62356 31.9877 6.68096 31.964L11.681 29.964C11.7423 29.94 11.7984 29.9042 11.8458 29.8585C11.8933 29.8128 11.9313 29.7582 11.9576 29.6978C11.9839 29.6374 11.998 29.5724 11.9991 29.5065C12.0002 29.4407 11.9882 29.3752 11.964 29.314Z" fill="#FF7C3F"/>
<path d="M35 34H4V35H35V34Z" fill="#FF7C3F"/>
<path d="M34.8537 17.1459L21.8537 4.14592C21.8072 4.09935 21.752 4.06241 21.6913 4.0372C21.6305 4.012 21.5654 3.99902 21.4997 3.99902C21.4339 3.99902 21.3688 4.012 21.308 4.0372C21.2473 4.06241 21.1921 4.09935 21.1457 4.14592L8.14566 17.1459C8.05177 17.2398 7.99902 17.3671 7.99902 17.4999C7.99902 17.6327 8.05177 17.76 8.14566 17.8539C8.23954 17.9478 8.36688 18.0005 8.49966 18.0005C8.63243 18.0005 8.75977 17.9478 8.85366 17.8539L21.4997 5.20692L33.7927 17.4999L21.1457 30.1459C21.0518 30.2398 20.999 30.3671 20.999 30.4999C20.999 30.6327 21.0518 30.76 21.1457 30.8539C21.2395 30.9478 21.3669 31.0005 21.4997 31.0005C21.6324 31.0005 21.7598 30.9478 21.8537 30.8539L34.8537 17.8539C34.9002 17.8075 34.9372 17.7523 34.9624 17.6916C34.9876 17.6308 35.0005 17.5657 35.0005 17.4999C35.0005 17.4341 34.9876 17.369 34.9624 17.3083C34.9372 17.2475 34.9002 17.1924 34.8537 17.1459Z" fill="#B6B6B6"/>
<path d="M21.4997 30.9999C21.4339 31 21.3689 30.9872 21.3081 30.9621C21.2474 30.9371 21.1922 30.9003 21.1457 30.8539L8.14566 17.8539C8.05177 17.76 7.99902 17.6327 7.99902 17.4999C7.99902 17.3671 8.05177 17.2398 8.14566 17.1459C8.23954 17.052 8.36688 16.9993 8.49966 16.9993C8.63243 16.9993 8.75977 17.052 8.85366 17.1459L21.8537 30.1459C21.9238 30.2158 21.9715 30.305 21.9909 30.4021C22.0103 30.4992 22.0004 30.5999 21.9624 30.6914C21.9245 30.7828 21.8603 30.861 21.7779 30.9159C21.6955 30.9708 21.5987 31.0001 21.4997 30.9999Z" fill="#FF7C3F"/>
</svg>
