<svg width="18" height="18" viewBox="0 0 18 18" fill="none" xmlns="http://www.w3.org/2000/svg">
<path d="M5.97222 3H4C2.89543 3 2 3.89543 2 5V14C2 15.1046 2.89543 16 4 16H14.4444C15.549 16 16.4444 15.1046 16.4444 14V5C16.4444 3.89543 15.549 3 14.4444 3H12.8333" stroke="white" stroke-linecap="round"/>
<path d="M9.9369 2.64645C9.74164 2.45118 9.42506 2.45118 9.22979 2.64645L6.04781 5.82843C5.85255 6.02369 5.85255 6.34027 6.04781 6.53553C6.24308 6.7308 6.55966 6.7308 6.75492 6.53553L9.58335 3.70711L12.4118 6.53553C12.607 6.7308 12.9236 6.7308 13.1189 6.53553C13.3142 6.34027 13.3142 6.02369 13.1189 5.82843L9.9369 2.64645ZM9.08335 11.3056C9.08335 11.5817 9.3072 11.8056 9.58335 11.8056C9.85949 11.8056 10.0834 11.5817 10.0834 11.3056H9.08335ZM9.08335 3V11.3056H10.0834V3H9.08335Z" fill="white"/>
</svg>
