<svg width="20" height="20" viewBox="0 0 20 20" fill="none" xmlns="http://www.w3.org/2000/svg">
<path d="M3.68002 17.909C3.29322 17.909 2.9262 17.7615 2.64691 17.4931C2.36763 17.2234 2.21316 16.8679 2.21316 16.4907V13.0023C2.21316 12.8886 2.25023 12.7919 2.33179 12.6903C2.40594 12.619 2.51963 12.5778 2.64568 12.5778C2.87553 12.5778 3.0782 12.7665 3.0782 12.9805V16.4471C3.0782 16.7676 3.35378 17.0384 3.68002 17.0384H16.0947C16.4209 17.0384 16.6965 16.7676 16.6965 16.4471V12.914C16.6965 12.6879 16.8868 12.5113 17.129 12.5113C17.3601 12.5113 17.5615 12.7 17.5615 12.914V16.4242C17.5615 17.2101 16.9164 17.8437 16.0922 17.8643L3.68002 17.909ZM9.99854 11.5283C9.00374 11.5283 8.06208 11.1015 7.41577 10.3578L7.23411 10.1487L7.05245 10.3578C6.43703 11.0918 5.47931 11.5283 4.49069 11.5283C3.93953 11.5283 3.46005 11.4279 3.02382 11.22L2.86564 11.1305C1.78187 10.5392 1.11084 9.43042 1.11084 8.23336C1.11084 7.90689 1.16893 7.5659 1.28756 7.19228L1.29003 7.18381V7.17414C1.29003 7.15479 1.29003 7.15479 1.29374 7.15116L1.30239 7.1427L2.97316 3.28671L2.97439 3.28429C3.18695 2.63981 3.83449 2.22266 4.62415 2.22266H15.4879C16.2887 2.22266 16.9634 2.65674 17.2056 3.33024L18.7096 7.07741C18.712 7.09192 18.717 7.10522 18.7219 7.1161C18.7269 7.12819 18.7318 7.13786 18.7318 7.15237V7.20679L18.7355 7.21646C18.8381 7.51754 18.89 7.86094 18.89 8.23457C18.89 9.45097 18.2128 10.5719 17.1228 11.1619C16.6557 11.4025 16.0971 11.5295 15.5114 11.5295C14.5092 11.5295 13.5836 11.1136 12.9039 10.3578L12.7222 10.1499L12.5406 10.359C12.2415 10.7157 11.8485 11.0108 11.4037 11.2127C10.9687 11.4074 10.483 11.5174 9.99854 11.5283ZM13.266 9.48725L13.2746 9.50176C13.7294 10.2393 14.54 10.6795 15.4422 10.6795C15.9142 10.6795 16.3134 10.59 16.6631 10.4074C17.4861 9.98058 17.978 9.15957 17.978 8.21159C17.978 7.94437 17.9322 7.67352 17.8433 7.40751V7.33979L16.3319 3.61923C16.1515 3.13073 15.6708 3.07874 15.4656 3.05576C15.4533 3.05455 15.4397 3.05334 15.4273 3.05093H15.4236H4.55742C4.11254 3.05093 3.81225 3.24076 3.68991 3.59867L2.0661 7.40388V7.45103C1.97589 7.71705 1.9314 7.9879 1.9314 8.25512C1.9314 9.18254 2.44424 10.0229 3.26851 10.4509C3.26851 10.4509 3.79989 10.6674 4.46721 10.6783C5.33101 10.6783 6.14168 10.2393 6.63352 9.50297L6.63599 9.50055L6.63723 9.49692C6.64094 9.48967 6.64464 9.48241 6.64959 9.47274C6.6743 9.42195 6.71385 9.33852 6.78305 9.2696L6.78552 9.26718L6.78799 9.26476C6.86214 9.17408 7.04503 9.1112 7.23411 9.1112C7.42812 9.1112 7.59495 9.18133 7.7037 9.3095L7.70494 9.31192L7.70741 9.31434C7.76796 9.37359 7.80998 9.45702 7.83099 9.49692L7.83222 9.49934L7.83346 9.50176C8.28822 10.2393 9.09024 10.6795 9.97876 10.6795C10.8525 10.6795 11.6545 10.2393 12.1229 9.50297L12.1328 9.48846V9.45944C12.1538 9.40382 12.1945 9.34336 12.2539 9.26597C12.3503 9.15231 12.5084 9.09065 12.7 9.09065C12.9892 9.09065 13.114 9.22365 13.1449 9.26476L13.1473 9.26839L13.151 9.27081C13.2128 9.33127 13.2388 9.39293 13.2573 9.43767C13.261 9.44614 13.2647 9.4546 13.2684 9.46186L13.266 9.48725Z" fill="white"/>
<path d="M4.60195 7.55432C4.3721 7.55432 4.16943 7.3669 4.16943 7.15167C4.16943 6.93765 4.3721 6.74902 4.60195 6.74902H15.1505C15.3804 6.74902 15.583 6.93765 15.583 7.15167C15.583 7.36569 15.3804 7.55432 15.1505 7.55432H4.60195Z" fill="white"/>
</svg>
