<svg width="18" height="18" viewBox="0 0 18 18" fill="none" xmlns="http://www.w3.org/2000/svg">
<path d="M12.5 6.5H6.5C5.94772 6.5 5.5 6.94772 5.5 7.5V13.5C5.5 14.0523 5.94772 14.5 6.5 14.5H12.5C13.0523 14.5 13.5 14.0523 13.5 13.5V7.5C13.5 6.94772 13.0523 6.5 12.5 6.5Z" stroke="white" stroke-linecap="square" stroke-linejoin="round"/>
<path d="M7.5 6.5V5.5C7.5 5.23478 7.60536 4.98043 7.79289 4.79289C7.98043 4.60536 8.23478 4.5 8.5 4.5H14.5C14.7652 4.5 15.0196 4.60536 15.2071 4.79289C15.3946 4.98043 15.5 5.23478 15.5 5.5V11.5C15.5 11.7652 15.3946 12.0196 15.2071 12.2071C15.0196 12.3946 14.7652 12.5 14.5 12.5H13.5" stroke="white" stroke-linecap="square" stroke-linejoin="round"/>
</svg>
