<svg width="18" height="18" viewBox="0 0 18 18" fill="none" xmlns="http://www.w3.org/2000/svg">
<path d="M10.5 12.5V13.5C10.5 14.0304 10.2893 14.5391 9.91421 14.9142C9.53914 15.2893 9.03043 15.5 8.5 15.5H2.5C1.96957 15.5 1.46086 15.2893 1.08579 14.9142C0.710714 14.5391 0.5 14.0304 0.5 13.5V3.5C0.5 2.96957 0.710714 2.46086 1.08579 2.08579C1.46086 1.71071 1.96957 1.5 2.5 1.5H8.5C9.03043 1.5 9.53914 1.71071 9.91421 2.08579C10.2893 2.46086 10.5 2.96957 10.5 3.5V4.5" stroke="#323A3D" stroke-linecap="square" stroke-linejoin="round"/>
<path d="M6.5 8.5H16.5" stroke="#323A3D" stroke-linecap="round" stroke-linejoin="round"/>
<path d="M13.5 11.5L16.5 8.5L13.5 5.5" stroke="#323A3D" stroke-linecap="round" stroke-linejoin="round"/>
</svg>
