<svg width="20" height="20" viewBox="0 0 20 20" fill="none" xmlns="http://www.w3.org/2000/svg">
<path d="M16.5 1.5H2.5C1.94772 1.5 1.5 1.94772 1.5 2.5V16.5C1.5 17.0523 1.94772 17.5 2.5 17.5H16.5C17.0523 17.5 17.5 17.0523 17.5 16.5V2.5C17.5 1.94772 17.0523 1.5 16.5 1.5Z" stroke="#FF7C3F" stroke-linecap="round" stroke-linejoin="round"/>
<path d="M7.5 3.5H15.5M7.5 5.5H11.5M7.5 8.5H15.5M7.5 10.5H11.5M7.5 15.5H11.5M7.5 13.5H15.5" stroke="#FF7C3F" stroke-linecap="round" stroke-linejoin="round"/>
<path d="M4.5 5.5C3.95 5.5 3.5 5.05 3.5 4.5C3.5 3.95 3.95 3.5 4.5 3.5C5.05 3.5 5.5 3.95 5.5 4.5C5.5 5.05 5.05 5.5 4.5 5.5ZM5.5 9.5C5.5 8.95 5.05 8.5 4.5 8.5C3.95 8.5 3.5 8.95 3.5 9.5C3.5 10.05 3.95 10.5 4.5 10.5C5.05 10.5 5.5 10.05 5.5 9.5ZM5.5 14.5C5.5 13.95 5.05 13.5 4.5 13.5C3.95 13.5 3.5 13.95 3.5 14.5C3.5 15.05 3.95 15.5 4.5 15.5C5.05 15.5 5.5 15.05 5.5 14.5Z" stroke="#FF7C3F" stroke-linecap="round" stroke-linejoin="round"/>
</svg>
