<svg version="1.1" id="Layer_1" xmlns="http://www.w3.org/2000/svg" xmlns:xlink="http://www.w3.org/1999/xlink" x="0px" y="0px"
	 width="100%" viewBox="0 0 256 256" enable-background="new 0 0 256 256" xml:space="preserve">
<path fill="#FF7C3F" opacity="1.000000" stroke="none" 
	d="
M117.000000,21.000000 
	C146.328171,21.000000 175.156326,20.990770 203.984497,21.003490 
	C221.044876,21.011019 236.992752,36.952892 236.996292,54.011436 
	C237.006699,104.002480 237.006638,153.993515 236.996368,203.984558 
	C236.992859,221.044830 221.047043,236.992737 203.988495,236.996292 
	C153.997452,237.006683 104.006409,237.006638 54.015369,236.996353 
	C36.955132,236.992844 21.007265,221.047058 21.003710,203.988434 
	C20.993288,153.997391 20.993362,104.006348 21.003670,54.015308 
	C21.007187,36.955059 36.952991,21.014317 54.011631,21.003223 
	C74.841080,20.989677 95.670540,21.000000 117.000000,21.000000 
M209.292740,30.990131 
	C205.630463,30.326756 201.969788,29.096466 198.305649,29.086058 
	C152.167023,28.954983 106.026443,28.786888 59.889610,29.103104 
	C40.982403,29.232689 29.235884,40.983891 29.104315,59.866982 
	C28.784018,105.837181 28.829029,151.812057 29.081573,197.783096 
	C29.187111,216.994171 41.049942,228.791763 60.038967,228.908340 
	C106.009666,229.190521 151.984421,229.189819 197.955124,228.908722 
	C216.951141,228.792557 228.809540,216.992920 228.918213,197.789001 
	C229.173615,152.650848 228.970947,107.510246 229.016998,62.370701 
	C229.031601,48.054409 224.029282,36.885017 209.292740,30.990131 
z"/>
<path fill="#FF7C3F" opacity="1.000000" stroke="none" 
	d="
M184.667389,125.000320 
	C188.820389,124.609520 189.065125,126.895920 189.040726,129.719513 
	C189.013123,132.911072 187.050995,133.019287 184.693466,133.015244 
	C167.705002,132.986069 150.716431,132.999619 133.000000,132.999619 
	C133.000000,134.741425 133.000000,136.324112 133.000000,137.906784 
	C132.999985,153.237686 132.972931,168.568680 133.024033,183.899414 
	C133.033630,186.777496 133.110382,189.099121 129.013489,189.101105 
	C124.943497,189.103073 124.964233,186.831268 124.973595,183.926270 
	C125.027748,167.129974 125.000046,150.333405 125.000046,133.000000 
	C118.715103,133.000000 112.771568,133.000046 106.828041,133.000000 
	C95.663147,132.999908 84.497269,132.917633 73.333977,133.051361 
	C70.124809,133.089798 68.881004,132.058701 68.919273,128.745255 
	C68.957512,125.434929 70.612061,124.958496 73.341141,124.968613 
	C90.326157,125.031586 107.311523,125.000351 124.999992,125.000351 
	C124.999992,123.230850 124.999985,121.644768 124.999985,120.058678 
	C125.000000,104.727776 125.030975,89.396767 124.972786,74.066086 
	C124.961731,71.153244 124.958832,68.895805 129.021164,68.898903 
	C133.125702,68.902039 133.031296,71.237778 133.023193,74.108238 
	C132.975830,90.901329 132.999954,107.694626 132.999954,125.000053 
	C150.317200,125.000053 167.259171,125.000053 184.667389,125.000320 
z"/>
</svg>