<svg version="1.1" id="Layer_1" xmlns="http://www.w3.org/2000/svg" xmlns:xlink="http://www.w3.org/1999/xlink" x="0px" y="0px"
	 width="100%" viewBox="0 0 256 256" enable-background="new 0 0 256 256" xml:space="preserve">
<path fill="#FF7C3F" opacity="1.000000" stroke="none" 
	d="
M237.000000,74.000000 
	C237.000000,116.989449 236.625183,159.483734 237.174118,201.966095 
	C237.412460,220.411438 220.406906,237.365280 202.007538,237.172607 
	C153.358276,236.663147 104.696487,236.655426 56.047474,237.176163 
	C37.588715,237.373734 20.615854,220.407654 20.828909,202.021301 
	C21.352081,156.871902 20.993439,111.712379 21.017553,66.556931 
	C21.018894,64.044716 20.111952,60.971130 24.529009,60.940769 
	C27.594418,60.919697 29.115191,61.658947 29.058008,65.116875 
	C28.892729,75.111649 28.999962,85.110939 28.999979,95.108452 
	C29.000038,129.433258 28.898161,163.758591 29.070791,198.082535 
	C29.114574,206.787659 31.693827,214.699234 38.390388,220.983047 
	C44.227074,226.459961 51.299713,228.858337 58.856335,228.892746 
	C105.677071,229.105927 152.504379,229.399368 199.318359,228.797989 
	C217.355743,228.566284 228.555344,217.394379 228.791855,199.402985 
	C229.409454,152.422775 229.429092,105.423141 228.781067,58.443748 
	C228.533997,40.532722 217.279129,29.946468 199.161285,29.136719 
	C184.194901,28.467821 169.174789,28.981808 154.178589,29.016212 
	C151.378799,29.022636 148.915604,29.262875 148.899719,25.092590 
	C148.884521,21.101812 151.008102,20.954519 153.994293,20.966633 
	C170.989792,21.035568 187.990128,20.758617 204.980225,21.069357 
	C221.289719,21.367647 236.446564,36.698498 236.963989,53.006439 
	C237.180527,59.831139 236.999985,66.668442 237.000000,74.000000 
z"/>
<path fill="#FF7C3F" opacity="1.000000" stroke="none" 
	d="
M124.967590,87.370102 
	C124.034492,82.456741 123.417717,77.926590 122.170143,73.577377 
	C115.667641,50.908878 100.736053,36.519428 77.942657,31.232481 
	C68.927399,29.141384 59.311306,29.552095 49.956200,29.066061 
	C46.957874,28.910290 44.843781,28.831800 44.903389,24.870230 
	C44.958904,21.180485 46.899895,20.915874 49.716751,20.976681 
	C62.996372,21.263334 76.429764,19.639879 89.237831,24.956633 
	C112.328278,34.541702 127.031990,51.135372 131.934891,75.870132 
	C132.758987,80.027550 132.941360,84.365417 132.955429,88.621437 
	C133.043610,115.286423 133.000000,141.951843 133.000000,168.617126 
	C133.000000,170.215225 133.000000,171.813324 133.000000,174.616745 
	C137.133820,170.438293 140.458252,167.050415 143.812576,163.692398 
	C155.943771,151.547806 168.091019,139.419220 180.217239,127.269676 
	C182.498657,124.983879 185.039490,122.579712 187.985611,125.709335 
	C190.474838,128.353592 188.999374,131.411652 186.828842,133.596451 
	C169.094528,151.447372 151.293930,169.232697 133.451889,186.976013 
	C130.502304,189.909302 127.222733,189.683624 124.327881,186.799301 
	C106.620514,169.156235 88.956779,151.469406 71.280762,133.794891 
	C70.929703,133.443863 70.335251,133.080246 70.314026,132.697052 
	C70.180153,130.279266 69.192719,127.109543 70.341568,125.592209 
	C72.497818,122.744347 75.176941,124.665215 77.271080,126.765747 
	C84.801437,134.319061 92.363831,141.840454 99.890602,149.397324 
	C107.974709,157.513794 116.032303,165.656677 124.992905,174.686356 
	C124.992905,144.944260 124.992905,116.390526 124.967590,87.370102 
z"/>
</svg>