<svg version="1.1" id="Layer_1" xmlns="http://www.w3.org/2000/svg" xmlns:xlink="http://www.w3.org/1999/xlink" x="0px" y="0px"
	 width="100%" viewBox="0 0 400 400" enable-background="new 0 0 400 400" xml:space="preserve">
<path fill="#B44414" opacity="1.000000" stroke="none" 
	d="
M1.000000,197.468658 
	C9.800130,194.178467 11.746092,195.886856 12.042328,205.606644 
	C13.015862,237.549149 21.359835,267.407074 37.394836,295.146393 
	C46.431896,310.779785 57.018181,325.218964 70.165337,337.536163 
	C97.198227,362.862518 128.978165,379.677765 165.357971,386.572418 
	C179.918625,389.331909 195.125397,390.267059 209.951050,389.711243 
	C240.236130,388.575928 268.671265,379.984009 295.030304,364.693848 
	C310.207733,355.889862 324.278870,345.655121 336.379547,333.003662 
	C362.371796,305.828278 379.476898,273.661957 386.544495,236.784256 
	C389.364166,222.071594 390.293091,206.682465 389.699280,191.695709 
	C388.499786,161.420868 379.848450,133.006927 364.507355,106.668076 
	C354.989471,90.327003 343.878510,75.220688 329.887543,62.584736 
	C304.028046,39.229691 274.115662,23.127153 239.827164,16.152617 
	C228.033920,13.753777 215.861526,13.054123 203.821213,12.093672 
	C196.040924,11.473041 193.915375,8.714646 197.031860,1.360047 
	C206.687561,1.000000 216.375122,1.000000 226.609894,1.385536 
	C228.015854,2.161954 228.837891,2.715166 229.738953,2.918988 
	C240.539459,5.362068 251.526352,7.159565 262.125916,10.276999 
	C287.147278,17.636002 309.659973,30.279036 329.240723,47.206238 
	C347.460266,62.956722 363.618683,80.807442 375.332794,102.350166 
	C386.292053,122.504662 394.405945,143.501877 398.140472,166.175110 
	C398.637329,169.191895 400.024902,172.061981 401.000000,175.000000 
	C401.000000,192.687561 401.000000,210.375122 400.619568,228.598160 
	C399.828278,230.151886 399.218781,231.135864 399.036224,232.193527 
	C396.152405,248.898285 391.845123,265.238190 385.002441,280.742340 
	C371.083435,312.280029 350.625763,339.044403 323.234131,359.925751 
	C296.211151,380.526031 265.870422,394.180969 231.935898,399.097260 
	C230.887390,399.249176 229.975555,400.344513 229.000000,401.000000 
	C210.979111,401.000000 192.958206,401.000000 174.392471,400.616852 
	C172.992416,399.839203 172.174759,399.272522 171.276245,399.076660 
	C161.424561,396.928833 151.288956,395.677002 141.746216,392.588348 
	C100.205673,379.143188 65.744591,355.377716 39.740883,320.053864 
	C21.287634,294.986694 9.161968,267.091492 3.815605,236.322311 
	C3.320202,233.471222 1.959122,230.770523 1.000001,228.000000 
	C1.000000,217.979111 1.000000,207.958206 1.000000,197.468658 
z"/>
<path fill="#B44414" opacity="1.000000" stroke="none" 
	d="
M352.310669,108.683350 
	C364.207977,127.819954 372.081726,148.244934 375.669220,170.006943 
	C381.466400,205.173096 377.689362,239.315567 363.466919,272.349792 
	C350.042297,303.531006 328.798523,328.178589 301.489807,347.468414 
	C279.839844,362.761108 255.540970,372.610291 228.992310,376.034790 
	C219.801331,377.220337 210.534363,378.995758 201.345901,378.764099 
	C184.792236,378.346802 168.369492,376.277557 152.284775,371.711945 
	C128.761963,365.035034 107.252426,354.285248 88.715149,338.607880 
	C72.609184,324.986755 58.341503,309.417694 47.792095,290.725769 
	C37.568527,272.611176 30.415367,253.467010 26.608154,233.091034 
	C23.479877,216.348648 23.226690,199.475143 24.812199,182.499817 
	C26.845591,160.729248 32.853226,140.041641 42.900200,120.830269 
	C48.995846,109.174446 56.908146,98.354042 64.882622,87.823425 
	C75.696754,73.542938 89.270462,61.855167 104.397530,52.447319 
	C115.316055,45.656849 127.074959,39.979244 138.977219,35.058716 
	C163.535919,24.905878 189.543808,22.063211 215.746506,24.260876 
	C241.578476,26.427448 266.082672,33.920650 288.792328,47.069431 
	C304.038391,55.896839 317.906189,66.362434 329.608246,79.369141 
	C337.772339,88.443405 344.664886,98.661674 352.310669,108.683350 
M293.934570,200.036133 
	C297.559143,199.695114 301.181671,199.097458 304.808685,199.069214 
	C311.338562,199.018326 314.562408,204.303040 311.816223,210.312012 
	C310.642548,212.880127 309.313232,215.380386 307.982483,217.872955 
	C298.376373,235.866196 290.379547,254.139267 292.880249,275.460114 
	C294.761078,291.495972 288.326447,306.062805 283.115967,320.755585 
	C281.613800,324.991516 280.468903,329.354126 279.160217,333.658661 
	C279.610077,334.030487 280.059967,334.402283 280.509827,334.774109 
	C286.029205,330.958832 291.537354,327.127167 297.072784,323.335297 
	C299.796295,321.469635 300.222595,319.477600 298.859589,316.236633 
	C295.095978,307.287323 294.512939,298.225128 299.817017,289.504608 
	C302.917358,284.407349 306.161652,279.395325 309.167053,274.243378 
	C311.707886,269.887848 315.457581,267.703278 320.312927,266.754181 
	C326.422516,265.559937 330.349182,269.062897 329.566132,275.158020 
	C329.010559,279.482300 328.748291,283.844269 328.267944,289.153137 
	C329.611389,287.575317 330.533600,286.830444 331.022644,285.865967 
	C336.253235,275.550446 341.989227,265.442322 346.475616,254.808548 
	C355.571899,233.248276 357.050018,210.432465 355.855530,187.355530 
	C355.797974,186.243774 354.617950,184.881149 353.588043,184.192627 
	C351.405548,182.733551 348.917175,181.741638 346.661896,180.379868 
	C342.283081,177.735901 337.996674,174.939529 333.639038,172.259888 
	C327.003540,168.179474 318.489014,167.031555 314.347076,159.063370 
	C311.624054,153.824783 308.104156,149.403442 300.843445,151.896179 
	C298.255493,152.784683 295.295380,152.589157 292.505127,152.888443 
	C293.806976,154.031342 294.975433,153.952835 296.130615,154.043518 
	C307.613312,154.945023 312.435516,162.174316 308.813690,173.161957 
	C307.516357,177.097809 306.185364,181.045883 304.496552,184.821442 
	C303.308167,187.478363 301.770905,190.095856 299.879242,192.291397 
	C297.624420,194.908432 294.824341,197.055710 292.032166,199.697083 
	C292.019684,199.971420 292.007202,200.245743 291.994720,200.520065 
	C292.353210,200.375839 292.711731,200.231598 293.934570,200.036133 
M118.921043,211.588593 
	C115.267166,219.331039 117.329491,226.843430 119.650810,234.435364 
	C125.361977,253.113815 139.911621,263.753113 159.310730,262.833405 
	C162.106537,262.700836 164.850952,260.993805 167.570175,259.894257 
	C169.675461,259.042969 171.637009,257.376953 173.777832,257.146942 
	C188.237564,255.593338 198.481445,262.626160 201.944855,276.655701 
	C203.270248,282.024628 205.467392,286.541229 209.563889,290.312744 
	C214.020889,294.416138 217.641769,299.609863 215.857132,305.760254 
	C212.391876,317.702484 218.468567,324.954926 226.776535,331.636841 
	C228.973480,333.403778 230.661362,335.825775 232.920105,337.489227 
	C237.686356,340.999237 242.452148,344.618835 247.634033,347.425629 
	C253.104507,350.388763 263.750549,345.446808 265.711945,339.575958 
	C270.038391,326.626312 274.320740,313.661926 278.634460,300.708008 
	C282.006744,290.581146 282.996429,280.306244 281.272797,269.697815 
	C280.694794,266.140564 280.581665,262.241760 281.401733,258.769684 
	C284.845642,244.188675 288.628357,229.680450 296.169037,216.504395 
	C297.003052,215.047089 297.490814,213.391602 298.376892,211.254669 
	C293.167450,211.494064 288.758453,212.475861 284.655884,211.742737 
	C270.997253,209.301926 257.209625,206.672211 251.319977,191.312851 
	C250.677765,189.638062 249.386749,188.211197 248.390930,186.673050 
	C245.994125,182.971085 245.077072,179.154449 248.777832,175.856964 
	C252.441772,172.592300 256.191162,173.776520 259.583130,176.605209 
	C263.292419,179.698502 266.857697,182.966782 270.607544,186.008682 
	C277.718109,191.776764 285.965363,191.773331 291.426880,184.691025 
	C294.942078,180.132614 296.507294,174.016296 298.558105,168.455002 
	C298.800140,167.798660 296.738190,165.504227 295.471710,165.230560 
	C291.926849,164.464600 288.245544,164.150848 284.606415,164.039444 
	C277.880676,163.833572 273.959656,159.615128 271.077545,154.410568 
	C268.958374,150.583740 270.657715,147.136887 274.422363,145.249969 
	C276.749359,144.083618 279.438232,143.423157 282.037842,143.060577 
	C287.943329,142.236923 293.902832,141.810211 299.824554,141.091675 
	C314.032928,139.367645 314.005280,139.353989 322.197205,151.143219 
	C323.606201,153.170914 324.943390,155.667892 326.958344,156.776642 
	C333.041199,160.123810 339.441528,162.893982 346.561768,166.291702 
	C344.842834,158.253143 343.288391,151.003510 341.743286,143.751877 
	C340.514496,137.984680 340.652222,131.437134 337.858521,126.570625 
	C317.152252,90.501190 287.650330,64.609901 247.399841,52.476143 
	C236.200836,49.100140 224.298904,48.023129 212.692230,46.051697 
	C209.089859,45.439819 207.030289,46.581341 207.800140,50.991734 
	C208.802139,56.731995 207.704910,61.827469 202.299973,65.450592 
	C201.157562,66.216385 200.822296,68.843643 200.866577,70.594223 
	C200.981354,75.132156 198.509232,77.637360 194.075546,76.683617 
	C191.318970,76.090645 188.669510,74.436508 185.950714,74.385239 
	C183.072586,74.330971 178.850586,74.657509 177.524734,76.489197 
	C173.580063,81.938828 170.769623,88.209457 167.816238,93.610161 
	C169.671646,96.022659 172.063065,97.848076 172.679337,100.148964 
	C175.858765,112.019737 167.298935,122.951897 154.997940,122.865288 
	C151.560333,122.841087 148.125824,121.859917 144.696777,121.277260 
	C141.188644,120.681152 139.420181,121.733528 140.594162,125.558380 
	C141.766602,129.378159 143.065399,133.159912 144.196091,136.991592 
	C146.334747,144.239075 145.153763,147.294556 139.571899,152.269775 
	C137.892593,153.766556 137.042618,156.387238 136.318329,158.654587 
	C136.072815,159.423096 137.143982,161.237747 138.028412,161.623901 
	C140.641052,162.764648 145.177521,160.067459 146.133270,157.306274 
	C147.816605,152.442993 149.244949,147.435455 151.504410,142.844849 
	C153.403534,138.986298 156.600067,136.164780 161.618576,137.487854 
	C166.864365,138.870850 172.115494,140.233551 177.510513,141.643326 
	C181.788620,137.391373 183.962723,136.799164 189.688629,139.502472 
	C193.641281,141.368576 196.795197,140.947403 199.297409,137.435333 
	C201.883148,133.806015 204.628708,130.209427 206.616943,126.253052 
	C210.335617,118.853363 215.701736,113.728386 224.136734,113.183952 
	C231.804276,112.689064 237.652649,117.410316 243.123962,121.904526 
	C246.004944,124.271019 245.790497,128.535995 242.882889,130.824570 
	C236.924362,135.514557 230.379166,139.453156 224.170425,143.835648 
	C222.675232,144.891022 221.550674,146.471512 220.255676,147.810516 
	C222.112564,148.113831 224.164322,149.086700 225.794815,148.612152 
	C236.642044,145.455002 238.768906,146.533295 241.758408,157.440598 
	C241.978516,158.243698 242.193176,159.050140 242.362427,159.864990 
	C243.421234,164.962555 241.497696,168.281342 236.470047,169.737717 
	C233.757202,170.523575 230.990082,171.158951 228.213455,171.681595 
	C212.817322,174.579590 197.804993,179.466232 181.658295,173.464462 
	C173.751526,170.525513 164.513077,169.898209 155.881470,173.866058 
	C138.982544,181.634262 126.282166,193.419876 118.921043,211.588593 
M99.158524,116.837280 
	C94.126930,115.231918 92.468987,111.299255 92.018723,106.517914 
	C91.604881,102.123390 91.166733,97.731155 90.739288,93.337914 
	C90.293373,93.122597 89.847458,92.907280 89.401535,92.691963 
	C84.030090,99.346146 78.658646,106.000320 73.509758,112.378792 
	C76.540344,115.269424 78.915016,117.341530 81.065384,119.624886 
	C85.825104,124.678978 87.255371,133.929550 84.373726,140.109818 
	C82.127457,144.927383 76.650093,148.628922 72.085320,147.861572 
	C66.971207,147.001892 64.064224,143.604782 62.918468,138.576279 
	C62.645618,137.378784 61.928978,136.282410 61.001659,134.214554 
	C59.710674,136.735001 58.707977,138.393021 57.978626,140.163651 
	C51.816605,155.123047 47.453262,170.646835 46.157310,186.740021 
	C43.703323,217.213654 49.496891,246.234070 63.265079,273.618225 
	C65.771133,278.602631 68.740601,281.884644 75.130417,281.136169 
	C81.457581,280.395050 86.322517,283.653961 88.146973,289.727783 
	C89.727631,294.989929 93.402802,295.759369 97.874680,297.233765 
	C109.768196,301.155060 121.101112,311.373230 108.971535,324.929230 
	C108.806389,325.113800 108.915833,325.544037 108.869850,326.319824 
	C146.020401,352.914825 187.080917,361.891174 232.620667,353.451752 
	C225.620667,346.333710 219.440689,339.552399 212.725586,333.350464 
	C204.814789,326.044250 202.321777,317.613098 204.967911,307.215454 
	C205.511185,305.080811 204.815323,301.723663 203.366165,300.148468 
	C197.560577,293.837982 192.325485,287.394196 191.219238,278.502197 
	C191.099457,277.539429 190.676071,276.583130 190.246277,275.695129 
	C186.455292,267.862671 179.047470,265.875763 171.706635,270.476013 
	C169.791794,271.675964 167.424561,272.933441 165.299072,272.877380 
	C157.766403,272.678619 150.047607,272.828461 142.761642,271.212585 
	C118.614365,265.857178 108.435066,245.984421 106.172264,222.429886 
	C104.980598,210.025345 111.503395,199.682663 118.550468,190.118607 
	C122.820930,184.322861 128.010849,179.204620 132.786331,173.783539 
	C123.506599,166.493698 122.371117,152.949066 130.978073,144.816971 
	C133.930588,142.027359 133.698700,139.875122 132.858475,136.595154 
	C131.307999,130.542557 129.774475,124.405510 129.181290,118.212898 
	C128.699356,113.181816 132.091858,110.007706 137.165802,110.120102 
	C141.937744,110.225807 146.681412,111.278137 151.458694,111.598579 
	C154.198517,111.782349 156.980453,111.338318 159.743423,111.176918 
	C152.429596,105.523071 151.026566,98.661835 155.667587,90.958000 
	C159.690292,84.280495 163.732056,77.610672 167.570282,70.827057 
	C170.371872,65.875572 174.666611,62.690079 180.058212,63.233376 
	C186.709702,63.903633 191.692963,61.822193 195.201935,56.693207 
	C196.536163,54.743004 196.655014,51.437790 196.165924,48.981503 
	C195.916260,47.727615 192.958145,45.969261 191.462952,46.174877 
	C180.984924,47.615833 170.548203,49.400887 160.161240,51.402622 
	C158.917419,51.642326 157.310364,53.759018 157.143448,55.157528 
	C156.505814,60.499229 154.160706,64.431854 149.559387,67.280731 
	C143.623642,70.955811 139.693741,75.571426 140.796509,83.490417 
	C141.389740,87.750519 139.391037,91.618950 135.367874,94.502220 
	C128.230270,99.617516 121.575645,105.401581 114.620445,110.778427 
	C110.313675,114.107826 106.162460,118.010040 99.158524,116.837280 
M143.268097,58.421158 
	C143.695831,57.869057 144.123581,57.316959 144.551315,56.764858 
	C144.282471,56.367455 144.013626,55.970051 143.744766,55.572643 
	C138.100906,58.540424 131.423035,60.443169 127.034424,64.703888 
	C118.622246,72.870941 111.404030,82.289474 103.906944,91.367561 
	C100.541084,95.443237 101.629524,99.884315 103.968132,105.000595 
	C111.661430,99.106560 118.811737,93.511467 126.100883,88.103516 
	C128.895584,86.030075 130.544754,83.592842 129.927155,80.102036 
	C128.458221,71.799263 131.986649,66.058052 138.881317,61.877312 
	C140.290237,61.022976 141.501160,59.842136 143.268097,58.421158 
M193.867172,151.795761 
	C191.331314,152.081772 188.005051,151.475281 186.441910,152.859619 
	C183.999283,155.022827 182.750626,158.534164 181.019485,161.435226 
	C196.208313,166.454361 216.274338,165.933701 224.174347,161.084183 
	C221.163773,160.098099 216.246216,159.778198 213.369293,157.190002 
	C210.360794,154.483398 209.314499,149.595718 207.760818,146.385406 
	C203.802307,148.051239 199.231232,149.974838 193.867172,151.795761 
M307.813385,309.500061 
	C310.060791,312.111664 310.355560,309.305206 311.006317,308.232819 
	C315.726074,300.454956 318.288971,292.130127 316.928558,282.155670 
	C315.071442,285.293365 313.643158,288.070404 311.878174,290.613770 
	C308.025421,296.165588 305.742035,302.015839 307.813385,309.500061 
M101.066177,311.406189 
	C96.737450,309.416046 92.408730,307.425903 88.080009,305.435760 
	C87.685013,306.056702 87.290016,306.677673 86.895020,307.298615 
	C89.959785,310.374390 92.887268,313.610138 96.172150,316.429474 
	C97.170082,317.285950 99.526268,317.669067 100.604683,317.076233 
	C102.467606,316.052185 103.993423,314.125366 101.066177,311.406189 
M164.976685,151.007828 
	C163.495010,148.676483 161.348709,147.951019 160.044662,150.594345 
	C158.465118,153.796127 157.821991,157.459885 156.627304,161.407257 
	C160.836380,161.107819 163.728714,160.902054 166.148911,160.729874 
	C165.726913,157.419800 165.363281,154.567413 164.976685,151.007828 
M220.476883,125.812920 
	C218.690048,128.245056 216.903214,130.677200 214.614716,133.792175 
	C222.031509,134.232468 226.183090,130.838806 230.412918,126.661934 
	C227.194214,124.349052 224.416855,122.756447 220.476883,125.812920 
z"/>
<path fill="#FF7C3F" opacity="1.000000" stroke="none" 
	d="
M119.067421,211.224884 
	C126.282166,193.419876 138.982544,181.634262 155.881470,173.866058 
	C164.513077,169.898209 173.751526,170.525513 181.658295,173.464462 
	C197.804993,179.466232 212.817322,174.579590 228.213455,171.681595 
	C230.990082,171.158951 233.757202,170.523575 236.470047,169.737717 
	C241.497696,168.281342 243.421234,164.962555 242.362427,159.864990 
	C242.193176,159.050140 241.978516,158.243698 241.758408,157.440598 
	C238.768906,146.533295 236.642044,145.455002 225.794815,148.612152 
	C224.164322,149.086700 222.112564,148.113831 220.255676,147.810516 
	C221.550674,146.471512 222.675232,144.891022 224.170425,143.835648 
	C230.379166,139.453156 236.924362,135.514557 242.882889,130.824570 
	C245.790497,128.535995 246.004944,124.271019 243.123962,121.904526 
	C237.652649,117.410316 231.804276,112.689064 224.136734,113.183952 
	C215.701736,113.728386 210.335617,118.853363 206.616943,126.253052 
	C204.628708,130.209427 201.883148,133.806015 199.297409,137.435333 
	C196.795197,140.947403 193.641281,141.368576 189.688629,139.502472 
	C183.962723,136.799164 181.788620,137.391373 177.510513,141.643326 
	C172.115494,140.233551 166.864365,138.870850 161.618576,137.487854 
	C156.600067,136.164780 153.403534,138.986298 151.504410,142.844849 
	C149.244949,147.435455 147.816605,152.442993 146.133270,157.306274 
	C145.177521,160.067459 140.641052,162.764648 138.028412,161.623901 
	C137.143982,161.237747 136.072815,159.423096 136.318329,158.654587 
	C137.042618,156.387238 137.892593,153.766556 139.571899,152.269775 
	C145.153763,147.294556 146.334747,144.239075 144.196091,136.991592 
	C143.065399,133.159912 141.766602,129.378159 140.594162,125.558380 
	C139.420181,121.733528 141.188644,120.681152 144.696777,121.277260 
	C148.125824,121.859917 151.560333,122.841087 154.997940,122.865288 
	C167.298935,122.951897 175.858765,112.019737 172.679337,100.148964 
	C172.063065,97.848076 169.671646,96.022659 167.816238,93.610161 
	C170.769623,88.209457 173.580063,81.938828 177.524734,76.489197 
	C178.850586,74.657509 183.072586,74.330971 185.950714,74.385239 
	C188.669510,74.436508 191.318970,76.090645 194.075546,76.683617 
	C198.509232,77.637360 200.981354,75.132156 200.866577,70.594223 
	C200.822296,68.843643 201.157562,66.216385 202.299973,65.450592 
	C207.704910,61.827469 208.802139,56.731995 207.800140,50.991734 
	C207.030289,46.581341 209.089859,45.439819 212.692230,46.051697 
	C224.298904,48.023129 236.200836,49.100140 247.399841,52.476143 
	C287.650330,64.609901 317.152252,90.501190 337.858521,126.570625 
	C340.652222,131.437134 340.514496,137.984680 341.743286,143.751877 
	C343.288391,151.003510 344.842834,158.253143 346.561768,166.291702 
	C339.441528,162.893982 333.041199,160.123810 326.958344,156.776642 
	C324.943390,155.667892 323.606201,153.170914 322.197205,151.143219 
	C314.005280,139.353989 314.032928,139.367645 299.824554,141.091675 
	C293.902832,141.810211 287.943329,142.236923 282.037842,143.060577 
	C279.438232,143.423157 276.749359,144.083618 274.422363,145.249969 
	C270.657715,147.136887 268.958374,150.583740 271.077545,154.410568 
	C273.959656,159.615128 277.880676,163.833572 284.606415,164.039444 
	C288.245544,164.150848 291.926849,164.464600 295.471710,165.230560 
	C296.738190,165.504227 298.800140,167.798660 298.558105,168.455002 
	C296.507294,174.016296 294.942078,180.132614 291.426880,184.691025 
	C285.965363,191.773331 277.718109,191.776764 270.607544,186.008682 
	C266.857697,182.966782 263.292419,179.698502 259.583130,176.605209 
	C256.191162,173.776520 252.441772,172.592300 248.777832,175.856964 
	C245.077072,179.154449 245.994125,182.971085 248.390930,186.673050 
	C249.386749,188.211197 250.677765,189.638062 251.319977,191.312851 
	C257.209625,206.672211 270.997253,209.301926 284.655884,211.742737 
	C288.758453,212.475861 293.167450,211.494064 298.376892,211.254669 
	C297.490814,213.391602 297.003052,215.047089 296.169037,216.504395 
	C288.628357,229.680450 284.845642,244.188675 281.401733,258.769684 
	C280.581665,262.241760 280.694794,266.140564 281.272797,269.697815 
	C282.996429,280.306244 282.006744,290.581146 278.634460,300.708008 
	C274.320740,313.661926 270.038391,326.626312 265.711945,339.575958 
	C263.750549,345.446808 253.104507,350.388763 247.634033,347.425629 
	C242.452148,344.618835 237.686356,340.999237 232.920105,337.489227 
	C230.661362,335.825775 228.973480,333.403778 226.776535,331.636841 
	C218.468567,324.954926 212.391876,317.702484 215.857132,305.760254 
	C217.641769,299.609863 214.020889,294.416138 209.563889,290.312744 
	C205.467392,286.541229 203.270248,282.024628 201.944855,276.655701 
	C198.481445,262.626160 188.237564,255.593338 173.777832,257.146942 
	C171.637009,257.376953 169.675461,259.042969 167.570175,259.894257 
	C164.850952,260.993805 162.106537,262.700836 159.310730,262.833405 
	C139.911621,263.753113 125.361977,253.113815 119.650810,234.435364 
	C117.329491,226.843430 115.267166,219.331039 119.067421,211.224884 
z"/>
<path fill="#FF7C3F" opacity="1.000000" stroke="none" 
	d="
M143.035736,58.616478 
	C141.501160,59.842136 140.290237,61.022976 138.881317,61.877312 
	C131.986649,66.058052 128.458221,71.799263 129.927155,80.102036 
	C130.544754,83.592842 128.895584,86.030075 126.100883,88.103516 
	C118.811737,93.511467 111.661430,99.106560 103.968132,105.000595 
	C101.629524,99.884315 100.541084,95.443237 103.906944,91.367561 
	C111.404030,82.289474 118.622246,72.870941 127.034424,64.703888 
	C131.423035,60.443169 138.100906,58.540424 143.744766,55.572643 
	C144.013626,55.970051 144.282471,56.367455 144.551315,56.764858 
	C144.123581,57.316959 143.695831,57.869057 143.035736,58.616478 
z"/>
<path fill="#FF7C3F" opacity="1.000000" stroke="none" 
	d="
M307.675140,309.187805 
	C305.742035,302.015839 308.025421,296.165588 311.878174,290.613770 
	C313.643158,288.070404 315.071442,285.293365 316.928558,282.155670 
	C318.288971,292.130127 315.726074,300.454956 311.006317,308.232819 
	C310.355560,309.305206 310.060791,312.111664 307.675140,309.187805 
z"/>
<path fill="#FF7C3F" opacity="1.000000" stroke="none" 
	d="
M101.336182,311.643250 
	C103.993423,314.125366 102.467606,316.052185 100.604683,317.076233 
	C99.526268,317.669067 97.170082,317.285950 96.172150,316.429474 
	C92.887268,313.610138 89.959785,310.374390 86.895020,307.298615 
	C87.290016,306.677673 87.685013,306.056702 88.080009,305.435760 
	C92.408730,307.425903 96.737450,309.416046 101.336182,311.643250 
z"/>

</svg>